<svg version="1.1" id="Layer_1" xmlns="http://www.w3.org/2000/svg" xmlns:xlink="http://www.w3.org/1999/xlink" x="0px" y="0px"
	 width="100%" viewBox="0 0 720 796" enable-background="new 0 0 720 796" xml:space="preserve">
<path fill="none" opacity="1.000000" stroke="#000000" stroke-linecap="round" stroke-linejoin="round" stroke-width="3.000000"
	d="
M574.000000,472.000000 
	C580.245544,473.500458 586.619507,473.652924 592.992981,474.099731 
	C600.589844,474.632233 608.201172,475.011810 615.554871,477.858185 
	C621.352844,480.102356 626.280334,482.989838 630.027100,487.979675 
	C633.229553,492.244629 636.630920,496.362549 640.006470,500.494690 
	C651.495972,514.559265 651.669189,531.250854 641.852112,547.410156 
	C629.972107,566.964966 618.372803,586.788147 603.044556,604.039551 
	C597.638306,610.124146 594.263489,617.472412 593.117493,625.516724 
	C592.421997,630.398804 594.264587,635.088928 596.487244,639.506409 
	C598.747681,643.998962 601.271851,648.393555 602.005920,653.499146 
	C602.847107,659.349854 601.736938,664.959229 600.000000,670.500000 
"/>
<path fill="none" opacity="1.000000" stroke="#000000" stroke-linecap="round" stroke-linejoin="round" stroke-width="3.000000"
	d="
M424.500000,375.500000 
	C430.500000,375.287506 436.479523,375.147522 442.505157,375.320038 
	C450.144196,375.538818 457.427338,372.696106 464.462952,369.906525 
	C470.502228,367.511993 476.466827,367.621521 482.479919,369.082642 
	C485.761627,369.880066 487.763336,372.513580 486.928070,375.982697 
	C485.249939,382.952454 486.345825,390.833221 480.671204,396.108887 
	C487.965454,404.043701 496.055450,410.992096 503.838928,418.130463 
	C512.711426,426.267578 520.306885,435.679199 529.858093,443.180695 
	C537.209229,448.954315 541.827515,457.407898 541.837708,467.000183 
	C541.850647,479.145813 538.162048,490.093445 528.560608,498.568665 
	C522.382080,504.022400 518.137085,511.496338 510.521393,515.540283 
	C500.804749,520.699890 490.820312,525.274109 480.454315,528.868225 
	C476.230896,530.332581 471.512695,530.759216 466.996826,530.893982 
	C461.142548,531.068665 455.406647,532.619812 449.495331,532.048279 
	C446.224213,531.731995 442.988373,532.295959 439.925262,530.104492 
	C437.525085,528.387268 434.301849,530.202148 431.500000,529.500000 
"/>
<path fill="none" opacity="1.000000" stroke="#000000" stroke-linecap="round" stroke-linejoin="round" stroke-width="3.000000"
	d="
M544.500000,316.500000 
	C535.366150,318.472321 526.272034,318.243134 516.975098,317.228149 
	C511.132202,316.590271 505.190002,316.187256 499.534576,314.853363 
	C488.514771,312.254150 481.283722,305.120667 476.861877,294.557831 
	C474.084900,287.924286 471.267059,281.234833 466.590393,275.427185 
	C458.755188,265.697113 448.641479,261.367676 436.499481,261.017975 
	C431.495850,260.873840 426.480072,260.735565 421.500000,261.500000 
"/>
<path fill="none" opacity="1.000000" stroke="#000000" stroke-linecap="round" stroke-linejoin="round" stroke-width="3.000000"
	d="
M346.500000,316.000000 
	C330.000000,333.333344 313.432709,350.603241 297.017426,368.016418 
	C277.443573,388.780151 258.000366,409.666992 238.497833,430.497986 
	C238.014847,431.013885 237.549698,431.565094 236.992584,431.990265 
	C227.426559,439.290466 223.291656,450.107452 218.500000,460.500000 
"/>
<path fill="none" opacity="1.000000" stroke="#000000" stroke-linecap="round" stroke-linejoin="round" stroke-width="3.000000"
	d="
M545.500000,483.500000 
	C545.514526,493.196289 544.708130,502.687897 540.063354,511.533264 
	C538.130676,515.213745 535.804504,518.509460 532.989502,521.490112 
	C526.094971,528.790161 519.975342,537.047058 510.938385,541.884888 
	C506.289307,544.373779 500.851318,547.466736 496.035614,547.068970 
	C489.183044,546.502869 482.894196,548.338684 476.542572,549.285522 
	C465.379730,550.949524 455.197540,548.579163 445.016479,544.953735 
	C441.991547,543.876465 439.341583,541.788269 436.000000,541.500000 
"/>
<path fill="none" opacity="1.000000" stroke="#000000" stroke-linecap="round" stroke-linejoin="round" stroke-width="3.000000"
	d="
M175.000000,412.500000 
	C175.817505,420.157959 173.094070,426.910461 168.871475,432.909546 
	C166.614838,436.115570 162.241638,436.175354 158.518265,437.075531 
	C151.889496,438.678192 145.153244,437.820923 137.895477,439.444305 
	C141.406723,429.727264 146.533493,422.142029 151.608627,414.572845 
	C152.510986,413.227020 154.836197,412.126282 156.499466,412.133026 
	C161.418304,412.152924 163.801956,409.348572 166.063400,405.537628 
	C170.873291,397.432129 176.602417,389.996094 183.469864,383.468292 
	C184.871078,382.136383 187.100571,381.127014 186.365677,377.948578 
	C174.808685,378.424835 163.126740,377.108398 151.460800,379.832123 
	C147.035370,380.865356 142.166428,380.028687 137.500092,379.988892 
	C134.832596,379.966156 133.014328,380.772095 130.839035,382.829834 
	C125.591476,387.794006 119.170059,390.908295 111.497238,390.023987 
	C110.835915,389.947784 110.000687,389.669403 109.367355,390.733612 
	C108.574608,394.187012 108.008331,397.947083 106.561874,401.525024 
	C105.471001,404.223419 103.676125,405.047516 100.999794,405.021423 
	C94.333763,404.956421 87.666664,405.002075 81.000000,404.998627 
	C79.208145,404.997711 77.013283,405.332306 76.580933,402.985107 
	C76.203163,400.934174 75.892876,398.591064 78.001526,397.002014 
	C81.329117,394.494385 84.566193,391.850525 88.019569,389.529114 
	C97.017632,383.480408 105.006058,376.284851 112.500000,368.500000 
"/>
<path fill="none" opacity="1.000000" stroke="#000000" stroke-linecap="round" stroke-linejoin="round" stroke-width="3.000000"
	d="
M358.500000,367.000000 
	C357.500000,373.166656 356.488129,379.331451 355.503601,385.500580 
	C354.652893,390.831146 353.649811,396.145660 353.036713,401.504211 
	C351.588959,414.157776 350.011932,426.811371 349.143829,439.509827 
	C348.745941,445.329987 347.796570,451.226776 348.170013,456.988983 
	C348.768402,466.222229 347.383759,475.359314 347.043976,484.483032 
	C346.699158,493.742157 345.710449,503.189209 344.500000,512.500000 
"/>
<path fill="none" opacity="1.000000" stroke="#000000" stroke-linecap="round" stroke-linejoin="round" stroke-width="3.000000"
	d="
M503.000000,418.500000 
	C501.181274,419.853943 499.437775,418.685120 498.033875,417.936462 
	C484.699677,410.825684 470.971375,412.288849 456.990021,415.455933 
	C431.605286,421.206055 413.502563,436.834686 399.009613,457.506744 
	C396.940369,460.458221 395.404358,463.898438 392.919250,466.420441 
	C387.009064,472.418488 375.226318,473.577209 367.550934,468.916107 
	C363.692902,466.573151 359.893127,464.111481 358.271057,459.073730 
	C357.386841,456.327454 354.166656,454.333344 352.000000,452.000000 
"/>
<path fill="none" opacity="1.000000" stroke="#000000" stroke-linecap="round" stroke-linejoin="round" stroke-width="3.000000"
	d="
M604.500000,228.500000 
	C603.513489,224.531906 603.083557,220.454788 602.223999,216.451904 
	C600.420776,208.054413 595.361206,203.164124 587.986145,200.032578 
	C584.273010,198.455902 580.592163,196.860687 576.949646,195.104477 
	C569.685913,191.602295 561.972473,191.618896 554.521484,194.554581 
	C543.806641,198.776245 534.174255,204.395096 526.837341,213.874115 
	C521.924194,220.221771 515.928772,226.012268 507.502930,228.012375 
	C506.255096,228.308609 505.236481,229.121124 505.544189,230.490067 
	C506.039215,232.692566 504.435638,234.433716 504.500000,236.500000 
"/>
<path fill="none" opacity="1.000000" stroke="#000000" stroke-linecap="round" stroke-linejoin="round" stroke-width="3.000000"
	d="
M348.500000,319.500000 
	C343.166687,325.500000 337.929718,331.589081 332.481018,337.482452 
	C318.871887,352.202332 305.076660,366.750702 291.521881,381.520081 
	C272.934357,401.773102 254.501984,422.168457 235.986511,442.487701 
	C235.593719,442.918762 235.000000,443.166687 234.500000,443.500000 
"/>
<path fill="none" opacity="1.000000" stroke="#000000" stroke-linecap="round" stroke-linejoin="round" stroke-width="3.000000"
	d="
M348.000000,366.000000 
	C346.713806,368.197205 347.126709,370.629456 346.981750,372.998871 
	C346.598236,379.267822 342.674591,384.636383 342.461395,390.998718 
	C342.208313,398.550446 340.543365,405.953888 339.859497,413.487244 
	C338.378235,429.804596 338.278259,446.202332 336.799316,462.481781 
	C335.633026,475.319427 334.443146,488.196136 333.355499,501.030121 
	C332.709045,508.658051 330.900909,516.599609 333.751892,524.588562 
	C335.176361,528.580200 334.229340,533.514771 333.940216,537.996155 
	C333.601990,543.239136 334.859497,548.319580 335.059937,553.497681 
	C335.087372,554.206787 335.924774,554.884521 337.200287,556.794189 
	C339.576996,542.434265 342.439789,529.313599 346.500000,516.500000 
"/>
<path fill="none" opacity="1.000000" stroke="#000000" stroke-linecap="round" stroke-linejoin="round" stroke-width="3.000000"
	d="
M337.500000,401.500000 
	C330.993561,405.330109 329.588379,411.821930 329.057495,418.504578 
	C328.089172,430.694153 325.426056,442.570343 323.005676,454.501160 
	C320.978088,464.495544 319.322968,474.580109 316.870209,484.467804 
	C315.550201,489.789001 314.694580,495.172760 313.500000,500.500000 
"/>
<path fill="none" opacity="1.000000" stroke="#000000" stroke-linecap="round" stroke-linejoin="round" stroke-width="3.000000"
	d="
M408.000000,589.000000 
	C396.594025,598.903809 386.031860,609.721863 374.784851,619.817322 
	C367.479218,626.375000 360.353271,632.896851 351.973663,637.956360 
	C348.187469,640.242432 347.263855,644.541626 344.449829,647.871826 
	C338.971252,643.505737 334.676178,646.962646 330.532410,650.043579 
	C325.397095,653.861633 320.387970,657.869690 315.534576,662.040283 
	C311.478973,665.525269 312.284332,668.517517 317.505585,669.980042 
	C322.748199,671.448486 328.211365,671.508240 333.488220,670.898010 
	C349.630493,669.031311 350.544647,668.134949 361.500000,649.500000 
	C368.701416,654.464172 375.413696,652.575317 380.032867,644.518860 
	C382.846954,639.610718 386.545441,635.676270 391.411865,632.370239 
	C408.580566,620.706726 425.317505,608.407654 443.000000,597.500000 
"/>
<path fill="none" opacity="1.000000" stroke="#000000" stroke-linecap="round" stroke-linejoin="round" stroke-width="3.000000"
	d="
M294.500000,496.500000 
	C288.119568,499.763275 281.521942,502.432556 274.502930,504.013031 
	C269.795349,505.073029 266.376678,507.666107 264.940216,512.622681 
	C269.588959,519.640198 276.943817,518.493347 283.483307,517.834290 
	C295.325897,516.640747 304.795685,509.313538 314.952484,503.910675 
	C316.710205,502.975677 318.702911,501.258881 317.500000,498.500000 
"/>
<path fill="none" opacity="1.000000" stroke="#000000" stroke-linecap="round" stroke-linejoin="round" stroke-width="3.000000"
	d="
M420.500000,476.500000 
	C409.833344,479.166656 399.148865,481.765442 388.513733,484.552429 
	C386.144745,485.173218 383.833923,484.918518 381.499390,484.975220 
	C376.895386,485.087006 375.523987,486.349030 374.986115,490.998383 
	C374.322571,496.733826 375.511414,502.395538 376.254211,507.966095 
	C376.736847,511.585663 377.837708,515.364868 378.352264,519.020813 
	C380.117706,531.564026 388.795349,539.978027 396.228882,548.807312 
	C401.681885,555.284119 403.468872,562.264587 403.919525,570.004700 
	C404.249786,575.677246 405.260956,581.138062 407.013397,586.495605 
	C407.641724,588.416504 408.669128,588.818665 410.000000,587.000000 
"/>
<path fill="none" opacity="1.000000" stroke="#000000" stroke-linecap="round" stroke-linejoin="round" stroke-width="3.000000"
	d="
M476.500000,395.500000 
	C474.676208,387.161896 467.575104,384.787964 460.977600,382.054077 
	C455.107666,379.621674 449.155090,381.936462 443.543701,383.194916 
	C435.490753,385.000946 427.765991,388.199188 421.501587,394.001709 
	C421.156006,394.321838 420.868347,394.713379 420.494873,394.993134 
	C411.935913,401.403290 404.664429,400.985901 400.486084,388.004486 
	C400.260345,387.303192 399.833313,386.666656 399.500000,386.000000 
"/>
<path fill="none" opacity="1.000000" stroke="#000000" stroke-linecap="round" stroke-linejoin="round" stroke-width="3.000000"
	d="
M548.500000,478.500000 
	C549.488770,481.032288 551.688904,482.001434 553.984131,483.035248 
	C560.250732,485.857880 565.699890,489.671722 569.034180,495.981934 
	C569.977234,497.766754 571.069092,499.627594 572.543457,500.951630 
	C581.323975,508.837128 580.230530,512.442200 575.335876,522.419495 
	C572.167297,528.878296 567.340210,534.453918 561.539856,539.050293 
	C558.317871,541.603455 555.539062,544.709412 552.492493,547.491760 
	C544.242798,555.026245 540.864868,564.524475 540.973450,575.500244 
	C540.993225,577.498413 540.666687,579.500000 540.500000,581.500000 
"/>
<path fill="none" opacity="1.000000" stroke="#000000" stroke-linecap="round" stroke-linejoin="round" stroke-width="3.000000"
	d="
M380.000000,255.000000 
	C377.237610,251.088104 377.428406,246.089127 375.111267,241.937897 
	C373.834808,239.651047 372.854004,237.359497 370.728394,236.000000 
	C370.166656,236.000000 369.766632,235.877716 369.509735,236.017853 
	C362.845398,239.653610 360.279816,238.184265 360.075958,229.998108 
	C359.930145,224.141464 358.820862,218.398315 358.864227,212.499008 
	C358.922546,204.577484 353.639221,200.938080 346.012512,203.045258 
	C342.770966,203.940857 339.666656,205.333344 336.500000,206.500015 
"/>
<path fill="none" opacity="1.000000" stroke="#000000" stroke-linecap="round" stroke-linejoin="round" stroke-width="3.000000"
	d="
M299.500000,201.500000 
	C295.349609,197.980621 291.641998,193.940598 287.004608,190.992737 
	C282.111908,187.882553 276.875824,186.121201 271.001190,185.956985 
	C258.294708,185.601837 246.156296,187.414200 234.980850,193.967331 
	C229.678238,197.076706 225.428665,201.095322 222.500000,206.500000 
"/>
<path fill="none" opacity="1.000000" stroke="#000000" stroke-linecap="round" stroke-linejoin="round" stroke-width="3.000000"
	d="
M604.500000,249.500000 
	C596.898193,250.527557 589.164734,250.901657 582.049194,247.883942 
	C571.648743,243.473083 562.842163,246.483429 555.090393,253.105820 
	C546.836914,260.156799 542.401917,269.566986 541.500000,280.500000 
"/>
<path fill="none" opacity="1.000000" stroke="#000000" stroke-linecap="round" stroke-linejoin="round" stroke-width="3.000000"
	d="
M599.000000,655.500000 
	C598.715698,664.699341 592.697754,670.022644 586.025024,675.033325 
	C580.482971,679.195007 574.170593,682.040833 568.391724,685.835083 
	C558.020691,692.644775 552.503784,702.920959 557.970398,718.010742 
	C558.363342,719.095459 558.333313,720.333313 558.500000,721.500000 
"/>
<path fill="none" opacity="1.000000" stroke="#000000" stroke-linecap="round" stroke-linejoin="round" stroke-width="3.000000"
	d="
M188.000000,348.000000 
	C175.649857,356.104614 161.313171,358.895477 147.477051,362.921143 
	C137.656906,365.778351 127.693466,368.226257 117.500000,369.500000 
"/>
<path fill="none" opacity="1.000000" stroke="#000000" stroke-linecap="round" stroke-linejoin="round" stroke-width="3.000000"
	d="
M350.000000,231.000000 
	C342.676483,236.402420 337.339783,249.270691 341.088409,258.463959 
	C342.708893,262.438080 342.037750,265.250702 339.025879,268.028076 
	C335.909485,270.901855 332.902222,273.909241 330.018005,277.016724 
	C320.794159,286.954559 325.257629,291.526154 334.500000,295.500000 
"/>
<path fill="none" opacity="1.000000" stroke="#000000" stroke-linecap="round" stroke-linejoin="round" stroke-width="3.000000"
	d="
M549.500000,593.000000 
	C550.000000,597.166687 550.499878,601.333313 551.000061,605.500000 
	C551.365662,608.546326 550.491394,610.858765 548.056580,613.062500 
	C535.436829,624.484741 533.904602,638.892090 537.539856,654.490723 
	C538.176697,657.223083 538.202271,659.736572 537.579651,662.517822 
	C535.569763,671.495972 538.844666,679.613586 542.580261,687.461792 
	C544.273987,691.020264 546.818298,694.176575 549.003418,697.497742 
	C552.451538,702.738647 554.428894,708.218323 552.029541,714.511292 
	C551.807617,715.093323 552.000000,715.833313 552.000000,716.500000 
"/>
<path fill="none" opacity="1.000000" stroke="#000000" stroke-linecap="round" stroke-linejoin="round" stroke-width="3.000000"
	d="
M535.500000,244.500000 
	C520.261597,248.526749 506.871735,243.236237 494.047058,235.917526 
	C489.091888,233.089752 484.747345,229.211914 479.973022,226.040604 
	C476.509674,223.740128 473.000641,221.294678 468.500000,221.500000 
"/>
<path fill="none" opacity="1.000000" stroke="#000000" stroke-linecap="round" stroke-linejoin="round" stroke-width="3.000000"
	d="
M252.500000,323.000000 
	C249.761414,328.100983 246.376373,332.952728 246.040009,339.002228 
	C245.988052,339.936951 245.548248,340.419067 245.007950,341.007294 
	C238.647095,347.932556 235.103119,355.894989 235.965897,365.503052 
	C236.022491,366.133209 235.589905,366.807312 235.361740,367.534698 
	C232.423462,368.396271 230.213379,366.377655 228.050339,364.925049 
	C225.017715,362.888458 222.373535,360.282318 219.491272,358.011078 
	C214.166946,353.815399 210.753311,353.954803 205.507706,358.508881 
	C204.619949,359.279541 203.833344,360.166687 203.000000,361.000000 
"/>
<path fill="none" opacity="1.000000" stroke="#000000" stroke-linecap="round" stroke-linejoin="round" stroke-width="3.000000"
	d="
M275.000000,262.000000 
	C270.072968,276.814423 262.831604,290.785736 258.964905,305.991089 
	C258.735474,306.893219 258.200897,307.974854 257.468750,308.452057 
	C250.557907,312.956726 245.821075,320.448608 237.500000,323.000000 
"/>
<path fill="none" opacity="1.000000" stroke="#000000" stroke-linecap="round" stroke-linejoin="round" stroke-width="3.000000"
	d="
M189.500000,249.500000 
	C184.850143,256.672424 178.236923,260.917664 170.027435,263.103058 
	C167.945358,263.657288 164.687057,263.957001 165.048355,267.495056 
	C165.265427,269.620575 170.388626,271.998901 172.975647,270.940460 
	C179.880554,268.115417 186.692596,265.056183 193.467072,261.928680 
	C194.310257,261.539429 194.952942,260.799042 196.073975,261.049927 
	C197.627640,262.058716 197.744492,263.965729 198.476303,265.511230 
	C199.821487,268.352020 202.043533,268.859589 204.471375,267.450653 
	C209.701950,264.415283 214.671844,261.005188 217.000000,255.000000 
"/>
<path fill="none" opacity="1.000000" stroke="#000000" stroke-linecap="round" stroke-linejoin="round" stroke-width="3.000000"
	d="
M391.000000,321.000000 
	C385.970764,325.473785 383.105713,331.527618 379.586884,337.055298 
	C376.283386,342.244720 373.486786,347.773102 369.455841,352.462036 
	C367.964172,354.197205 368.397034,355.558685 369.512787,356.990021 
	C374.861572,363.851990 382.425537,366.924896 390.505188,368.979614 
	C400.519867,371.526398 410.670197,373.299347 420.993256,374.088287 
	C421.973938,374.163239 424.900391,373.432922 423.500000,376.500000 
"/>
<path fill="none" opacity="1.000000" stroke="#000000" stroke-linecap="round" stroke-linejoin="round" stroke-width="3.000000"
	d="
M512.500000,167.000000 
	C514.359009,171.575027 512.280823,176.134247 511.665863,180.452408 
	C511.001251,185.118729 510.865631,189.878616 510.261078,194.533905 
	C508.856110,205.352859 507.650818,216.205597 506.026794,227.004028 
	C505.981415,227.305481 506.333313,227.666672 506.500000,228.000000 
"/>
<path fill="none" opacity="1.000000" stroke="#000000" stroke-linecap="round" stroke-linejoin="round" stroke-width="3.000000"
	d="
M218.000000,254.000000 
	C220.257248,255.254944 219.894272,257.442444 220.010742,259.499390 
	C220.739120,272.362061 219.009827,285.157043 218.715302,297.993469 
	C218.640381,301.258850 219.388397,305.644409 216.055603,308.563477 
	C215.634186,308.932556 215.617661,309.972076 215.859436,311.032074 
	C217.266235,317.199280 225.109329,323.933746 231.500000,324.000000 
"/>
<path fill="none" opacity="1.000000" stroke="#000000" stroke-linecap="round" stroke-linejoin="round" stroke-width="3.000000"
	d="
M248.500000,166.000000 
	C240.963715,163.523392 233.725845,165.757141 226.514664,167.558716 
	C223.420990,168.331589 221.770523,171.476746 218.570023,172.685425 
	C213.379684,174.645554 208.747971,172.431259 204.027374,171.796448 
	C198.776215,171.090271 193.592316,169.009232 192.471222,162.504959 
	C192.324905,161.656128 191.787872,160.874649 191.332001,159.834198 
	C185.306702,168.276901 187.858032,175.019699 197.500000,179.500000 
"/>
<path fill="none" opacity="1.000000" stroke="#000000" stroke-linecap="round" stroke-linejoin="round" stroke-width="3.000000"
	d="
M521.000000,140.500000 
	C518.287048,133.677307 515.061157,132.256363 507.026520,135.075562 
	C503.040619,136.474106 499.424255,138.901581 495.473145,140.430618 
	C491.886475,141.818604 491.299316,144.687744 492.136688,147.458694 
	C493.308380,151.335754 492.925995,155.158737 492.933685,159.000137 
	C492.938110,161.206696 493.211426,163.650848 495.064362,164.322418 
	C497.116119,165.066040 499.378418,164.644073 501.121307,162.082535 
	C503.828766,158.103424 507.333344,154.666672 510.500000,151.000000 
"/>
<path fill="none" opacity="1.000000" stroke="#000000" stroke-linecap="round" stroke-linejoin="round" stroke-width="3.000000"
	d="
M408.500000,257.500000 
	C401.588837,256.936371 394.808807,256.496002 387.940887,258.825775 
	C383.900360,260.196411 380.825195,261.781494 378.424957,265.450897 
	C371.340424,276.281616 365.495605,288.034180 356.384796,297.387787 
	C353.392181,300.460175 350.740479,303.401672 349.500000,307.500000 
"/>
<path fill="none" opacity="1.000000" stroke="#000000" stroke-linecap="round" stroke-linejoin="round" stroke-width="3.000000"
	d="
M458.000000,320.000000 
	C449.173004,314.926514 439.835938,311.497223 429.513123,313.085297 
	C421.447601,314.326080 413.476685,316.230774 405.509735,318.042786 
	C401.454163,318.965179 397.500000,320.333344 393.500000,321.500000 
"/>
<path fill="none" opacity="1.000000" stroke="#000000" stroke-linecap="round" stroke-linejoin="round" stroke-width="3.000000"
	d="
M436.000000,530.500000 
	C434.587921,535.570496 435.535126,540.847717 434.199554,546.051208 
	C432.634674,552.148010 435.048676,558.379150 436.062775,564.489563 
	C437.480347,573.030945 439.281158,581.510803 441.040314,589.991638 
	C441.432404,591.881897 442.333344,593.666687 443.000000,595.500000 
"/>
<path fill="none" opacity="1.000000" stroke="#000000" stroke-linecap="round" stroke-linejoin="round" stroke-width="3.000000"
	d="
M298.500000,425.000000 
	C299.476135,427.785706 298.958801,430.668365 298.971619,433.500122 
	C299.034271,447.333191 299.159424,461.169312 298.928558,474.998810 
	C298.822876,481.329041 297.543427,487.626526 298.008423,493.999390 
	C298.118195,495.503540 298.333344,497.000000 298.500000,498.500000 
"/>
<path fill="none" opacity="1.000000" stroke="#000000" stroke-linecap="round" stroke-linejoin="round" stroke-width="3.000000"
	d="
M450.500000,317.500000 
	C449.360107,322.828857 452.063416,327.593842 453.221405,332.447174 
	C455.643921,342.600006 457.342773,352.909149 460.029266,362.992188 
	C460.665009,365.378174 461.666656,367.666656 462.500000,370.000000 
"/>
<path fill="none" opacity="1.000000" stroke="#000000" stroke-linecap="round" stroke-linejoin="round" stroke-width="3.000000"
	d="
M494.000000,165.500000 
	C488.500000,171.500000 482.940491,177.446762 477.513519,183.512100 
	C468.702911,193.359192 459.522644,202.843491 450.000000,212.000000 
"/>
<path fill="none" opacity="1.000000" stroke="#000000" stroke-linecap="round" stroke-linejoin="round" stroke-width="3.000000"
	d="
M512.500000,151.000000 
	C514.212158,152.621140 515.165527,155.001114 517.283081,155.842880 
	C517.181458,157.155243 517.192139,158.346039 516.983032,159.496918 
	C515.865479,165.649063 515.270386,166.158340 509.000397,165.985291 
	C504.127350,165.850815 501.032227,168.723785 497.977600,171.978989 
	C486.199432,184.530746 474.333344,197.000000 462.500000,209.500000 
"/>
<path fill="none" opacity="1.000000" stroke="#000000" stroke-linecap="round" stroke-linejoin="round" stroke-width="3.000000"
	d="
M302.500000,203.500000 
	C307.576752,207.347168 310.340454,213.079468 313.874084,218.088821 
	C320.293701,227.189453 326.168793,236.678284 333.011475,245.491089 
	C334.096161,246.888062 335.333344,248.166672 336.500000,249.500000 
"/>
<path fill="none" opacity="1.000000" stroke="#000000" stroke-linecap="round" stroke-linejoin="round" stroke-width="3.000000"
	d="
M567.500000,549.500000 
	C558.169067,553.232727 551.868469,561.973450 552.060303,571.498779 
	C552.157654,576.331543 551.130554,581.226501 552.934631,586.024597 
	C553.794556,588.311584 551.356812,590.613708 550.348999,591.267029 
	C546.286743,593.900391 543.986145,598.501587 539.500000,600.500000 
"/>
<path fill="none" opacity="1.000000" stroke="#000000" stroke-linecap="round" stroke-linejoin="round" stroke-width="3.000000"
	d="
M501.500000,174.500000 
	C495.965240,189.153076 492.379150,204.462708 486.521912,219.008820 
	C486.348663,219.439056 486.500000,220.000000 486.500000,220.500000 
"/>
<path fill="none" opacity="1.000000" stroke="#000000" stroke-linecap="round" stroke-linejoin="round" stroke-width="3.000000"
	d="
M198.000000,392.000000 
	C206.176804,400.991669 216.177628,407.858551 225.558167,415.427917 
	C230.372940,419.313019 236.531174,420.356140 242.500000,421.500000 
"/>
<path fill="none" opacity="1.000000" stroke="#000000" stroke-linecap="round" stroke-linejoin="round" stroke-width="3.000000"
	d="
M254.000000,424.000000 
	C260.749176,429.283813 268.644135,426.695648 275.999634,426.687225 
	C278.277893,426.684631 281.046631,425.929077 283.492279,426.106506 
	C287.932129,426.428589 292.092438,424.639252 296.505249,424.916321 
	C297.980621,425.008942 298.985626,424.175201 299.106354,422.005920 
	C299.730865,410.784729 302.738037,399.948273 305.089264,389.019196 
	C305.654938,386.389893 307.333344,384.000000 308.500000,381.500000 
"/>
<path fill="none" opacity="1.000000" stroke="#000000" stroke-linecap="round" stroke-linejoin="round" stroke-width="3.000000"
	d="
M290.000000,148.000000 
	C287.730743,153.833908 290.098633,165.735138 294.533508,169.460114 
	C297.661499,172.087402 301.447083,171.312653 304.981689,170.426895 
	C306.589539,170.023972 307.930908,168.656448 309.514740,168.037781 
	C312.573547,166.842972 314.235016,168.218216 315.062958,171.484039 
	C316.443939,176.931320 316.150146,182.630447 317.960083,188.013428 
	C320.158051,194.550400 321.648346,199.055801 331.008087,198.077225 
	C332.484711,197.922836 334.713013,196.860992 335.500000,199.500000 
"/>
<path fill="none" opacity="1.000000" stroke="#000000" stroke-linecap="round" stroke-linejoin="round" stroke-width="3.000000"
	d="
M508.500000,497.500000 
	C502.634644,500.950012 496.294037,502.849365 489.499512,502.972748 
	C482.668427,503.096771 475.827209,502.822174 469.001984,503.057373 
	C463.731598,503.238922 458.626251,502.417480 453.233490,501.371185 
	C453.102173,506.753540 455.152710,511.706116 455.187469,516.998779 
	C455.227081,523.032837 454.649811,525.000122 449.002838,527.007935 
	C446.319824,527.961975 443.666656,529.000000 441.000000,530.000000 
"/>
<path fill="none" opacity="1.000000" stroke="#000000" stroke-linecap="round" stroke-linejoin="round" stroke-width="3.000000"
	d="
M360.000000,327.000000 
	C362.575897,331.166656 360.535461,335.567444 359.708282,339.437653 
	C358.783081,343.766602 358.347656,348.226776 357.107025,352.530853 
	C356.048981,356.201630 358.370728,358.447723 363.491394,360.027924 
	C365.554962,360.664734 368.059570,360.323730 369.500000,362.500000 
"/>
<path fill="none" opacity="1.000000" stroke="#000000" stroke-linecap="round" stroke-linejoin="round" stroke-width="3.000000"
	d="
M428.500000,128.500000 
	C416.815521,128.628387 410.218872,135.594528 406.044891,145.518875 
	C403.694122,151.108276 404.514984,157.758194 410.500000,160.500000 
"/>
<path fill="none" opacity="1.000000" stroke="#000000" stroke-linecap="round" stroke-linejoin="round" stroke-width="3.000000"
	d="
M422.500000,377.000031 
	C401.166687,384.666687 379.833344,392.333344 358.500000,400.000031 
"/>
<path fill="none" opacity="1.000000" stroke="#000000" stroke-linecap="round" stroke-linejoin="round" stroke-width="3.000000"
	d="
M303.500000,177.000000 
	C296.936096,177.816147 293.012177,174.189194 289.990967,169.005264 
	C289.386902,167.968796 288.644257,167.014114 288.003662,165.997696 
	C284.188751,159.944672 282.617584,159.071289 276.529755,161.089767 
	C273.380768,162.133835 270.336639,162.977097 267.000519,163.032227 
	C255.578690,163.221024 247.848862,155.938629 247.500000,144.500000 
"/>
<path fill="none" opacity="1.000000" stroke="#000000" stroke-linecap="round" stroke-linejoin="round" stroke-width="3.000000"
	d="
M546.500000,461.500000 
	C549.208984,468.376282 555.738953,468.450714 561.492371,470.027740 
	C569.370178,472.187134 576.853577,469.310181 584.500000,468.500000 
"/>
<path fill="none" opacity="1.000000" stroke="#000000" stroke-linecap="round" stroke-linejoin="round" stroke-width="3.000000"
	d="
M225.500000,443.500000 
	C221.070755,444.722931 217.401199,448.013947 212.501312,448.087311 
	C211.174103,448.107178 210.567429,449.561401 209.895584,450.949463 
	C206.454666,458.058716 202.666672,465.000000 199.000000,472.000000 
"/>
<path fill="none" opacity="1.000000" stroke="#000000" stroke-linecap="round" stroke-linejoin="round" stroke-width="3.000000"
	d="
M381.500000,206.000000 
	C383.093628,212.710678 382.987152,219.354065 381.036102,226.010590 
	C379.940735,229.747726 382.853455,231.223267 385.529633,231.879044 
	C388.398224,232.581970 391.500000,232.333344 394.500000,232.500000 
"/>
<path fill="none" opacity="1.000000" stroke="#000000" stroke-linecap="round" stroke-linejoin="round" stroke-width="2.000000"
	d="
M459.500000,222.500000 
	C449.731628,231.456024 438.044739,236.788223 425.500000,240.500000 
"/>
<path fill="none" opacity="1.000000" stroke="#000000" stroke-linecap="round" stroke-linejoin="round" stroke-width="3.000000"
	d="
M190.500000,353.500000 
	C201.105621,361.455444 212.132721,368.377563 225.477188,371.111359 
	C234.644760,372.989441 243.549484,373.338745 252.500000,370.500000 
"/>
<path fill="none" opacity="1.000000" stroke="#000000" stroke-linecap="round" stroke-linejoin="round" stroke-width="3.000000"
	d="
M230.000000,444.000000 
	C227.769623,449.329193 226.155136,454.881226 225.150085,460.526733 
	C224.775345,462.631683 224.420868,464.276825 222.484726,464.956482 
	C218.098068,466.496521 214.530655,470.146362 209.500000,470.000000 
"/>
<path fill="none" opacity="1.000000" stroke="#000000" stroke-linecap="round" stroke-linejoin="round" stroke-width="3.000000"
	d="
M440.000000,377.000000 
	C432.833344,381.666656 425.762939,386.491516 418.461426,390.936646 
	C414.511322,393.341400 410.166656,393.960876 406.000000,391.000000 
"/>
<path fill="none" opacity="1.000000" stroke="#000000" stroke-linecap="round" stroke-linejoin="round" stroke-width="3.000000"
	d="
M210.500000,192.500000 
	C203.381958,190.998749 196.609680,192.861298 190.034225,195.100510 
	C185.414108,196.673843 183.261429,200.668625 183.028702,205.501389 
	C182.876572,208.660721 183.000000,211.833328 183.000000,215.000000 
	C183.000000,221.315582 181.206772,223.337036 174.999268,223.993134 
	C174.504791,224.045380 173.992477,223.943817 173.501282,224.009567 
	C171.140961,224.325546 168.289566,224.312195 167.118378,226.561630 
	C165.802521,229.088928 168.163345,231.008148 169.482147,233.011749 
	C171.033066,235.367981 173.083832,237.120667 175.500000,238.500000 
"/>
<path fill="none" opacity="1.000000" stroke="#000000" stroke-linecap="round" stroke-linejoin="round" stroke-width="3.000000"
	d="
M381.000000,191.500000 
	C374.570374,192.688889 370.639984,197.668304 366.107880,201.623596 
	C365.287506,202.339539 365.806793,204.888840 368.001373,204.952637 
	C370.718811,205.031662 373.164368,206.436447 376.007019,206.051971 
	C384.820190,204.860001 393.800995,204.544083 402.000000,200.500000 
"/>
<path fill="none" opacity="1.000000" stroke="#000000" stroke-linecap="round" stroke-linejoin="round" stroke-width="3.000000"
	d="
M241.000000,145.000000 
	C237.393738,152.972794 231.448715,156.870911 222.494751,156.057755 
	C218.685593,155.711838 214.818848,156.000000 210.436890,156.000000 
	C214.615417,161.772095 220.863724,163.573578 225.500000,167.500000 
"/>
<path fill="none" opacity="1.000000" stroke="#000000" stroke-linecap="round" stroke-linejoin="round" stroke-width="3.000000"
	d="
M433.500000,197.000000 
	C432.563141,198.036255 431.470825,198.582123 429.999176,198.519119 
	C421.452209,198.153107 412.956238,200.097229 404.508850,199.770920 
	C396.164185,199.448578 387.351135,198.639679 381.500000,191.000000 
"/>
<path fill="none" opacity="1.000000" stroke="#000000" stroke-linecap="round" stroke-linejoin="round" stroke-width="3.000000"
	d="
M412.500000,166.000000 
	C402.508423,168.019287 394.735382,173.641861 387.978119,180.979858 
	C386.457977,182.630646 385.029572,184.261246 384.500000,186.500000 
"/>
<path fill="none" opacity="1.000000" stroke="#000000" stroke-linecap="round" stroke-linejoin="round" stroke-width="3.000000"
	d="
M459.500000,285.500000 
	C456.690765,295.491882 453.594238,305.374817 448.500000,314.500000 
"/>
<path fill="none" opacity="1.000000" stroke="#000000" stroke-linecap="round" stroke-linejoin="round" stroke-width="3.000000"
	d="
M197.000000,391.000000 
	C192.666672,397.500000 188.333160,403.999878 184.000061,410.500031 
	C182.086029,413.371338 179.981415,415.936920 176.000000,415.500000 
"/>
<path fill="none" opacity="1.000000" stroke="#000000" stroke-linecap="round" stroke-linejoin="round" stroke-width="3.000000"
	d="
M535.500000,123.500000 
	C535.837708,125.972328 536.447754,128.319000 538.513611,130.011017 
	C540.173279,129.699951 540.425171,128.417130 541.142944,127.076546 
	C542.575989,124.400215 543.052368,121.656479 547.230713,119.870087 
	C551.335876,118.114975 556.865723,113.400642 555.969421,106.503975 
	C555.897949,105.954422 555.392090,105.461327 554.901428,104.623039 
	C550.604797,107.323097 547.061035,110.632111 544.000000,114.500000 
"/>
<path fill="none" opacity="1.000000" stroke="#000000" stroke-linecap="round" stroke-linejoin="round" stroke-width="3.000000"
	d="
M445.500000,145.500000 
	C446.463593,152.287354 447.547638,159.029160 449.942657,165.521149 
	C451.041595,168.499954 452.700165,170.922104 455.000000,173.000000 
"/>
<path fill="none" opacity="1.000000" stroke="#000000" stroke-linecap="round" stroke-linejoin="round" stroke-width="3.000000"
	d="
M340.500000,366.000000 
	C333.897308,371.127960 325.749329,373.162811 318.475433,376.952820 
	C316.907928,377.769562 315.494049,379.151764 313.500000,379.000000 
"/>
<path fill="none" opacity="1.000000" stroke="#000000" stroke-linecap="round" stroke-linejoin="round" stroke-width="3.000000"
	d="
M219.500000,181.500000 
	C212.895218,184.185226 206.049118,186.054382 198.990555,186.923264 
	C196.212494,187.265213 193.291748,187.373550 190.181839,186.390945 
	C186.605286,191.775009 183.910156,198.614685 175.500000,198.000000 
"/>
<path fill="none" opacity="1.000000" stroke="#000000" stroke-linecap="round" stroke-linejoin="round" stroke-width="3.000000"
	d="
M191.500000,235.500000 
	C187.056946,242.928146 180.528595,248.519775 174.360825,254.352844 
	C172.989349,255.649902 169.421844,256.401154 168.500000,252.500000 
"/>
<path fill="none" opacity="1.000000" stroke="#000000" stroke-linecap="round" stroke-linejoin="round" stroke-width="3.000000"
	d="
M349.500000,311.500000 
	C346.998016,314.966766 348.494629,318.507568 350.153931,321.412048 
	C351.686432,324.094543 352.353363,326.311646 352.169922,329.509735 
	C351.702576,337.656891 350.412506,345.608765 348.500000,353.500000 
"/>
<path fill="none" opacity="1.000000" stroke="#000000" stroke-linecap="round" stroke-linejoin="round" stroke-width="3.000000"
	d="
M422.500000,165.500000 
	C424.365570,165.010742 424.735931,163.456192 423.429321,162.609024 
	C421.457886,161.330795 420.605194,159.012756 418.592896,157.723450 
	C415.450745,159.137802 414.337433,161.913727 412.840363,164.255447 
	C413.535645,166.270950 415.128693,166.147964 416.496460,166.513290 
	C425.164062,168.828522 431.496582,174.209930 436.535339,181.475494 
	C440.668762,187.435638 445.024445,193.204575 452.484467,195.549454 
	C456.358246,196.767075 459.563507,194.944504 463.000000,194.000000 
"/>
<path fill="none" opacity="1.000000" stroke="#000000" stroke-linecap="round" stroke-linejoin="round" stroke-width="3.000000"
	d="
M372.500000,503.500000 
	C365.911163,496.661804 358.540405,490.727631 350.958099,485.056000 
	C350.207642,484.494690 349.303009,483.424286 348.000000,484.000000 
"/>
<path fill="none" opacity="1.000000" stroke="#000000" stroke-linecap="round" stroke-linejoin="round" stroke-width="3.000000"
	d="
M477.500000,165.500000 
	C477.666656,166.333328 478.225555,167.344421 477.940643,167.973099 
	C474.211365,176.202560 469.813843,183.872406 460.500000,187.000000 
"/>
<path fill="none" opacity="1.000000" stroke="#000000" stroke-linecap="round" stroke-linejoin="round" stroke-width="3.000000"
	d="
M405.500000,206.500000 
	C409.690643,211.827347 408.839630,218.445358 409.865448,224.522720 
	C410.520111,228.401413 410.771576,232.500000 410.000000,236.500000 
"/>
<path fill="none" opacity="1.000000" stroke="#000000" stroke-linecap="round" stroke-linejoin="round" stroke-width="3.000000"
	d="
M221.500000,209.500000 
	C218.431580,211.392990 214.800964,211.079315 211.464417,211.844955 
	C208.563950,212.510529 206.137695,213.922745 203.202347,214.744949 
	C207.102936,224.769135 214.417526,229.509583 224.500000,230.500000 
"/>
<path fill="none" opacity="1.000000" stroke="#000000" stroke-linecap="round" stroke-linejoin="round" stroke-width="3.000000"
	d="
M351.500000,277.500000 
	C351.000000,277.666656 350.511383,277.895111 349.998108,277.989746 
	C347.168732,278.511200 344.003754,278.370392 341.574402,279.642151 
	C337.563202,281.741974 342.138733,285.197571 341.040588,288.015808 
	C340.623993,289.085083 340.666626,290.333344 340.499969,291.500000 
"/>
<path fill="none" opacity="1.000000" stroke="#000000" stroke-linecap="round" stroke-linejoin="round" stroke-width="2.000000"
	d="
M449.000000,220.500000 
	C442.488495,224.847717 434.827393,225.075943 427.500000,226.500000 
"/>
<path fill="none" opacity="1.000000" stroke="#000000" stroke-linecap="round" stroke-linejoin="round" stroke-width="3.000000"
	d="
M341.500000,663.500000 
	C334.420654,666.665894 327.480042,664.005066 320.500000,663.000000 
"/>
<path fill="none" opacity="1.000000" stroke="#000000" stroke-linecap="round" stroke-linejoin="round" stroke-width="3.000000"
	d="
M429.500000,208.500000 
	C434.038879,215.658722 441.271667,218.426422 449.021027,219.888626 
	C452.812653,220.604050 456.240265,218.387436 459.500000,216.500000 
"/>
<path fill="none" opacity="1.000000" stroke="#000000" stroke-linecap="round" stroke-linejoin="round" stroke-width="3.000000"
	d="
M416.500000,208.500000 
	C415.755341,215.499146 414.657745,222.420807 412.000000,229.000000 
"/>
<path fill="none" opacity="1.000000" stroke="#000000" stroke-linecap="round" stroke-linejoin="round" stroke-width="3.000000"
	d="
M352.500000,276.500000 
	C348.903473,284.333344 352.020447,292.166656 352.500000,300.000000 
"/>
<path fill="none" opacity="1.000000" stroke="#000000" stroke-linecap="round" stroke-linejoin="round" stroke-width="3.000000"
	d="
M605.500000,235.500000 
	C609.210205,243.484711 613.027100,245.280884 622.500000,243.500000 
"/>
<path fill="none" opacity="1.000000" stroke="#000000" stroke-linecap="round" stroke-linejoin="round" stroke-width="3.000000"
	d="
M352.500000,355.500000 
	C349.949677,357.899353 346.694916,358.815979 343.599487,360.219421 
	C340.406616,361.667053 336.558411,359.355286 333.793335,362.780853 
	C336.842346,364.565765 339.770782,365.452576 343.511627,365.138336 
	C350.659576,364.537933 357.784882,366.681152 365.000519,366.005554 
	C367.163818,365.802979 369.333344,365.666687 371.500000,365.500031 
"/>
<path fill="none" opacity="1.000000" stroke="#000000" stroke-linecap="round" stroke-linejoin="round" stroke-width="4.000000"
	d="
M416.500000,243.000000 
	C413.000000,243.333344 409.442200,243.384323 406.017426,244.085205 
	C403.030609,244.696472 400.271912,244.710953 397.500000,243.500000 
"/>
<path fill="none" opacity="1.000000" stroke="#000000" stroke-linecap="round" stroke-linejoin="round" stroke-width="3.000000"
	d="
M95.500000,396.000000 
	C89.500000,397.333344 83.500000,398.666656 77.500000,400.000000 
"/>
<path fill="none" opacity="1.000000" stroke="#000000" stroke-linecap="round" stroke-linejoin="round" stroke-width="3.000000"
	d="
M511.500000,150.500000 
	C510.334198,148.394089 510.270752,146.673431 512.464417,144.954605 
	C516.875244,141.498474 522.497437,140.779922 526.785583,143.694092 
	C524.188660,149.735016 521.234375,155.766998 520.500000,162.500000 
"/>
<path fill="none" opacity="1.000000" stroke="#000000" stroke-linecap="round" stroke-linejoin="round" stroke-width="3.000000"
	d="
M388.999969,302.500000 
	C388.833313,307.500000 388.666656,312.500000 388.499969,317.500000 
"/>
<path fill="none" opacity="1.000000" stroke="#000000" stroke-linecap="round" stroke-linejoin="round" stroke-width="3.000000"
	d="
M398.500000,285.500000 
	C393.585083,293.010712 389.633057,301.140961 383.086914,307.588257 
	C380.196594,310.434875 377.843445,313.871857 373.982513,315.457428 
	C369.254456,317.399048 366.604126,321.804016 362.634979,324.685913 
	C359.522156,326.946045 356.816132,327.255981 353.500000,326.500000 
"/>
<path fill="none" opacity="1.000000" stroke="#000000" stroke-linecap="round" stroke-linejoin="round" stroke-width="3.000000"
	d="
M286.000000,430.000000 
	C289.000000,433.833313 292.139771,437.569611 294.911316,441.561554 
	C295.700623,442.698395 296.318024,443.081055 297.500000,443.000000 
"/>
<path fill="none" opacity="1.000000" stroke="#000000" stroke-linecap="round" stroke-linejoin="round" stroke-width="3.000000"
	d="
M225.000000,222.000000 
	C220.823074,219.546173 216.302261,218.639847 211.500000,219.000000 
"/>
<path fill="none" opacity="1.000000" stroke="#000000" stroke-linecap="round" stroke-linejoin="round" stroke-width="3.000000"
	d="
M557.000000,303.000000 
	C561.097290,306.340912 564.929993,310.064087 570.000000,312.000000 
"/>
<path fill="none" opacity="1.000000" stroke="#000000" stroke-linecap="round" stroke-linejoin="round" stroke-width="3.000000"
	d="
M396.500000,244.000000 
	C392.138245,247.089462 387.603821,249.963120 384.000000,254.000000 
"/>
<path fill="none" opacity="1.000000" stroke="#000000" stroke-linecap="round" stroke-linejoin="round" stroke-width="2.000000"
	d="
M472.000000,163.000000 
	C468.186432,166.088516 463.781464,168.191330 459.500000,170.500000 
"/>
<path fill="none" opacity="1.000000" stroke="#000000" stroke-linecap="round" stroke-linejoin="round" stroke-width="3.000000"
	d="
M409.500000,232.500000 
	C406.905121,232.340652 405.955231,234.563095 404.517883,236.017670 
	C402.612183,237.946152 400.833313,240.000000 399.000000,242.000000 
"/>
<path fill="none" opacity="1.000000" stroke="#000000" stroke-linecap="round" stroke-linejoin="round" stroke-width="3.000000"
	d="
M214.500000,462.500000 
	C212.243454,464.411987 210.924957,466.946411 209.342300,469.398193 
	C206.793655,473.346558 202.016205,474.780426 198.000000,477.000000 
"/>
<path fill="none" opacity="1.000000" stroke="#000000" stroke-linecap="round" stroke-linejoin="round" stroke-width="3.000000"
	d="
M535.000000,127.000000 
	C531.666687,130.000000 528.333313,133.000000 525.000000,136.000000 
"/>
<path fill="none" opacity="1.000000" stroke="#000000" stroke-linecap="round" stroke-linejoin="round" stroke-width="3.000000"
	d="
M358.500000,265.500000 
	C357.834442,269.475616 355.410919,272.484344 353.000000,275.500000 
"/>
<path fill="none" opacity="1.000000" stroke="#000000" stroke-linecap="round" stroke-linejoin="round" stroke-width="3.000000"
	d="
M431.000000,166.000000 
	C431.774506,169.143967 433.445709,172.099152 433.000000,175.500000 
"/>
<path fill="none" opacity="1.000000" stroke="#000000" stroke-linecap="round" stroke-linejoin="round" stroke-width="3.000000"
	d="
M187.000000,380.500000 
	C190.497498,383.002502 193.283997,386.216003 196.000000,389.500000 
"/>
<path fill="none" opacity="1.000000" stroke="#000000" stroke-linecap="round" stroke-linejoin="round" stroke-width="3.000000"
	d="
M530.500000,121.500000 
	C532.438293,120.841827 532.747375,118.741676 534.024963,117.526215 
	C535.442261,116.177750 535.918335,113.424934 539.017395,114.447174 
	C541.954224,115.415863 545.300598,115.656898 545.000000,120.000000 
"/>
<path fill="none" opacity="1.000000" stroke="#000000" stroke-linecap="round" stroke-linejoin="round" stroke-width="3.000000"
	d="
M326.000000,465.000000 
	C328.489960,467.765045 332.013580,468.979614 335.000000,471.000000 
"/>
<path fill="none" opacity="1.000000" stroke="#000000" stroke-linecap="round" stroke-linejoin="round" stroke-width="3.000000"
	d="
M437.500000,185.000000 
	C436.460236,187.819290 437.159119,191.252228 434.500000,193.500000 
"/>
<path fill="none" opacity="1.000000" stroke="#000000" stroke-linecap="round" stroke-linejoin="round" stroke-width="3.000000"
	d="
M174.500000,197.500000 
	C176.041214,201.000595 179.659073,201.732346 182.500000,203.500000 
"/>
<path fill="none" opacity="1.000000" stroke="#000000" stroke-linecap="round" stroke-linejoin="round" stroke-width="3.000000"
	d="
M246.000000,320.000000 
	C249.500000,321.000000 253.000000,322.000000 256.500000,323.000000 
"/>
<path fill="none" opacity="1.000000" stroke="#000000" stroke-linecap="round" stroke-linejoin="round" stroke-width="3.000000"
	d="
M573.500000,502.500000 
	C572.078674,505.084015 574.405762,507.132507 574.500000,509.500000 
"/>
<path fill="none" opacity="1.000000" stroke="#000000" stroke-linecap="round" stroke-linejoin="round" stroke-width="3.000000"
	d="
M538.500000,661.000000 
	C540.280701,662.806335 540.327209,665.413086 541.500000,667.500000 
"/>
<path fill="none" opacity="1.000000" stroke="#000000" stroke-linecap="round" stroke-linejoin="round" stroke-width="3.000000"
	d="
M543.000000,470.000000 
	C544.814636,471.474792 543.561157,473.786346 544.500000,475.500000 
"/>
<path fill="none" opacity="1.000000" stroke="#000000" stroke-linecap="round" stroke-linejoin="round" stroke-width="3.000000"
	d="
M392.500000,236.500000 
	C393.029572,238.738754 394.330902,240.486389 396.000000,242.000000 
"/>
<path fill="none" opacity="1.000000" stroke="#000000" stroke-linecap="round" stroke-linejoin="round" stroke-width="3.000000"
	d="
M447.000000,595.000000 
	C444.699249,596.166321 441.942535,597.125366 444.500000,600.500000 
"/>
<path fill="none" opacity="1.000000" stroke="#000000" stroke-linecap="round" stroke-linejoin="round" stroke-width="2.000000"
	d="
M536.500000,131.000000 
	C535.166687,132.166672 533.833313,133.333344 532.500000,134.500000 
"/>
</svg>