<svg version="1.1" id="Layer_1" xmlns="http://www.w3.org/2000/svg" xmlns:xlink="http://www.w3.org/1999/xlink" x="0px" y="0px"
	 width="100%" viewBox="0 0 800 800" enable-background="new 0 0 800 800" xml:space="preserve">
<path fill="#000000" opacity="1.000000" stroke="none" 
	d="
M682.246277,233.853180 
	C690.926941,251.461456 699.219238,268.851624 709.433533,285.256561 
	C697.876404,228.022903 669.812195,177.954025 640.289124,128.011871 
	C644.543457,127.236092 645.518921,130.076218 646.922668,131.795654 
	C660.676147,148.641754 672.003784,167.065002 682.041138,186.314331 
	C696.105957,213.287247 707.421509,241.290543 713.762512,271.146088 
	C714.625061,275.207214 715.196533,279.315979 715.507446,283.485168 
	C715.742310,286.635406 715.806458,289.210785 711.534302,289.827576 
	C717.440247,301.002716 723.862549,311.293243 730.515808,321.406036 
	C747.272827,346.876312 764.324524,372.152649 781.168640,397.566010 
	C782.764893,399.974274 786.403748,402.989532 782.577576,405.678864 
	C778.573608,408.493073 776.782288,404.129059 775.001648,401.548767 
	C754.563965,371.933594 733.747437,342.576355 714.696899,312.021790 
	C693.669250,278.296295 676.522766,242.575714 659.812988,206.604752 
	C645.152161,175.044708 631.148987,143.134888 611.934082,113.913589 
	C585.054260,73.035843 549.270447,43.957935 501.725494,30.343552 
	C475.993500,22.975256 449.811646,20.602743 423.171661,23.033165 
	C418.529999,23.456633 413.879089,23.787149 409.228088,24.094461 
	C407.643768,24.199144 405.793915,24.697416 405.102600,22.280350 
	C406.002777,20.044544 408.260742,20.134651 410.061615,19.806301 
	C459.635742,10.767671 506.453186,18.437748 550.282166,43.392532 
	C576.855042,58.522247 597.625488,79.931419 615.231140,104.618759 
	C632.925049,129.429886 646.094849,156.746475 659.038696,184.176422 
	C666.785034,200.592239 674.412720,217.064026 682.246277,233.853180 
z"/>
<path fill="#000000" opacity="1.000000" stroke="none" 
	d="
M571.366821,321.000854 
	C572.019775,344.036316 569.888062,366.362366 566.226135,388.564331 
	C565.825867,390.991272 566.186279,394.837769 562.251465,394.107819 
	C558.718872,393.452484 559.623779,389.959412 559.996338,387.411987 
	C562.692078,368.984039 564.708191,350.494324 565.737305,331.890289 
	C565.957458,327.910767 564.599182,326.011261 560.898865,324.489471 
	C549.040710,319.612518 536.986389,319.170013 524.638062,321.781799 
	C523.499146,322.022705 522.364746,322.290070 521.218750,322.490723 
	C519.795959,322.739899 518.438721,322.590576 518.039917,320.930389 
	C517.635559,319.246735 518.898254,318.493073 520.191589,318.060333 
	C527.046204,315.766785 534.088745,314.768921 541.317200,315.209961 
	C549.510620,315.709869 557.244202,318.056915 564.213074,321.433502 
	C565.886475,320.482758 565.790955,319.404480 565.785278,318.440247 
	C565.735535,309.943848 565.651306,301.447601 565.570740,292.951385 
	C565.531189,288.779022 563.992798,286.006134 559.783569,284.148743 
	C538.915588,274.940399 517.231750,268.841980 494.572906,266.338928 
	C447.090942,261.093719 401.422424,268.980896 356.973328,285.560242 
	C355.236389,286.208099 353.473175,287.725525 351.233154,285.956055 
	C351.627747,283.318970 354.025635,282.925781 355.821777,282.108368 
	C378.086365,271.975372 401.466278,265.586517 425.567688,261.798248 
	C443.536041,258.973969 461.656189,257.857635 479.817505,258.911469 
	C537.156677,262.238678 586.686462,283.326904 627.461182,324.230499 
	C640.287781,337.097626 651.878967,351.079803 664.261292,364.346100 
	C687.230225,388.954773 715.566162,403.006073 748.740112,407.647949 
	C758.949646,409.076538 769.169678,410.430084 779.384705,411.819092 
	C780.044617,411.908783 780.719604,411.945709 781.359558,412.113983 
	C783.106934,412.573395 785.371399,412.785522 785.069458,415.280945 
	C784.752502,417.900421 782.628052,418.038788 780.477844,417.750061 
	C774.382629,416.931702 768.287537,416.111542 762.188721,415.321014 
	C744.825378,413.070404 727.700073,409.820496 711.241455,403.606567 
	C686.199768,394.152222 666.831604,377.145508 649.420898,357.467346 
	C633.632751,339.623138 617.830444,321.787537 598.587830,307.442596 
	C589.654114,300.782684 580.409485,294.650696 569.386414,289.201416 
	C570.301941,300.204620 571.832947,310.315460 571.366821,321.000854 
z"/>
<path fill="#000000" opacity="1.000000" stroke="none" 
	d="
M564.814392,584.176025 
	C588.175049,606.336853 609.736023,629.712280 630.567505,653.776489 
	C631.330322,654.657654 632.123657,655.520630 632.804382,656.463074 
	C634.051819,658.190186 634.924133,660.052612 632.879883,661.760437 
	C630.936096,663.384338 629.084229,662.582275 627.572937,661.016052 
	C622.485413,655.743469 617.457764,650.413025 612.413696,645.098572 
	C587.421631,618.766479 563.611877,591.310730 537.264893,566.259827 
	C534.221375,563.366028 531.707153,562.701965 528.030029,564.487122 
	C520.542419,568.122253 512.931763,571.502808 505.399872,575.047852 
	C502.223297,576.542969 498.955750,577.721802 495.560944,578.614563 
	C484.879242,581.423462 478.089233,578.679565 472.507996,568.945679 
	C467.303436,559.868591 464.935242,549.807251 462.771362,539.695740 
	C460.684723,529.945251 458.923645,520.110474 455.665222,510.652802 
	C454.771332,508.058136 454.233215,505.136627 450.987640,503.414673 
	C446.849915,508.221375 446.804962,514.354309 446.604401,519.826782 
	C446.008331,536.089966 445.137054,552.425049 448.978058,568.539307 
	C449.757416,571.809082 450.964447,574.415466 453.334503,576.662231 
	C455.003693,578.244568 456.309662,580.157837 454.214691,582.235291 
	C452.398071,584.036743 450.511536,583.120300 448.912598,581.655884 
	C430.701843,564.977661 409.612518,552.574829 388.160095,540.708191 
	C387.019775,540.077332 385.675293,539.648743 385.252991,537.867737 
	C387.006592,535.852905 389.035400,536.941895 390.999847,537.562134 
	C407.891235,542.894836 422.785950,551.937927 436.955688,562.322083 
	C438.945587,563.780334 440.896942,565.291199 443.678528,567.390991 
	C441.152802,557.514709 439.597748,548.447693 439.249725,539.200317 
	C438.853180,528.664490 439.545105,518.261963 442.674652,508.128265 
	C443.113586,506.706818 443.704254,505.305420 444.417206,503.999908 
	C447.915253,497.594452 452.997009,497.172516 457.203766,503.139282 
	C463.109894,511.516418 464.815247,521.487793 467.285034,531.139282 
	C469.796295,540.953064 471.302795,551.032959 474.972321,560.536865 
	C476.048553,563.324341 477.209534,566.123657 478.716858,568.691345 
	C482.190033,574.607788 486.083313,575.963867 492.623962,573.772278 
	C499.761627,571.380615 506.309998,567.685913 512.998352,564.320679 
	C518.962769,561.319702 525.007751,558.565308 531.465149,556.798584 
	C534.492126,555.970459 537.256775,555.587036 537.362610,560.075500 
	C537.409302,562.058899 539.108154,562.799683 540.415955,563.761841 
	C548.879761,569.989014 556.781189,576.886230 564.814392,584.176025 
z"/>
<path fill="#000000" opacity="1.000000" stroke="none" 
	d="
M315.223236,45.211796 
	C306.651733,58.283623 299.813324,71.663330 297.730927,87.084076 
	C294.306671,112.441719 304.584839,137.767395 325.401031,151.426743 
	C327.538452,152.829285 331.684448,153.914551 329.520752,157.492783 
	C327.311523,161.146240 324.392914,157.909119 322.287567,156.575592 
	C302.571747,144.087418 292.437134,125.784721 290.704926,102.797325 
	C289.099060,81.486984 295.451660,62.397102 307.943237,45.223007 
	C308.907837,43.896805 309.804352,42.521072 311.184967,40.508949 
	C304.431305,40.024376 298.550354,41.691761 292.669067,42.843586 
	C246.168182,51.950573 204.744278,71.874504 167.834488,101.471390 
	C147.525284,117.756744 129.268188,136.242798 110.529869,154.220749 
	C108.873482,155.809921 107.545967,158.296875 104.632896,157.684082 
	C103.255775,155.422836 104.962822,154.309082 105.930969,153.149292 
	C139.449463,112.996216 177.067184,77.759232 225.533875,56.179371 
	C253.674820,43.649578 283.029938,35.257725 314.159485,34.674385 
	C316.754364,34.625755 318.461792,33.409901 320.264801,31.823328 
	C326.396210,26.428009 329.418488,25.034338 335.213989,25.527067 
	C327.586639,31.982100 320.315765,37.347954 315.223236,45.211796 
z"/>
<path fill="#000000" opacity="1.000000" stroke="none" 
	d="
M92.605133,172.549133 
	C134.196564,145.625565 176.806641,121.251839 221.344437,100.330200 
	C234.599777,94.103493 247.990494,88.164894 261.319397,82.094810 
	C261.925598,81.818748 262.518433,81.503479 263.144287,81.282242 
	C265.868439,80.319267 268.610443,80.019005 269.923340,83.233322 
	C271.095428,86.102898 269.332184,87.990692 266.868744,89.206360 
	C260.749390,92.226158 254.624802,95.236961 248.463608,98.170082 
	C208.608353,117.143730 169.593948,137.788147 131.393387,159.826859 
	C96.220131,180.119049 61.705139,201.639694 30.802227,228.325546 
	C27.652617,231.045364 24.541939,233.811172 21.355957,236.487488 
	C20.277475,237.393448 19.295095,238.829437 17.173178,237.803528 
	C16.519461,234.409698 19.330338,232.599411 21.143244,230.578781 
	C29.165987,221.636795 38.185314,213.727692 47.375076,206.017715 
	C61.676552,194.019135 76.567764,182.812698 92.605133,172.549133 
z"/>
<path fill="#000000" opacity="1.000000" stroke="none" 
	d="
M569.964355,136.027313 
	C600.501160,164.705353 621.459900,199.495667 638.874878,236.734436 
	C654.674500,270.519012 668.227539,305.332520 685.478149,338.449677 
	C687.785400,342.879181 690.433533,347.132019 692.711121,351.575684 
	C693.981079,354.053406 696.846863,357.127991 692.851562,359.296783 
	C689.223083,361.266479 688.041626,357.479126 686.696594,355.231628 
	C677.276428,339.491791 669.090210,323.112915 661.546936,306.398102 
	C649.491577,279.684753 638.309021,252.578690 625.373230,226.261017 
	C606.338379,187.534637 582.040588,152.889923 547.978088,125.728249 
	C531.056824,112.235107 512.664673,101.319794 492.511902,93.379333 
	C490.816254,92.711220 488.423462,92.677063 488.045441,89.698105 
	C490.621704,87.756111 493.155487,89.526390 495.425934,90.198914 
	C513.671631,95.603485 530.095459,104.664314 545.467102,115.722755 
	C553.995728,121.858299 562.028625,128.611893 569.964355,136.027313 
z"/>
<path fill="#000000" opacity="1.000000" stroke="none" 
	d="
M701.233765,584.948425 
	C699.938904,596.858154 700.143921,608.339233 699.997314,619.824768 
	C699.855896,630.907654 702.666992,641.707825 703.745422,652.927612 
	C699.847290,652.493042 699.608032,650.193665 699.011169,648.419800 
	C693.628845,632.424072 692.382690,615.941345 693.245422,599.192383 
	C694.342102,577.900940 697.505432,556.899292 702.034607,536.308655 
	C700.387878,534.131531 698.280090,534.410522 696.341492,534.343567 
	C674.187134,533.577942 652.090942,534.701355 629.973877,535.960266 
	C607.212769,537.255920 584.539795,539.485229 561.838745,541.415039 
	C547.260803,542.654297 532.731384,544.457214 518.170898,545.914124 
	C514.616760,546.269836 511.026001,546.259094 507.078247,546.433289 
	C507.526672,542.840576 509.823883,543.079407 511.591370,542.640869 
	C527.445190,538.707336 543.669189,537.041260 559.796326,534.776917 
	C580.704834,531.841125 601.694336,529.490723 622.745728,528.104309 
	C647.632324,526.465149 672.575684,524.540955 697.502991,527.747498 
	C700.624023,528.148865 703.697449,528.954224 706.773987,529.655701 
	C708.881958,530.136414 711.461121,530.535767 711.121765,533.453796 
	C710.728760,536.833557 707.953186,536.144470 705.424194,535.776245 
	C704.997437,552.226135 701.884155,568.239807 701.233765,584.948425 
z"/>
<path fill="#000000" opacity="1.000000" stroke="none" 
	d="
M584.459106,744.515991 
	C601.612793,757.802490 618.855103,770.321472 637.629761,780.580750 
	C639.698547,781.711243 642.297424,782.934265 640.764709,785.805420 
	C639.130371,788.867065 636.459351,787.404724 634.222900,786.281006 
	C614.629883,776.436768 596.867432,763.781616 579.580322,750.431458 
	C551.502014,728.747620 524.657104,705.484131 495.826385,684.766418 
	C468.488556,665.121460 440.923828,645.820557 409.342010,633.288452 
	C406.563019,632.185669 403.779388,631.092346 401.031464,629.916321 
	C400.667755,629.760681 400.503632,629.138611 400.257080,628.748291 
	C401.164612,626.310181 402.969818,627.306458 404.480316,627.547546 
	C417.842865,629.679688 429.864471,635.469055 441.672577,641.629578 
	C468.354126,655.549866 492.756866,673.010864 516.604492,691.197632 
	C539.380249,708.567139 561.674072,726.568542 584.459106,744.515991 
z"/>
<path fill="#000000" opacity="1.000000" stroke="none" 
	d="
M256.725708,437.523499 
	C312.604218,443.600037 356.203094,468.536621 384.670502,517.591858 
	C385.004913,518.168152 385.419128,518.708374 385.679626,519.315430 
	C386.696747,521.685364 386.732758,523.934509 384.300629,525.469421 
	C381.657806,527.137390 379.847107,525.577759 378.457916,523.517639 
	C374.177094,517.169434 370.213623,510.616943 365.504974,504.547760 
	C342.940277,475.463043 313.304291,457.806641 277.740143,449.211273 
	C253.361069,443.319183 228.673553,442.799469 203.843292,443.387695 
	C202.515549,443.419189 201.186417,443.452271 199.859665,443.417694 
	C199.574448,443.410278 199.296783,443.112762 198.786652,442.815399 
	C198.988495,439.656830 201.759613,439.727051 203.759354,439.280121 
	C215.538055,436.647644 227.518982,436.476501 239.516754,436.600006 
	C246.799988,436.674988 246.796417,436.566772 247.747498,429.294952 
	C249.094330,418.997375 249.770233,408.762115 246.209930,398.715454 
	C246.081802,398.353912 246.450378,397.816345 246.663284,397.108887 
	C250.822998,397.496918 251.359116,400.982635 252.147461,403.740753 
	C254.848709,413.191162 254.838516,422.841858 252.990326,432.415039 
	C252.353592,435.713013 253.139664,437.134613 256.725708,437.523499 
z"/>
<path fill="#000000" opacity="1.000000" stroke="none" 
	d="
M350.845306,591.706421 
	C365.440430,590.482727 379.589569,590.302734 393.731232,590.689758 
	C434.123230,591.795105 471.220032,603.632263 505.197815,625.399719 
	C506.310211,626.112244 507.461975,626.878174 508.308624,627.865173 
	C509.758118,629.554932 509.773956,631.629456 508.663452,633.446106 
	C507.444458,635.440125 505.420746,635.689819 503.382538,634.817444 
	C501.861420,634.166260 500.433868,633.280029 499.006958,632.427612 
	C463.261688,611.075378 424.650574,599.861267 382.956573,598.826904 
	C365.328125,598.389404 347.692139,600.332153 330.082520,598.340027 
	C322.969482,597.535400 315.854126,596.801575 309.158081,594.077637 
	C307.130737,593.252930 304.662964,592.736694 303.585480,588.424622 
	C319.500214,592.857849 334.941559,592.039307 350.845306,591.706421 
z"/>
<path fill="#000000" opacity="1.000000" stroke="none" 
	d="
M117.921097,276.817200 
	C133.888000,278.913177 149.504852,279.940125 165.116196,280.586731 
	C197.725403,281.937378 230.362350,282.618011 262.971680,283.966156 
	C276.751831,284.535889 290.545593,285.481506 304.211761,287.627411 
	C306.598450,288.002167 309.359589,288.149323 308.951385,291.364441 
	C308.585999,294.242065 306.010223,293.912445 303.766479,293.701843 
	C281.379425,291.600586 258.932007,290.767700 236.461121,290.069397 
	C204.849823,289.087067 173.190186,289.112518 141.654053,286.256195 
	C110.167839,283.404388 78.919395,279.034729 48.232903,271.223694 
	C46.096275,270.679840 43.512619,270.718964 42.082424,268.120514 
	C43.906120,265.828644 46.237671,266.789185 48.376545,267.123596 
	C71.355728,270.716278 94.319771,274.413239 117.921097,276.817200 
z"/>
<path fill="#000000" opacity="1.000000" stroke="none" 
	d="
M286.823761,326.519989 
	C281.297699,318.076874 283.158783,310.108429 287.491302,302.418030 
	C280.472137,296.243927 273.783234,296.765228 268.680481,304.309845 
	C259.222107,318.294342 258.494873,333.252075 265.363342,348.462097 
	C271.490204,362.029877 282.354767,371.734711 293.287720,381.320221 
	C295.391113,383.164337 299.570129,385.068085 296.957703,388.289490 
	C294.081635,391.836090 291.276276,387.814056 289.025726,386.091705 
	C277.142303,376.997345 266.578156,366.652191 260.186462,352.817719 
	C252.248947,335.637421 252.999176,318.906586 263.723511,303.072327 
	C270.025238,293.767944 278.322845,291.806396 286.911499,296.707336 
	C290.928741,298.999664 291.895233,302.032410 289.907806,305.781738 
	C285.924042,313.297180 286.825958,320.111511 291.832703,326.753601 
	C292.672150,327.867188 293.410492,328.960297 294.713501,329.305115 
	C298.263977,330.244659 302.105042,330.555511 304.176605,334.768890 
	C303.994202,321.640442 303.869995,308.973602 296.545349,297.198090 
	C301.120483,296.584229 302.365112,299.387756 303.669647,301.649719 
	C308.102356,309.335785 309.028931,318.022247 310.255524,326.566071 
	C311.742065,336.920258 312.713226,347.353851 315.908661,357.395111 
	C316.568115,359.467316 317.106323,361.626984 315.160370,363.439697 
	C314.343475,364.200592 314.259827,365.263153 314.432861,366.232300 
	C316.115601,375.658447 315.855988,385.538208 321.056519,394.153809 
	C321.933472,395.606659 323.286407,397.608765 320.893951,398.893097 
	C318.899261,399.963837 317.828522,398.174561 317.006439,396.766418 
	C315.583618,394.329346 314.156708,391.859985 313.087280,389.257935 
	C310.291534,382.455322 305.996674,377.264252 298.775574,374.917999 
	C298.157074,374.717072 297.583984,374.321655 297.053680,373.930084 
	C296.829224,373.764404 296.770142,373.374756 296.344879,372.462891 
	C301.831329,370.206238 305.643219,374.199646 310.312927,376.143433 
	C309.957397,363.981354 308.707092,352.364746 305.823242,340.950134 
	C305.410614,339.316895 305.249512,339.357605 300.447998,338.199890 
	C298.449829,346.115509 299.152130,353.998291 300.424011,361.890594 
	C300.703491,363.625092 301.837372,365.958679 299.391998,366.617462 
	C296.506927,367.394714 296.479950,364.468964 295.982910,362.738342 
	C293.669769,354.684540 294.491394,346.525452 295.954315,338.497314 
	C296.539581,335.285339 295.480225,334.015839 292.960938,332.725525 
	C290.414551,331.421356 287.115173,330.657776 286.823761,326.519989 
z"/>
<path fill="#000000" opacity="1.000000" stroke="none" 
	d="
M340.240540,423.696198 
	C374.528137,443.691528 405.494019,467.404694 433.242493,495.290588 
	C434.533234,496.587677 435.770050,497.941040 436.987701,499.307617 
	C438.497192,501.001801 438.924683,502.885925 437.263153,504.658417 
	C435.496490,506.543060 433.569305,505.822327 431.957306,504.386810 
	C428.229431,501.067108 424.657166,497.572235 420.917572,494.266235 
	C389.649261,466.623230 356.478516,441.630096 319.616638,421.809265 
	C301.205963,411.909760 281.954803,404.259186 261.330048,400.370789 
	C259.408936,400.008636 257.450195,399.839508 256.108246,398.071472 
	C257.451752,395.669800 259.543213,395.977203 261.454773,396.127228 
	C280.249329,397.602509 298.030518,402.872711 315.005280,410.882660 
	C323.422821,414.854645 331.618744,419.296295 340.240540,423.696198 
z"/>
<path fill="#000000" opacity="1.000000" stroke="none" 
	d="
M272.657593,573.508240 
	C295.515167,569.596802 317.748047,569.651978 339.622223,576.789490 
	C340.886780,577.202087 342.148438,577.632874 343.382965,578.126526 
	C345.647430,579.031982 347.977966,580.209595 347.013092,583.142883 
	C345.995331,586.236816 343.349792,586.101440 340.777313,585.256165 
	C325.681946,580.296143 310.137024,579.477112 294.427277,580.192688 
	C268.908783,581.354980 244.568665,587.773071 220.876862,596.922913 
	C212.812225,600.037476 204.917526,603.590698 196.923416,606.890747 
	C195.754837,607.373169 194.593674,608.271423 192.917633,607.497131 
	C191.984146,604.530762 194.555649,603.555176 196.297272,602.367371 
	C211.568954,591.952087 228.496384,585.126038 246.028870,579.638123 
	C254.608047,576.952759 263.338715,574.923462 272.657593,573.508240 
z"/>
<path fill="#000000" opacity="1.000000" stroke="none" 
	d="
M251.876556,145.815018 
	C254.963455,144.568390 257.292877,141.874634 260.753967,142.945938 
	C261.191528,145.812729 259.159119,146.426910 257.711792,147.313232 
	C207.970169,177.774292 160.244354,211.219955 112.776413,245.052795 
	C105.726891,250.077362 98.432411,254.760132 91.211952,259.541656 
	C89.387207,260.750031 87.296883,262.070343 85.610237,259.414795 
	C83.920166,256.753906 86.056694,255.544739 87.876305,254.297012 
	C130.042557,225.383652 170.969681,194.648865 214.617966,167.915863 
	C226.827133,160.438187 239.231659,153.279480 251.876556,145.815018 
z"/>
<path fill="#000000" opacity="1.000000" stroke="none" 
	d="
M271.264099,474.673279 
	C316.712128,484.062408 354.069153,505.307587 379.657074,544.644104 
	C382.280212,548.676636 384.352722,553.075989 386.559052,557.367737 
	C387.872528,559.922668 387.607452,562.332275 384.799133,563.719849 
	C382.287109,564.960938 380.599091,563.475159 379.538879,561.383423 
	C357.471100,517.844910 319.070251,495.543671 274.891693,480.644897 
	C271.476868,479.493286 267.305939,479.461823 264.883545,475.933105 
	C266.571167,473.106689 268.891479,474.826324 271.264099,474.673279 
z"/>
<path fill="#000000" opacity="1.000000" stroke="none" 
	d="
M553.215210,426.106903 
	C541.652344,456.682007 530.071106,486.832214 515.637939,515.782959 
	C510.656738,525.774536 505.097687,535.446045 499.192657,544.920959 
	C497.777222,547.192139 495.917816,548.533630 493.424164,546.976196 
	C491.106781,545.528931 491.592743,543.298096 492.799103,541.244507 
	C518.443481,497.590454 535.747681,449.997589 557.418823,404.467407 
	C558.144348,402.943176 558.339539,400.726379 561.822937,401.205261 
	C560.476868,409.989227 556.038025,417.594910 553.215210,426.106903 
z"/>
<path fill="#000000" opacity="1.000000" stroke="none" 
	d="
M518.585815,358.997681 
	C519.538513,372.672180 520.413879,385.942902 521.336182,399.210388 
	C521.612732,403.188324 522.081726,407.153137 522.341553,411.131866 
	C522.467773,413.064819 522.977417,415.643494 520.234985,415.986206 
	C517.331604,416.349030 517.008362,413.733368 516.579895,411.593079 
	C514.652161,401.963928 513.605652,392.205597 512.825806,382.442719 
	C511.432739,365.004547 511.564209,347.515381 511.779114,330.034454 
	C511.821716,326.571899 511.894104,323.100464 513.729309,319.257233 
	C518.433289,322.366455 514.724304,327.681885 517.535828,331.289520 
	C524.662048,329.533356 532.014221,329.020416 539.446777,330.632294 
	C547.100769,332.292114 553.826782,335.753906 559.960632,340.500458 
	C561.453796,341.655884 563.075500,343.043610 561.704590,345.049133 
	C560.160461,347.308105 558.491821,345.591034 557.017578,344.629517 
	C551.457275,341.003021 545.910217,337.361938 538.504944,335.818970 
	C538.418640,342.233734 538.472595,348.405823 534.202698,353.810425 
	C538.870117,355.515839 542.539612,353.778809 546.237793,352.708618 
	C547.503601,352.342346 548.637573,351.536896 549.893677,351.117126 
	C551.327637,350.637939 553.017090,350.227478 553.812378,352.002106 
	C554.621643,353.807922 553.127930,354.781189 551.824341,355.497650 
	C544.984924,359.257111 537.687439,360.388672 530.106079,358.575928 
	C526.428162,357.696533 522.900208,356.189697 519.273682,354.956482 
	C517.815735,355.933563 518.627930,357.360779 518.585815,358.997681 
M534.268555,336.307617 
	C531.388489,334.005035 521.688660,333.281982 518.773499,335.643677 
	C515.833984,338.025085 517.702759,341.484039 517.784485,344.494965 
	C517.811401,345.486115 517.996643,346.488403 518.232300,347.455658 
	C519.276611,351.741882 523.317871,351.752716 526.411682,352.951874 
	C529.059753,353.978241 530.327454,351.725586 531.513977,349.956024 
	C534.122742,346.065277 534.776123,341.668304 534.268555,336.307617 
z"/>
<path fill="#000000" opacity="1.000000" stroke="none" 
	d="
M412.599854,81.376526 
	C405.561493,46.487728 382.570984,28.994011 349.439789,22.992720 
	C350.446869,19.611605 352.298065,19.838383 353.869202,19.973404 
	C387.550873,22.867960 413.491699,44.636219 419.301270,80.092865 
	C422.397705,98.990959 417.932373,116.368614 408.299255,132.648239 
	C407.051300,134.757217 405.548340,136.314972 403.130096,134.906281 
	C400.869720,133.589554 401.596466,131.412247 402.636383,129.615204 
	C408.377960,119.693314 411.913055,109.101250 413.245331,97.674667 
	C413.873444,92.287498 413.460724,87.070076 412.599854,81.376526 
z"/>
<path fill="#000000" opacity="1.000000" stroke="none" 
	d="
M341.303711,40.678410 
	C343.971954,49.882572 343.612823,59.112026 343.978973,68.193451 
	C345.227356,99.156425 345.720001,130.143951 345.155090,161.135635 
	C345.048920,166.960800 344.607849,172.779495 344.350464,178.602463 
	C344.267059,180.489670 344.246155,182.675308 341.825623,182.750763 
	C339.158295,182.833923 338.817993,180.502960 338.760620,178.464905 
	C338.432434,166.810257 337.984192,155.154541 337.929352,143.497543 
	C337.803131,116.669373 337.828644,89.840088 337.910675,63.011608 
	C337.930511,56.524281 338.364288,50.035980 338.710754,43.553631 
	C338.787231,42.122295 338.148804,39.837975 341.303711,40.678410 
z"/>
<path fill="#000000" opacity="1.000000" stroke="none" 
	d="
M473.855927,740.776917 
	C470.804138,741.320129 469.541382,739.530212 468.503967,737.568481 
	C454.110443,710.349976 432.394867,689.611206 408.993439,670.385437 
	C402.179565,664.787415 395.156891,659.444031 388.258209,653.948425 
	C387.029724,652.969788 385.233490,652.268555 385.749054,650.092834 
	C387.246796,648.682251 388.557587,649.717102 389.797729,650.443054 
	C422.283203,669.458374 450.294373,693.311279 470.630066,725.418579 
	C472.496826,728.366028 474.223511,731.427734 475.715088,734.578491 
	C476.765961,736.798401 476.866333,739.147217 473.855927,740.776917 
z"/>
<path fill="#000000" opacity="1.000000" stroke="none" 
	d="
M396.270142,151.985565 
	C398.226013,164.041000 400.686829,175.584671 401.511902,187.373169 
	C401.638885,189.187622 402.258514,191.441910 399.656128,191.707138 
	C397.514404,191.925400 397.206238,189.728485 396.907440,188.154053 
	C391.273743,158.470703 384.188690,129.055862 379.992432,99.109901 
	C377.803406,83.488068 376.256195,67.773933 375.712921,51.988792 
	C375.648499,50.117733 375.179840,47.998375 376.889282,46.524796 
	C379.814331,46.953377 379.293091,49.212818 379.541290,50.835720 
	C382.176544,68.067574 384.539642,85.343445 387.377411,102.541245 
	C390.080048,118.920212 393.256958,135.220932 396.270142,151.985565 
z"/>
<path fill="#000000" opacity="1.000000" stroke="none" 
	d="
M471.413330,592.757629 
	C468.131470,591.387207 464.354218,591.863647 462.527405,588.553650 
	C463.348999,586.337708 464.983643,586.818481 466.411804,587.004456 
	C502.100220,591.652405 534.120789,604.830444 561.795410,628.087646 
	C562.942322,629.051453 564.083008,630.029846 565.151978,631.077515 
	C566.897705,632.788330 567.557800,634.783264 565.863708,636.840576 
	C564.065369,639.024536 561.791138,638.991455 559.659729,637.383179 
	C555.540405,634.274963 551.579590,630.956177 547.447815,627.865417 
	C524.709045,610.855530 499.117218,599.994751 471.413330,592.757629 
z"/>
<path fill="#000000" opacity="1.000000" stroke="none" 
	d="
M361.480896,106.589020 
	C362.468506,127.678894 362.562439,148.299332 361.467621,168.920624 
	C361.348022,171.173462 360.651215,173.059891 358.157410,173.050385 
	C355.358734,173.039688 354.711090,170.885727 354.686035,168.515228 
	C354.501526,151.045776 354.161194,133.575943 354.193909,116.106819 
	C354.227905,97.971031 354.602814,79.835541 354.896240,61.701019 
	C354.929352,59.654167 354.228668,57.293888 356.519012,55.708347 
	C359.505371,56.288063 359.030365,58.796761 359.261749,60.795727 
	C361.004883,75.853676 361.458313,90.976852 361.480896,106.589020 
z"/>
<path fill="#000000" opacity="1.000000" stroke="none" 
	d="
M421.182739,321.690735 
	C432.706238,321.270447 443.245758,322.882324 452.501068,329.513092 
	C453.579468,330.285706 454.606598,331.150940 455.555756,332.077454 
	C456.666504,333.161652 457.664948,334.430054 456.333435,335.963898 
	C455.029816,337.465576 453.634796,336.815155 452.375854,335.807770 
	C448.166626,332.439545 443.603973,329.848755 437.672791,328.935181 
	C439.013000,334.980316 437.620880,340.258911 433.993134,345.388580 
	C439.322235,346.249023 443.970581,345.678680 448.602844,344.259125 
	C450.617493,343.641693 453.229706,342.668213 453.971222,345.723145 
	C454.636169,348.462280 451.884369,348.654510 450.128387,349.361206 
	C443.078979,352.198273 435.651367,351.952271 428.435547,350.976135 
	C417.796875,349.536987 407.816406,345.757904 398.625122,340.089081 
	C396.959656,339.061890 396.974091,339.038483 395.357483,335.898560 
	C402.193298,335.925385 407.109863,340.999939 414.210815,341.459442 
	C412.207214,337.242737 411.252716,333.037567 411.737457,328.621429 
	C406.177887,328.015564 402.001923,332.501465 396.534363,331.120270 
	C403.087463,324.244934 411.826141,322.795410 421.182739,321.690735 
M432.760468,328.781372 
	C429.942535,326.184418 426.429871,327.233795 423.227173,327.165192 
	C415.625336,327.002258 413.680054,330.420197 417.154633,337.394775 
	C417.597870,338.284454 418.237671,339.075867 418.684204,339.964203 
	C421.980286,346.521820 427.680176,346.930328 431.787811,340.893036 
	C434.214935,337.325714 434.513245,333.499023 432.760468,328.781372 
z"/>
<path fill="#000000" opacity="1.000000" stroke="none" 
	d="
M325.612061,358.311218 
	C324.003479,353.338531 322.011749,348.852112 322.427551,343.761810 
	C328.056183,347.910736 329.132233,354.385101 331.434143,360.155487 
	C333.774200,366.021362 335.856903,371.989899 338.382355,377.884674 
	C336.528625,369.145233 337.324341,360.347076 337.871399,351.637604 
	C338.433044,342.695984 340.054230,333.818359 335.575592,325.165924 
	C339.297424,324.040802 340.356628,326.354004 341.259277,328.365601 
	C342.697235,331.570282 343.347565,335.010223 343.330963,338.549408 
	C343.284882,348.374695 343.271240,358.200287 343.182831,368.025177 
	C343.134338,373.412384 343.810883,378.643707 346.038452,383.601746 
	C347.205109,386.198425 347.728577,388.562164 343.674500,389.119049 
	C346.920837,395.617615 350.819702,401.178497 355.213257,406.419220 
	C356.355347,407.781555 358.144989,409.289734 356.236542,411.102295 
	C354.311035,412.931000 352.806671,410.954865 351.578827,409.816101 
	C346.650970,405.245819 342.978027,399.716034 339.680573,393.891327 
	C333.399780,382.796570 329.327026,370.841858 325.612061,358.311218 
z"/>
<path fill="#000000" opacity="1.000000" stroke="none" 
	d="
M193.633698,497.360596 
	C195.838425,499.706604 200.817581,500.742645 198.310013,504.594513 
	C195.598206,508.759979 192.686310,504.552948 190.424774,503.059204 
	C166.265717,487.102264 141.352783,472.461578 115.486443,459.444244 
	C113.957230,458.674683 111.892372,458.342896 111.548271,455.686066 
	C114.112328,453.602966 116.552414,455.555420 118.761528,456.354828 
	C137.441299,463.114532 154.823364,472.535614 171.734238,482.828552 
	C179.108780,487.317139 186.148987,492.355072 193.633698,497.360596 
z"/>
<path fill="#000000" opacity="1.000000" stroke="none" 
	d="
M334.121490,402.808838 
	C332.135498,399.950623 330.185486,397.502686 328.707275,394.699219 
	C330.206604,400.870026 332.163879,406.778442 336.140778,411.843994 
	C337.516754,413.596619 339.799835,415.816284 337.104553,417.817810 
	C334.067841,420.072784 332.669373,416.868164 331.374390,414.951080 
	C324.984650,405.492157 322.094360,394.796875 320.630951,383.623993 
	C320.059418,379.260345 318.412476,374.908234 321.247131,370.635132 
	C321.921295,369.618835 322.206757,368.529968 323.655090,368.637909 
	C324.809082,368.723938 325.604706,369.533295 325.761871,370.495697 
	C328.794342,389.070587 341.026306,402.723053 350.882263,417.648407 
	C351.030670,417.873138 350.900787,418.281616 350.900787,418.845245 
	C348.979767,420.407288 347.637787,419.079926 346.458862,417.684753 
	C342.377960,412.855286 338.359741,407.972839 334.121490,402.808838 
z"/>
<path fill="#000000" opacity="1.000000" stroke="none" 
	d="
M329.583679,55.566376 
	C321.661224,68.865196 315.604950,82.476212 313.878296,97.689903 
	C312.480164,110.008621 314.025604,121.604881 322.245178,131.549805 
	C323.328430,132.860397 324.626221,134.335526 323.062531,135.910004 
	C321.167114,137.818558 319.726044,136.087738 318.486450,134.768158 
	C308.675720,124.324394 306.753693,111.396042 308.003082,97.992798 
	C309.652252,80.300682 317.204498,64.770889 327.590088,50.549961 
	C328.470093,49.344978 329.505188,48.240818 330.561829,47.183292 
	C330.999298,46.745472 331.683197,46.553890 332.710175,46.008694 
	C334.794525,50.302231 330.898407,52.380550 329.583679,55.566376 
z"/>
<path fill="#000000" opacity="1.000000" stroke="none" 
	d="
M465.823975,310.942535 
	C469.425842,312.398010 472.665161,313.697357 475.878204,315.058746 
	C477.557800,315.770416 478.816742,316.967865 478.098785,318.918060 
	C477.302551,321.080933 475.422852,320.538940 473.864960,319.994476 
	C464.610413,316.759949 455.308594,313.754883 445.615692,312.033783 
	C428.005310,308.906952 410.878113,309.457306 394.645630,318.003052 
	C393.412598,318.652191 392.106689,319.781708 390.244049,318.513336 
	C389.739288,315.823364 392.220062,315.032898 393.790741,313.996918 
	C404.864380,306.693085 417.334473,304.195404 430.331299,304.291290 
	C442.375671,304.380127 454.042084,307.028595 465.823975,310.942535 
z"/>
<path fill="#000000" opacity="1.000000" stroke="none" 
	d="
M141.836761,602.918335 
	C123.282669,602.448730 106.216797,598.835999 90.994675,587.048279 
	C94.169815,584.702454 96.093544,586.447815 97.837944,587.190918 
	C112.914589,593.612610 128.525620,596.816162 144.965317,595.751831 
	C149.823441,595.437195 154.423508,594.039124 159.134079,593.089050 
	C161.744934,592.562561 164.912994,591.715271 165.708206,595.359314 
	C166.439484,598.710449 163.332092,599.304810 160.947128,599.898926 
	C154.817627,601.426086 148.599945,602.480103 141.836761,602.918335 
z"/>
<path fill="#000000" opacity="1.000000" stroke="none" 
	d="
M187.249374,531.367249 
	C185.393311,532.534668 183.844772,533.506287 182.295425,534.476562 
	C180.868744,535.369934 179.369751,535.607422 178.323608,534.091614 
	C177.178955,532.432922 177.778152,530.880615 179.360641,529.800903 
	C183.622971,526.892822 187.713333,523.811829 191.416840,520.171997 
	C199.867264,511.866852 206.490723,502.016632 214.441360,493.300903 
	C220.278290,486.902283 226.262436,480.636353 235.108551,478.377228 
	C236.046082,478.137787 237.013947,477.652863 237.945694,478.521271 
	C238.772751,479.829163 238.186050,480.715790 236.956589,481.259338 
	C226.303848,485.968597 219.600571,494.950653 212.763046,503.735077 
	C205.104218,513.574646 197.763077,523.681885 187.249374,531.367249 
z"/>
<path fill="#000000" opacity="1.000000" stroke="none" 
	d="
M350.624878,222.408112 
	C347.848358,219.546524 343.843353,218.213776 342.925476,214.112274 
	C345.241089,212.234665 346.546844,214.094208 347.890503,215.061218 
	C353.691040,219.235764 359.603668,223.286667 365.110901,227.824997 
	C368.620819,230.717422 371.031921,230.854904 374.248779,227.400772 
	C381.041016,220.107574 388.187897,213.144165 395.210968,206.066940 
	C396.429291,204.839264 397.302124,202.967026 399.641266,203.386780 
	C400.957184,205.920822 399.062531,207.467667 397.799194,209.052490 
	C392.720306,215.423996 387.189545,221.372025 381.243744,226.965942 
	C377.944733,230.069702 372.734283,232.317398 375.333130,238.463837 
	C372.398376,239.307129 370.105835,238.680801 367.717804,239.279495 
	C363.101898,240.436707 366.538757,236.432571 365.991302,234.597427 
	C361.046753,230.671677 355.978119,226.647446 350.624878,222.408112 
z"/>
<path fill="#000000" opacity="1.000000" stroke="none" 
	d="
M343.161011,309.163269 
	C335.277924,317.131836 331.814941,326.245605 333.580841,337.128143 
	C333.869507,338.907166 333.737488,340.690857 331.541779,340.957123 
	C329.396179,341.217255 328.909973,339.497406 328.480682,337.769348 
	C326.346558,329.178345 328.177307,321.287262 332.581390,313.833374 
	C334.071625,311.311127 354.244019,290.362000 356.930542,288.491547 
	C358.882751,292.891296 355.777527,297.576721 343.161011,309.163269 
z"/>
<path fill="#000000" opacity="1.000000" stroke="none" 
	d="
M398.640137,104.411652 
	C397.768097,106.640427 397.131531,108.536362 396.304474,110.345192 
	C395.358276,112.414696 394.518005,115.279121 391.435852,113.876808 
	C388.582397,112.578583 390.155670,110.150993 391.006439,108.269356 
	C392.999786,103.860870 394.656067,99.354980 395.601166,94.603195 
	C397.772278,83.687073 397.223999,73.123238 391.545593,63.215763 
	C391.053986,62.357998 390.592010,61.437565 391.153687,60.113243 
	C393.483765,58.871952 394.567352,60.764820 395.636505,62.329941 
	C401.142792,70.390129 402.503540,79.495407 401.900330,88.959816 
	C401.573120,94.094002 400.490631,99.149925 398.640137,104.411652 
z"/>
<path fill="#000000" opacity="1.000000" stroke="none" 
	d="
M277.275330,338.430298 
	C280.099640,334.971405 280.099640,334.971405 283.300354,334.006287 
	C284.736389,336.099274 282.853760,337.368011 281.970734,338.726929 
	C274.632538,350.019714 278.137115,362.146057 290.419434,368.093597 
	C292.263458,368.986542 296.161072,369.160217 294.658356,372.241974 
	C293.194458,375.244141 290.176300,372.831268 288.123901,371.880096 
	C274.415314,365.526917 269.986084,352.091919 277.275330,338.430298 
z"/>
<path fill="#000000" opacity="1.000000" stroke="none" 
	d="
M228.036011,471.635620 
	C230.715988,471.932648 233.203659,472.460388 232.617813,475.334167 
	C232.093201,477.907623 229.576355,477.402893 227.624176,477.038788 
	C218.501953,475.337219 209.361191,473.888184 200.031281,474.135223 
	C198.605286,474.172974 196.964340,474.290985 196.146729,471.433838 
	C206.732590,467.939026 217.180893,470.061951 228.036011,471.635620 
z"/>
<path fill="#000000" opacity="1.000000" stroke="none" 
	d="
M484.923981,497.045471 
	C480.275116,494.241791 475.109924,493.534119 470.636566,491.504608 
	C471.265747,488.726685 472.929352,488.930481 474.358398,489.094604 
	C483.436127,490.137054 491.242126,493.891937 497.675018,500.387238 
	C498.588165,501.309235 499.273865,502.519836 499.842194,503.703705 
	C500.524658,505.125366 501.850830,506.885803 499.752899,508.053253 
	C497.782104,509.149963 496.784973,507.440491 495.883484,505.991272 
	C493.324097,501.876740 489.500793,499.290741 484.923981,497.045471 
z"/>
<path fill="#000000" opacity="1.000000" stroke="none" 
	d="
M453.127625,462.887817 
	C459.651459,463.363831 465.933258,461.732300 472.006012,464.164276 
	C471.095764,466.772583 469.316742,466.750214 468.021118,466.851227 
	C460.577820,467.431183 453.119629,467.829926 445.662750,468.218353 
	C443.972595,468.306396 442.076599,468.171967 442.007660,465.869293 
	C441.945709,463.800354 443.723328,463.731415 445.211792,463.576447 
	C447.686798,463.318848 450.167633,463.116943 453.127625,462.887817 
z"/>
<path fill="#000000" opacity="1.000000" stroke="none" 
	d="
M477.398438,477.645142 
	C482.674988,477.689636 487.488892,477.681763 492.301208,477.765930 
	C493.678802,477.790039 495.030151,478.170349 495.012787,479.965088 
	C494.998840,481.404205 493.933746,482.038147 492.724457,482.122742 
	C483.575684,482.763031 474.520111,482.466492 465.836121,479.043091 
	C465.621490,478.958496 465.554596,478.499176 465.195435,477.746552 
	C469.132751,475.323822 473.081421,477.417114 477.398438,477.645142 
z"/>
<path fill="#000000" opacity="1.000000" stroke="none" 
	d="
M455.705475,418.024292 
	C457.384186,408.355072 462.827454,402.487549 470.505127,402.436249 
	C469.208954,406.729065 464.494080,407.402924 462.608093,410.748810 
	C460.634857,414.249451 460.146484,418.226349 458.413696,421.665009 
	C455.547821,421.983246 455.849396,420.040314 455.705475,418.024292 
z"/>
<path fill="#000000" opacity="1.000000" stroke="none" 
	d="
M506.346344,475.689087 
	C502.726349,472.162537 498.054657,470.812317 493.780487,467.998138 
	C496.639740,465.692139 498.856934,466.566742 500.927704,467.367798 
	C505.482544,469.129730 509.176147,472.188690 512.560364,475.625275 
	C513.586304,476.667114 514.907593,477.941345 513.435791,479.421356 
	C511.897614,480.968109 510.772461,479.299530 509.657379,478.471161 
	C508.598572,477.684631 507.631989,476.773987 506.346344,475.689087 
z"/>
<path fill="#000000" opacity="1.000000" stroke="none" 
	d="
M487.540283,435.871185 
	C484.010712,436.140167 482.712402,433.165955 480.536621,431.585114 
	C477.983337,429.730011 475.350739,428.091736 472.510254,426.738983 
	C471.440308,426.229462 470.508087,425.427368 470.794281,424.041107 
	C471.038971,422.855957 471.971954,422.616272 473.061340,422.644470 
	C477.662262,422.763580 486.823486,430.841309 487.540283,435.871185 
z"/>
<path fill="#000000" opacity="1.000000" stroke="none" 
	d="
M507.534119,419.243652 
	C509.701324,419.141052 511.491394,418.880341 513.290283,418.783478 
	C514.372437,418.725189 515.250488,419.286011 515.411804,420.441498 
	C515.537720,421.343719 514.929932,421.912994 514.206421,422.418640 
	C508.596893,426.339233 497.103394,421.305939 496.223785,414.029358 
	C500.413757,414.901031 502.890717,419.146820 507.534119,419.243652 
z"/>
<path fill="#000000" opacity="1.000000" stroke="none" 
	d="
M483.487946,467.232117 
	C484.185364,467.403381 484.528046,467.421112 484.830688,467.540436 
	C486.635895,468.252167 490.192932,466.029785 490.160797,469.080780 
	C490.123779,472.593872 486.328156,471.270813 484.148041,471.250427 
	C480.181000,471.213287 476.447968,470.152344 473.496429,466.554840 
	C477.230042,464.018219 480.054810,467.409973 483.487946,467.232117 
z"/>
</svg>