<svg version="1.1" id="Layer_1" xmlns="http://www.w3.org/2000/svg" xmlns:xlink="http://www.w3.org/1999/xlink" x="0px" y="0px"
	 width="100%" viewBox="0 0 736 794" enable-background="new 0 0 736 794" xml:space="preserve">
<path fill="none" opacity="1.000000" stroke="#000000" stroke-linecap="round" stroke-linejoin="round" stroke-width="3.000000"
	d="
M344.000000,297.000000 
	C349.885895,308.020081 355.039673,319.291168 356.081818,332.511292 
	C347.500305,332.505066 338.964691,332.361389 330.499054,333.492920 
	C318.267303,335.127808 306.288391,337.615234 294.454987,341.357635 
	C275.101196,347.478363 259.028229,359.555054 241.437485,368.882080 
	C212.154922,384.408417 188.722382,407.037415 164.925064,429.420319 
	C145.518387,447.673523 127.795540,467.458282 111.159927,488.128723 
	C93.053299,510.626984 77.808784,535.195740 62.943089,559.965820 
	C53.948101,574.953796 44.739410,589.810547 37.024899,605.512207 
	C29.387030,621.057983 20.306471,635.932312 15.894958,652.972778 
	C13.841113,660.906189 14.206326,663.362915 21.523056,666.445251 
	C30.750645,670.332581 40.485874,672.351013 50.500500,672.448486 
	C60.179928,672.542664 69.032043,674.966797 77.000000,680.500000 
"/>
<path fill="none" opacity="1.000000" stroke="#000000" stroke-linecap="round" stroke-linejoin="round" stroke-width="3.000000"
	d="
M658.500000,694.000000 
	C662.847473,692.985474 665.479187,689.179871 669.455750,687.401123 
	C677.128174,683.968994 684.959656,684.444214 693.005493,684.903381 
	C701.980835,685.415466 710.961060,685.531555 719.546387,681.601318 
	C724.329346,679.411743 726.857483,675.391113 729.323425,671.391113 
	C730.264465,669.864502 730.019104,667.014893 728.510986,664.991821 
	C725.529602,660.992676 724.114136,656.624268 723.178345,651.559448 
	C722.023865,645.310791 718.595459,639.458069 715.982849,633.507507 
	C706.591553,612.118286 696.462463,591.092163 684.486450,571.008057 
	C674.087891,553.569275 663.585449,536.203308 652.058105,519.460022 
	C641.645569,504.335785 630.102295,490.087524 619.150757,475.387695 
	C610.130066,463.279572 601.298218,451.070374 590.459656,440.541534 
	C571.604797,422.225494 552.760132,403.883331 533.399719,386.109222 
	C522.285095,375.905212 510.383453,366.538818 497.524841,358.460449 
	C480.212555,347.584198 461.175293,341.333710 441.523682,336.405518 
	C433.912872,334.496918 426.233673,333.679932 418.497223,333.033112 
	C412.511169,332.532623 406.615326,330.724945 400.485687,331.926971 
	C398.965088,332.225159 397.400391,332.218414 396.000000,333.000000 
"/>
<path fill="none" opacity="1.000000" stroke="#000000" stroke-linecap="round" stroke-linejoin="round" stroke-width="3.000000"
	d="
M362.500000,338.000000 
	C357.477539,340.216309 353.113678,343.380493 348.979980,346.976990 
	C332.342529,361.452148 318.288269,378.390411 304.163605,395.137970 
	C288.441864,413.779266 274.185089,433.634888 259.976501,453.483185 
	C246.950241,471.679901 237.516678,491.879974 226.850479,511.418365 
	C217.138260,529.209290 210.301193,548.082703 203.598938,567.034973 
	C199.111221,579.725159 196.416901,592.979919 192.862198,605.962280 
	C189.071793,619.805481 185.844391,633.792725 181.664658,647.550049 
	C177.511002,661.221436 173.001968,674.789368 169.097809,688.527771 
	C166.106262,699.054810 163.973831,709.827271 161.512146,720.502808 
	C160.439896,725.152832 159.464203,729.825989 158.510834,734.502197 
	C157.686691,738.544678 158.848419,741.699341 162.476196,744.036926 
	C167.394882,747.206299 172.864349,749.062927 178.507324,749.361328 
	C187.693268,749.847046 196.831116,748.973450 206.033661,747.754089 
	C217.934357,746.177063 229.841858,743.731018 242.001984,744.467163 
	C247.702499,744.812195 252.686813,747.428406 258.000000,749.000000 
"/>
<path fill="none" opacity="1.000000" stroke="#000000" stroke-linecap="round" stroke-linejoin="round" stroke-width="3.000000"
	d="
M384.500000,337.000000 
	C403.194122,340.909546 421.124573,347.324768 437.905243,356.179596 
	C460.396545,368.047821 481.213074,382.289490 499.203857,400.801880 
	C514.844360,416.895844 528.216919,434.587036 541.551697,452.461456 
	C560.483337,477.838104 577.729187,504.231995 593.142334,531.920776 
	C604.878235,553.003845 615.183105,574.739685 625.502014,596.499023 
	C628.722168,603.289368 631.097290,610.397888 633.532227,617.488953 
	C634.073120,619.064331 635.311096,620.500000 633.500000,622.000000 
"/>
<path fill="none" opacity="1.000000" stroke="#000000" stroke-linecap="round" stroke-linejoin="round" stroke-width="3.000000"
	d="
M382.000000,340.500000 
	C388.221313,347.103638 396.534485,350.869385 403.604401,356.365692 
	C415.777557,365.829468 427.768097,375.234039 438.199402,386.820465 
	C448.784119,398.577332 458.941162,410.579437 467.966644,423.523254 
	C485.970551,449.343170 501.065155,476.878296 513.823059,505.578644 
	C521.974182,523.915344 529.508728,542.677490 534.782104,562.059265 
	C539.342041,578.818909 544.135803,595.551758 547.936279,612.514282 
	C550.342712,623.254822 552.786438,633.977234 556.034058,644.489502 
	C559.313782,655.105408 565.691467,660.901917 576.511841,663.449646 
	C577.422180,663.663940 578.500000,663.166687 579.500000,663.000000 
"/>
<path fill="none" opacity="1.000000" stroke="#000000" stroke-linecap="round" stroke-linejoin="round" stroke-width="3.000000"
	d="
M327.000000,344.000000 
	C319.316101,347.477936 312.340668,352.090088 305.467529,356.954102 
	C291.278290,366.995544 277.057495,376.932617 263.929260,388.419159 
	C249.957031,400.644165 237.196243,414.009460 224.386551,427.391418 
	C218.531601,433.507935 212.457977,439.457397 206.489777,445.489899 
	C188.988358,463.180054 173.277145,482.336548 161.124176,504.069427 
	C151.772476,520.792908 141.756409,537.123962 133.241882,554.372559 
	C124.626358,571.825806 115.480278,589.003174 107.965424,606.985535 
	C107.223785,608.760193 105.747063,610.233032 105.040230,612.015930 
	C99.633598,625.653564 94.452774,639.381592 88.954773,652.981689 
	C85.707436,661.014465 82.914139,669.221375 79.097015,677.047302 
	C76.323341,682.733948 74.894142,689.027527 71.555901,694.533875 
	C70.011475,697.081360 71.408333,699.236755 73.491974,701.009460 
	C78.664284,705.409973 84.790924,708.016968 90.996956,710.507568 
	C100.636635,714.376404 110.600342,715.660278 120.999985,715.661316 
	C131.318954,715.662292 141.775635,716.158813 151.496231,720.508423 
	C154.353989,721.787109 157.166672,723.166687 160.000000,724.500000 
"/>
<path fill="none" opacity="1.000000" stroke="#000000" stroke-linecap="round" stroke-linejoin="round" stroke-width="3.000000"
	d="
M308.500000,489.500000 
	C299.247772,515.164429 291.853455,541.353821 285.950439,567.989014 
	C283.047058,581.089355 278.768127,593.955811 276.331116,607.061584 
	C272.562042,627.331238 267.049255,647.319214 265.458221,667.996765 
	C264.341278,682.513428 262.792175,696.996460 261.549042,711.504211 
	C261.382599,713.446655 261.410614,715.040894 259.005157,715.525635 
	C253.322220,716.670715 250.495590,721.273987 247.568665,725.547058 
	C246.245926,727.478149 246.241898,729.820801 248.464020,731.445129 
	C252.769653,729.884399 256.194000,726.896057 259.385742,723.879150 
	C261.517914,721.863770 262.361084,718.661743 261.000000,715.500000 
"/>
<path fill="none" opacity="1.000000" stroke="#000000" stroke-linecap="round" stroke-linejoin="round" stroke-width="3.000000"
	d="
M435.500000,472.500000 
	C438.741150,476.047241 439.273712,480.800415 440.941742,485.023010 
	C446.250183,498.461365 449.320526,512.575745 452.982422,526.504639 
	C457.233215,542.673401 460.703949,559.020691 463.467255,575.505493 
	C465.700378,588.827209 468.425690,602.056274 470.119537,615.484924 
	C471.537323,626.725037 473.776489,637.879700 476.079956,648.983398 
	C477.572815,656.179810 478.956177,663.430420 480.569641,670.596863 
	C481.703705,675.633667 480.703125,681.534668 481.537994,686.994202 
	C482.279022,691.839905 481.145599,697.015137 484.000000,701.500000 
"/>
<path fill="none" opacity="1.000000" stroke="#000000" stroke-linecap="round" stroke-linejoin="round" stroke-width="3.000000"
	d="
M399.000000,144.000000 
	C389.021790,143.335510 383.924103,135.491638 377.470825,129.531586 
	C363.146393,116.301941 347.108704,105.786407 328.501282,99.496193 
	C322.783752,97.563370 322.412201,97.670952 319.509583,103.504768 
	C314.729187,113.112663 312.718872,123.028244 316.515045,133.494537 
	C317.073334,135.033859 317.426239,137.055099 318.575043,137.897675 
	C322.268890,140.606735 321.530426,143.370667 320.098816,147.038559 
	C315.947540,157.674622 316.055328,168.064285 323.507050,177.494415 
	C326.881104,181.764206 331.538483,184.199677 336.523163,185.933426 
	C338.935516,186.772507 340.481873,187.967072 341.011932,190.497498 
	C342.707397,198.591339 349.025635,203.250732 355.131897,207.301132 
	C362.035583,211.880493 369.865112,215.286133 378.500854,215.456100 
	C382.829254,215.541290 387.166656,215.166672 391.500000,215.000000 
"/>
<path fill="none" opacity="1.000000" stroke="#000000" stroke-linecap="round" stroke-linejoin="round" stroke-width="3.000000"
	d="
M357.500000,378.000000 
	C358.964539,367.253448 364.194031,357.403351 366.023895,346.599060 
	C362.427155,346.250092 361.966461,348.669617 361.076355,350.049255 
	C345.409119,374.333038 334.101288,400.735962 323.425995,427.470459 
	C319.501770,437.298035 314.011841,446.455658 310.478394,456.492401 
	C304.301544,474.037903 299.126770,491.870026 295.126953,510.027954 
	C294.808594,511.473083 293.663696,512.189209 293.500000,513.500000 
"/>
<path fill="none" opacity="1.000000" stroke="#000000" stroke-linecap="round" stroke-linejoin="round" stroke-width="3.000000"
	d="
M376.500000,344.000000 
	C383.261871,350.781158 386.897705,359.629883 391.942444,367.536713 
	C401.032227,381.783508 407.851776,397.231079 415.023987,412.488739 
	C424.161041,431.926300 433.993500,451.027832 442.090668,470.963165 
	C447.086395,483.262665 452.190948,495.471588 455.000000,508.500000 
"/>
<path fill="none" opacity="1.000000" stroke="#000000" stroke-linecap="round" stroke-linejoin="round" stroke-width="3.000000"
	d="
M398.500000,476.500000 
	C399.592194,484.310394 402.755341,491.523254 404.909546,499.025970 
	C408.682190,512.165283 412.343597,525.323669 414.120300,538.984375 
	C415.907013,552.722107 418.936371,566.294678 420.900299,580.014282 
	C422.106018,588.437134 422.333344,597.000000 423.000000,605.500000 
"/>
<path fill="none" opacity="1.000000" stroke="#000000" stroke-linecap="round" stroke-linejoin="round" stroke-width="3.000000"
	d="
M213.000000,139.500000 
	C215.166672,153.500000 217.388977,167.491684 219.481888,181.502701 
	C221.073181,192.155746 222.426483,202.844315 224.018890,213.497177 
	C225.939041,226.342438 228.000000,239.166672 230.000000,252.000000 
"/>
<path fill="none" opacity="1.000000" stroke="#000000" stroke-linecap="round" stroke-linejoin="round" stroke-width="3.000000"
	d="
M344.000000,484.000000 
	C342.666656,491.500000 341.398987,499.012390 339.985657,506.497284 
	C337.426697,520.049011 337.667999,533.861633 336.060486,547.507141 
	C334.457184,561.117004 335.032562,574.826233 335.016418,588.500000 
	C335.015015,589.688721 335.113403,590.943298 336.500000,591.500000 
"/>
<path fill="none" opacity="1.000000" stroke="#000000" stroke-linecap="round" stroke-linejoin="round" stroke-width="4.000000"
	d="
M213.500000,16.000000 
	C216.092102,13.616168 219.271454,15.236701 222.003342,15.188196 
	C240.111206,14.866683 257.673309,17.714361 275.087097,23.224731 
	C288.603088,27.501686 301.956268,32.004955 315.002014,37.495182 
	C317.156219,38.401756 319.557129,38.942265 320.500000,41.500000 
"/>
<path fill="none" opacity="1.000000" stroke="#000000" stroke-linecap="round" stroke-linejoin="round" stroke-width="3.000000"
	d="
M273.000000,473.500000 
	C264.053864,490.125549 256.204285,507.305328 248.677109,524.577209 
	C241.476654,541.099304 234.041992,557.600342 228.924683,574.977844 
	C228.554703,576.234070 228.601852,578.239441 226.500000,578.500000 
"/>
<path fill="none" opacity="1.000000" stroke="#000000" stroke-linecap="round" stroke-linejoin="round" stroke-width="3.000000"
	d="
M193.500000,18.000000 
	C169.238159,23.086054 146.683441,32.349556 126.032196,46.048531 
	C117.173134,51.925167 108.672470,58.341515 99.997078,64.495880 
	C96.634697,66.881172 93.438057,69.540962 89.500000,71.000000 
"/>
<path fill="none" opacity="1.000000" stroke="#000000" stroke-linecap="round" stroke-linejoin="round" stroke-width="3.000000"
	d="
M407.000000,201.500000 
	C410.207611,216.714294 419.095642,227.934021 432.038055,235.938492 
	C445.183655,244.068619 459.500122,247.523849 475.004364,245.027191 
	C477.640045,244.602783 480.333344,243.977066 483.000000,245.000000 
"/>
<path fill="none" opacity="1.000000" stroke="#000000" stroke-linecap="round" stroke-linejoin="round" stroke-width="3.000000"
	d="
M217.500000,136.500000 
	C220.045959,150.776001 221.930542,165.152573 224.118851,179.481842 
	C226.029358,191.992020 227.713989,204.542511 229.764526,217.038635 
	C231.610901,228.290695 233.032089,239.662415 234.500000,251.000000 
"/>
<path fill="none" opacity="1.000000" stroke="#000000" stroke-linecap="round" stroke-linejoin="round" stroke-width="3.000000"
	d="
M194.500000,21.500000 
	C187.333328,28.000000 179.891922,34.225155 173.057297,41.057316 
	C158.896210,55.213264 148.682648,71.924019 142.586838,91.027710 
	C141.783096,93.546577 139.845917,95.670860 140.000000,98.500000 
"/>
<path fill="none" opacity="1.000000" stroke="#000000" stroke-linecap="round" stroke-linejoin="round" stroke-width="3.000000"
	d="
M382.000000,225.000000 
	C373.180176,226.867203 366.792358,232.648346 360.554199,238.557220 
	C359.023926,240.006699 357.190552,242.195877 357.244293,243.992676 
	C357.313263,246.296646 355.904449,247.547699 354.906250,248.388718 
	C346.567780,255.414459 339.519196,263.711456 332.136230,271.627045 
	C327.368866,276.738342 322.073578,275.296875 317.027771,274.351715 
	C305.274017,272.150085 293.666656,269.166656 282.000000,266.500000 
"/>
<path fill="none" opacity="1.000000" stroke="#000000" stroke-linecap="round" stroke-linejoin="round" stroke-width="4.000000"
	d="
M484.000000,704.500000 
	C482.850342,705.526245 483.350983,706.670288 483.396698,708.003540 
	C483.837158,720.851685 484.622589,733.678650 485.264832,746.511780 
	C485.560425,752.417175 484.945526,758.498413 485.041229,764.499329 
	C485.094574,767.840210 482.537567,769.181580 480.448730,770.413025 
	C471.711731,775.563965 462.282349,777.625977 452.001129,777.687317 
	C438.998260,777.764893 426.409180,775.331238 414.059448,772.260864 
	C400.468781,768.881958 386.898560,767.054688 373.002747,767.573608 
	C366.819824,767.804504 360.667786,768.843872 354.499756,769.497681 
	C342.617584,770.757141 331.006134,773.384949 319.515106,776.554749 
	C317.633514,777.073792 316.339355,774.439819 314.500000,776.000000 
"/>
<path fill="none" opacity="1.000000" stroke="#000000" stroke-linecap="round" stroke-linejoin="round" stroke-width="3.000000"
	d="
M251.000000,547.500000 
	C245.869461,564.415527 239.918930,581.099792 236.510193,598.502014 
	C235.018646,606.116577 233.500946,613.732056 233.000000,621.500000 
"/>
<path fill="none" opacity="1.000000" stroke="#000000" stroke-linecap="round" stroke-linejoin="round" stroke-width="3.000000"
	d="
M405.000000,194.500000 
	C406.234802,196.584503 406.347961,198.676071 405.534424,201.011993 
	C402.947449,208.440277 401.864014,215.497208 407.369171,222.601395 
	C412.256073,228.907715 415.023743,236.942871 421.549835,241.934830 
	C435.910034,252.919281 451.614777,259.268463 469.980286,253.437943 
	C475.708344,251.619476 480.713928,248.569489 485.113892,244.112427 
	C491.066498,238.082642 499.862061,235.690170 505.546204,229.039474 
	C508.422180,225.674438 511.854950,222.778381 513.500000,218.500000 
"/>
<path fill="none" opacity="1.000000" stroke="#000000" stroke-linecap="round" stroke-linejoin="round" stroke-width="3.000000"
	d="
M199.000000,21.500000 
	C202.386658,34.465908 204.019272,47.715137 205.534134,60.996109 
	C206.695984,71.182327 208.166656,81.333336 209.500000,91.500000 
"/>
<path fill="none" opacity="1.000000" stroke="#000000" stroke-linecap="round" stroke-linejoin="round" stroke-width="3.000000"
	d="
M206.500000,18.500000 
	C207.119110,20.138823 208.556717,20.825624 210.000458,21.499025 
	C226.089005,29.003279 239.321136,40.409454 251.959579,52.542099 
	C259.182800,59.476242 266.000000,66.833336 273.000000,74.000000 
"/>
<path fill="none" opacity="1.000000" stroke="#000000" stroke-linecap="round" stroke-linejoin="round" stroke-width="3.000000"
	d="
M406.500000,264.000000 
	C404.879639,268.375519 406.075867,272.967438 405.236053,277.543335 
	C401.995636,295.198761 396.879059,312.177521 389.434631,328.470123 
	C388.857117,329.734070 389.266174,330.847565 389.000000,332.000000 
"/>
<path fill="none" opacity="1.000000" stroke="#000000" stroke-linecap="round" stroke-linejoin="round" stroke-width="3.000000"
	d="
M658.500000,706.500000 
	C659.280396,700.115234 657.442871,694.059448 655.957886,688.010315 
	C651.465515,669.709473 645.469055,651.855164 639.442444,634.019470 
	C638.667542,631.726196 638.329468,629.040527 636.000000,627.500000 
"/>
<path fill="none" opacity="1.000000" stroke="#000000" stroke-linecap="round" stroke-linejoin="round" stroke-width="3.000000"
	d="
M278.000000,286.500000 
	C288.715149,291.981628 299.046082,298.469696 311.019531,300.903870 
	C317.744354,302.271057 324.652802,302.855286 331.510315,303.359528 
	C333.107086,303.476898 334.984558,302.042206 336.473877,300.963928 
	C343.034332,296.214111 349.587128,291.445312 355.978546,286.472443 
	C364.484467,279.854431 374.067596,274.937622 383.000000,269.000000 
"/>
<path fill="none" opacity="1.000000" stroke="#000000" stroke-linecap="round" stroke-linejoin="round" stroke-width="3.000000"
	d="
M257.500000,274.000000 
	C257.494019,280.708313 254.688980,286.888763 253.788635,293.471100 
	C253.194794,297.812714 253.985062,299.947418 257.967590,301.579102 
	C262.056793,303.254517 266.156555,304.720642 270.500244,305.498688 
	C272.898834,305.928314 274.245605,305.062164 274.517151,302.501831 
	C275.810852,290.303070 278.537384,278.381866 281.427185,266.482330 
	C282.015045,264.061737 281.855652,261.730804 278.013489,261.360046 
	C274.450195,261.016205 270.766754,259.958405 267.582336,258.338165 
	C265.474365,257.265625 263.871857,257.742920 262.090698,257.760010 
	C260.512726,263.170380 259.006378,268.335205 257.500000,273.500000 
"/>
<path fill="none" opacity="1.000000" stroke="#000000" stroke-linecap="round" stroke-linejoin="round" stroke-width="3.000000"
	d="
M560.000000,655.500000 
	C558.921875,660.353943 561.662415,664.544067 562.676575,668.959412 
	C566.137817,684.028564 569.167786,699.145752 571.034119,714.495850 
	C571.098877,715.028503 571.666687,715.500000 572.000000,716.000000 
"/>
<path fill="none" opacity="1.000000" stroke="#000000" stroke-linecap="round" stroke-linejoin="round" stroke-width="3.000000"
	d="
M208.500000,483.500000 
	C203.001282,492.931732 195.835648,501.174103 189.408981,509.933228 
	C182.015244,520.010315 175.897308,530.828979 169.500000,541.500000 
"/>
<path fill="none" opacity="1.000000" stroke="#000000" stroke-linecap="round" stroke-linejoin="round" stroke-width="3.000000"
	d="
M546.000000,505.000000 
	C553.919678,519.504211 559.466553,534.992615 565.097473,550.464539 
	C566.333069,553.859436 566.983765,557.623962 569.500000,560.500000 
"/>
<path fill="none" opacity="1.000000" stroke="#000000" stroke-linecap="round" stroke-linejoin="round" stroke-width="3.000000"
	d="
M547.500000,537.500000 
	C551.500000,548.500000 555.579590,559.471924 559.470154,570.510498 
	C561.799561,577.119873 563.833374,583.833313 566.000000,590.500000 
"/>
<path fill="none" opacity="1.000000" stroke="#000000" stroke-linecap="round" stroke-linejoin="round" stroke-width="3.000000"
	d="
M156.500000,479.500000 
	C148.833344,490.166656 141.192505,500.852051 133.489624,511.492493 
	C129.350327,517.210266 125.591827,523.148682 122.500000,529.500000 
"/>
<path fill="none" opacity="1.000000" stroke="#000000" stroke-linecap="round" stroke-linejoin="round" stroke-width="3.000000"
	d="
M405.000000,221.500000 
	C402.880798,223.337296 404.520752,225.515991 404.547028,227.499374 
	C404.726501,241.043900 409.411407,253.169250 416.502960,264.498169 
	C417.657043,266.341797 419.229156,268.034729 418.500000,270.500000 
"/>
<path fill="none" opacity="1.000000" stroke="#000000" stroke-linecap="round" stroke-linejoin="round" stroke-width="3.000000"
	d="
M254.000000,33.500000 
	C245.384888,27.398399 235.850540,23.540916 225.512283,21.439585 
	C221.603317,20.645054 217.653824,19.551838 214.057785,17.876005 
	C211.268585,16.576172 209.194702,15.493693 206.399429,17.882301 
	C205.353821,18.775780 203.166672,18.333336 201.500000,18.500002 
"/>
<path fill="none" opacity="1.000000" stroke="#000000" stroke-linecap="round" stroke-linejoin="round" stroke-width="3.000000"
	d="
M405.000000,192.000000 
	C405.869263,195.114761 402.436066,194.272827 401.364288,195.911224 
	C391.608063,210.825623 388.189575,226.150360 394.795654,243.577454 
	C398.912933,254.439026 405.467621,263.496216 414.763062,269.060577 
	C422.169769,273.494324 427.385864,281.324524 436.480896,283.097992 
	C438.253571,283.443665 438.604736,286.067657 440.460358,287.073151 
	C444.314880,289.161743 448.094574,291.196381 452.491608,292.043640 
	C461.020325,293.686981 469.513245,294.070343 477.989807,291.959076 
	C479.883087,291.487518 482.217255,291.231720 482.500000,288.500000 
"/>
<path fill="none" opacity="1.000000" stroke="#000000" stroke-linecap="round" stroke-linejoin="round" stroke-width="3.000000"
	d="
M546.500000,676.000000 
	C551.114319,671.057007 552.703674,664.713928 554.437134,658.482544 
	C554.916016,656.760986 554.384827,654.686096 552.949829,653.564209 
	C550.646729,651.763611 549.577820,654.316711 548.552795,655.544067 
	C544.003174,660.992065 544.542358,667.714539 545.306885,673.962463 
	C545.600220,676.359680 545.162659,678.333313 545.000000,680.500000 
"/>
<path fill="none" opacity="1.000000" stroke="#000000" stroke-linecap="round" stroke-linejoin="round" stroke-width="3.000000"
	d="
M190.000000,537.000000 
	C183.805634,552.253601 176.305206,567.043762 173.500000,583.500000 
"/>
<path fill="none" opacity="1.000000" stroke="#000000" stroke-linecap="round" stroke-linejoin="round" stroke-width="3.000000"
	d="
M510.000000,694.000000 
	C504.327972,700.791504 504.116974,709.864563 509.500000,715.500000 
	C514.779724,711.597107 515.242004,701.658081 510.500000,694.000000 
"/>
<path fill="none" opacity="1.000000" stroke="#000000" stroke-linecap="round" stroke-linejoin="round" stroke-width="3.000000"
	d="
M148.000000,639.000000 
	C150.802963,634.004700 150.927582,628.505798 150.995102,622.999939 
	C151.016617,621.245422 150.160797,619.971619 148.490311,619.537292 
	C146.939026,619.133972 146.287109,620.278870 145.442963,621.459229 
	C143.060455,624.790649 142.468201,634.009827 145.093277,637.937683 
	C146.299026,639.741821 147.054749,641.404358 147.000000,643.500000 
"/>
<path fill="none" opacity="1.000000" stroke="#000000" stroke-linecap="round" stroke-linejoin="round" stroke-width="3.000000"
	d="
M580.500000,457.500000 
	C584.775879,463.367401 591.179626,467.068604 595.619202,472.909424 
	C602.517151,481.984711 608.658508,491.464355 614.000000,501.500000 
"/>
<path fill="none" opacity="1.000000" stroke="#000000" stroke-linecap="round" stroke-linejoin="round" stroke-width="3.000000"
	d="
M383.500000,332.500000 
	C384.179077,333.437958 385.221863,333.096924 385.991364,332.953613 
	C390.269348,332.157074 394.300537,331.145111 398.199005,334.786987 
	C399.164520,335.688934 402.329529,335.788422 404.474030,336.152863 
	C417.044891,338.289093 429.410919,341.381989 441.500000,345.500000 
"/>
<path fill="none" opacity="1.000000" stroke="#000000" stroke-linecap="round" stroke-linejoin="round" stroke-width="3.000000"
	d="
M285.500000,699.500000 
	C284.357300,693.214233 283.932953,686.743408 279.563080,681.447937 
	C278.133423,679.715515 276.706757,677.827942 274.541656,678.614624 
	C271.432770,679.744141 271.179718,683.195862 272.153137,685.433411 
	C274.636993,691.142761 277.888794,696.517212 284.500000,698.500000 
"/>
<path fill="none" opacity="1.000000" stroke="#000000" stroke-linecap="round" stroke-linejoin="round" stroke-width="3.000000"
	d="
M614.500000,661.000000 
	C619.569641,657.021545 619.300781,650.957947 620.442139,645.487915 
	C620.831787,643.620605 620.622925,641.171021 618.468750,640.622803 
	C616.069275,640.012085 614.288635,641.481750 613.481689,643.994141 
	C611.815857,649.180359 612.111816,654.332031 613.496643,659.500916 
	C613.852234,660.828247 614.166626,662.166687 614.499939,663.500000 
"/>
<path fill="none" opacity="1.000000" stroke="#000000" stroke-linecap="round" stroke-linejoin="round" stroke-width="3.000000"
	d="
M312.000000,705.000000 
	C313.851349,699.633789 310.305756,687.992493 306.030579,684.956970 
	C305.139404,684.324219 304.065247,684.246643 303.547882,684.575378 
	C301.641754,685.786072 300.574890,688.378296 301.167603,689.936218 
	C303.365631,695.713196 305.582245,701.692444 311.500000,705.000000 
"/>
<path fill="none" opacity="1.000000" stroke="#000000" stroke-linecap="round" stroke-linejoin="round" stroke-width="3.000000"
	d="
M659.500000,621.000000 
	C657.101990,614.008362 651.198059,611.017151 644.963684,608.593323 
	C643.577148,608.054321 641.237122,607.832275 640.563721,610.019592 
	C639.864258,612.291748 641.165161,614.914429 642.601562,615.842896 
	C647.968018,619.311279 653.466553,623.048828 660.500000,621.500000 
"/>
<path fill="none" opacity="1.000000" stroke="#000000" stroke-linecap="round" stroke-linejoin="round" stroke-width="3.000000"
	d="
M153.000000,656.000000 
	C159.746613,657.947266 165.525330,660.945496 167.556885,668.484680 
	C168.062057,670.359314 168.535507,672.349731 166.921356,673.376343 
	C165.541626,674.253906 163.874100,673.006653 162.484879,672.021301 
	C158.207062,668.986877 154.881104,665.160950 152.500687,660.499634 
	C151.735809,659.001892 150.688904,657.500000 152.500000,656.000000 
"/>
<path fill="none" opacity="1.000000" stroke="#000000" stroke-linecap="round" stroke-linejoin="round" stroke-width="3.000000"
	d="
M434.000000,367.000000 
	C421.900055,357.188324 408.226715,350.110535 393.992096,344.018463 
	C392.885468,343.544830 391.666656,343.333344 390.500000,343.000031 
"/>
<path fill="none" opacity="1.000000" stroke="#000000" stroke-linecap="round" stroke-linejoin="round" stroke-width="3.000000"
	d="
M419.000000,703.000000 
	C423.951660,695.544495 424.365051,687.069702 419.847687,682.340515 
	C415.073730,683.786865 415.423126,687.701782 415.494843,691.500122 
	C415.571838,695.579773 416.325806,699.432617 418.390930,703.062073 
	C418.810822,703.800049 419.472443,705.333313 418.500000,706.500000 
"/>
<path fill="none" opacity="1.000000" stroke="#000000" stroke-linecap="round" stroke-linejoin="round" stroke-width="3.000000"
	d="
M413.500000,718.500000 
	C407.321259,719.233459 401.664001,721.201050 397.001648,725.501770 
	C394.756439,727.572876 394.067352,730.073547 394.725250,732.983765 
	C401.756500,733.398621 410.219940,726.869690 412.500000,719.500000 
"/>
<path fill="none" opacity="1.000000" stroke="#000000" stroke-linecap="round" stroke-linejoin="round" stroke-width="3.000000"
	d="
M319.000000,725.500000 
	C326.381378,730.914429 329.260498,738.400085 326.500000,745.000000 
	C319.924774,743.306580 316.061462,734.670959 318.000000,726.000000 
"/>
<path fill="none" opacity="1.000000" stroke="#000000" stroke-linecap="round" stroke-linejoin="round" stroke-width="3.000000"
	d="
M345.500000,709.000000 
	C352.435699,706.025391 357.807953,701.192383 361.979980,694.986511 
	C363.153137,693.241455 363.857239,691.096558 361.938049,689.578308 
	C360.517792,688.454651 358.662903,689.764587 357.559540,690.580505 
	C351.910614,694.757935 347.179108,699.604980 348.000000,707.500000 
"/>
<path fill="none" opacity="1.000000" stroke="#000000" stroke-linecap="round" stroke-linejoin="round" stroke-width="3.000000"
	d="
M605.500000,668.500000 
	C604.187683,660.734558 599.407288,655.508972 592.993408,651.510620 
	C590.834595,650.164856 589.390869,651.580750 588.000000,653.000000 
	C589.709229,660.346130 597.143860,666.879578 604.500000,667.500000 
"/>
<path fill="none" opacity="1.000000" stroke="#000000" stroke-linecap="round" stroke-linejoin="round" stroke-width="3.000000"
	d="
M607.500000,677.000000 
	C605.135071,679.192322 602.491516,677.064575 599.981506,677.250244 
	C593.364746,677.739685 588.355713,680.293335 584.351746,685.376526 
	C589.766296,689.887451 598.427307,686.856079 604.500000,678.500000 
"/>
<path fill="none" opacity="1.000000" stroke="#000000" stroke-linecap="round" stroke-linejoin="round" stroke-width="3.000000"
	d="
M429.000000,718.500000 
	C435.108917,720.121155 440.244263,723.519836 444.945160,727.563782 
	C446.078461,728.538757 447.482727,730.132690 445.988403,731.990662 
	C444.861877,733.391357 443.987640,733.391235 441.930817,732.708374 
	C435.001251,730.407776 428.877167,724.735413 428.500000,719.000000 
"/>
<path fill="none" opacity="1.000000" stroke="#000000" stroke-linecap="round" stroke-linejoin="round" stroke-width="3.000000"
	d="
M241.500000,690.500000 
	C248.021149,687.812866 252.723312,683.231812 256.099274,677.054260 
	C256.745728,675.871338 257.141205,675.057373 256.475494,674.015686 
	C255.661636,672.742004 254.246445,672.890991 253.005508,673.044495 
	C252.308258,673.130737 251.560165,673.544617 251.016541,674.018921 
	C245.940384,678.447571 241.413940,683.208679 240.963425,690.497742 
	C240.880615,691.837280 239.280701,691.412292 238.500000,692.000000 
"/>
<path fill="none" opacity="1.000000" stroke="#000000" stroke-linecap="round" stroke-linejoin="round" stroke-width="3.000000"
	d="
M591.500000,484.500000 
	C600.643311,497.322479 607.523499,511.486115 615.472473,525.016174 
	C615.690857,525.387878 615.500000,526.000000 615.500000,526.500000 
"/>
<path fill="none" opacity="1.000000" stroke="#000000" stroke-linecap="round" stroke-linejoin="round" stroke-width="3.000000"
	d="
M497.000000,565.500000 
	C500.777588,576.022278 503.130798,586.841431 504.049011,597.995972 
	C504.298187,601.022583 506.315857,604.000000 504.000000,607.000000 
"/>
<path fill="none" opacity="1.000000" stroke="#000000" stroke-linecap="round" stroke-linejoin="round" stroke-width="3.000000"
	d="
M484.500000,702.500000 
	C486.079224,705.545593 488.729309,704.976379 490.968903,703.933228 
	C496.601196,701.309998 499.744080,696.286438 503.469452,690.164551 
	C494.308044,690.568970 489.066406,695.055115 485.000000,701.500000 
"/>
<path fill="none" opacity="1.000000" stroke="#000000" stroke-linecap="round" stroke-linejoin="round" stroke-width="3.000000"
	d="
M620.500000,680.500000 
	C622.696472,687.057739 627.813660,690.783997 633.485596,694.025146 
	C635.225403,695.019470 636.826965,694.662354 637.936096,693.441895 
	C639.184753,692.067871 638.576965,690.274414 637.471924,689.024780 
	C632.813721,683.756958 627.455872,679.686462 620.000549,679.480103 
	C619.496338,679.466125 619.000000,679.166626 618.500000,679.000000 
"/>
<path fill="none" opacity="1.000000" stroke="#000000" stroke-linecap="round" stroke-linejoin="round" stroke-width="3.000000"
	d="
M353.500000,337.500000 
	C344.550385,340.299408 335.731628,343.430176 327.504059,348.007294 
	C322.482056,350.801086 317.500000,353.666687 312.500000,356.500000 
"/>
<path fill="none" opacity="1.000000" stroke="#000000" stroke-linecap="round" stroke-linejoin="round" stroke-width="3.000000"
	d="
M199.500000,103.000000 
	C198.974182,102.352699 198.036575,102.243408 197.944427,101.004135 
	C197.383896,93.465645 194.071213,87.490608 187.869934,83.055969 
	C183.254272,88.596184 187.964981,97.075455 197.500000,101.500000 
"/>
<path fill="none" opacity="1.000000" stroke="#000000" stroke-linecap="round" stroke-linejoin="round" stroke-width="3.000000"
	d="
M199.000000,699.500000 
	C194.869583,702.315063 192.359940,706.060608 190.812622,710.940613 
	C189.821152,714.067505 189.668045,716.266479 192.399689,718.895386 
	C200.448196,714.833435 200.000076,707.319824 200.000000,700.000000 
"/>
<path fill="none" opacity="1.000000" stroke="#000000" stroke-linecap="round" stroke-linejoin="round" stroke-width="3.000000"
	d="
M207.500000,697.500000 
	C208.132782,705.231934 209.477509,712.643433 216.476425,717.646729 
	C220.629013,716.507690 220.212952,712.737122 219.304565,710.582397 
	C217.157852,705.490479 214.071289,700.754089 208.500000,698.500000 
"/>
<path fill="none" opacity="1.000000" stroke="#000000" stroke-linecap="round" stroke-linejoin="round" stroke-width="3.000000"
	d="
M670.750000,637.000000 
	C664.390137,642.927612 662.738770,651.514709 667.000000,656.500000 
	C673.187683,652.234680 674.831360,644.426941 671.000000,637.500000 
"/>
<path fill="none" opacity="1.000000" stroke="#000000" stroke-linecap="round" stroke-linejoin="round" stroke-width="4.000000"
	d="
M486.000000,747.000000 
	C496.629669,744.776855 507.019470,746.109558 517.525024,748.384460 
	C528.387390,750.736572 539.003662,754.636902 550.508606,753.595093 
	C559.443298,752.786072 567.054199,750.194702 573.111877,743.095459 
	C576.451721,739.181274 574.066467,735.334473 574.415283,731.492310 
	C574.577698,729.703979 573.766357,727.842590 573.510864,725.998474 
	C571.866821,714.133972 576.461914,704.878723 585.500000,697.500000 
"/>
<path fill="none" opacity="1.000000" stroke="#000000" stroke-linecap="round" stroke-linejoin="round" stroke-width="3.000000"
	d="
M186.500000,23.500000 
	C172.653656,30.460119 159.090775,37.902748 146.500000,47.000000 
"/>
<path fill="none" opacity="1.000000" stroke="#000000" stroke-linecap="round" stroke-linejoin="round" stroke-width="4.000000"
	d="
M663.500000,630.500000 
	C654.890198,627.536743 645.619995,632.039368 646.013428,639.245850 
	C653.919556,640.652283 659.561890,637.180847 664.000000,631.000000 
"/>
<path fill="none" opacity="1.000000" stroke="#000000" stroke-linecap="round" stroke-linejoin="round" stroke-width="3.000000"
	d="
M55.000000,615.500000 
	C54.456818,616.792175 54.576408,617.367615 55.859676,618.641357 
	C59.451706,622.206848 61.796185,626.700073 62.002007,631.999939 
	C62.083965,634.110352 62.116337,636.193848 59.997040,637.498901 
	C54.122780,633.344849 51.803543,626.193848 54.000000,619.000000 
"/>
<path fill="none" opacity="1.000000" stroke="#000000" stroke-linecap="round" stroke-linejoin="round" stroke-width="3.000000"
	d="
M55.000000,602.500000 
	C56.152218,598.569763 60.297432,597.493774 62.594193,594.574097 
	C64.692604,591.906555 66.510201,589.258545 67.541229,586.013123 
	C68.074432,584.334778 68.456207,582.621765 66.950081,581.571594 
	C65.442085,580.520142 63.291039,581.698486 62.621105,582.590881 
	C59.015957,587.393494 55.517849,592.394836 57.000000,599.000000 
"/>
<path fill="none" opacity="1.000000" stroke="#000000" stroke-linecap="round" stroke-linejoin="round" stroke-width="3.000000"
	d="
M390.000000,567.000000 
	C391.934204,572.003113 391.128265,577.350525 391.855774,582.520325 
	C394.334473,600.133911 391.911285,617.833313 392.000000,635.500000 
"/>
<path fill="none" opacity="1.000000" stroke="#000000" stroke-linecap="round" stroke-linejoin="round" stroke-width="3.000000"
	d="
M31.000000,630.000000 
	C31.470428,631.460999 32.865273,632.627625 33.939068,631.908936 
	C39.651112,628.086304 43.407211,622.759155 45.012402,615.904236 
	C37.711239,617.862671 32.949421,622.439514 30.500000,629.500000 
"/>
<path fill="none" opacity="1.000000" stroke="#000000" stroke-linecap="round" stroke-linejoin="round" stroke-width="4.000000"
	d="
M661.500000,713.500000 
	C652.300354,714.615601 641.625549,708.582031 638.113708,699.501038 
	C644.724792,699.891479 650.190186,701.712341 655.566406,704.887573 
	C659.897888,707.445862 660.747375,710.582092 659.555969,715.015076 
	C659.264832,716.098206 658.980530,716.856506 658.018799,717.526917 
	C650.772156,722.578491 643.168396,725.954407 634.018005,726.716003 
	C622.684204,727.659302 611.977112,724.846375 600.983459,723.652405 
	C591.995850,722.676331 582.961670,723.704407 574.500000,727.500000 
"/>
<path fill="none" opacity="1.000000" stroke="#000000" stroke-linecap="round" stroke-linejoin="round" stroke-width="3.000000"
	d="
M136.500000,645.500000 
	C137.089584,638.955200 133.155655,634.617004 128.942032,630.560242 
	C127.548462,629.218506 125.130920,628.558105 123.594818,630.094788 
	C122.211555,631.478577 121.783981,633.470276 123.448112,635.541687 
	C126.716766,639.610291 129.542084,644.110535 135.500000,644.500000 
"/>
<path fill="none" opacity="1.000000" stroke="#000000" stroke-linecap="round" stroke-linejoin="round" stroke-width="3.000000"
	d="
M309.000000,723.500000 
	C307.181274,722.146057 305.387421,723.279236 304.051758,724.085754 
	C300.455353,726.257263 297.831268,729.575867 295.582245,733.053223 
	C294.676117,734.454285 294.156006,736.543823 296.010712,737.986206 
	C297.686249,739.289368 298.780151,738.144043 300.022675,737.025146 
	C304.111572,733.342896 307.795685,729.401978 309.500000,724.000000 
"/>
<path fill="none" opacity="1.000000" stroke="#000000" stroke-linecap="round" stroke-linejoin="round" stroke-width="3.000000"
	d="
M370.500000,345.500000 
	C368.877350,350.872070 371.331390,355.864258 372.073273,360.989380 
	C373.116791,368.197998 374.666687,375.333344 376.000000,382.500000 
"/>
<path fill="none" opacity="1.000000" stroke="#000000" stroke-linecap="round" stroke-linejoin="round" stroke-width="3.000000"
	d="
M373.500000,689.500000 
	C372.972565,687.749023 372.062134,687.713013 370.471252,688.436768 
	C368.658966,689.261169 368.894897,690.676270 369.033234,691.996521 
	C369.621399,697.610046 380.692841,706.125977 386.495667,705.462097 
	C386.862335,705.420166 387.166656,704.833313 387.631897,704.368042 
	C385.937012,701.769470 384.218506,699.134766 382.500000,696.500000 
"/>
<path fill="none" opacity="1.000000" stroke="#000000" stroke-linecap="round" stroke-linejoin="round" stroke-width="3.000000"
	d="
M410.500000,709.500000 
	C407.475800,705.190857 403.914703,701.396667 399.480194,698.530640 
	C397.705017,697.383301 395.768097,694.797729 393.560730,697.548706 
	C391.478851,700.143311 393.729095,701.961182 395.522461,703.473328 
	C399.390778,706.734924 403.384613,709.844910 409.000000,708.500000 
"/>
<path fill="none" opacity="1.000000" stroke="#000000" stroke-linecap="round" stroke-linejoin="round" stroke-width="3.000000"
	d="
M416.500000,138.500000 
	C415.718048,150.648499 416.184753,162.692932 419.500000,174.500000 
"/>
<path fill="none" opacity="1.000000" stroke="#000000" stroke-linecap="round" stroke-linejoin="round" stroke-width="3.000000"
	d="
M153.500000,648.000000 
	C158.826172,647.423584 164.373672,649.327942 169.512695,646.523254 
	C170.423386,646.026245 171.574753,645.969910 172.484619,645.471863 
	C174.450119,644.396118 175.063751,642.405640 174.410797,640.531067 
	C173.665344,638.390930 171.335724,638.079834 169.520309,638.574524 
	C164.220596,640.018677 159.490265,642.562988 156.000000,647.000000 
"/>
<path fill="none" opacity="1.000000" stroke="#000000" stroke-linecap="round" stroke-linejoin="round" stroke-width="3.000000"
	d="
M288.000000,708.000000 
	C286.195496,708.932678 285.711639,710.367371 287.531982,711.446045 
	C293.046753,714.713806 298.849518,717.119629 305.492432,715.469482 
	C305.884460,715.372131 306.166779,714.833435 307.051392,713.948853 
	C301.699341,709.553040 296.062500,706.857361 289.000000,708.000000 
"/>
<path fill="none" opacity="1.000000" stroke="#000000" stroke-linecap="round" stroke-linejoin="round" stroke-width="3.000000"
	d="
M681.000000,624.000000 
	C682.819397,621.101624 685.534668,624.145142 688.128235,622.735962 
	C693.729187,619.692627 694.647644,619.743652 698.646240,614.300964 
	C697.152222,611.171875 695.032227,610.493469 691.992737,612.488953 
	C688.034668,615.087524 684.494446,618.053101 682.500000,622.500000 
"/>
<path fill="none" opacity="1.000000" stroke="#000000" stroke-linecap="round" stroke-linejoin="round" stroke-width="3.000000"
	d="
M154.000000,127.000000 
	C161.760086,127.362358 167.964035,123.760056 169.500000,118.000000 
	C163.763504,116.087563 156.922150,119.935829 153.500000,127.000000 
"/>
<path fill="none" opacity="1.000000" stroke="#000000" stroke-linecap="round" stroke-linejoin="round" stroke-width="3.000000"
	d="
M144.500000,109.500000 
	C144.206085,107.560631 145.156158,107.051186 146.960419,106.391716 
	C151.949066,104.568329 155.676559,101.008324 158.519058,96.512054 
	C159.202530,95.430946 159.304276,94.496368 158.498764,93.500999 
	C157.650452,92.452751 156.416321,92.883369 155.511719,93.060005 
	C150.488495,94.040886 145.864456,100.695122 146.000000,106.500000 
"/>
<path fill="none" opacity="1.000000" stroke="#000000" stroke-linecap="round" stroke-linejoin="round" stroke-width="3.000000"
	d="
M91.500000,78.500000 
	C96.390106,76.633698 101.953682,77.081848 106.518593,74.027794 
	C108.349533,72.802849 110.858734,72.358734 111.073807,69.163437 
	C108.837807,66.633125 106.361755,66.289757 103.494713,68.493118 
	C100.474976,70.813828 97.103218,72.769882 95.500000,76.500000 
"/>
<path fill="none" opacity="1.000000" stroke="#000000" stroke-linecap="round" stroke-linejoin="round" stroke-width="3.000000"
	d="
M342.500000,336.500000 
	C332.800140,337.297607 323.250122,338.812073 313.975830,341.928040 
	C312.243134,342.510193 310.472931,342.848969 309.000000,344.000000 
"/>
<path fill="none" opacity="1.000000" stroke="#000000" stroke-linecap="round" stroke-linejoin="round" stroke-width="3.000000"
	d="
M196.000000,25.000000 
	C190.499146,35.843037 184.508484,46.456001 180.500000,58.000000 
"/>
<path fill="none" opacity="1.000000" stroke="#000000" stroke-linecap="round" stroke-linejoin="round" stroke-width="3.000000"
	d="
M211.500000,412.500000 
	C202.412796,418.619965 192.996674,424.319031 185.511963,432.510925 
	C183.598892,434.604736 181.833328,436.833344 180.000000,439.000000 
"/>
<path fill="none" opacity="1.000000" stroke="#000000" stroke-linecap="round" stroke-linejoin="round" stroke-width="4.000000"
	d="
M316.500000,45.000000 
	C312.510101,43.813114 309.758331,39.870510 305.492737,39.627605 
	C303.219696,39.498165 299.376892,37.918335 298.764526,41.051697 
	C298.149292,44.199852 301.341461,45.331623 304.495087,45.566090 
	C307.690216,45.803646 310.789093,46.234512 313.500000,44.000000 
"/>
<path fill="none" opacity="1.000000" stroke="#000000" stroke-linecap="round" stroke-linejoin="round" stroke-width="3.000000"
	d="
M232.000000,267.500000 
	C234.060577,270.734497 232.494827,274.546387 233.873856,278.049652 
	C236.142609,283.813141 240.805740,285.749725 246.061340,283.122711 
	C249.669098,281.319366 249.416275,279.307587 248.025620,276.261414 
	C246.766495,277.060913 245.689133,277.895569 244.489288,278.477936 
	C241.180542,280.083832 238.335480,278.703125 238.110428,274.993286 
	C237.968399,272.651825 235.958908,270.455322 237.500000,268.000000 
"/>
<path fill="none" opacity="1.000000" stroke="#000000" stroke-linecap="round" stroke-linejoin="round" stroke-width="3.000000"
	d="
M203.000000,137.000000 
	C209.154556,134.144104 211.968307,129.454514 210.436020,124.284111 
	C206.979538,125.946030 203.910645,128.146835 201.574326,131.059616 
	C199.877716,133.174850 199.564926,135.733597 202.500000,137.500000 
"/>
<path fill="none" opacity="1.000000" stroke="#000000" stroke-linecap="round" stroke-linejoin="round" stroke-width="3.000000"
	d="
M288.500000,101.500000 
	C284.848999,99.069878 280.866089,100.098892 277.010376,100.582703 
	C275.732971,100.742996 274.213409,101.490509 274.477295,103.502975 
	C274.730438,105.433769 276.042358,105.509850 277.500000,105.501877 
	C281.532562,105.479828 285.671417,105.800644 288.500000,102.000000 
"/>
<path fill="none" opacity="1.000000" stroke="#000000" stroke-linecap="round" stroke-linejoin="round" stroke-width="3.000000"
	d="
M203.500000,119.500000 
	C204.869629,117.681442 207.401108,121.672180 208.446075,117.869469 
	C206.317627,114.194145 202.356049,113.003830 198.000153,112.498650 
	C196.542068,112.329544 195.136688,112.528381 194.535049,114.014191 
	C193.795227,115.841248 195.287674,116.872765 196.531036,117.430870 
	C198.583420,118.352127 200.833328,118.833328 203.000000,119.500000 
"/>
<path fill="none" opacity="1.000000" stroke="#000000" stroke-linecap="round" stroke-linejoin="round" stroke-width="3.000000"
	d="
M352.000000,581.500000 
	C351.699677,589.334717 352.295715,597.152344 351.177246,605.025208 
	C350.295288,611.233215 350.807709,617.675293 351.090576,623.995972 
	C351.210999,626.686890 348.437927,629.333313 351.000000,632.000000 
"/>
<path fill="none" opacity="1.000000" stroke="#000000" stroke-linecap="round" stroke-linejoin="round" stroke-width="3.000000"
	d="
M129.000000,106.500000 
	C128.515228,103.133858 131.275589,100.775894 131.676361,97.521721 
	C132.167160,93.536484 132.250992,89.827080 131.077423,85.976402 
	C130.611542,84.447731 130.172409,83.498741 128.500000,83.498741 
	C126.827591,83.498741 126.445412,84.487198 125.920212,85.971771 
	C123.880547,91.737213 125.614128,96.881569 128.000000,102.000000 
"/>
<path fill="none" opacity="1.000000" stroke="#000000" stroke-linecap="round" stroke-linejoin="round" stroke-width="3.000000"
	d="
M359.500000,344.500000 
	C353.939209,351.667908 348.433258,358.874847 343.493683,366.495911 
	C341.859070,369.017853 340.115631,371.474487 339.500000,374.500000 
"/>
<path fill="none" opacity="1.000000" stroke="#000000" stroke-linecap="round" stroke-linejoin="round" stroke-width="3.000000"
	d="
M190.000000,125.500000 
	C187.254807,120.895180 182.280029,119.413788 177.964355,117.065506 
	C176.716919,116.386734 174.714279,117.009346 174.153229,118.080276 
	C173.634964,119.069572 173.616379,120.730614 174.951630,122.048988 
	C179.114075,126.158836 184.161469,126.498001 189.500000,126.000000 
"/>
<path fill="none" opacity="1.000000" stroke="#000000" stroke-linecap="round" stroke-linejoin="round" stroke-width="3.000000"
	d="
M389.000000,172.500000 
	C394.061310,171.631592 396.341248,169.514023 397.493256,164.498459 
	C398.664124,159.400772 399.528595,154.273300 399.015839,148.998459 
	C398.769135,146.460693 399.144409,144.344772 401.426239,142.412857 
	C405.326630,139.110580 409.451599,136.295364 413.983582,133.968033 
	C417.266357,132.282196 419.267151,132.911819 420.528076,136.490097 
	C423.896790,146.050049 426.270386,155.881165 425.227173,165.971786 
	C424.896027,169.174759 424.966064,172.721527 423.207733,176.107864 
	C420.837372,180.672958 418.341248,183.346497 412.954926,181.818222 
	C413.132416,175.358078 413.265167,168.888992 409.136810,162.905609 
	C406.706055,159.382645 404.136841,157.620346 400.000000,158.000000 
"/>
<path fill="none" opacity="1.000000" stroke="#000000" stroke-linecap="round" stroke-linejoin="round" stroke-width="3.000000"
	d="
M86.000000,658.000000 
	C82.821739,655.639282 85.100883,652.296387 84.669548,649.474060 
	C83.790489,643.722229 81.481384,639.105225 77.166542,635.184265 
	C73.539406,642.059998 75.973366,653.821106 81.434967,658.574707 
	C83.108337,660.031189 83.220139,658.434021 84.000000,658.000000 
"/>
<path fill="none" opacity="1.000000" stroke="#000000" stroke-linecap="round" stroke-linejoin="round" stroke-width="3.000000"
	d="
M326.500000,718.500000 
	C328.833344,720.200928 331.183807,718.412048 333.495514,718.345032 
	C336.181427,718.267212 338.792542,718.172974 341.509674,718.357605 
	C345.469208,718.626648 346.803101,720.375977 346.464996,724.014771 
	C339.547882,726.936462 334.186035,725.710876 329.000000,720.000000 
"/>
<path fill="none" opacity="1.000000" stroke="#000000" stroke-linecap="round" stroke-linejoin="round" stroke-width="3.000000"
	d="
M128.500000,121.000000 
	C126.233467,121.194328 126.337349,119.114449 126.087410,117.980728 
	C125.177139,113.851791 122.218117,111.296867 119.516884,108.483788 
	C118.726219,107.660370 117.742477,107.861115 117.021706,108.073616 
	C115.998611,108.375267 115.966743,109.471100 115.978943,110.500252 
	C116.025810,114.457954 121.805695,119.688019 126.000000,119.500000 
"/>
<path fill="none" opacity="1.000000" stroke="#000000" stroke-linecap="round" stroke-linejoin="round" stroke-width="3.000000"
	d="
M132.500000,117.500000 
	C136.320084,115.831444 138.289185,112.530037 140.000534,109.000259 
	C140.566940,107.831978 141.501709,106.659851 139.998520,105.501930 
	C138.508789,104.354385 136.926788,105.106155 136.065613,106.059280 
	C133.299469,109.120766 130.921112,112.685959 131.680084,116.968086 
	C131.961426,118.555466 130.654373,119.260147 131.000000,120.500000 
"/>
<path fill="none" opacity="1.000000" stroke="#000000" stroke-linecap="round" stroke-linejoin="round" stroke-width="3.000000"
	d="
M297.500000,102.000000 
	C302.507324,101.978012 307.382111,102.250221 311.029602,106.474442 
	C312.119141,107.736275 313.234863,108.771561 312.000854,110.500610 
	C310.663727,112.374184 309.513763,111.375900 307.963409,110.570404 
	C304.452545,108.746292 300.717407,107.331398 299.500000,103.000000 
"/>
<path fill="none" opacity="1.000000" stroke="#000000" stroke-linecap="round" stroke-linejoin="round" stroke-width="3.000000"
	d="
M485.500000,288.000000 
	C477.368469,287.529999 470.276581,285.129242 466.183136,277.136780 
	C458.910736,281.014923 451.496826,282.880859 443.495667,282.649506 
	C442.010284,282.606567 439.805603,282.296448 438.500000,284.000000 
"/>
<path fill="none" opacity="1.000000" stroke="#000000" stroke-linecap="round" stroke-linejoin="round" stroke-width="3.000000"
	d="
M204.000000,23.500000 
	C208.986984,28.715515 215.235458,32.527035 220.020599,37.981930 
	C222.739960,41.081909 225.666672,43.999996 228.500000,46.999996 
"/>
<path fill="none" opacity="1.000000" stroke="#000000" stroke-linecap="round" stroke-linejoin="round" stroke-width="3.000000"
	d="
M387.000000,350.000000 
	C394.452942,357.883301 401.001373,366.475037 407.024689,375.483490 
	C407.333191,375.944885 408.000000,376.166656 408.500000,376.500000 
"/>
<path fill="none" opacity="1.000000" stroke="#000000" stroke-linecap="round" stroke-linejoin="round" stroke-width="3.000000"
	d="
M74.500000,83.500000 
	C80.294846,82.707802 84.233429,79.668533 86.312271,74.104828 
	C81.371513,72.446236 78.494194,74.775490 75.500000,82.500000 
"/>
<path fill="none" opacity="1.000000" stroke="#000000" stroke-linecap="round" stroke-linejoin="round" stroke-width="3.000000"
	d="
M288.000000,92.500000 
	C287.890839,87.919518 285.936890,84.441277 282.025818,81.959305 
	C280.648193,81.085052 279.925476,81.559441 278.981689,82.481255 
	C278.020721,83.419853 278.213806,85.039406 278.585876,85.414932 
	C281.074432,87.926643 282.634735,91.397102 286.464783,92.611115 
	C287.929718,93.075447 290.126160,93.947060 289.500000,96.500000 
"/>
<path fill="none" opacity="1.000000" stroke="#000000" stroke-linecap="round" stroke-linejoin="round" stroke-width="3.000000"
	d="
M628.500000,645.000000 
	C631.929565,641.731628 633.258545,637.474548 633.949524,632.992249 
	C634.164429,631.598206 634.471558,630.312683 634.952393,628.982788 
	C636.339233,625.146912 635.124451,622.296509 632.000000,621.500000 
	C629.798462,620.938782 627.129883,623.786560 626.469177,626.993652 
	C625.080322,633.735840 625.454468,640.243958 628.500000,646.500000 
"/>
<path fill="none" opacity="1.000000" stroke="#000000" stroke-linecap="round" stroke-linejoin="round" stroke-width="3.000000"
	d="
M335.500000,47.500000 
	C334.431519,44.235134 331.499603,42.842709 329.007446,40.989990 
	C326.607147,39.205563 325.129700,40.210129 323.948914,42.411224 
	C326.698944,47.557735 331.517761,48.199089 336.500000,48.500000 
"/>
<path fill="none" opacity="1.000000" stroke="#000000" stroke-linecap="round" stroke-linejoin="round" stroke-width="4.000000"
	d="
M678.000000,600.500000 
	C677.054810,596.743469 675.064636,596.157593 672.531189,599.027527 
	C667.715027,604.483398 669.698425,610.836853 670.489868,617.114136 
	C674.877258,612.546631 677.539978,607.289612 678.000000,601.000000 
"/>
<path fill="none" opacity="1.000000" stroke="#000000" stroke-linecap="round" stroke-linejoin="round" stroke-width="3.000000"
	d="
M470.000000,685.000000 
	C466.191650,684.840027 463.764679,687.467163 462.127777,690.080078 
	C459.053284,694.987671 458.364685,700.765198 457.382660,707.644226 
	C464.906006,702.241699 469.317413,696.018188 471.934204,688.477173 
	C472.304321,687.410583 472.482910,685.838196 471.000000,685.000000 
"/>
<path fill="none" opacity="1.000000" stroke="#000000" stroke-linecap="round" stroke-linejoin="round" stroke-width="4.000000"
	d="
M260.000000,724.500000 
	C261.899933,728.500000 259.954956,732.524292 259.823975,736.494202 
	C259.636993,742.162781 259.561096,747.830322 259.502655,753.500000 
	C259.485474,755.166565 259.738220,756.874268 259.460022,758.493103 
	C258.021820,766.862061 259.308563,768.423279 266.408234,772.653992 
	C272.378326,776.211670 278.783661,775.539917 285.014648,776.393066 
	C291.611420,777.296265 298.285797,777.749634 305.002319,777.623657 
	C307.941101,777.568542 310.565735,775.975342 313.500000,776.500000 
"/>
<path fill="none" opacity="1.000000" stroke="#000000" stroke-linecap="round" stroke-linejoin="round" stroke-width="3.000000"
	d="
M456.500000,725.500000 
	C458.255524,732.927795 462.634094,738.245422 469.514038,741.470032 
	C470.820770,742.082520 472.258575,742.407776 473.518860,741.017090 
	C474.945374,739.442932 474.816132,738.147278 473.534088,736.473877 
	C468.629364,730.072144 462.740845,725.267273 454.500000,724.000000 
"/>
<path fill="none" opacity="1.000000" stroke="#000000" stroke-linecap="round" stroke-linejoin="round" stroke-width="3.000000"
	d="
M722.500000,655.000000 
	C718.299011,652.118225 714.178223,649.119446 709.516052,646.965332 
	C708.243652,646.377441 707.161072,646.175476 706.001831,647.002563 
	C705.064209,647.671143 705.273010,648.849304 705.560364,649.472168 
	C708.841797,656.583618 713.143555,662.797241 721.009155,665.473083 
	C722.903259,666.117493 724.825134,666.139282 726.000000,664.000000 
"/>
<path fill="none" opacity="1.000000" stroke="#000000" stroke-linecap="round" stroke-linejoin="round" stroke-width="3.000000"
	d="
M516.500000,687.500000 
	C519.081360,694.221130 524.907715,697.039429 531.007141,699.482239 
	C533.338318,700.415771 535.416443,700.228516 536.716309,696.994202 
	C532.175720,690.315186 525.542053,687.749268 517.500000,688.000000 
"/>
<path fill="none" opacity="1.000000" stroke="#000000" stroke-linecap="round" stroke-linejoin="round" stroke-width="3.000000"
	d="
M104.000000,611.000000 
	C101.666748,608.332153 98.923309,609.655518 96.523972,610.563354 
	C90.427635,612.869995 85.172707,616.435425 80.855186,621.789490 
	C84.525009,622.987488 88.756668,622.478210 93.016914,621.050476 
	C95.660912,620.164307 97.936073,618.062073 101.000000,618.500000 
"/>
<path fill="none" opacity="1.000000" stroke="#000000" stroke-linecap="round" stroke-linejoin="round" stroke-width="3.000000"
	d="
M581.500000,664.500000 
	C577.997375,657.884277 572.964539,652.805725 566.538818,648.935608 
	C563.848206,647.315125 561.371216,646.697144 558.500000,648.000000 
"/>
<path fill="none" opacity="1.000000" stroke="#000000" stroke-linecap="round" stroke-linejoin="round" stroke-width="3.000000"
	d="
M143.500000,660.000000 
	C139.782654,661.419434 139.250122,665.157410 139.216675,668.002563 
	C139.161804,672.667358 136.757156,678.454651 143.001221,681.729919 
	C148.007370,674.550720 147.424835,667.341492 144.000000,660.000000 
"/>
<path fill="none" opacity="1.000000" stroke="#000000" stroke-linecap="round" stroke-linejoin="round" stroke-width="3.000000"
	d="
M354.500000,208.000000 
	C353.472290,210.449478 353.963440,212.282211 356.489838,213.520706 
	C359.367096,214.931168 362.075806,216.715561 365.018555,217.956009 
	C371.541199,220.705475 372.211884,221.552765 372.000000,228.500000 
"/>
<path fill="none" opacity="1.000000" stroke="#000000" stroke-linecap="round" stroke-linejoin="round" stroke-width="3.000000"
	d="
M429.000000,709.000000 
	C430.352631,703.221497 438.419189,695.673157 443.500732,695.525269 
	C444.821198,695.486877 446.326324,695.785767 446.923431,697.036560 
	C447.376526,697.985596 446.753967,699.001648 446.070374,700.046082 
	C441.775452,706.607727 435.171173,708.774780 428.000000,710.000000 
"/>
<path fill="none" opacity="1.000000" stroke="#000000" stroke-linecap="round" stroke-linejoin="round" stroke-width="3.000000"
	d="
M64.500000,98.500000 
	C65.000000,98.070084 65.381653,97.497131 66.020226,98.486954 
	C68.984489,103.081726 68.335442,110.260429 64.500000,114.500000 
	C60.565262,111.389053 60.443478,107.735512 64.000000,99.500000 
"/>
<path fill="none" opacity="1.000000" stroke="#000000" stroke-linecap="round" stroke-linejoin="round" stroke-width="3.000000"
	d="
M421.500000,723.500000 
	C425.642792,729.157043 424.978729,735.633118 424.413391,741.992310 
	C424.218750,744.181763 422.206390,745.059570 420.000275,745.000366 
	C416.045624,739.375854 416.535736,728.838318 421.000000,723.500000 
"/>
<path fill="none" opacity="1.000000" stroke="#000000" stroke-linecap="round" stroke-linejoin="round" stroke-width="3.000000"
	d="
M346.000000,344.000000 
	C338.040375,348.912231 330.238129,354.050659 323.000000,360.000000 
"/>
<path fill="none" opacity="1.000000" stroke="#000000" stroke-linecap="round" stroke-linejoin="round" stroke-width="3.000000"
	d="
M507.500000,673.500000 
	C510.668945,666.914490 511.561890,660.387329 507.229553,653.819275 
	C503.129456,654.809387 501.526886,656.627502 502.354156,661.027405 
	C503.255310,665.820374 503.236084,670.719421 506.942139,674.555908 
	C507.522308,675.156433 507.333313,676.500000 507.500000,677.500000 
"/>
<path fill="none" opacity="1.000000" stroke="#000000" stroke-linecap="round" stroke-linejoin="round" stroke-width="3.000000"
	d="
M586.500000,696.500000 
	C586.804443,705.459717 583.570557,713.034851 576.865662,720.702820 
	C575.931641,719.240784 575.215881,718.120361 574.500061,716.999939 
"/>
<path fill="none" opacity="1.000000" stroke="#000000" stroke-linecap="round" stroke-linejoin="round" stroke-width="3.000000"
	d="
M388.000000,171.500000 
	C389.111450,154.679962 378.498047,148.705734 363.498718,147.515991 
	C362.508453,147.437439 361.500000,146.736328 360.500000,147.500000 
"/>
<path fill="none" opacity="1.000000" stroke="#000000" stroke-linecap="round" stroke-linejoin="round" stroke-width="3.000000"
	d="
M230.000000,709.000000 
	C229.343170,715.245544 234.050003,724.998108 239.022522,727.454407 
	C239.692383,727.785339 241.343903,727.665771 241.391006,727.473328 
	C241.718048,726.137329 243.315216,725.571655 242.647736,723.453430 
	C240.535187,716.749512 237.957611,710.750366 230.507507,708.475403 
	C229.453156,708.153442 228.500015,707.500000 227.500015,707.000000 
"/>
<path fill="none" opacity="1.000000" stroke="#000000" stroke-linecap="round" stroke-linejoin="round" stroke-width="3.000000"
	d="
M613.000000,680.500000 
	C612.669739,681.582825 612.377380,682.292603 613.393616,683.583740 
	C617.018921,688.189575 615.700500,693.779175 615.342468,698.989197 
	C615.216187,700.827148 613.337646,703.088013 611.011719,702.873291 
	C608.851562,702.673889 608.506714,700.628723 608.436279,698.502136 
	C608.258545,693.137146 608.050293,687.850647 612.000000,683.500000 
"/>
<path fill="none" opacity="1.000000" stroke="#000000" stroke-linecap="round" stroke-linejoin="round" stroke-width="4.000000"
	d="
M493.500000,214.500000 
	C493.766785,221.588898 495.180969,228.768829 491.556396,235.530243 
	C491.139984,236.307007 491.500000,237.500000 491.500000,238.500000 
"/>
<path fill="none" opacity="1.000000" stroke="#000000" stroke-linecap="round" stroke-linejoin="round" stroke-width="3.000000"
	d="
M275.500000,111.000000 
	C269.496460,105.130096 259.238037,103.664604 254.500000,108.000000 
	C258.165070,112.996490 267.607056,114.570160 275.500000,111.500000 
"/>
<path fill="none" opacity="1.000000" stroke="#000000" stroke-linecap="round" stroke-linejoin="round" stroke-width="3.000000"
	d="
M521.000000,678.500000 
	C526.510132,677.365906 529.940125,673.253296 533.394104,669.404968 
	C534.494141,668.179321 534.956665,665.528381 533.420898,664.084167 
	C531.825562,662.583984 529.499084,663.248962 528.048889,664.554321 
	C523.595276,668.563110 520.434692,673.424133 519.500000,679.500000 
"/>
<path fill="none" opacity="1.000000" stroke="#000000" stroke-linecap="round" stroke-linejoin="round" stroke-width="3.000000"
	d="
M273.000000,86.000000 
	C271.236145,81.181259 267.095154,78.817619 262.972168,76.550598 
	C261.110504,75.526962 258.969330,75.489754 257.518311,77.513130 
	C255.933228,79.723427 257.407745,81.429840 259.039246,82.436394 
	C263.438721,85.150673 267.883698,88.007278 273.504883,87.028122 
	C273.800262,86.976669 274.166656,87.333328 274.500000,87.499992 
"/>
<path fill="none" opacity="1.000000" stroke="#000000" stroke-linecap="round" stroke-linejoin="round" stroke-width="3.000000"
	d="
M115.500000,634.500000 
	C117.101631,628.233398 117.698425,621.878418 116.426857,615.514587 
	C115.954735,613.151733 115.608955,610.316284 112.255539,609.765198 
	C107.213196,615.235352 108.591576,624.353821 115.750000,631.000000 
"/>
<path fill="none" opacity="1.000000" stroke="#000000" stroke-linecap="round" stroke-linejoin="round" stroke-width="3.000000"
	d="
M136.500000,655.500000 
	C132.275391,653.053345 123.865387,654.015015 119.514236,657.517700 
	C118.418983,658.399353 117.499931,659.499939 116.441307,660.558533 
	C118.283463,664.159607 121.283607,664.028076 124.496071,662.987854 
	C128.994919,661.531067 133.586227,660.195435 136.500000,656.000000 
"/>
<path fill="none" opacity="1.000000" stroke="#000000" stroke-linecap="round" stroke-linejoin="round" stroke-width="3.000000"
	d="
M58.500000,611.500000 
	C62.670330,613.590454 66.757828,616.031738 71.504951,616.442810 
	C75.084152,616.752747 78.657928,616.404846 81.179810,613.243225 
	C77.276642,607.963196 68.977974,607.537598 61.500000,612.000000 
"/>
<path fill="none" opacity="1.000000" stroke="#000000" stroke-linecap="round" stroke-linejoin="round" stroke-width="3.000000"
	d="
M213.500000,693.500000 
	C218.889374,696.109436 224.322861,698.515076 230.499939,698.529236 
	C232.677750,698.534241 234.655319,698.477295 235.502136,696.004272 
	C231.070175,690.340698 221.271576,689.145752 215.000000,693.500000 
"/>
<path fill="none" opacity="1.000000" stroke="#000000" stroke-linecap="round" stroke-linejoin="round" stroke-width="3.000000"
	d="
M285.000000,726.500000 
	C283.288666,732.933899 279.293213,737.640564 274.046417,741.562073 
	C272.185791,742.952698 269.919342,743.085571 268.603638,742.321533 
	C266.627502,741.174072 266.985321,738.883484 268.488037,736.990540 
	C272.814850,731.540100 276.739349,725.525696 285.000000,726.000000 
"/>
<path fill="none" opacity="1.000000" stroke="#000000" stroke-linecap="round" stroke-linejoin="round" stroke-width="3.000000"
	d="
M188.500000,667.000000 
	C185.725098,669.045044 185.542450,671.366699 186.909790,674.538879 
	C188.934875,679.237000 191.365768,683.280151 197.136185,685.427795 
	C196.648041,677.896667 195.108719,671.496399 189.000000,667.000000 
"/>
<path fill="none" opacity="1.000000" stroke="#000000" stroke-linecap="round" stroke-linejoin="round" stroke-width="3.000000"
	d="
M108.500000,117.500000 
	C112.196045,111.560791 107.386429,107.379898 105.627289,102.454536 
	C104.444962,99.144142 102.603012,100.075790 100.500000,100.500000 
"/>
<path fill="none" opacity="1.000000" stroke="#000000" stroke-linecap="round" stroke-linejoin="round" stroke-width="3.000000"
	d="
M491.000000,579.500000 
	C493.319672,586.312134 494.999573,593.246094 495.000000,600.500000 
"/>
<path fill="none" opacity="1.000000" stroke="#000000" stroke-linecap="round" stroke-linejoin="round" stroke-width="3.000000"
	d="
M623.500000,671.000000 
	C629.606262,662.363159 639.522766,660.002075 644.784607,666.343018 
	C638.212158,672.015381 630.465576,672.195740 622.500000,671.500000 
"/>
<path fill="none" opacity="1.000000" stroke="#000000" stroke-linecap="round" stroke-linejoin="round" stroke-width="3.000000"
	d="
M229.500000,80.500000 
	C232.788589,82.511185 232.517639,85.579330 231.437775,88.476807 
	C229.774368,92.940033 227.788559,97.305351 224.168961,100.833061 
	C220.790146,94.172424 222.839401,85.975388 229.000000,80.500000 
"/>
<path fill="none" opacity="1.000000" stroke="#000000" stroke-linecap="round" stroke-linejoin="round" stroke-width="3.000000"
	d="
M89.500000,96.500000 
	C89.591095,92.794189 87.829948,90.572723 84.023148,91.152092 
	C80.185745,91.736122 76.127510,90.422005 72.395500,92.861038 
	C74.739433,97.081985 79.918518,96.689178 83.500000,99.000000 
"/>
<path fill="none" opacity="1.000000" stroke="#000000" stroke-linecap="round" stroke-linejoin="round" stroke-width="3.000000"
	d="
M335.000000,691.000000 
	C338.033386,692.211121 338.086090,694.674866 336.930847,696.965149 
	C334.967834,700.856934 327.967163,707.284912 323.148743,706.438293 
	C325.357025,700.049072 327.594421,693.868103 334.500000,691.000000 
"/>
<path fill="none" opacity="1.000000" stroke="#000000" stroke-linecap="round" stroke-linejoin="round" stroke-width="3.000000"
	d="
M387.000000,726.500000 
	C378.742584,725.373596 369.212921,734.062378 370.000000,742.000000 
	C377.344452,742.029358 385.840698,733.769165 388.000000,724.500000 
"/>
<path fill="none" opacity="1.000000" stroke="#000000" stroke-linecap="round" stroke-linejoin="round" stroke-width="3.000000"
	d="
M288.500000,80.500000 
	C290.247009,74.942009 288.636139,69.466148 287.878601,64.016876 
	C287.678284,62.576241 287.180786,59.912945 284.514954,60.561527 
	C282.415894,61.072224 281.404419,62.881905 281.530365,64.998192 
	C281.848816,70.349457 283.007416,75.360619 288.000000,78.500000 
"/>
<path fill="none" opacity="1.000000" stroke="#000000" stroke-linecap="round" stroke-linejoin="round" stroke-width="3.000000"
	d="
M175.500000,694.500000 
	C179.267715,699.287659 184.445755,696.937439 188.992676,696.783569 
	C190.611404,696.728821 193.003021,696.073303 194.253067,694.185486 
	C190.373703,689.243958 179.875412,688.974792 175.000000,694.000000 
"/>
<path fill="none" opacity="1.000000" stroke="#000000" stroke-linecap="round" stroke-linejoin="round" stroke-width="3.000000"
	d="
M257.000000,273.500000 
	C251.263092,270.174896 245.414703,267.443359 238.500854,267.389465 
	C235.162537,267.363434 231.603775,266.680786 228.576309,265.329102 
	C226.356201,264.337860 223.045975,263.006805 223.575851,259.511505 
	C224.085709,256.148315 226.328751,253.636826 229.517471,252.551315 
	C238.856689,249.371994 247.692978,251.218491 255.947372,256.089203 
	C257.616852,257.074280 259.355011,257.963867 261.000000,259.000000 
"/>
<path fill="none" opacity="1.000000" stroke="#000000" stroke-linecap="round" stroke-linejoin="round" stroke-width="3.000000"
	d="
M500.500000,682.500000 
	C497.782806,676.550537 492.708435,672.904053 487.447235,669.583618 
	C485.722565,668.495239 483.278656,667.177185 481.500000,670.000000 
"/>
<path fill="none" opacity="1.000000" stroke="#000000" stroke-linecap="round" stroke-linejoin="round" stroke-width="3.000000"
	d="
M335.500000,65.500000 
	C334.133667,65.701385 332.761566,65.104378 331.452057,66.453476 
	C327.507324,70.517479 322.233093,71.641113 317.030273,70.810364 
	C313.299286,70.214630 312.461639,71.346718 311.381805,74.458992 
	C309.765747,79.116776 310.094604,83.761391 311.797363,87.876976 
	C312.522919,89.630692 312.118469,91.010712 312.500000,92.500000 
"/>
<path fill="none" opacity="1.000000" stroke="#000000" stroke-linecap="round" stroke-linejoin="round" stroke-width="3.000000"
	d="
M216.000000,664.000000 
	C208.915482,669.067261 206.681564,675.425354 209.811142,683.281006 
	C214.142014,678.524902 217.742966,673.993103 218.048737,667.502319 
	C218.117798,666.036377 217.358383,665.320801 216.500000,664.500000 
"/>
<path fill="none" opacity="1.000000" stroke="#000000" stroke-linecap="round" stroke-linejoin="round" stroke-width="3.000000"
	d="
M368.500000,133.500000 
	C374.935211,136.411224 380.620087,140.395172 385.478149,145.520706 
	C386.226257,146.309982 386.972504,146.652069 388.000000,146.500000 
"/>
<path fill="none" opacity="1.000000" stroke="#000000" stroke-linecap="round" stroke-linejoin="round" stroke-width="3.000000"
	d="
M236.500000,118.000000 
	C239.592804,111.211693 245.172470,107.624771 250.691574,109.049454 
	C249.549103,114.984100 244.499176,117.031036 239.923615,118.201363 
	C237.003708,118.948212 234.243637,119.861717 231.500000,121.000000 
"/>
<path fill="none" opacity="1.000000" stroke="#000000" stroke-linecap="round" stroke-linejoin="round" stroke-width="3.000000"
	d="
M499.500000,682.000000 
	C493.314819,682.568359 488.530548,679.952942 484.469482,675.528015 
	C483.680542,674.668396 483.109711,673.252075 481.500000,673.500000 
"/>
<path fill="none" opacity="1.000000" stroke="#000000" stroke-linecap="round" stroke-linejoin="round" stroke-width="4.000000"
	d="
M495.000000,216.000000 
	C500.775208,218.451935 506.836182,218.846252 513.000000,218.500000 
"/>
<path fill="none" opacity="1.000000" stroke="#000000" stroke-linecap="round" stroke-linejoin="round" stroke-width="3.000000"
	d="
M125.500000,128.000000 
	C118.610909,127.038887 115.462799,132.019348 111.780495,136.404251 
	C113.130974,138.785629 114.224304,139.904968 117.064384,138.101379 
	C120.906647,135.661377 123.309761,132.242065 125.500000,128.500000 
"/>
<path fill="none" opacity="1.000000" stroke="#000000" stroke-linecap="round" stroke-linejoin="round" stroke-width="3.000000"
	d="
M404.000000,191.000000 
	C401.714233,186.022552 397.027252,184.116470 392.501404,181.997025 
	C389.825012,180.743683 388.915619,181.915176 389.000000,184.500000 
"/>
<path fill="none" opacity="1.000000" stroke="#000000" stroke-linecap="round" stroke-linejoin="round" stroke-width="3.000000"
	d="
M327.000000,64.500000 
	C323.378296,65.513863 319.127441,64.876198 316.326599,68.859131 
	C318.285522,75.335747 317.560730,81.849670 314.000000,88.000000 
"/>
<path fill="none" opacity="1.000000" stroke="#000000" stroke-linecap="round" stroke-linejoin="round" stroke-width="3.000000"
	d="
M417.500000,183.000000 
	C418.194336,191.053406 412.415222,193.832169 406.500000,196.500000 
"/>
<path fill="none" opacity="1.000000" stroke="#000000" stroke-linecap="round" stroke-linejoin="round" stroke-width="8.000000"
	d="
M311.000000,88.000000 
	C304.267883,88.268501 301.176575,94.094078 296.500000,97.500000 
"/>
<path fill="none" opacity="1.000000" stroke="#000000" stroke-linecap="round" stroke-linejoin="round" stroke-width="3.000000"
	d="
M292.500000,107.000000 
	C289.735168,111.678085 286.807922,116.329102 289.857727,122.212494 
	C294.175293,120.838181 293.903046,117.149117 294.482330,113.996758 
	C295.151672,110.354515 292.891235,107.086967 293.000000,103.500000 
"/>
<path fill="none" opacity="1.000000" stroke="#000000" stroke-linecap="round" stroke-linejoin="round" stroke-width="3.000000"
	d="
M131.500000,129.500000 
	C129.695312,135.833939 132.268967,140.562485 136.778366,144.748932 
	C141.577652,141.000000 137.565903,137.332092 136.688629,134.084091 
	C136.346191,132.816208 135.475891,129.708527 132.510101,129.402222 
	C131.264114,129.273544 131.433090,127.633415 131.500000,126.500000 
"/>
<path fill="none" opacity="1.000000" stroke="#000000" stroke-linecap="round" stroke-linejoin="round" stroke-width="3.000000"
	d="
M213.000000,116.500000 
	C213.583862,115.071281 213.604111,114.218246 212.100739,112.886299 
	C208.807297,109.968391 209.265259,105.433716 208.650345,101.476639 
	C208.552933,100.849632 208.658798,98.786102 210.496552,98.479347 
	C212.568924,98.133430 213.035095,99.733177 213.455826,101.014503 
	C214.802429,105.115685 214.811447,109.233803 213.000000,113.250000 
"/>
<path fill="none" opacity="1.000000" stroke="#000000" stroke-linecap="round" stroke-linejoin="round" stroke-width="3.000000"
	d="
M218.500000,117.500000 
	C221.261734,113.952225 222.828003,109.329987 227.499451,107.498581 
	C228.836411,106.974442 230.150604,105.555656 231.504776,107.496666 
	C232.720123,109.238663 231.665207,110.295609 230.523132,111.521553 
	C227.792328,114.452911 224.710602,116.449478 220.500000,116.000000 
"/>
<path fill="none" opacity="1.000000" stroke="#000000" stroke-linecap="round" stroke-linejoin="round" stroke-width="3.000000"
	d="
M331.500000,66.000000 
	C330.414032,64.401756 328.033417,65.716476 326.734131,63.737442 
	C329.191315,61.090481 333.028687,60.583912 335.601562,58.105415 
	C336.504700,57.235367 337.253479,56.636486 336.956757,55.511410 
	C336.578613,54.077724 335.077454,53.751102 334.020477,54.068241 
	C330.578339,55.100998 327.258911,56.549725 325.542847,60.021179 
	C324.953857,61.212650 326.417542,61.716148 327.000000,62.500000 
"/>
<path fill="none" opacity="1.000000" stroke="#000000" stroke-linecap="round" stroke-linejoin="round" stroke-width="3.000000"
	d="
M218.000000,121.500000 
	C218.484360,122.952110 218.827789,123.870026 220.970230,124.195786 
	C224.434601,124.722534 227.309448,127.156349 230.004196,129.495178 
	C231.022186,130.378708 230.648590,131.624527 230.408051,132.473969 
	C230.044205,133.758987 228.624603,133.634109 227.501709,133.487000 
	C224.518890,133.096252 220.691589,128.729568 220.000000,125.000000 
"/>
<path fill="none" opacity="1.000000" stroke="#000000" stroke-linecap="round" stroke-linejoin="round" stroke-width="3.000000"
	d="
M150.500000,122.500000 
	C146.180969,126.141083 141.572266,126.823853 137.000000,124.500000 
	C141.065735,119.340263 146.708557,118.295296 150.500000,122.000000 
"/>
<path fill="none" opacity="1.000000" stroke="#000000" stroke-linecap="round" stroke-linejoin="round" stroke-width="7.000000"
	d="
M344.500000,53.500000 
	C345.749207,58.444969 347.462311,63.080673 352.500000,65.500000 
"/>
<path fill="none" opacity="1.000000" stroke="#000000" stroke-linecap="round" stroke-linejoin="round" stroke-width="3.000000"
	d="
M364.500000,163.500000 
	C371.895721,162.460800 379.231354,162.743240 386.500000,164.500000 
"/>
<path fill="none" opacity="1.000000" stroke="#000000" stroke-linecap="round" stroke-linejoin="round" stroke-width="3.000000"
	d="
M397.500000,176.500000 
	C400.591736,177.526428 403.327942,179.396820 404.886780,182.066116 
	C406.971924,185.636658 408.968231,185.039825 411.500000,183.000000 
"/>
<path fill="none" opacity="1.000000" stroke="#000000" stroke-linecap="round" stroke-linejoin="round" stroke-width="3.000000"
	d="
M389.500031,142.500000 
	C388.500031,147.500000 387.500031,152.500000 386.500031,157.500000 
"/>
<path fill="none" opacity="1.000000" stroke="#000000" stroke-linecap="round" stroke-linejoin="round" stroke-width="3.000000"
	d="
M406.500000,174.500000 
	C408.435150,179.899017 408.899475,185.252060 406.000000,190.500000 
"/>
<path fill="none" opacity="1.000000" stroke="#000000" stroke-linecap="round" stroke-linejoin="round" stroke-width="3.000000"
	d="
M365.500000,241.000000 
	C362.191559,240.817535 361.585480,245.701950 358.000000,245.000000 
"/>
<path fill="none" opacity="1.000000" stroke="#000000" stroke-linecap="round" stroke-linejoin="round" stroke-width="3.000000"
	d="
M346.000000,729.500000 
	C342.863586,731.252502 344.503815,733.981812 345.625031,735.401245 
	C348.906342,739.555237 351.526306,744.548279 357.099823,746.429016 
	C361.126434,743.566040 361.409576,741.784607 359.040283,737.974915 
	C356.083313,733.220154 351.261749,731.458191 346.500000,729.500000 
"/>
<path fill="none" opacity="1.000000" stroke="#000000" stroke-linecap="round" stroke-linejoin="round" stroke-width="3.000000"
	d="
M546.500000,690.000000 
	C545.505310,691.478516 546.025269,692.610718 546.946228,694.034790 
	C550.323608,699.257568 553.814514,704.093689 560.464294,705.652222 
	C561.890869,705.986633 563.465027,707.216980 564.380127,705.915710 
	C565.325989,704.570740 565.424744,702.784973 564.070801,700.947815 
	C559.736938,695.067383 554.233765,691.244751 547.000000,690.000000 
"/>
<path fill="none" opacity="1.000000" stroke="#000000" stroke-linecap="round" stroke-linejoin="round" stroke-width="4.000000"
	d="
M681.000000,632.500000 
	C679.616089,632.802979 678.277893,633.216492 679.512329,634.991394 
	C682.817932,639.744141 686.329529,644.158813 692.478943,645.590515 
	C694.556519,646.074280 696.407532,646.435425 697.399719,644.449890 
	C698.049438,643.149841 696.950439,641.810303 696.117737,640.429016 
	C693.404602,635.928528 688.254028,635.962402 684.414001,633.642334 
	C683.714233,633.219482 682.563538,632.642761 681.500000,632.500000 
"/>
<path fill="none" opacity="1.000000" stroke="#000000" stroke-linecap="round" stroke-linejoin="round" stroke-width="3.000000"
	d="
M108.500000,651.000000 
	C101.981026,652.436279 96.451233,655.455322 92.207184,660.871643 
	C93.165916,662.929443 94.198700,665.128418 96.470276,664.406494 
	C103.664787,662.120117 110.893028,659.675354 115.303993,652.787842 
	C113.379097,650.483643 111.105072,651.079712 109.000000,651.000000 
"/>
</svg>