<svg xmlns="http://www.w3.org/2000/svg" viewBox="0 0 500 500" fill="none" stroke="#000" stroke-width="2">
  <title>Lavandas</title>
  <!-- Lavender stalk 1 - center -->
  <path d="M250 460 L250 120" stroke-width="3"/>
  <!-- Lavender flowers along stalk 1 (small ovals clustered) -->
  <g stroke-width="2">
    <!-- Top cluster -->
    <ellipse cx="250" cy="120" rx="6" ry="10"/>
    <ellipse cx="244" cy="128" rx="5" ry="8"/>
    <ellipse cx="256" cy="128" rx="5" ry="8"/>
    <ellipse cx="250" cy="136" rx="6" ry="9"/>
    <ellipse cx="243" cy="144" rx="5" ry="8"/>
    <ellipse cx="257" cy="144" rx="5" ry="8"/>
    <ellipse cx="250" cy="152" rx="6" ry="9"/>
    <ellipse cx="244" cy="160" rx="5" ry="8"/>
    <ellipse cx="256" cy="160" rx="5" ry="8"/>
    <ellipse cx="250" cy="168" rx="5" ry="8"/>
    <ellipse cx="245" cy="175" rx="4" ry="7"/>
    <ellipse cx="255" cy="175" rx="4" ry="7"/>
    <ellipse cx="250" cy="182" rx="4" ry="6"/>
    <ellipse cx="247" cy="188" rx="3" ry="5"/>
    <ellipse cx="253" cy="188" rx="3" ry="5"/>
  </g>
  <!-- Lavender stalk 2 - left -->
  <path d="M200 460 Q190 300 180 160" stroke-width="2.5"/>
  <g stroke-width="1.5">
    <ellipse cx="180" cy="160" rx="5" ry="9"/>
    <ellipse cx="175" cy="167" rx="4" ry="7"/>
    <ellipse cx="185" cy="167" rx="4" ry="7"/>
    <ellipse cx="180" cy="174" rx="5" ry="8"/>
    <ellipse cx="174" cy="181" rx="4" ry="7"/>
    <ellipse cx="186" cy="181" rx="4" ry="7"/>
    <ellipse cx="180" cy="188" rx="4" ry="7"/>
    <ellipse cx="175" cy="194" rx="3" ry="6"/>
    <ellipse cx="185" cy="194" rx="3" ry="6"/>
    <ellipse cx="180" cy="200" rx="3" ry="5"/>
  </g>
  <!-- Lavender stalk 3 - right -->
  <path d="M300 460 Q310 320 320 180" stroke-width="2.5"/>
  <g stroke-width="1.5">
    <ellipse cx="320" cy="180" rx="5" ry="9"/>
    <ellipse cx="315" cy="187" rx="4" ry="7"/>
    <ellipse cx="325" cy="187" rx="4" ry="7"/>
    <ellipse cx="320" cy="194" rx="5" ry="8"/>
    <ellipse cx="314" cy="201" rx="4" ry="7"/>
    <ellipse cx="326" cy="201" rx="4" ry="7"/>
    <ellipse cx="320" cy="208" rx="4" ry="7"/>
    <ellipse cx="315" cy="214" rx="3" ry="6"/>
    <ellipse cx="325" cy="214" rx="3" ry="6"/>
    <ellipse cx="320" cy="220" rx="3" ry="5"/>
  </g>
  <!-- Lavender stalk 4 - far left -->
  <path d="M140 460 Q135 350 130 230" stroke-width="2"/>
  <g stroke-width="1.5">
    <ellipse cx="130" cy="230" rx="4" ry="7"/>
    <ellipse cx="126" cy="236" rx="3" ry="6"/>
    <ellipse cx="134" cy="236" rx="3" ry="6"/>
    <ellipse cx="130" cy="242" rx="4" ry="6"/>
    <ellipse cx="126" cy="248" rx="3" ry="5"/>
    <ellipse cx="134" cy="248" rx="3" ry="5"/>
    <ellipse cx="130" cy="254" rx="3" ry="5"/>
  </g>
  <!-- Lavender stalk 5 - far right -->
  <path d="M360 460 Q365 350 370 250" stroke-width="2"/>
  <g stroke-width="1.5">
    <ellipse cx="370" cy="250" rx="4" ry="7"/>
    <ellipse cx="366" cy="256" rx="3" ry="6"/>
    <ellipse cx="374" cy="256" rx="3" ry="6"/>
    <ellipse cx="370" cy="262" rx="4" ry="6"/>
    <ellipse cx="366" cy="268" rx="3" ry="5"/>
    <ellipse cx="374" cy="268" rx="3" ry="5"/>
    <ellipse cx="370" cy="274" rx="3" ry="5"/>
  </g>
  <!-- Narrow leaves at base -->
  <path d="M245 440 Q220 410 200 400" stroke-width="2"/>
  <path d="M240 435 Q230 420 225 415" stroke-width="1.5"/>
  <path d="M255 440 Q280 410 300 400" stroke-width="2"/>
  <path d="M260 435 Q270 420 275 415" stroke-width="1.5"/>
  <!-- Small buds scattered -->
  <g fill="#000" fill-opacity="0.12">
    <circle cx="250" cy="130" r="3"/>
    <circle cx="180" cy="168" r="2.5"/>
    <circle cx="320" cy="188" r="2.5"/>
    <circle cx="250" cy="145" r="2.5"/>
    <circle cx="130" cy="238" r="2"/>
    <circle cx="370" cy="258" r="2"/>
  </g>
</svg>
