<svg version="1.1" id="Layer_1" xmlns="http://www.w3.org/2000/svg" xmlns:xlink="http://www.w3.org/1999/xlink" x="0px" y="0px"
	 width="100%" viewBox="0 0 736 1104" enable-background="new 0 0 736 1104" xml:space="preserve">
<path fill="none" opacity="1.000000" stroke="#000000" stroke-linecap="round" stroke-linejoin="round" stroke-width="3.000000"
	d="
M310.500000,472.000000 
	C310.166656,476.333344 309.723450,480.661438 309.517456,485.000824 
	C307.939087,518.252563 298.912750,549.115845 282.179047,578.103333 
	C266.273590,605.656128 248.044632,631.751953 232.490921,659.494934 
	C223.383270,675.739990 214.410233,691.981934 208.901215,709.969727 
	C203.124573,728.831482 201.018524,747.809448 202.840881,767.514709 
	C204.569931,786.210876 209.225311,803.962524 219.711685,819.355774 
	C230.745331,835.552490 245.904572,847.829285 263.010864,857.480774 
	C280.934723,867.593445 299.878937,875.272888 319.462952,881.614380 
	C333.760895,886.244263 348.237549,890.034119 363.025391,892.337036 
	C371.552124,893.664917 380.408569,893.870972 388.981354,892.391907 
	C400.217865,890.453247 400.707397,884.859314 396.901093,876.042725 
	C394.970520,871.570923 391.573944,867.903503 388.019165,864.480103 
	C383.605865,860.229797 379.434540,855.725220 374.962311,851.540222 
	C372.250153,849.002319 371.303497,846.130920 371.459442,842.498230 
	C372.122772,827.045471 371.248383,811.758728 366.004730,796.998352 
	C357.264160,772.394470 340.421783,755.962585 316.019470,746.947266 
	C309.300690,744.465027 302.629150,741.989258 295.500000,741.000000 
"/>
<path fill="none" opacity="1.000000" stroke="#000000" stroke-linecap="round" stroke-linejoin="round" stroke-width="3.000000"
	d="
M478.500000,586.000000 
	C499.572327,598.950378 508.411346,619.116516 511.425873,642.509521 
	C512.683167,652.266174 515.273376,661.771851 516.441895,671.506958 
	C518.754578,690.774963 519.841919,710.034241 518.181824,729.515503 
	C516.520081,749.015625 512.519592,767.797974 505.499603,785.999817 
	C502.317535,794.250549 498.115021,801.966492 493.532837,809.519897 
	C485.590088,822.612915 475.597870,833.709717 463.017822,842.525452 
	C445.361115,854.898804 426.199097,863.732483 405.004333,868.021362 
	C401.640106,868.702148 398.333344,869.666687 395.000000,870.500000 
"/>
<path fill="none" opacity="1.000000" stroke="#000000" stroke-linecap="round" stroke-linejoin="round" stroke-width="3.000000"
	d="
M548.000000,592.500000 
	C550.009216,587.333313 548.384094,581.996338 547.753174,577.031372 
	C545.713501,560.980896 542.732422,545.033142 537.975281,529.507568 
	C535.582153,521.697327 532.508057,514.144104 528.497070,507.001648 
	C527.301331,504.872375 525.570679,503.262634 523.628479,501.838837 
	C520.167480,503.000458 520.009216,505.693237 519.994446,508.499969 
	C519.934448,519.941284 523.236816,530.703064 526.357239,541.541138 
	C526.864990,543.304932 529.083679,545.312500 527.000000,547.500000 
"/>
<path fill="none" opacity="1.000000" stroke="#000000" stroke-linecap="round" stroke-linejoin="round" stroke-width="3.000000"
	d="
M479.500000,287.000000 
	C481.637451,288.482605 483.795135,287.427765 485.458954,286.431427 
	C505.159210,274.634888 524.665771,262.545227 539.975342,244.978531 
	C541.676514,243.026535 543.427246,240.945023 543.550415,237.252396 
	C537.217896,238.665710 532.886108,242.329178 528.566589,245.588287 
	C519.678345,252.294617 511.119080,259.442749 502.553497,266.564331 
	C501.328888,267.582520 500.231720,267.394348 499.000000,267.500000 
"/>
<path fill="none" opacity="1.000000" stroke="#000000" stroke-linecap="round" stroke-linejoin="round" stroke-width="3.000000"
	d="
M202.000000,595.000000 
	C201.903122,584.275818 203.735611,573.451416 199.552338,562.979126 
	C196.495026,555.325562 193.515945,550.288696 189.500000,547.500000 
	C181.187790,558.170959 188.696228,590.003113 199.937881,598.727905 
	C200.568451,597.740906 201.284241,596.620483 202.000046,595.500061 
"/>
<path fill="none" opacity="1.000000" stroke="#000000" stroke-linecap="round" stroke-linejoin="round" stroke-width="3.000000"
	d="
M170.750000,644.000000 
	C169.352982,633.199280 169.071411,622.209900 164.544876,611.980164 
	C161.886353,605.971985 157.787064,599.712891 152.897110,595.409485 
	C150.914322,595.772156 150.686707,597.231079 150.463211,598.995361 
	C148.126450,617.441711 154.009964,632.958618 166.984161,646.015747 
	C167.786835,646.823608 168.666977,646.331787 169.500000,646.500000 
"/>
<path fill="none" opacity="1.000000" stroke="#000000" stroke-linecap="round" stroke-linejoin="round" stroke-width="3.000000"
	d="
M453.000000,499.500000 
	C456.824219,523.688354 468.728821,544.391846 480.912506,565.051575 
	C486.246399,574.096191 491.475586,583.304993 494.479156,593.506165 
	C495.006226,595.296265 496.566803,597.166687 494.500000,599.000000 
"/>
<path fill="none" opacity="1.000000" stroke="#000000" stroke-linecap="round" stroke-linejoin="round" stroke-width="3.000000"
	d="
M363.500000,232.000000 
	C364.583344,231.176712 366.092407,231.388382 366.684174,232.058167 
	C372.649628,238.810028 381.067474,242.122726 388.083862,247.388245 
	C389.514069,248.461533 390.296448,249.361420 391.094116,250.952820 
	C399.643768,268.010498 412.406769,281.161255 429.024536,290.456146 
	C437.975739,295.462860 447.580841,298.903961 457.995544,298.406708 
	C466.205261,298.014740 472.748322,293.415436 478.401764,287.899323 
	C480.862274,285.498596 479.497437,281.914093 478.457672,279.015167 
	C474.401306,267.705353 466.460510,259.357819 456.954620,252.563477 
	C442.475830,242.214752 427.083466,233.774506 409.543365,229.328903 
	C398.643127,226.566162 388.128845,228.321136 377.521545,229.669418 
	C374.042389,230.111649 370.145386,229.979324 367.000000,232.250000 
"/>
<path fill="none" opacity="1.000000" stroke="#000000" stroke-linecap="round" stroke-linejoin="round" stroke-width="3.000000"
	d="
M156.250000,691.000000 
	C152.605301,686.662415 152.767868,680.889343 150.591339,675.959656 
	C146.821548,667.421387 142.190338,659.571167 135.520050,652.979675 
	C134.492752,651.964539 133.274994,650.781433 132.078003,651.612366 
	C131.052628,652.324158 130.692322,653.659241 130.832947,655.512695 
	C132.056061,671.632996 140.161240,684.089111 152.171066,693.788147 
	C158.250244,698.697754 166.559296,698.073547 173.973984,695.910828 
	C184.375931,692.876831 194.045624,688.271118 201.492599,679.993347 
	C202.513474,678.858582 203.792007,677.812683 203.499985,676.000000 
	C198.358276,674.280762 191.748825,675.111389 182.997299,678.492981 
	C175.066162,681.557678 167.810135,685.634644 161.980316,691.981934 
	C160.856979,693.204956 159.855362,694.696045 158.000000,695.000000 
"/>
<path fill="none" opacity="1.000000" stroke="#000000" stroke-linecap="round" stroke-linejoin="round" stroke-width="3.000000"
	d="
M392.500000,674.000000 
	C397.163116,674.265869 401.814789,673.887146 406.510254,674.407349 
	C417.334106,675.606689 424.984528,682.163635 432.471588,689.030945 
	C438.115356,694.207520 443.261841,699.950378 449.114777,704.863281 
	C451.525909,706.887146 454.046448,708.899841 458.544708,708.413879 
	C464.058899,707.818115 465.783691,704.586121 467.410889,700.960022 
	C472.291046,690.084961 470.277863,679.096741 466.408295,668.533569 
	C460.672882,652.877075 450.648682,640.793640 434.991821,634.018921 
	C433.887665,633.541138 432.666656,633.333313 431.500000,633.000000 
"/>
<path fill="none" opacity="1.000000" stroke="#000000" stroke-linecap="round" stroke-linejoin="round" stroke-width="3.000000"
	d="
M323.999969,425.499969 
	C335.166656,416.833313 346.517151,408.391144 357.449707,399.438599 
	C369.042297,389.945557 380.665924,380.475281 393.059174,372.087433 
	C409.644745,360.862152 427.259979,351.821533 446.950928,346.807312 
	C460.081299,343.463715 469.417450,348.150421 477.478241,357.518707 
	C492.133820,374.551453 498.177612,394.268921 494.381165,416.479675 
	C492.512512,427.412201 488.885864,437.944611 484.026123,448.012604 
	C475.930664,464.783966 466.400543,480.609650 454.541046,495.033752 
	C447.478424,503.623627 441.040985,512.760498 431.978241,519.470581 
	C430.009064,520.928528 428.362152,523.124939 425.500000,523.000000 
"/>
<path fill="none" opacity="1.000000" stroke="#000000" stroke-linecap="round" stroke-linejoin="round" stroke-width="3.000000"
	d="
M529.000000,551.500000 
	C523.087769,544.118408 516.034119,538.383789 506.490417,536.549866 
	C503.180267,535.913818 500.810211,538.707642 502.100037,541.960327 
	C503.491333,545.468933 505.300751,548.943237 507.570709,551.946594 
	C513.639832,559.976562 521.156372,566.716370 528.600037,573.388428 
	C535.483948,579.558777 541.206970,586.789978 547.942261,593.062012 
	C548.702637,593.770081 548.666687,595.333313 549.000000,596.500000 
"/>
<path fill="none" opacity="1.000000" stroke="#000000" stroke-linecap="round" stroke-linejoin="round" stroke-width="3.000000"
	d="
M570.000000,712.500000 
	C573.656921,717.631104 575.840637,723.651306 579.954163,728.538574 
	C583.294983,732.507935 586.844238,736.112427 591.569763,738.820801 
	C593.602478,735.213928 591.873535,731.828125 590.814148,729.071411 
	C588.481934,723.002197 585.001404,717.579468 580.113831,712.881592 
	C573.543457,706.566162 563.950012,704.979431 555.434387,710.396851 
	C546.065369,716.357239 539.239136,724.064819 535.533447,734.511841 
	C535.385132,734.929932 535.727539,735.522095 535.988342,736.693542 
	C545.264282,733.241821 552.700928,727.638611 559.515442,721.015869 
	C562.576599,718.040833 563.919678,713.550903 568.000000,711.500000 
"/>
<path fill="none" opacity="1.000000" stroke="#000000" stroke-linecap="round" stroke-linejoin="round" stroke-width="3.000000"
	d="
M157.500000,697.000000 
	C155.310028,709.898865 156.799118,722.706848 158.513138,735.498230 
	C160.007584,746.651123 163.902222,757.109741 168.000000,767.500000 
"/>
<path fill="none" opacity="1.000000" stroke="#000000" stroke-linecap="round" stroke-linejoin="round" stroke-width="3.000000"
	d="
M480.000000,284.000000 
	C483.820129,284.058960 484.792938,280.455994 486.966827,278.463806 
	C504.258942,262.617035 515.491821,242.551697 525.973328,221.986404 
	C526.514038,220.925461 526.427979,219.512527 527.057617,218.537216 
	C527.935730,217.177185 526.708801,216.492981 526.500000,215.500000 
	C525.513062,215.745056 524.551453,215.278854 523.465637,215.943848 
	C518.885864,218.748795 515.529724,222.906525 512.622986,227.085556 
	C501.764130,242.697250 491.279388,258.582764 482.566681,275.534271 
	C481.708130,277.204681 480.925110,278.783417 479.500000,280.000000 
"/>
<path fill="none" opacity="1.000000" stroke="#000000" stroke-linecap="round" stroke-linejoin="round" stroke-width="3.000000"
	d="
M568.500000,663.500000 
	C572.614502,666.456482 574.719299,671.180359 578.422363,674.584473 
	C584.086243,679.791016 590.140991,684.124023 598.177063,686.998352 
	C597.117615,680.313110 594.135986,675.398926 590.630737,670.408203 
	C586.342590,664.302856 580.568848,660.807251 574.018311,657.957947 
	C569.591553,656.032532 565.334351,657.521362 562.106873,659.661133 
	C550.675232,667.240112 544.805176,678.398315 543.495911,691.999634 
	C543.397583,693.021240 543.513855,693.927795 544.774170,694.610168 
	C553.505554,689.474487 558.857117,681.284241 563.478821,672.488831 
	C564.474365,670.594177 564.551392,668.174316 566.750000,667.000000 
"/>
<path fill="none" opacity="1.000000" stroke="#000000" stroke-linecap="round" stroke-linejoin="round" stroke-width="3.000000"
	d="
M462.000000,637.000000 
	C469.803955,644.784302 474.716858,654.247498 478.587158,664.466980 
	C481.239807,671.471313 482.804321,678.837341 486.408600,685.549072 
	C490.626831,693.404114 497.308807,692.334656 500.990295,687.492615 
	C506.943970,679.661987 509.711243,670.600525 510.978241,660.997131 
	C511.141815,659.757568 510.792114,658.416809 512.000000,657.500000 
"/>
<path fill="none" opacity="1.000000" stroke="#000000" stroke-linecap="round" stroke-linejoin="round" stroke-width="3.000000"
	d="
M169.500000,647.500000 
	C169.833328,646.833313 169.987457,645.855530 170.526077,645.545288 
	C186.508682,636.339294 203.163574,630.288879 221.988754,635.044495 
	C222.577484,635.193298 223.000000,636.000000 223.992340,636.992310 
	C217.905746,642.616760 210.642212,645.966736 202.984604,648.452576 
	C193.006012,651.692078 182.774231,651.806763 172.508102,649.955078 
	C171.613678,649.793762 170.833344,649.000000 170.000000,648.500000 
"/>
<path fill="none" opacity="1.000000" stroke="#000000" stroke-linecap="round" stroke-linejoin="round" stroke-width="3.000000"
	d="
M436.000000,295.000000 
	C434.864441,300.753082 436.634644,306.341705 437.072174,311.994415 
	C438.002441,324.012695 439.333344,336.000000 440.500000,348.000000 
"/>
<path fill="none" opacity="1.000000" stroke="#000000" stroke-linecap="round" stroke-linejoin="round" stroke-width="3.000000"
	d="
M438.500000,381.500000 
	C439.728729,382.375854 439.809570,384.458069 442.537872,383.623871 
	C451.547211,380.869110 456.654449,368.860565 451.740021,360.032990 
	C443.726532,364.848358 440.346191,372.419037 438.500000,381.000000 
"/>
<path fill="none" opacity="1.000000" stroke="#000000" stroke-linecap="round" stroke-linejoin="round" stroke-width="3.000000"
	d="
M465.500000,372.000000 
	C476.482941,384.237701 483.747528,398.565735 488.961700,414.012939 
	C489.972717,417.008148 489.725342,420.424896 492.000000,423.000000 
"/>
<path fill="none" opacity="1.000000" stroke="#000000" stroke-linecap="round" stroke-linejoin="round" stroke-width="3.000000"
	d="
M202.500000,595.000000 
	C204.211472,595.281311 205.866287,595.190430 207.504074,594.509827 
	C220.046844,589.297913 232.936783,589.304321 246.001099,591.994690 
	C247.023788,592.205322 248.328934,592.057495 248.456696,593.503845 
	C248.520157,594.222351 248.600494,594.822754 247.573746,595.597717 
	C237.085632,603.513733 214.102356,607.977112 200.500000,599.000000 
"/>
<path fill="none" opacity="1.000000" stroke="#000000" stroke-linecap="round" stroke-linejoin="round" stroke-width="3.000000"
	d="
M570.000000,711.750000 
	C568.221619,711.062805 568.016785,711.985046 567.973755,713.499268 
	C567.556274,728.189392 564.319946,742.470398 560.283691,756.437500 
	C557.397156,766.425903 552.499939,775.833313 548.499939,785.500000 
"/>
<path fill="none" opacity="1.000000" stroke="#000000" stroke-linecap="round" stroke-linejoin="round" stroke-width="3.000000"
	d="
M460.500000,299.500000 
	C461.333313,310.000000 462.074402,320.508484 463.039337,330.996368 
	C463.514435,336.160126 464.235870,341.296600 464.000000,346.500000 
"/>
<path fill="none" opacity="1.000000" stroke="#000000" stroke-linecap="round" stroke-linejoin="round" stroke-width="3.000000"
	d="
M492.500000,830.500000 
	C498.413788,832.233215 504.077576,834.573547 509.794067,837.659241 
	C508.556274,841.296936 506.383606,843.863953 502.507111,845.023743 
	C494.154877,847.522644 485.544159,847.734741 477.006866,847.348328 
	C471.520935,847.099976 465.915924,847.424683 460.500000,846.000000 
"/>
<path fill="none" opacity="1.000000" stroke="#000000" stroke-linecap="round" stroke-linejoin="round" stroke-width="3.000000"
	d="
M247.000000,531.500000 
	C249.953522,532.503235 253.086807,533.301636 255.961319,531.919556 
	C259.452637,530.240906 261.236420,523.985840 259.500000,521.000000 
	C257.124329,516.914917 252.022644,515.362244 247.999985,517.500000 
	C244.358200,519.435364 242.113388,525.072388 244.673126,528.365417 
	C247.102692,531.490967 245.957840,533.588074 244.474731,535.984375 
	C238.851532,545.069824 233.755371,554.532898 226.446564,562.450684 
	C225.193314,563.808350 225.727890,565.140320 225.500000,566.500000 
"/>
<path fill="none" opacity="1.000000" stroke="#000000" stroke-linecap="round" stroke-linejoin="round" stroke-width="3.000000"
	d="
M334.500000,439.500000 
	C329.433624,428.317657 321.362518,422.113525 308.503479,421.837372 
	C297.588074,421.602966 288.119629,434.791321 287.537048,443.468933 
	C286.803925,454.389679 290.625305,461.734100 299.113373,466.810425 
	C304.198364,469.851532 310.232452,471.660797 316.500580,471.526367 
	C317.496521,471.505005 318.500000,471.833344 319.500000,472.000000 
"/>
<path fill="none" opacity="1.000000" stroke="#000000" stroke-linecap="round" stroke-linejoin="round" stroke-width="3.000000"
	d="
M169.000000,648.500000 
	C163.780212,660.345276 160.989044,672.897522 158.633575,685.524902 
	C158.072083,688.535095 155.848038,690.876892 156.000000,694.000000 
"/>
<path fill="none" opacity="1.000000" stroke="#000000" stroke-linecap="round" stroke-linejoin="round" stroke-width="3.000000"
	d="
M553.500000,614.500000 
	C559.060486,623.778809 561.534973,634.138855 563.995422,644.501099 
	C565.022888,648.827881 566.000061,653.166687 567.000061,657.500000 
"/>
<path fill="none" opacity="1.000000" stroke="#000000" stroke-linecap="round" stroke-linejoin="round" stroke-width="3.000000"
	d="
M199.000000,599.500000 
	C189.277344,611.346191 180.670029,623.944763 173.542175,637.522156 
	C172.846664,638.846924 172.737442,640.479126 171.000000,641.000000 
"/>
<path fill="none" opacity="1.000000" stroke="#000000" stroke-linecap="round" stroke-linejoin="round" stroke-width="3.000000"
	d="
M566.500000,659.000000 
	C568.418823,663.487793 567.945740,668.392822 568.284607,673.015808 
	C569.112000,684.300659 568.833313,695.666687 569.000000,707.000000 
"/>
<path fill="none" opacity="1.000000" stroke="#000000" stroke-linecap="round" stroke-linejoin="round" stroke-width="3.000000"
	d="
M548.000000,785.500000 
	C542.291260,784.476868 537.476440,787.792542 538.032593,792.496155 
	C538.410706,795.693787 540.484497,797.511841 543.490417,798.528259 
	C546.715820,799.618774 549.108398,798.183472 550.937927,795.949219 
	C552.720947,793.771729 552.323975,790.969299 551.399719,788.538147 
	C550.996582,787.477905 549.500000,786.833374 548.500000,786.000000 
"/>
<path fill="none" opacity="1.000000" stroke="#000000" stroke-linecap="round" stroke-linejoin="round" stroke-width="3.000000"
	d="
M558.000000,760.500000 
	C553.835205,760.088318 551.233521,763.715149 547.511108,764.549561 
	C544.534912,765.216675 541.957275,766.678467 539.822510,762.592712 
	C538.609497,760.271057 535.635742,759.216492 532.479004,760.446106 
	C529.797302,761.490662 528.333313,763.235779 528.008667,766.001038 
	C527.622314,769.291504 529.652466,771.363037 532.034119,772.948730 
	C534.590271,774.650635 539.141968,772.781250 540.981689,769.489746 
	C541.597534,768.387817 542.000000,767.166687 542.500000,766.000000 
"/>
<path fill="none" opacity="1.000000" stroke="#000000" stroke-linecap="round" stroke-linejoin="round" stroke-width="3.000000"
	d="
M397.000000,888.250000 
	C388.272186,884.168701 378.576385,883.771545 369.485382,881.048767 
	C366.243225,880.077759 362.833344,879.666687 359.500000,879.000000 
"/>
<path fill="none" opacity="1.000000" stroke="#000000" stroke-linecap="round" stroke-linejoin="round" stroke-width="3.000000"
	d="
M567.500000,777.500000 
	C566.107239,781.387207 567.686890,784.186401 571.028870,785.945190 
	C573.715027,787.358826 576.365479,786.359131 578.468811,784.465393 
	C580.983582,782.201416 581.348633,779.188416 579.419128,776.559326 
	C577.424988,773.842224 574.458862,772.483582 571.022522,774.049377 
	C569.880005,774.570007 569.000000,775.666687 568.000000,776.500000 
"/>
<path fill="none" opacity="1.000000" stroke="#000000" stroke-linecap="round" stroke-linejoin="round" stroke-width="3.000000"
	d="
M501.000000,656.500000 
	C501.268463,666.983887 500.298004,677.252319 496.074921,687.032349 
	C495.675903,687.956421 494.757751,689.333313 496.000000,690.500000 
"/>
<path fill="none" opacity="1.000000" stroke="#000000" stroke-linecap="round" stroke-linejoin="round" stroke-width="3.000000"
	d="
M388.500000,425.500000 
	C389.862427,436.193909 380.592072,445.335938 367.517578,443.382294 
	C366.529846,443.234711 365.486938,443.245056 364.500000,443.000000 
"/>
<path fill="none" opacity="1.000000" stroke="#000000" stroke-linecap="round" stroke-linejoin="round" stroke-width="3.000000"
	d="
M369.000000,870.500000 
	C370.392273,873.346802 373.344696,872.326965 375.527435,872.894531 
	C383.359924,874.931458 390.700836,878.135071 398.000000,881.500000 
"/>
<path fill="none" opacity="1.000000" stroke="#000000" stroke-linecap="round" stroke-linejoin="round" stroke-width="3.000000"
	d="
M253.500000,564.500000 
	C245.859467,562.891968 238.506561,564.721191 230.970917,565.796082 
	C222.444489,567.012329 219.224411,573.726929 214.537003,579.032715 
	C210.852631,583.203125 207.499985,587.666687 203.999985,592.000000 
"/>
<path fill="none" opacity="1.000000" stroke="#000000" stroke-linecap="round" stroke-linejoin="round" stroke-width="3.000000"
	d="
M489.000000,661.500000 
	C490.301331,669.451233 492.059692,677.356689 491.489746,685.499268 
	C491.396057,686.837708 491.166626,688.166687 490.999969,689.500000 
"/>
<path fill="none" opacity="1.000000" stroke="#000000" stroke-linecap="round" stroke-linejoin="round" stroke-width="3.000000"
	d="
M220.500000,534.500000 
	C223.686859,541.670471 223.285553,549.481506 224.424759,557.011414 
	C224.682953,558.718018 224.979691,560.370728 225.500000,562.000000 
"/>
<path fill="none" opacity="1.000000" stroke="#000000" stroke-linecap="round" stroke-linejoin="round" stroke-width="3.000000"
	d="
M360.500000,395.000000 
	C356.849457,391.924744 353.049042,389.189697 348.000305,388.991913 
	C342.281464,388.767853 338.534973,390.817932 336.511749,395.505066 
	C334.538452,400.076569 336.180817,403.752869 339.485840,407.014343 
	C340.575714,408.089935 341.500000,409.333344 342.500000,410.500000 
"/>
<path fill="none" opacity="1.000000" stroke="#000000" stroke-linecap="round" stroke-linejoin="round" stroke-width="3.000000"
	d="
M457.000000,680.000000 
	C461.904236,687.432129 462.893341,695.982849 464.000000,704.500000 
"/>
<path fill="none" opacity="1.000000" stroke="#000000" stroke-linecap="round" stroke-linejoin="round" stroke-width="3.000000"
	d="
M254.000000,565.500000 
	C253.891724,569.140747 254.473206,572.451843 257.994751,574.508972 
	C261.280396,576.428345 264.864380,575.703064 267.500031,572.500000 
	C269.640717,569.898621 269.640625,565.954285 267.499969,563.500000 
	C264.855927,560.468567 260.466125,559.511292 257.528625,561.541443 
	C256.193390,562.464172 255.166656,563.833313 253.999985,565.000000 
"/>
<path fill="none" opacity="1.000000" stroke="#000000" stroke-linecap="round" stroke-linejoin="round" stroke-width="3.000000"
	d="
M491.000000,816.500000 
	C498.920532,819.194702 503.944031,825.110107 507.901642,832.056030 
	C508.429016,832.981628 509.472961,834.666687 508.000000,836.000000 
"/>
<path fill="none" opacity="1.000000" stroke="#000000" stroke-linecap="round" stroke-linejoin="round" stroke-width="3.000000"
	d="
M483.500000,837.000000 
	C490.202637,839.003174 496.994812,840.529480 503.997314,841.036987 
	C504.850342,841.098816 505.666687,841.666626 506.500000,842.000000 
"/>
<path fill="none" opacity="1.000000" stroke="#000000" stroke-linecap="round" stroke-linejoin="round" stroke-width="3.000000"
	d="
M447.000000,684.500000 
	C450.991333,692.087646 455.666626,699.333374 458.500000,707.500000 
"/>
<path fill="none" opacity="1.000000" stroke="#000000" stroke-linecap="round" stroke-linejoin="round" stroke-width="3.000000"
	d="
M389.500000,229.500000 
	C388.275146,235.470612 389.760864,241.516510 389.000000,247.500000 
"/>
<path fill="none" opacity="1.000000" stroke="#000000" stroke-linecap="round" stroke-linejoin="round" stroke-width="3.000000"
	d="
M406.000000,236.500000 
	C404.285706,240.427078 407.016235,242.640732 409.568451,244.400742 
	C411.824677,245.956619 413.879150,244.408707 415.532043,242.528183 
	C415.987885,242.009537 416.833313,241.833313 417.500000,241.499985 
"/>
<path fill="none" opacity="1.000000" stroke="#000000" stroke-linecap="round" stroke-linejoin="round" stroke-width="3.000000"
	d="
M288.500000,443.500000 
	C291.325439,443.615143 291.614807,440.645538 293.420868,439.386505 
	C301.775574,433.562378 314.558075,435.292786 321.000000,443.500000 
"/>
<path fill="none" opacity="1.000000" stroke="#000000" stroke-linecap="round" stroke-linejoin="round" stroke-width="3.000000"
	d="
M560.000000,761.500000 
	C562.437622,766.619568 562.815430,772.670166 567.010742,776.989563 
	C567.091614,777.072937 567.333313,777.000000 567.500000,777.000000 
"/>
<path fill="none" opacity="1.000000" stroke="#000000" stroke-linecap="round" stroke-linejoin="round" stroke-width="3.000000"
	d="
M218.000000,520.000000 
	C224.483749,523.861328 225.627426,527.450439 222.025650,532.020203 
	C219.707367,534.961609 216.491837,535.523682 213.561249,534.347412 
	C210.465607,533.104980 208.479843,530.418152 208.951660,526.494202 
	C209.405396,522.720581 211.297791,520.582520 215.002182,520.014221 
	C215.653534,519.914307 216.333328,520.000000 217.000000,520.000000 
"/>
<path fill="none" opacity="1.000000" stroke="#000000" stroke-linecap="round" stroke-linejoin="round" stroke-width="3.000000"
	d="
M379.500000,264.000000 
	C375.151825,264.706390 372.188660,267.001923 371.536682,271.505310 
	C370.969086,275.425629 372.457275,278.505005 375.996155,280.506805 
	C379.123962,282.276123 382.134552,281.832428 384.987457,279.980682 
	C388.025146,278.009003 389.503662,274.990540 388.909210,271.515533 
	C388.313965,268.036133 386.045013,265.543457 382.497009,264.510315 
	C381.684052,264.273590 380.833344,264.166656 380.000000,264.000000 
"/>
<path fill="none" opacity="1.000000" stroke="#000000" stroke-linecap="round" stroke-linejoin="round" stroke-width="3.000000"
	d="
M315.500000,221.000000 
	C302.470978,223.131927 296.973328,234.790253 300.427277,244.525803 
	C302.787109,251.177307 309.178070,256.519196 316.500000,256.999969 
	C323.124268,257.434967 330.574432,252.471100 333.568878,246.534744 
	C339.363556,235.047012 330.301971,220.547226 316.000000,221.000000 
"/>
<path fill="none" opacity="1.000000" stroke="#000000" stroke-linecap="round" stroke-linejoin="round" stroke-width="3.000000"
	d="
M353.000000,195.500000 
	C349.958313,196.354141 347.295807,197.580170 345.450165,200.468140 
	C342.092987,205.721115 343.203857,211.823807 348.500000,215.500015 
	C352.893433,218.549606 360.198029,216.845215 363.500031,212.000015 
	C366.541138,207.537567 364.894409,200.471344 359.979248,197.534744 
	C358.027557,196.368668 356.025085,195.001770 353.500000,195.500000 
"/>
</svg>