<svg version="1.1" id="Layer_1" xmlns="http://www.w3.org/2000/svg" xmlns:xlink="http://www.w3.org/1999/xlink" x="0px" y="0px"
	 width="100%" viewBox="0 0 697 960" enable-background="new 0 0 697 960" xml:space="preserve">
<path fill="none" opacity="1.000000" stroke="#000000" stroke-linecap="round" stroke-linejoin="round" stroke-width="3.000000"
	d="
M567.500000,307.000000 
	C559.872192,292.847748 553.656433,278.157959 552.086731,261.991577 
	C551.295593,253.843781 547.079224,247.171021 543.943604,240.024750 
	C541.785522,235.106445 539.372192,230.336884 536.082947,225.937973 
	C528.189575,215.381653 527.693176,202.945999 528.612244,190.508301 
	C529.169800,182.963287 530.911560,175.511139 531.980713,167.997253 
	C533.387085,158.112793 529.188293,149.694427 523.889526,142.076859 
	C514.304932,128.297974 500.762390,120.767525 484.002258,118.978706 
	C465.658875,117.020905 451.489105,124.341492 440.534882,138.526932 
	C430.426483,151.617004 425.420837,166.789749 422.954529,182.993073 
	C420.952515,196.145920 420.847900,209.221161 421.791504,222.514801 
	C422.822998,237.046127 425.085419,251.301239 428.024139,265.494995 
	C432.469635,286.966614 441.244598,306.219055 458.037445,320.957336 
	C470.341675,331.756134 483.898041,340.921631 497.491974,350.011993 
	C518.356995,363.964600 539.930359,376.838806 560.055847,391.925537 
	C573.731934,402.177612 586.834351,413.056519 598.415894,425.577759 
	C609.364319,437.414429 619.212280,450.106018 626.087280,464.959595 
	C632.721436,479.292786 636.834167,494.394196 640.957703,509.511536 
	C644.346436,521.935120 647.095581,534.541443 646.936646,547.499207 
	C646.771912,560.932312 643.636169,573.688110 638.106079,586.047485 
	C630.194946,603.728271 619.829895,619.874268 607.849121,634.879517 
	C598.557312,646.517090 586.630188,655.556396 573.981628,663.470642 
	C571.315918,665.138550 569.515320,668.191162 566.000000,668.500000 
"/>
<path fill="none" opacity="1.000000" stroke="#000000" stroke-linecap="round" stroke-linejoin="round" stroke-width="3.000000"
	d="
M595.500000,165.000000 
	C590.107849,147.647156 580.909729,132.218079 569.819336,118.142326 
	C560.819153,106.719345 549.466553,97.601044 536.564453,90.384773 
	C524.353088,83.554810 511.638062,78.364464 497.991608,75.540558 
	C483.327789,72.506142 468.828979,72.475922 453.948181,75.765587 
	C433.942108,80.188293 416.948792,89.193047 403.028778,104.026993 
	C390.953461,116.895149 383.459442,132.401871 377.998138,148.999390 
	C372.440552,165.889435 370.145874,183.406113 370.246216,200.998596 
	C370.330200,215.715622 371.286041,230.482513 374.780365,245.052673 
	C377.347229,255.755676 379.790588,266.440125 382.829773,277.048767 
	C388.584564,297.136871 397.069061,316.026520 406.603088,334.446655 
	C416.303375,353.188049 426.818970,371.507935 437.004730,389.997406 
	C444.703491,403.972504 451.335815,418.464386 454.868622,434.029816 
	C458.530884,450.165802 454.466187,465.322693 446.437683,479.464630 
	C444.670380,482.577637 443.465820,486.143860 440.500000,488.500000 
"/>
<path fill="none" opacity="1.000000" stroke="#000000" stroke-linecap="round" stroke-linejoin="round" stroke-width="3.000000"
	d="
M152.000000,557.500000 
	C148.683701,562.213318 142.807678,562.825378 138.439423,565.914307 
	C134.440735,568.742004 130.400879,571.282654 126.866066,574.867981 
	C121.721367,580.086182 119.822250,585.851746 119.910820,593.001099 
	C120.094597,607.837891 122.122826,622.321777 126.452141,636.514587 
	C127.285385,639.246277 127.440399,642.178772 128.011047,644.997742 
	C129.798676,653.828918 139.281418,660.711060 147.987289,658.937622 
	C167.104233,655.043213 183.364838,646.165833 195.500946,630.500732 
	C202.479156,621.493347 202.601562,611.177002 201.583252,600.492065 
	C201.095245,595.371460 200.107300,590.308838 201.277710,584.951416 
	C202.096603,581.203186 200.818649,577.001160 200.505371,572.999573 
	C200.309830,570.501831 200.166672,568.000000 200.000000,565.500000 
"/>
<path fill="none" opacity="1.000000" stroke="#000000" stroke-linecap="round" stroke-linejoin="round" stroke-width="3.000000"
	d="
M219.500000,593.500000 
	C219.168091,590.594421 217.040680,588.668823 215.451233,586.536377 
	C210.329147,579.664429 207.405701,571.718567 204.294586,563.949158 
	C191.763412,566.072754 182.395462,562.187439 175.352295,551.598267 
	C171.671555,546.064392 171.847305,540.411194 172.029266,534.500916 
	C172.251022,527.298279 177.095154,522.367981 181.067963,517.282288 
	C177.617828,512.425964 173.759583,508.084717 169.798203,504.206116 
	C161.530594,496.111237 152.988953,488.016937 142.931656,482.116516 
	C134.937378,477.426392 126.521996,478.247345 117.955376,481.895203 
	C105.394287,487.244019 93.034821,492.769104 81.910164,500.876740 
	C79.023041,502.980896 75.513184,504.323792 72.439682,506.411194 
	C64.860413,511.558746 65.599236,522.376587 68.069901,527.969116 
	C72.678352,538.400696 81.126106,545.757629 89.552902,552.937927 
	C96.361671,558.739502 104.046303,562.952942 112.968544,565.128967 
	C121.998138,567.331238 130.019470,564.712219 137.975891,561.441345 
	C149.354111,556.763855 161.363235,553.797302 172.500000,548.500000 
"/>
<path fill="none" opacity="1.000000" stroke="#000000" stroke-linecap="round" stroke-linejoin="round" stroke-width="3.000000"
	d="
M238.000000,659.500000 
	C226.979507,653.854004 215.094299,651.406067 203.029587,653.199036 
	C186.876007,655.599609 173.050995,663.033813 162.469711,675.975220 
	C150.763580,690.292358 146.536514,707.480103 142.986008,724.997192 
	C140.892990,735.323303 138.031601,745.199219 129.580902,752.592468 
	C125.930984,755.785706 123.468079,760.340210 118.500000,762.000000 
"/>
<path fill="none" opacity="1.000000" stroke="#000000" stroke-linecap="round" stroke-linejoin="round" stroke-width="3.000000"
	d="
M611.000000,862.500000 
	C609.953003,855.656433 605.746033,850.252930 602.416443,844.548767 
	C590.107666,823.461731 572.854919,808.312012 549.616638,799.685730 
	C543.690063,797.485718 539.252136,799.669617 534.552368,800.731628 
	C522.960510,803.350830 511.489868,805.879272 499.502716,806.129639 
	C490.444550,806.318787 484.800232,801.930481 479.890594,795.078369 
	C477.736938,792.072693 476.805603,788.177429 473.706116,785.787476 
	C471.362762,788.192017 473.112762,790.085632 474.011536,791.994568 
	C477.846008,800.138916 478.972870,808.445862 475.459869,816.983459 
	C474.931091,818.268616 475.065033,819.222412 475.441193,820.517090 
	C479.398682,834.138855 487.727661,843.283325 500.900757,849.220215 
	C515.224976,855.675842 529.743896,854.879089 544.493530,853.434021 
	C556.161865,852.290771 567.641785,849.704041 579.501770,849.876587 
	C589.216003,850.017822 597.758911,852.852844 604.876465,859.139832 
	C607.658691,861.597290 611.827271,862.257385 613.500000,866.000000 
"/>
<path fill="none" opacity="1.000000" stroke="#000000" stroke-linecap="round" stroke-linejoin="round" stroke-width="3.000000"
	d="
M595.500000,589.500000 
	C591.696960,590.655823 589.904297,594.260620 587.090698,596.608643 
	C578.127930,604.088257 567.635803,607.561768 556.513916,610.061829 
	C540.492126,613.663269 524.197632,616.446838 509.024139,623.055481 
	C496.976410,628.302551 485.442749,634.594421 481.611328,648.530579 
	C479.472351,656.310791 479.351074,664.438232 480.500000,672.500000 
"/>
<path fill="none" opacity="1.000000" stroke="#000000" stroke-linecap="round" stroke-linejoin="round" stroke-width="3.000000"
	d="
M172.000000,77.000000 
	C166.867371,83.062027 163.602478,90.382141 158.561905,96.550583 
	C149.749512,107.334862 141.416672,118.549889 136.069534,131.528656 
	C130.950500,143.953751 127.884048,156.976685 129.117798,170.489243 
	C130.019257,180.362076 133.908646,189.073166 142.484024,195.023010 
	C143.930496,196.026627 145.166672,197.333328 146.500000,198.500000 
"/>
<path fill="none" opacity="1.000000" stroke="#000000" stroke-linecap="round" stroke-linejoin="round" stroke-width="3.000000"
	d="
M236.000000,464.000000 
	C243.897690,460.664215 250.522369,455.304108 257.504974,450.507233 
	C269.438995,442.308807 279.473297,432.292755 285.374115,418.944366 
	C288.784241,411.230072 290.804352,402.882843 291.936737,394.491455 
	C294.667511,374.255676 296.705566,353.944366 296.961151,333.499512 
	C296.982117,331.824493 297.724152,329.888489 295.848846,328.247223 
	C282.536438,346.111023 268.724762,363.476471 257.992340,382.995789 
	C252.075729,393.756378 247.509644,405.118958 243.029877,416.511749 
	C239.382690,425.787231 236.025192,435.176300 232.466293,444.487122 
	C232.047791,445.581970 231.166656,446.500000 230.500000,447.500000 
"/>
<path fill="none" opacity="1.000000" stroke="#000000" stroke-linecap="round" stroke-linejoin="round" stroke-width="3.000000"
	d="
M596.500000,165.500000 
	C594.602051,167.265518 594.768982,167.250473 594.971985,169.502518 
	C596.023315,181.163757 597.301270,192.895645 594.875000,204.473801 
	C593.655640,210.292572 592.207764,216.250854 588.024963,221.021912 
	C582.880005,226.890472 578.086975,227.647385 572.023804,222.969177 
	C568.088379,219.932770 565.541626,215.698853 562.982056,211.510956 
	C561.822083,209.613052 562.995605,207.815613 563.108948,206.006821 
	C563.174011,204.969131 564.524841,204.077789 564.968018,202.987000 
	C567.292969,197.264267 567.531189,191.759247 563.554504,186.459122 
	C561.734070,184.032852 560.500000,181.166656 559.000000,178.500000 
"/>
<path fill="none" opacity="1.000000" stroke="#000000" stroke-linecap="round" stroke-linejoin="round" stroke-width="3.000000"
	d="
M364.500000,778.000000 
	C362.730743,783.723633 365.681427,789.235779 365.120728,795.011719 
	C363.988556,806.673523 362.994446,818.262390 356.499481,828.499695 
	C355.722992,829.723633 355.237518,831.087158 355.523102,832.495300 
	C359.579407,852.497009 372.798920,869.596619 394.506500,872.958069 
	C402.633148,874.216492 410.814514,875.207581 419.004517,875.950195 
	C430.592499,877.000977 438.013397,883.558289 444.190521,892.873657 
	C446.789612,896.793152 447.346466,902.381592 452.500000,904.500000 
"/>
<path fill="none" opacity="1.000000" stroke="#000000" stroke-linecap="round" stroke-linejoin="round" stroke-width="3.000000"
	d="
M295.500000,48.500000 
	C293.206635,49.377972 292.826691,51.699745 292.059784,53.525120 
	C286.597046,66.527534 276.870422,76.088036 266.450958,84.942284 
	C252.252197,97.008141 238.957626,109.607079 230.903122,126.955025 
	C224.417953,140.922867 221.938492,154.831512 227.959900,169.516449 
	C228.111420,169.885971 227.666672,170.500000 227.500000,171.000000 
"/>
<path fill="none" opacity="1.000000" stroke="#000000" stroke-linecap="round" stroke-linejoin="round" stroke-width="3.000000"
	d="
M353.000000,770.000000 
	C352.333313,770.833313 351.496826,771.580933 351.026001,772.513123 
	C345.817993,782.825562 340.479218,793.078186 335.546967,803.522156 
	C329.249329,816.857544 322.811157,830.046875 314.065155,842.047485 
	C305.920959,853.222351 295.576904,861.846436 283.383545,867.759888 
	C276.229218,871.229553 270.559235,877.355530 262.500000,879.000000 
"/>
<path fill="none" opacity="1.000000" stroke="#000000" stroke-linecap="round" stroke-linejoin="round" stroke-width="3.000000"
	d="
M178.500000,57.500000 
	C177.166672,61.833332 175.954208,66.208496 174.472336,70.490425 
	C172.112213,77.310097 172.330856,84.528381 171.179565,91.529526 
	C170.539322,95.422821 169.978104,99.430206 169.862640,103.496101 
	C169.518173,115.627907 172.401627,127.129852 177.190872,137.915237 
	C182.384232,149.610672 187.164932,161.344696 188.844193,174.020645 
	C189.557327,179.403824 189.328644,185.013336 188.064987,190.514923 
	C186.158768,198.814041 187.966400,206.982208 190.143280,214.960907 
	C190.658478,216.849213 191.729156,218.473480 191.000000,220.500000 
"/>
<path fill="none" opacity="1.000000" stroke="#000000" stroke-linecap="round" stroke-linejoin="round" stroke-width="3.000000"
	d="
M289.500000,638.000000 
	C297.000000,642.333313 304.608826,646.492920 311.944366,651.088806 
	C314.724121,652.830505 316.656189,651.511169 317.908569,649.927673 
	C323.417725,642.961670 330.878510,642.502930 338.789215,643.047241 
	C340.197845,636.006226 342.635437,629.017883 342.735626,621.996216 
	C342.858765,613.369812 345.157104,604.483704 341.107208,595.949097 
	C339.515259,592.594238 337.399689,590.085815 334.504517,587.993774 
	C322.564972,579.366150 309.005951,573.972656 295.476074,568.559814 
	C292.472534,567.358215 289.166656,566.714844 286.000000,568.500000 
"/>
<path fill="none" opacity="1.000000" stroke="#000000" stroke-linecap="round" stroke-linejoin="round" stroke-width="3.000000"
	d="
M457.500000,722.000000 
	C459.585083,722.940552 460.597809,722.789062 461.100098,720.018127 
	C462.288635,713.461670 465.376038,706.950989 465.146820,700.512573 
	C464.868927,692.707092 466.831940,684.699036 464.018433,676.993286 
	C462.373016,672.486755 459.585052,669.177979 455.556213,666.417908 
	C444.350769,658.741272 431.709137,654.072998 419.478485,648.547607 
	C415.042603,646.543518 410.365448,645.649658 406.016266,649.020996 
	C405.235657,649.626160 404.666656,649.752136 404.000000,649.000000 
"/>
<path fill="none" opacity="1.000000" stroke="#000000" stroke-linecap="round" stroke-linejoin="round" stroke-width="3.000000"
	d="
M234.000000,315.500000 
	C233.562103,320.944977 236.227753,325.802917 237.272064,330.944733 
	C240.236038,345.538574 233.601166,360.102203 215.993317,363.969604 
	C207.619034,365.808960 198.989578,366.127441 191.057190,362.861115 
	C177.452515,357.259094 171.534210,344.241608 176.539856,328.512695 
	C177.945358,324.096222 179.819016,319.827759 181.508682,315.503387 
	C182.018707,314.198059 183.142197,312.996948 182.000000,311.500000 
"/>
<path fill="none" opacity="1.000000" stroke="#000000" stroke-linecap="round" stroke-linejoin="round" stroke-width="3.000000"
	d="
M273.000000,439.500000 
	C293.333344,443.000000 313.590363,447.092010 334.035217,449.726746 
	C342.992523,450.881104 352.290710,451.127472 361.513611,450.125183 
	C368.779236,449.335571 376.166656,449.666656 383.500000,449.500000 
"/>
<path fill="none" opacity="1.000000" stroke="#000000" stroke-linecap="round" stroke-linejoin="round" stroke-width="3.000000"
	d="
M117.999992,294.500000 
	C114.666664,305.000000 110.766747,315.361176 108.151138,326.037018 
	C105.235153,337.938873 103.199120,350.081360 104.972992,362.503845 
	C106.775108,375.124115 111.896980,386.132172 120.546089,395.457245 
	C121.732414,396.736237 122.565887,398.901184 125.000000,398.500000 
"/>
<path fill="none" opacity="1.000000" stroke="#000000" stroke-linecap="round" stroke-linejoin="round" stroke-width="3.000000"
	d="
M360.500000,822.500000 
	C376.650818,834.660828 394.213776,844.524292 412.018463,853.965149 
	C421.432892,858.957214 430.579285,864.394470 438.421570,871.585510 
	C445.212067,877.812317 448.601593,886.236023 450.939178,895.016174 
	C451.160004,895.845642 451.399841,896.466736 452.000000,897.000000 
"/>
<path fill="none" opacity="1.000000" stroke="#000000" stroke-linecap="round" stroke-linejoin="round" stroke-width="3.000000"
	d="
M168.000000,348.000000 
	C163.659256,361.288544 155.481491,371.961975 145.530289,381.531494 
	C136.370316,390.340179 131.205780,401.149811 132.111557,413.992126 
	C132.924088,425.512421 134.961914,436.899628 140.000000,447.500000 
"/>
<path fill="none" opacity="1.000000" stroke="#000000" stroke-linecap="round" stroke-linejoin="round" stroke-width="3.000000"
	d="
M323.500000,770.500000 
	C323.900635,771.950317 322.823303,772.645813 322.005402,773.505127 
	C313.285065,782.666992 309.288940,794.050476 305.842590,805.954407 
	C302.622314,817.077271 300.890015,828.536560 297.160767,839.554443 
	C294.115997,848.550049 290.424713,856.837769 283.544403,863.545532 
	C282.042969,865.009277 279.753510,865.969482 279.500000,868.500000 
"/>
<path fill="none" opacity="1.000000" stroke="#000000" stroke-linecap="round" stroke-linejoin="round" stroke-width="3.000000"
	d="
M37.500000,355.000000 
	C45.923790,360.447418 53.171898,366.884552 58.124092,375.932068 
	C61.672134,382.414246 63.623169,389.496674 66.971481,396.014648 
	C70.091705,402.088562 75.016350,406.043945 80.990875,409.018341 
	C93.688454,415.339722 107.589439,417.904572 121.009308,421.969269 
	C121.268402,422.047729 121.666672,421.666687 122.000008,421.500000 
"/>
<path fill="none" opacity="1.000000" stroke="#000000" stroke-linecap="round" stroke-linejoin="round" stroke-width="3.000000"
	d="
M264.000000,341.000000 
	C260.752411,344.122650 256.278809,344.928986 252.427689,346.855469 
	C237.866425,354.139679 226.817657,364.906799 219.046036,379.025330 
	C211.602036,392.548737 208.915253,407.134186 210.470352,422.502991 
	C210.535431,423.146210 210.166672,423.833344 210.000000,424.500000 
"/>
<path fill="none" opacity="1.000000" stroke="#000000" stroke-linecap="round" stroke-linejoin="round" stroke-width="3.000000"
	d="
M344.000000,470.500000 
	C348.202545,465.760284 354.312866,464.116364 359.549347,461.085236 
	C364.825165,458.031311 370.411102,455.452057 376.048523,453.117218 
	C378.003387,452.307526 378.695740,451.029053 379.502014,449.498718 
	C379.413208,448.113403 378.499298,447.006348 377.473999,446.559662 
	C367.801147,442.345306 361.020203,434.347382 353.038483,427.951965 
	C339.197998,416.862213 323.150726,413.339325 306.008057,414.166992 
	C300.290375,414.443024 294.641632,416.574371 289.026245,418.096802 
	C288.157379,418.332367 287.333008,418.331787 286.500000,418.500000 
"/>
<path fill="none" opacity="1.000000" stroke="#000000" stroke-linecap="round" stroke-linejoin="round" stroke-width="3.000000"
	d="
M128.000000,422.500000 
	C125.390602,423.967499 124.043785,421.991852 122.497246,420.502869 
	C112.545013,410.920990 106.250778,398.665710 98.601753,387.430725 
	C92.021645,377.765808 83.366058,370.470459 73.903442,364.144440 
	C68.552429,360.567108 61.838951,359.660736 55.487473,358.573151 
	C50.849632,357.778961 46.431831,355.310516 41.500000,356.500000 
"/>
<path fill="none" opacity="1.000000" stroke="#000000" stroke-linecap="round" stroke-linejoin="round" stroke-width="3.000000"
	d="
M243.500000,225.500000 
	C249.195633,222.700455 251.723068,216.414932 257.409851,213.333603 
	C262.723480,210.454437 267.816437,208.077454 273.997314,207.903900 
	C279.498993,207.749435 284.320740,209.429382 288.440735,212.577576 
	C296.654480,218.853897 302.112030,227.443863 305.361664,237.046814 
	C309.303925,248.696457 300.508667,263.910065 287.985016,267.953613 
	C274.324585,272.364227 260.266907,273.461945 245.999817,272.001862 
	C241.000992,271.490265 236.000000,271.000000 231.000000,270.500000 
"/>
<path fill="none" opacity="1.000000" stroke="#000000" stroke-linecap="round" stroke-linejoin="round" stroke-width="3.000000"
	d="
M651.000000,666.500000 
	C646.951172,669.603699 642.015442,670.866455 637.519714,673.040771 
	C623.842590,679.655579 614.523499,690.738098 608.121643,704.058472 
	C600.537292,719.839355 589.538452,731.971497 574.000000,740.000000 
"/>
<path fill="none" opacity="1.000000" stroke="#000000" stroke-linecap="round" stroke-linejoin="round" stroke-width="3.000000"
	d="
M521.000000,733.000000 
	C534.116577,743.153809 548.733765,746.857544 564.994690,742.977600 
	C579.262390,739.573242 590.547913,744.499512 600.012268,754.988953 
	C602.933533,758.226624 606.000000,761.333313 609.000000,764.500000 
"/>
<path fill="none" opacity="1.000000" stroke="#000000" stroke-linecap="round" stroke-linejoin="round" stroke-width="3.000000"
	d="
M54.500000,417.000000 
	C54.560524,420.402161 57.779804,421.541412 59.626335,423.372620 
	C66.055183,429.748138 71.112587,437.219147 76.887436,444.094543 
	C84.672623,453.363495 95.168236,457.679047 106.060234,460.789032 
	C115.541710,463.496216 125.589195,463.989441 135.501221,464.475189 
	C135.817581,464.490662 136.151871,464.139893 136.914383,463.718628 
	C126.947823,448.923553 118.994774,432.495087 101.029381,424.930206 
	C91.837128,421.059540 82.231804,419.323364 72.493736,418.047852 
	C65.525963,417.135101 58.500000,416.666687 51.500000,416.000000 
"/>
<path fill="none" opacity="1.000000" stroke="#000000" stroke-linecap="round" stroke-linejoin="round" stroke-width="3.000000"
	d="
M220.500000,819.000000 
	C222.202148,831.525879 218.896606,842.606384 210.449951,851.954773 
	C206.146530,856.717712 199.904236,857.686096 193.995941,857.869202 
	C181.705719,858.250122 169.662262,859.245789 158.482208,864.965210 
	C157.953796,865.235474 157.166672,865.000000 156.500000,865.000000 
"/>
<path fill="none" opacity="1.000000" stroke="#000000" stroke-linecap="round" stroke-linejoin="round" stroke-width="3.000000"
	d="
M405.000000,488.500000 
	C403.987183,484.705139 406.618591,481.775177 407.629364,478.540436 
	C411.742950,465.375519 402.096924,454.472778 390.497498,454.937408 
	C384.737000,455.168152 379.098877,455.033661 373.967957,458.451935 
	C367.487396,462.769379 365.793793,469.502106 366.958038,480.004639 
	C367.962463,489.065674 373.597565,496.227112 376.589447,504.467529 
	C377.536804,507.076721 379.410095,508.392639 383.041199,507.723663 
	C387.223480,506.953156 391.126862,509.020569 393.498779,513.000732 
	C395.488770,516.339966 396.093964,519.877747 394.419647,523.462463 
	C394.024902,524.307617 393.347931,524.972534 393.500000,526.000000 
"/>
<path fill="none" opacity="1.000000" stroke="#000000" stroke-linecap="round" stroke-linejoin="round" stroke-width="3.000000"
	d="
M663.500000,663.000000 
	C661.411865,663.147522 659.407166,663.526978 657.489685,664.479248 
	C653.032043,666.693054 648.133179,665.485413 643.486877,665.815063 
	C634.030762,666.485718 624.531677,666.633789 614.992432,666.148804 
	C601.343262,665.454712 587.814392,667.192139 574.474792,670.394897 
	C571.965820,670.997253 569.270569,672.496094 566.500000,671.000000 
"/>
<path fill="none" opacity="1.000000" stroke="#000000" stroke-linecap="round" stroke-linejoin="round" stroke-width="3.000000"
	d="
M372.750000,166.000000 
	C363.371735,167.209183 354.103516,168.483627 344.493927,168.225784 
	C324.749908,167.695969 304.737976,166.229736 285.533508,172.601013 
	C275.040527,176.082199 266.783325,182.932922 261.011078,192.506683 
	C257.296051,198.668335 254.803528,205.416565 252.120590,212.048782 
	C251.653030,213.204605 250.680634,215.000000 252.000000,216.500000 
"/>
<path fill="none" opacity="1.000000" stroke="#000000" stroke-linecap="round" stroke-linejoin="round" stroke-width="3.000000"
	d="
M203.000000,587.500000 
	C204.893204,592.493774 204.990906,597.841858 205.912186,603.015625 
	C208.064423,615.102478 213.037048,625.295898 225.065628,629.825745 
	C232.037811,632.451416 239.594345,633.865173 247.017075,634.874451 
	C257.950897,636.361145 268.994263,637.071594 280.003601,637.955017 
	C283.177795,638.209778 287.704956,639.122314 289.242004,636.827209 
	C292.725952,631.625000 297.748749,627.268677 298.146149,620.007996 
	C298.959747,605.143921 296.289795,591.011841 290.412048,577.538391 
	C285.466705,566.202209 276.723877,558.898743 264.504578,555.980835 
	C257.978729,554.422424 251.500000,552.666687 245.000000,551.000000 
"/>
<path fill="none" opacity="1.000000" stroke="#000000" stroke-linecap="round" stroke-linejoin="round" stroke-width="3.000000"
	d="
M369.500000,167.500000 
	C368.843140,171.564697 364.673798,172.349045 362.342499,174.853394 
	C355.223175,182.501190 351.283386,191.764709 346.913696,200.958984 
	C341.188171,213.006165 333.816376,223.889740 322.007355,231.012207 
	C317.005096,234.029251 311.192719,234.987167 306.000000,237.500000 
"/>
<path fill="none" opacity="1.000000" stroke="#000000" stroke-linecap="round" stroke-linejoin="round" stroke-width="3.000000"
	d="
M250.500000,466.500000 
	C259.533600,463.068634 268.811707,461.443085 278.501556,462.485443 
	C289.013794,463.616241 299.649780,464.274078 308.988831,470.018158 
	C317.798096,475.436432 320.528381,480.603210 319.072479,489.511841 
	C318.673798,491.951233 317.283051,493.819580 316.428467,495.971588 
	C310.240784,511.553406 303.475922,526.805847 293.614014,540.581604 
	C288.600250,547.585144 282.153412,550.737732 273.998688,550.948669 
	C266.449738,551.143860 258.944885,549.923767 251.471786,549.411804 
	C242.676895,548.809326 234.206787,546.652283 225.500000,546.000000 
"/>
<path fill="none" opacity="1.000000" stroke="#000000" stroke-linecap="round" stroke-linejoin="round" stroke-width="3.000000"
	d="
M370.500000,517.500000 
	C364.333344,517.166687 358.152222,516.997925 352.003662,516.458191 
	C344.417053,515.792236 337.225372,517.611572 330.568024,520.649048 
	C323.044800,524.081543 320.468903,531.109009 321.962646,539.506653 
	C323.362976,547.379150 331.405487,558.549438 340.504517,559.454773 
	C346.706970,560.071838 351.900421,557.530151 356.526520,553.530701 
	C358.134979,552.140137 358.969482,549.753540 361.500000,549.500000 
"/>
<path fill="none" opacity="1.000000" stroke="#000000" stroke-linecap="round" stroke-linejoin="round" stroke-width="3.000000"
	d="
M355.000000,832.500000 
	C341.264252,849.885742 322.124695,858.658936 302.030670,866.083008 
	C295.052216,868.661316 288.031097,871.086548 281.003815,873.511108 
	C279.062592,874.180847 277.198944,874.645081 275.500000,873.000000 
"/>
<path fill="none" opacity="1.000000" stroke="#000000" stroke-linecap="round" stroke-linejoin="round" stroke-width="3.000000"
	d="
M477.500000,742.000000 
	C483.833344,741.500000 490.541962,742.135620 496.400665,740.199463 
	C503.048004,738.002747 510.009735,737.084534 516.498901,734.497253 
	C525.305298,730.986267 528.028931,723.297668 530.024597,715.005920 
	C532.953796,702.835022 533.619629,690.400940 534.443909,677.996277 
	C534.890991,671.267090 529.510010,665.307739 522.501160,663.993835 
	C510.995056,661.836853 500.214966,664.973389 489.503784,668.511475 
	C476.481598,672.813110 469.784424,682.208069 467.966797,695.495483 
	C467.893555,696.031006 467.333282,696.499939 466.999939,696.999939 
"/>
<path fill="none" opacity="1.000000" stroke="#000000" stroke-linecap="round" stroke-linejoin="round" stroke-width="3.000000"
	d="
M205.000000,251.500000 
	C201.545670,241.439301 197.369781,231.366226 191.563934,222.795395 
	C186.359589,215.112534 180.659042,207.156693 172.621078,201.332886 
	C164.347809,195.338577 148.182098,195.308044 140.413849,203.417480 
	C133.135254,211.015762 128.454407,219.501892 126.922386,229.988663 
	C124.934059,243.598862 134.204330,253.262405 143.008057,256.980927 
	C147.498856,258.877777 151.998718,260.902740 157.000458,260.961975 
	C158.671448,260.981781 159.096436,262.747925 160.500000,263.000000 
"/>
<path fill="none" opacity="1.000000" stroke="#000000" stroke-linecap="round" stroke-linejoin="round" stroke-width="3.000000"
	d="
M390.500000,583.000000 
	C393.831146,585.512024 397.847046,583.217834 401.562622,584.858154 
	C411.230164,589.126343 412.939178,592.019409 412.470673,600.998474 
	C411.775879,614.313782 410.430450,627.603271 406.842407,640.455994 
	C405.280426,646.051208 402.253845,651.311401 399.345612,656.411987 
	C398.471375,657.945251 398.253174,659.538452 397.500000,661.000000 
"/>
<path fill="none" opacity="1.000000" stroke="#000000" stroke-linecap="round" stroke-linejoin="round" stroke-width="3.000000"
	d="
M422.000000,524.000000 
	C423.538574,526.050964 426.026794,524.951355 428.067291,525.846619 
	C442.254547,532.071350 443.783691,542.997925 436.853760,555.921570 
	C433.059021,562.998413 426.900787,567.918396 418.004425,566.958862 
	C411.191132,566.224121 407.017456,561.442749 402.951508,556.540222 
	C402.002899,555.396423 401.683838,553.313293 399.500000,553.500000 
"/>
<path fill="none" opacity="1.000000" stroke="#000000" stroke-linecap="round" stroke-linejoin="round" stroke-width="3.000000"
	d="
M600.000000,582.500000 
	C595.000000,594.333313 590.001892,606.167480 584.999512,617.999756 
	C578.357666,633.709778 573.045959,649.934204 566.120056,665.553223 
	C559.919739,679.536072 548.735291,692.701904 536.530823,698.564148 
	C535.615051,699.004028 534.833008,698.831787 534.000000,699.000000 
"/>
<path fill="none" opacity="1.000000" stroke="#000000" stroke-linecap="round" stroke-linejoin="round" stroke-width="3.000000"
	d="
M254.000000,790.500000 
	C252.378860,796.693909 247.757858,801.039917 243.319641,804.786316 
	C237.911438,809.351562 231.185043,812.364685 224.992233,815.986694 
	C221.889191,817.801575 218.682846,818.454102 214.986160,817.557068 
	C197.742401,813.372620 185.021301,820.220764 174.941879,833.957336 
	C169.327637,841.608643 165.962433,850.555054 160.112122,858.087097 
	C156.462570,862.785583 153.687073,868.104614 147.500000,870.000000 
"/>
<path fill="none" opacity="1.000000" stroke="#000000" stroke-linecap="round" stroke-linejoin="round" stroke-width="3.000000"
	d="
M169.000000,340.500000 
	C171.000275,356.270172 172.778793,372.051056 172.012482,388.000610 
	C171.631607,395.928070 167.902374,402.563812 164.650040,409.569641 
	C157.584824,424.788849 148.669479,439.306671 146.404526,456.487427 
	C145.186172,465.729156 146.077316,474.543823 151.721268,481.828583 
	C154.596832,485.540070 158.041733,489.118103 161.493332,492.506805 
	C162.874359,493.862610 164.645721,495.108368 163.500000,497.500000 
"/>
<path fill="none" opacity="1.000000" stroke="#000000" stroke-linecap="round" stroke-linejoin="round" stroke-width="3.000000"
	d="
M139.500000,327.000000 
	C139.318253,330.837646 141.571594,333.977325 142.541229,337.488617 
	C146.399124,351.459137 145.035385,364.918304 139.002502,378.001160 
	C135.482834,385.633881 132.370560,393.523926 125.500000,399.000000 
"/>
<path fill="none" opacity="1.000000" stroke="#000000" stroke-linecap="round" stroke-linejoin="round" stroke-width="3.000000"
	d="
M557.500000,164.500000 
	C558.231262,172.295227 558.013672,180.073425 553.914490,186.949020 
	C550.024780,193.473221 550.611572,199.167862 554.352722,205.585861 
	C557.500305,210.985641 558.955322,217.307785 559.911072,223.513702 
	C560.900208,229.936523 570.582886,237.142197 577.499634,236.984802 
	C581.001648,236.905106 584.500000,236.666672 588.000000,236.500000 
"/>
<path fill="none" opacity="1.000000" stroke="#000000" stroke-linecap="round" stroke-linejoin="round" stroke-width="3.000000"
	d="
M597.000000,166.500000 
	C602.410461,178.301605 602.841797,190.877411 602.412231,203.497009 
	C602.229370,208.867706 601.510193,214.250656 600.048218,219.513397 
	C598.448120,225.273407 595.717346,230.255325 591.522095,234.521744 
	C588.200867,237.899399 585.367981,241.594757 581.097778,244.162613 
	C576.647888,246.838547 574.955566,251.418564 574.858826,256.997559 
	C574.650757,269.005463 574.529785,281.035889 573.096191,293.011505 
	C572.552917,297.549561 571.100098,301.578705 569.000000,305.500000 
"/>
<path fill="none" opacity="1.000000" stroke="#000000" stroke-linecap="round" stroke-linejoin="round" stroke-width="3.000000"
	d="
M390.999969,509.499969 
	C395.166626,503.166656 398.656128,496.216400 403.698822,490.681122 
	C408.332916,485.594330 413.841644,480.680878 421.018280,479.082031 
	C424.937195,478.208954 429.157806,478.826660 432.436066,481.092499 
	C439.191498,485.761810 443.834564,492.170654 444.953430,500.506256 
	C446.396301,511.255188 439.997375,518.329529 426.052277,521.249634 
	C417.330109,523.076050 408.997223,521.252258 400.502197,521.560547 
	C398.806091,521.622131 397.743195,519.738953 396.000000,520.500000 
"/>
<path fill="none" opacity="1.000000" stroke="#000000" stroke-linecap="round" stroke-linejoin="round" stroke-width="3.000000"
	d="
M265.000000,274.000000 
	C270.173553,276.177917 275.841888,276.575562 281.045044,278.899139 
	C290.301178,283.032684 296.705261,289.061340 298.579651,299.485687 
	C299.901947,306.839783 297.231628,313.166626 294.430634,319.469177 
	C292.182892,324.526947 289.824249,329.425262 285.080475,333.103790 
	C272.937439,342.520294 261.736572,342.523468 250.044617,332.945526 
	C245.641327,329.338470 242.709381,324.278595 238.927841,320.064758 
	C229.765533,309.855103 226.003799,296.845551 220.000000,285.000000 
"/>
<path fill="none" opacity="1.000000" stroke="#000000" stroke-linecap="round" stroke-linejoin="round" stroke-width="3.000000"
	d="
M290.500000,60.000000 
	C292.207794,67.908913 292.147217,76.001991 292.994385,84.000595 
	C294.018036,93.664757 294.697479,103.376289 296.062653,112.991104 
	C298.949829,133.324783 297.187225,152.650131 284.960144,169.971878 
	C284.449890,170.694763 284.600677,171.316833 284.500000,172.000000 
"/>
<path fill="none" opacity="1.000000" stroke="#000000" stroke-linecap="round" stroke-linejoin="round" stroke-width="3.000000"
	d="
M285.500000,714.500000 
	C286.775574,732.177307 296.674683,746.047485 305.345093,760.592346 
	C309.513397,767.584778 314.175171,770.920715 322.531464,769.718811 
	C326.171478,769.195312 328.450195,767.221680 330.949188,765.429199 
	C341.736389,757.691650 349.854858,747.855042 354.048584,735.015869 
	C355.245026,731.352844 355.511902,727.834656 355.087433,723.990356 
	C353.950562,713.694214 350.127045,704.310669 345.975983,695.010742 
	C344.458405,691.610840 342.666656,688.333313 341.000000,685.000000 
"/>
<path fill="none" opacity="1.000000" stroke="#000000" stroke-linecap="round" stroke-linejoin="round" stroke-width="3.000000"
	d="
M616.500000,765.000000 
	C604.500000,765.833313 592.491943,766.566650 580.502380,767.529724 
	C569.749695,768.393494 559.159607,768.301819 548.980347,764.046997 
	C548.129089,763.691223 547.000000,764.000000 546.000000,764.000000 
"/>
<path fill="none" opacity="1.000000" stroke="#000000" stroke-linecap="round" stroke-linejoin="round" stroke-width="3.000000"
	d="
M243.500000,699.000000 
	C241.381973,707.149048 236.436386,713.868774 229.817810,718.223083 
	C223.394791,722.448669 216.068466,725.713135 208.505463,728.017944 
	C186.352905,734.768860 164.594803,742.678650 143.062210,751.158020 
	C138.330750,753.021240 133.537445,755.085327 129.054733,757.597656 
	C127.859367,758.267700 127.333336,756.964111 126.500000,757.500000 
"/>
<path fill="none" opacity="1.000000" stroke="#000000" stroke-linecap="round" stroke-linejoin="round" stroke-width="3.000000"
	d="
M190.000000,186.000000 
	C198.014648,173.384918 210.534927,171.001312 223.995911,171.592896 
	C235.351883,172.091980 244.281296,177.251526 248.926727,188.031570 
	C252.076279,195.340378 250.296738,202.576996 248.159134,210.045547 
	C244.070282,224.331482 236.217133,236.346191 227.517914,248.013351 
	C226.222519,249.750702 225.166687,251.666672 224.000015,253.500015 
"/>
<path fill="none" opacity="1.000000" stroke="#000000" stroke-linecap="round" stroke-linejoin="round" stroke-width="3.000000"
	d="
M438.500000,758.000000 
	C431.811462,762.367065 425.795349,767.716187 420.696564,773.668396 
	C416.131500,778.997559 411.756775,784.815857 409.005615,791.502319 
	C407.159058,795.990173 407.367981,800.728333 409.113525,804.953125 
	C412.898956,814.114990 416.341187,823.503967 422.464050,831.527466 
	C423.291351,832.611511 424.142181,834.003052 423.000000,835.500000 
"/>
<path fill="none" opacity="1.000000" stroke="#000000" stroke-linecap="round" stroke-linejoin="round" stroke-width="3.000000"
	d="
M364.500000,809.500000 
	C371.159180,810.393188 377.887390,810.621033 384.509094,811.954834 
	C393.525909,813.771057 401.276001,817.832336 408.592621,823.377808 
	C414.003967,827.479248 419.526550,831.937195 423.672058,836.780640 
	C436.870239,852.201294 450.547546,867.805664 453.903473,889.015259 
	C454.572357,893.242737 454.821320,897.878052 453.775482,901.942200 
	C452.668182,906.245239 454.571472,909.674927 455.000000,913.500000 
"/>
<path fill="none" opacity="1.000000" stroke="#000000" stroke-linecap="round" stroke-linejoin="round" stroke-width="3.000000"
	d="
M121.500000,342.500000 
	C123.414177,362.635864 123.797768,382.871613 125.822159,403.017883 
	C127.304298,417.767700 130.185837,432.134674 135.225586,445.917511 
	C137.964706,453.408539 139.462051,461.668762 145.000000,468.000000 
"/>
<path fill="none" opacity="1.000000" stroke="#000000" stroke-linecap="round" stroke-linejoin="round" stroke-width="3.000000"
	d="
M356.500000,500.000000 
	C361.166656,503.333344 365.760223,506.776337 370.529541,509.955688 
	C373.074890,511.652527 373.988037,513.051086 372.107971,516.067322 
	C370.320892,518.934387 371.837158,522.167969 373.092407,524.958435 
	C373.740021,526.398132 375.558990,527.247437 375.991425,529.377991 
	C371.950409,534.916992 366.491882,540.196167 363.818237,546.632202 
	C360.615509,554.341736 355.799500,562.238586 358.942566,571.519470 
	C360.923553,577.368896 366.323975,582.044189 372.487305,583.075867 
	C375.993439,583.662781 379.268463,584.593445 383.014923,584.117493 
	C395.644165,582.513184 401.721863,570.675171 399.469025,558.910217 
	C397.493408,548.593018 391.738281,540.431458 388.500000,531.000000 
"/>
<path fill="none" opacity="1.000000" stroke="#000000" stroke-linecap="round" stroke-linejoin="round" stroke-width="3.000000"
	d="
M418.000000,775.500000 
	C416.534149,775.301880 415.492249,776.020874 414.491455,776.991211 
	C403.322357,787.821045 390.412872,787.412292 377.020264,782.445374 
	C368.832428,779.408630 360.899628,775.854614 354.449738,769.551392 
	C348.915863,764.143311 347.564056,754.766724 352.554749,749.552429 
	C359.252899,742.554382 364.613007,734.362183 372.000000,728.000000 
"/>
<path fill="none" opacity="1.000000" stroke="#000000" stroke-linecap="round" stroke-linejoin="round" stroke-width="3.000000"
	d="
M230.500000,719.000000 
	C233.455551,731.100159 232.929047,743.290466 227.712662,754.364624 
	C224.092499,762.050171 218.478119,768.926086 211.066483,774.095337 
	C200.969772,781.137207 189.676056,784.926880 177.668930,788.587280 
	C179.073547,783.972351 180.447037,780.026184 181.455139,775.988831 
	C182.473419,771.910706 183.265762,767.760620 183.002274,763.499878 
	C182.390610,753.608887 183.863586,744.161255 189.000000,735.500000 
"/>
<path fill="none" opacity="1.000000" stroke="#000000" stroke-linecap="round" stroke-linejoin="round" stroke-width="3.000000"
	d="
M171.000000,532.000000 
	C167.000000,531.333374 163.000885,530.661316 158.999832,530.001038 
	C146.417694,527.924316 134.061310,528.627563 121.992661,532.979675 
	C121.550201,533.139221 121.000000,533.000000 120.500000,533.000000 
"/>
<path fill="none" opacity="1.000000" stroke="#000000" stroke-linecap="round" stroke-linejoin="round" stroke-width="3.000000"
	d="
M499.500000,740.000000 
	C501.978851,741.835754 505.034546,741.476074 507.465729,740.863892 
	C519.231689,737.900574 527.828186,743.218689 535.467285,751.031982 
	C542.531738,758.257690 547.001831,767.120972 550.493652,776.502380 
	C553.452087,784.450500 551.719727,791.556396 546.500000,798.000000 
"/>
<path fill="none" opacity="1.000000" stroke="#000000" stroke-linecap="round" stroke-linejoin="round" stroke-width="3.000000"
	d="
M178.500000,463.500000 
	C184.632462,469.716400 188.361664,477.279419 191.021622,485.493011 
	C193.711029,493.797546 194.462479,502.418396 195.500000,511.000000 
"/>
<path fill="none" opacity="1.000000" stroke="#000000" stroke-linecap="round" stroke-linejoin="round" stroke-width="3.000000"
	d="
M334.500000,475.500000 
	C332.045349,480.190948 328.541504,484.261932 326.948914,489.484406 
	C323.376282,501.199799 329.785645,509.885223 340.476929,513.077271 
	C342.666779,513.731079 345.300903,513.451050 347.000000,515.500000 
"/>
<path fill="none" opacity="1.000000" stroke="#000000" stroke-linecap="round" stroke-linejoin="round" stroke-width="3.000000"
	d="
M184.500000,562.000000 
	C179.332611,570.886597 174.142365,579.689575 171.856308,589.968018 
	C170.778183,594.815430 169.936859,599.557739 169.972244,604.500183 
	C169.986557,606.500061 170.400940,608.561218 169.500000,610.500000 
"/>
<path fill="none" opacity="1.000000" stroke="#000000" stroke-linecap="round" stroke-linejoin="round" stroke-width="3.000000"
	d="
M249.500000,801.000000 
	C265.768677,813.321838 260.431274,836.731445 242.500000,845.500000 
"/>
<path fill="none" opacity="1.000000" stroke="#000000" stroke-linecap="round" stroke-linejoin="round" stroke-width="3.000000"
	d="
M183.000000,491.500000 
	C182.827896,494.335663 184.870682,496.373718 186.153183,498.403198 
	C188.938492,502.810913 188.257492,508.071991 190.266663,512.754150 
	C196.963074,510.368256 203.430145,511.160400 209.424423,513.679810 
	C212.454788,514.953430 213.628265,514.343872 215.010147,512.005981 
	C217.977066,506.986450 222.382553,502.337219 223.702026,496.927338 
	C226.179825,486.768341 233.060623,478.503662 234.638824,468.020905 
	C235.856186,459.934845 234.038742,453.100769 228.973022,447.022491 
	C222.920746,439.760498 217.472214,431.685516 210.273849,425.775452 
	C203.050140,419.844574 196.391953,413.112122 188.481033,408.029541 
	C181.506363,403.548462 175.021912,406.428253 167.496338,411.494568 
	C166.001022,412.501221 165.434113,414.901184 163.000000,414.500000 
"/>
<path fill="none" opacity="1.000000" stroke="#000000" stroke-linecap="round" stroke-linejoin="round" stroke-width="3.000000"
	d="
M268.000000,767.000000 
	C283.198212,769.619324 292.004578,778.929077 284.449554,795.476990 
	C281.802002,801.275940 278.883270,806.904175 279.000000,813.500000 
"/>
<path fill="none" opacity="1.000000" stroke="#000000" stroke-linecap="round" stroke-linejoin="round" stroke-width="3.000000"
	d="
M436.499969,732.000000 
	C430.666656,728.500000 424.883392,724.912109 418.974792,721.544189 
	C416.687073,720.240112 413.634003,720.328857 411.560394,721.152100 
	C400.572510,725.514465 388.969543,725.790894 377.498199,726.982727 
	C370.588165,727.700562 365.467926,724.462708 360.941589,719.553894 
	C358.372986,716.768188 357.102509,712.860535 353.500000,711.000000 
"/>
<path fill="none" opacity="1.000000" stroke="#000000" stroke-linecap="round" stroke-linejoin="round" stroke-width="3.000000"
	d="
M475.000000,820.500000 
	C470.509796,824.812378 468.078705,830.743652 463.513428,835.014343 
	C458.165527,840.017090 453.453186,845.608643 446.062469,848.179565 
	C442.058319,849.572510 438.282135,848.077942 434.500000,849.000000 
"/>
<path fill="none" opacity="1.000000" stroke="#000000" stroke-linecap="round" stroke-linejoin="round" stroke-width="3.000000"
	d="
M355.500000,663.000000 
	C360.000000,662.500000 364.525513,662.163147 368.994446,661.464539 
	C377.155426,660.188721 385.340637,660.991455 393.498627,661.101562 
	C400.014313,661.189514 405.658936,664.298645 410.467865,668.536499 
	C419.682098,676.656494 424.426422,687.756653 429.384033,698.553284 
	C432.412811,705.149353 429.048157,714.182495 422.996185,718.494629 
	C421.736389,719.392273 420.013367,719.737793 419.500000,721.500000 
"/>
<path fill="none" opacity="1.000000" stroke="#000000" stroke-linecap="round" stroke-linejoin="round" stroke-width="3.000000"
	d="
M263.500000,496.500000 
	C256.009003,508.658325 245.316422,517.068726 232.501892,523.004089 
	C229.322510,524.476685 226.166656,526.000000 222.999985,527.500000 
"/>
<path fill="none" opacity="1.000000" stroke="#000000" stroke-linecap="round" stroke-linejoin="round" stroke-width="3.000000"
	d="
M217.000000,559.000000 
	C223.833832,567.118469 231.057449,574.698059 240.432022,580.117615 
	C245.431152,583.007690 250.581192,585.252136 256.022949,586.925354 
	C257.063385,587.245300 257.290680,587.709290 257.500000,588.500000 
"/>
<path fill="none" opacity="1.000000" stroke="#000000" stroke-linecap="round" stroke-linejoin="round" stroke-width="3.000000"
	d="
M201.500000,283.500000 
	C196.333328,291.000000 191.816269,299.072418 185.837860,305.857117 
	C178.121567,314.614136 170.599335,324.058167 158.503937,327.513763 
	C149.610489,330.054565 141.930740,328.640106 134.922607,322.082703 
	C126.730911,314.417847 121.515823,305.305939 119.000000,294.500000 
"/>
<path fill="none" opacity="1.000000" stroke="#000000" stroke-linecap="round" stroke-linejoin="round" stroke-width="3.000000"
	d="
M262.000000,637.500000 
	C255.226898,645.239929 246.442017,650.916687 239.991989,658.993591 
	C236.369919,663.529236 232.413864,667.821045 229.067749,672.547974 
	C225.373840,677.766174 227.620911,687.166321 234.056732,691.923218 
	C245.729736,700.550903 258.724457,706.392761 273.499542,706.347717 
	C280.280853,706.327087 286.379364,703.128418 291.491760,698.490906 
	C293.215546,696.927307 294.646881,694.785828 297.679260,695.833618 
	C296.928741,699.425537 293.716492,700.903870 291.962463,703.474365 
	C286.229309,711.876099 280.602448,720.375549 274.372711,728.401184 
	C271.738495,731.794678 268.300537,734.920227 263.992737,736.479919 
	C259.949280,737.943787 256.184387,736.320129 252.515152,734.959167 
	C246.982269,732.907104 241.392685,730.845520 237.500000,726.000000 
"/>
<path fill="none" opacity="1.000000" stroke="#000000" stroke-linecap="round" stroke-linejoin="round" stroke-width="3.000000"
	d="
M376.000000,586.000000 
	C369.660248,587.902222 363.389801,590.200684 358.066956,594.091614 
	C350.945770,599.297119 347.270874,606.823608 346.048523,615.506836 
	C345.921875,616.406677 345.600159,616.966736 345.000000,617.500000 
"/>
<path fill="none" opacity="1.000000" stroke="#000000" stroke-linecap="round" stroke-linejoin="round" stroke-width="3.000000"
	d="
M308.000000,704.500000 
	C310.930939,696.009338 313.530640,687.342529 320.684448,680.313965 
	C322.275696,684.115295 326.083008,683.167358 328.790192,685.152832 
	C325.354492,698.917175 324.424438,712.780945 329.500000,726.500000 
"/>
<path fill="none" opacity="1.000000" stroke="#000000" stroke-linecap="round" stroke-linejoin="round" stroke-width="3.000000"
	d="
M160.500000,264.000000 
	C156.703583,265.888184 152.478943,265.257416 148.480209,265.871033 
	C139.450058,267.256714 131.032013,269.528961 125.027206,277.021790 
	C123.796715,278.557220 122.844505,280.266754 120.500000,280.000000 
"/>
<path fill="none" opacity="1.000000" stroke="#000000" stroke-linecap="round" stroke-linejoin="round" stroke-width="3.000000"
	d="
M450.500000,765.500000 
	C448.833984,773.413269 447.681702,781.347717 447.915466,789.502441 
	C448.074860,795.063599 450.737305,800.028442 451.000000,805.500000 
"/>
<path fill="none" opacity="1.000000" stroke="#000000" stroke-linecap="round" stroke-linejoin="round" stroke-width="3.000000"
	d="
M352.000000,675.000000 
	C363.799805,682.315918 376.253754,687.533142 390.500000,687.000000 
"/>
<path fill="none" opacity="1.000000" stroke="#000000" stroke-linecap="round" stroke-linejoin="round" stroke-width="3.000000"
	d="
M243.000000,806.000000 
	C240.981216,814.211243 242.268570,822.315247 243.360931,830.518494 
	C243.968628,835.082092 243.166687,839.833313 243.000015,844.500000 
"/>
<path fill="none" opacity="1.000000" stroke="#000000" stroke-linecap="round" stroke-linejoin="round" stroke-width="3.000000"
	d="
M276.000000,723.000000 
	C267.758026,718.113342 259.297455,717.160217 250.495987,721.491821 
	C244.648071,724.369873 238.648697,726.472534 232.000000,724.500000 
"/>
<path fill="none" opacity="1.000000" stroke="#000000" stroke-linecap="round" stroke-linejoin="round" stroke-width="3.000000"
	d="
M461.000000,722.500000 
	C466.307404,725.794678 471.826324,728.580566 474.621704,734.946533 
	C477.478058,741.451233 476.710663,747.402100 473.639282,753.754150 
	C485.482422,761.827515 497.991425,766.993042 512.500000,766.000000 
"/>
<path fill="none" opacity="1.000000" stroke="#000000" stroke-linecap="round" stroke-linejoin="round" stroke-width="3.000000"
	d="
M273.500000,731.500000 
	C271.833344,738.166687 271.286835,745.438660 268.121704,751.295593 
	C265.863129,755.474976 262.762512,760.630127 257.471283,762.414856 
	C252.159958,764.206299 246.660263,762.884705 241.540726,761.362976 
	C237.012970,760.017090 232.833359,757.499939 228.500031,755.499939 
"/>
<path fill="none" opacity="1.000000" stroke="#000000" stroke-linecap="round" stroke-linejoin="round" stroke-width="3.000000"
	d="
M258.000000,782.000000 
	C250.010834,775.800476 241.466522,774.307556 231.970642,778.432434 
	C228.148804,780.092529 224.000000,781.000000 220.000000,782.250000 
"/>
<path fill="none" opacity="1.000000" stroke="#000000" stroke-linecap="round" stroke-linejoin="round" stroke-width="3.000000"
	d="
M268.500000,747.000000 
	C258.660614,741.833313 249.433060,743.920776 241.106049,750.141968 
	C237.887527,752.546570 234.563644,754.383850 231.000000,756.000000 
"/>
<path fill="none" opacity="1.000000" stroke="#000000" stroke-linecap="round" stroke-linejoin="round" stroke-width="3.000000"
	d="
M311.000000,666.500000 
	C302.756714,667.992004 294.205414,668.185852 286.511414,672.022888 
	C281.978210,674.283691 276.927338,675.844116 274.000000,680.500000 
"/>
<path fill="none" opacity="1.000000" stroke="#000000" stroke-linecap="round" stroke-linejoin="round" stroke-width="3.000000"
	d="
M556.500000,236.500000 
	C556.467834,249.110641 560.065491,261.181702 562.000000,273.500000 
"/>
<path fill="none" opacity="1.000000" stroke="#000000" stroke-linecap="round" stroke-linejoin="round" stroke-width="3.000000"
	d="
M472.999969,786.000000 
	C469.574402,778.464905 466.148834,770.929749 462.695374,763.333252 
	C454.161957,765.604492 446.365479,765.295166 439.996796,758.502991 
	C437.452881,755.789978 435.404358,752.856506 434.976837,749.002563 
	C434.723358,746.717407 433.200623,745.725159 431.002197,746.016602 
	C418.356812,747.693054 406.121429,750.506409 396.000000,759.000000 
"/>
<path fill="none" opacity="1.000000" stroke="#000000" stroke-linecap="round" stroke-linejoin="round" stroke-width="3.000000"
	d="
M372.000000,616.500000 
	C369.222015,627.452393 363.748688,636.722107 355.021637,644.025879 
	C353.041138,645.683350 351.333344,647.666687 349.500000,649.500000 
"/>
<path fill="none" opacity="1.000000" stroke="#000000" stroke-linecap="round" stroke-linejoin="round" stroke-width="3.000000"
	d="
M215.500000,780.000000 
	C219.714294,780.911560 221.568161,784.967224 224.879761,787.179932 
	C228.155823,789.368958 231.620453,791.203857 235.065384,792.864380 
	C242.007324,796.210388 250.925583,793.460693 256.039459,787.534058 
	C259.829102,783.142212 261.654083,777.618652 265.000000,773.000000 
"/>
<path fill="none" opacity="1.000000" stroke="#000000" stroke-linecap="round" stroke-linejoin="round" stroke-width="3.000000"
	d="
M299.500000,612.500000 
	C311.713165,620.006775 319.284760,630.994751 323.500000,644.500000 
"/>
<path fill="none" opacity="1.000000" stroke="#000000" stroke-linecap="round" stroke-linejoin="round" stroke-width="3.000000"
	d="
M494.500000,695.500000 
	C490.414490,708.697205 483.259003,719.769043 472.000000,728.000000 
"/>
<path fill="none" opacity="1.000000" stroke="#000000" stroke-linecap="round" stroke-linejoin="round" stroke-width="3.000000"
	d="
M194.000000,266.500000 
	C195.000000,269.666656 195.563156,273.062988 197.083862,275.955933 
	C201.245956,283.873718 206.907211,286.016937 213.992767,285.414948 
	C222.069855,284.728760 228.635971,278.854492 230.499985,271.500000 
	C232.954849,261.814362 221.995972,249.260681 212.005356,250.541824 
	C203.899612,251.581253 197.692688,255.161118 195.956131,263.991364 
	C195.809296,264.738007 195.043365,265.362885 194.554718,266.059021 
	C183.496918,265.202972 172.498459,264.351471 161.500000,263.500000 
"/>
<path fill="none" opacity="1.000000" stroke="#000000" stroke-linecap="round" stroke-linejoin="round" stroke-width="3.000000"
	d="
M192.500000,538.500000 
	C194.285538,543.797852 198.508911,545.586182 201.994110,542.493347 
	C203.792603,540.897339 204.720520,538.714600 203.904572,536.535706 
	C203.035980,534.216248 201.095566,532.163574 198.498001,532.120728 
	C196.086853,532.080933 193.672592,533.067871 192.998138,535.999573 
	C192.844101,536.669128 192.666687,537.333313 192.500015,538.000000 
"/>
<path fill="none" opacity="1.000000" stroke="#000000" stroke-linecap="round" stroke-linejoin="round" stroke-width="3.000000"
	d="
M268.500000,753.000000 
	C268.000000,758.000000 267.764954,763.044312 266.938416,767.989685 
	C265.671722,775.568787 265.826538,782.541260 270.890991,789.084351 
	C274.567505,793.834290 277.103241,799.434753 279.500000,805.000000 
"/>
<path fill="none" opacity="1.000000" stroke="#000000" stroke-linecap="round" stroke-linejoin="round" stroke-width="3.000000"
	d="
M257.500000,534.500000 
	C247.787735,536.982727 238.293427,540.653442 228.000916,539.985779 
	C226.327240,539.877258 224.579025,540.147888 224.574646,542.000183 
	C224.559692,548.339539 220.588181,552.553589 216.990723,556.992493 
	C213.862549,560.852356 208.857956,561.772705 205.000000,564.500000 
"/>
<path fill="none" opacity="1.000000" stroke="#000000" stroke-linecap="round" stroke-linejoin="round" stroke-width="3.000000"
	d="
M213.000000,481.500000 
	C212.789566,492.184235 212.056580,502.793793 208.500000,513.000000 
"/>
<path fill="none" opacity="1.000000" stroke="#000000" stroke-linecap="round" stroke-linejoin="round" stroke-width="3.000000"
	d="
M211.000000,286.500000 
	C210.000000,296.500000 209.000000,306.500000 208.000000,316.500000 
"/>
<path fill="none" opacity="1.000000" stroke="#000000" stroke-linecap="round" stroke-linejoin="round" stroke-width="3.000000"
	d="
M217.500015,220.000000 
	C216.666672,228.333328 215.820938,236.665466 215.010498,245.001022 
	C214.848373,246.668350 215.301270,248.396790 214.500000,250.000000 
"/>
<path fill="none" opacity="1.000000" stroke="#000000" stroke-linecap="round" stroke-linejoin="round" stroke-width="3.000000"
	d="
M249.500000,467.000000 
	C240.582108,472.404480 234.905289,480.625244 230.016785,489.509247 
	C228.843979,491.640625 227.944946,493.939789 225.500000,495.000000 
"/>
<path fill="none" opacity="1.000000" stroke="#000000" stroke-linecap="round" stroke-linejoin="round" stroke-width="3.000000"
	d="
M177.500000,521.500000 
	C170.598633,514.348206 161.285278,511.657684 152.489395,508.025665 
	C151.232697,507.506775 149.833344,507.333313 148.500000,506.999969 
"/>
<path fill="none" opacity="1.000000" stroke="#000000" stroke-linecap="round" stroke-linejoin="round" stroke-width="3.000000"
	d="
M158.500000,419.500000 
	C152.744064,422.748383 150.744186,428.854034 147.516357,434.010254 
	C144.148270,439.390594 143.042343,446.079926 138.000000,450.500000 
"/>
<path fill="none" opacity="1.000000" stroke="#000000" stroke-linecap="round" stroke-linejoin="round" stroke-width="3.000000"
	d="
M252.500000,297.000000 
	C251.899765,298.833344 251.374512,300.804779 252.548737,302.465546 
	C254.065323,304.610504 256.561554,305.954529 258.938995,304.866699 
	C261.522644,303.684479 262.859009,300.986969 261.946899,298.016296 
	C260.977997,294.860474 258.155548,294.801147 255.506485,295.065063 
	C254.632019,295.152130 253.833344,296.000031 253.000015,296.500031 
"/>
<path fill="none" opacity="1.000000" stroke="#000000" stroke-linecap="round" stroke-linejoin="round" stroke-width="3.000000"
	d="
M168.000000,288.000000 
	C166.166992,285.582184 163.264389,285.358398 161.068558,286.182617 
	C158.729691,287.060547 157.111572,289.641205 158.069336,292.476593 
	C158.870544,294.848511 160.906586,296.354370 163.487900,295.926910 
	C166.052078,295.502258 168.256546,294.256165 168.007355,290.999451 
	C167.956635,290.336670 168.000000,289.666656 168.000000,289.000000 
"/>
<path fill="none" opacity="1.000000" stroke="#000000" stroke-linecap="round" stroke-linejoin="round" stroke-width="3.000000"
	d="
M568.500000,235.500000 
	C566.646973,242.595978 565.159729,249.641418 567.364929,257.040253 
	C567.930847,258.938904 566.833313,261.333344 566.500000,263.500000 
"/>
<path fill="none" opacity="1.000000" stroke="#000000" stroke-linecap="round" stroke-linejoin="round" stroke-width="3.000000"
	d="
M218.000000,219.500000 
	C223.766052,216.473022 224.854935,212.283768 220.471069,209.546341 
	C218.245514,208.156647 215.793884,208.738556 214.052795,210.550720 
	C212.455338,212.213394 212.280029,214.609589 213.596085,216.430557 
	C214.506073,217.689697 215.415146,219.502014 217.500000,219.500000 
"/>
<path fill="none" opacity="1.000000" stroke="#000000" stroke-linecap="round" stroke-linejoin="round" stroke-width="3.000000"
	d="
M207.500000,316.500000 
	C202.307495,319.530426 201.217712,321.467865 203.000015,324.500000 
	C204.550903,327.138458 207.886856,328.329834 209.999985,326.999969 
	C212.899933,325.174957 213.342270,321.932526 210.973343,319.021698 
	C210.314941,318.212677 209.333328,317.666656 208.500000,317.000000 
"/>
<path fill="none" opacity="1.000000" stroke="#000000" stroke-linecap="round" stroke-linejoin="round" stroke-width="3.000000"
	d="
M196.000000,275.500000 
	C186.833344,279.833344 177.666672,284.166687 168.500000,288.500031 
"/>
<path fill="none" opacity="1.000000" stroke="#000000" stroke-linecap="round" stroke-linejoin="round" stroke-width="3.000000"
	d="
M173.000000,239.000000 
	C174.041580,235.997055 173.262161,233.940674 170.604218,231.866455 
	C168.579315,230.286194 167.197433,231.463043 166.058075,232.103333 
	C162.932663,233.859726 162.237610,236.874725 163.999985,239.000015 
	C167.168777,242.821304 168.469513,242.897827 172.500000,239.500000 
"/>
<path fill="none" opacity="1.000000" stroke="#000000" stroke-linecap="round" stroke-linejoin="round" stroke-width="3.000000"
	d="
M256.500000,248.500000 
	C247.500000,252.500000 238.500000,256.500000 229.500000,260.500000 
"/>
<path fill="none" opacity="1.000000" stroke="#000000" stroke-linecap="round" stroke-linejoin="round" stroke-width="3.000000"
	d="
M313.000000,656.500000 
	C304.816223,653.029419 296.187744,652.798706 287.500000,653.000000 
"/>
<path fill="none" opacity="1.000000" stroke="#000000" stroke-linecap="round" stroke-linejoin="round" stroke-width="3.000000"
	d="
M435.000000,735.500000 
	C426.727570,732.675354 418.080170,732.582581 409.500000,732.000000 
"/>
<path fill="none" opacity="1.000000" stroke="#000000" stroke-linecap="round" stroke-linejoin="round" stroke-width="3.000000"
	d="
M175.000000,552.500000 
	C165.939865,558.640442 159.628525,567.469910 152.500000,575.500000 
"/>
<path fill="none" opacity="1.000000" stroke="#000000" stroke-linecap="round" stroke-linejoin="round" stroke-width="3.000000"
	d="
M451.000000,744.000000 
	C450.809662,746.856995 452.164307,747.885986 454.994080,748.084351 
	C457.912842,748.288940 459.260559,746.169189 459.770111,744.432556 
	C460.175293,743.051636 459.242584,740.729919 457.504883,739.493164 
	C455.191010,737.846130 452.629395,739.297485 450.500000,743.500000 
"/>
<path fill="none" opacity="1.000000" stroke="#000000" stroke-linecap="round" stroke-linejoin="round" stroke-width="3.000000"
	d="
M452.000000,696.500000 
	C454.185455,703.884705 455.957886,711.362732 456.988739,719.001526 
	C457.286469,721.207642 456.607391,722.339050 454.006348,722.571167 
	C443.838623,723.478394 437.309479,728.733521 435.099152,738.023560 
	C434.382446,741.035950 432.381592,740.300781 431.028137,739.904053 
	C425.460876,738.272034 420.000000,738.814453 414.500000,740.000000 
"/>
<path fill="none" opacity="1.000000" stroke="#000000" stroke-linecap="round" stroke-linejoin="round" stroke-width="3.000000"
	d="
M446.500000,723.500000 
	C442.866638,716.452087 439.656891,709.162354 434.519287,702.983948 
	C433.354797,701.583557 432.649048,699.734436 430.500000,699.500000 
"/>
<path fill="none" opacity="1.000000" stroke="#000000" stroke-linecap="round" stroke-linejoin="round" stroke-width="3.000000"
	d="
M328.500000,664.500000 
	C329.348602,666.430847 330.584045,668.017883 332.381683,669.083801 
	C335.584259,668.709351 337.803131,666.955017 337.830719,663.998413 
	C337.848328,662.109314 336.102814,659.937378 333.983551,659.604858 
	C330.931213,659.125916 329.180115,661.090515 328.500000,664.000000 
"/>
<path fill="none" opacity="1.000000" stroke="#000000" stroke-linecap="round" stroke-linejoin="round" stroke-width="3.000000"
	d="
M330.000000,617.500000 
	C332.610870,625.462646 334.726440,633.516235 334.500000,642.000000 
"/>
<path fill="none" opacity="1.000000" stroke="#000000" stroke-linecap="round" stroke-linejoin="round" stroke-width="3.000000"
	d="
M228.000000,279.000000 
	C236.166672,284.833344 244.333328,290.666656 252.500000,296.500000 
"/>
<path fill="none" opacity="1.000000" stroke="#000000" stroke-linecap="round" stroke-linejoin="round" stroke-width="3.000000"
	d="
M319.000000,478.500000 
	C326.462433,476.045868 334.229248,474.819733 341.607849,471.760071 
	C346.638123,469.674194 352.531006,471.360626 356.929169,475.083679 
	C359.595825,477.340973 362.807800,479.260071 364.101807,482.964447 
	C364.418121,483.869934 366.000000,484.333344 367.000000,485.000000 
"/>
<path fill="none" opacity="1.000000" stroke="#000000" stroke-linecap="round" stroke-linejoin="round" stroke-width="3.000000"
	d="
M173.000000,240.000000 
	C181.000000,245.666656 189.000000,251.333328 197.000000,257.000000 
"/>
<path fill="none" opacity="1.000000" stroke="#000000" stroke-linecap="round" stroke-linejoin="round" stroke-width="3.000000"
	d="
M376.500000,529.500000 
	C382.007904,530.392395 383.077728,531.807007 381.990417,536.997986 
	C380.608063,543.597412 379.964386,550.263123 380.000000,557.000000 
"/>
<path fill="none" opacity="1.000000" stroke="#000000" stroke-linecap="round" stroke-linejoin="round" stroke-width="3.000000"
	d="
M386.500000,479.500000 
	C386.740082,488.732605 385.204132,497.836060 384.500000,507.000000 
"/>
<path fill="none" opacity="1.000000" stroke="#000000" stroke-linecap="round" stroke-linejoin="round" stroke-width="3.000000"
	d="
M248.500000,527.500000 
	C240.914383,530.562256 233.418686,533.949646 225.000000,534.000000 
"/>
<path fill="none" opacity="1.000000" stroke="#000000" stroke-linecap="round" stroke-linejoin="round" stroke-width="3.000000"
	d="
M174.500000,525.500000 
	C168.276947,522.867371 162.374298,519.447510 155.519058,518.377869 
	C154.165039,518.166626 152.820648,518.268188 151.500000,518.000000 
"/>
<path fill="none" opacity="1.000000" stroke="#000000" stroke-linecap="round" stroke-linejoin="round" stroke-width="3.000000"
	d="
M204.000000,489.000000 
	C203.676163,496.345337 204.985947,503.802063 202.500000,511.000000 
"/>
<path fill="none" opacity="1.000000" stroke="#000000" stroke-linecap="round" stroke-linejoin="round" stroke-width="3.000000"
	d="
M376.000000,647.000000 
	C369.349792,652.140198 362.507324,656.912537 354.000000,658.500000 
"/>
<path fill="none" opacity="1.000000" stroke="#000000" stroke-linecap="round" stroke-linejoin="round" stroke-width="3.000000"
	d="
M441.000000,761.000000 
	C435.342255,767.337769 433.350586,775.508606 430.000000,783.000000 
"/>
<path fill="none" opacity="1.000000" stroke="#000000" stroke-linecap="round" stroke-linejoin="round" stroke-width="3.000000"
	d="
M379.500000,519.500000 
	C380.444794,521.380493 381.194397,523.469666 384.002075,523.012695 
	C385.771454,522.724854 386.873505,521.785645 386.972717,519.998474 
	C387.064178,518.351196 387.440033,516.441284 385.490417,515.520264 
	C381.893585,513.821167 380.343384,515.850586 379.500000,519.000000 
"/>
<path fill="none" opacity="1.000000" stroke="#000000" stroke-linecap="round" stroke-linejoin="round" stroke-width="3.000000"
	d="
M498.000000,727.000000 
	C491.000275,731.145447 484.379913,736.000122 476.500000,738.500000 
"/>
<path fill="none" opacity="1.000000" stroke="#000000" stroke-linecap="round" stroke-linejoin="round" stroke-width="3.000000"
	d="
M400.000000,653.000000 
	C399.333344,652.247864 398.776367,652.399292 397.981781,652.974854 
	C393.670715,656.097595 388.611572,657.187866 383.493011,657.953369 
	C381.751160,658.213867 380.180359,658.285828 380.000000,660.500000 
"/>
<path fill="none" opacity="1.000000" stroke="#000000" stroke-linecap="round" stroke-linejoin="round" stroke-width="3.000000"
	d="
M372.000000,524.500000 
	C365.542084,527.672058 358.813873,530.242554 352.408264,533.573608 
	C350.128204,534.759277 350.644989,535.971802 350.500000,537.500000 
"/>
<path fill="none" opacity="1.000000" stroke="#000000" stroke-linecap="round" stroke-linejoin="round" stroke-width="3.000000"
	d="
M415.000000,505.000000 
	C409.908234,506.590179 405.229828,509.109802 400.512909,511.525238 
	C398.591370,512.509216 396.627075,513.214600 394.500000,513.500000 
"/>
<path fill="none" opacity="1.000000" stroke="#000000" stroke-linecap="round" stroke-linejoin="round" stroke-width="3.000000"
	d="
M171.000000,538.500000 
	C164.166672,536.143433 157.333328,537.416687 150.500000,538.500000 
"/>
<path fill="none" opacity="1.000000" stroke="#000000" stroke-linecap="round" stroke-linejoin="round" stroke-width="3.000000"
	d="
M179.500000,557.500000 
	C172.328232,562.048767 167.977829,568.750610 165.000000,576.500000 
"/>
<path fill="none" opacity="1.000000" stroke="#000000" stroke-linecap="round" stroke-linejoin="round" stroke-width="3.000000"
	d="
M190.500000,564.500000 
	C185.510178,570.249146 184.403900,577.260437 184.000000,584.500000 
"/>
<path fill="none" opacity="1.000000" stroke="#000000" stroke-linecap="round" stroke-linejoin="round" stroke-width="3.000000"
	d="
M210.500000,562.500000 
	C213.319809,570.150452 218.558289,576.228760 223.500000,582.500000 
"/>
<path fill="none" opacity="1.000000" stroke="#000000" stroke-linecap="round" stroke-linejoin="round" stroke-width="3.000000"
	d="
M467.000000,762.500000 
	C472.516846,768.728577 477.592621,775.451721 485.500000,779.000000 
"/>
<path fill="none" opacity="1.000000" stroke="#000000" stroke-linecap="round" stroke-linejoin="round" stroke-width="3.000000"
	d="
M323.500000,624.500000 
	C327.896149,629.889526 328.942383,636.365540 329.500000,643.000000 
"/>
<path fill="none" opacity="1.000000" stroke="#000000" stroke-linecap="round" stroke-linejoin="round" stroke-width="3.000000"
	d="
M345.000000,683.000000 
	C349.826050,689.909668 356.243011,695.134888 363.000000,700.000000 
"/>
<path fill="none" opacity="1.000000" stroke="#000000" stroke-linecap="round" stroke-linejoin="round" stroke-width="3.000000"
	d="
M297.500000,695.500000 
	C303.736511,689.571411 309.972992,683.642761 316.239166,677.685913 
	C315.063751,674.166138 312.482727,671.528137 311.986877,668.001831 
	C311.914703,667.488525 311.549408,667.007263 311.517822,666.498901 
	C311.124359,660.168457 310.989868,660.026855 304.500000,660.002808 
	C300.500031,659.987976 296.500000,660.000000 292.500000,660.000000 
"/>
<path fill="none" opacity="1.000000" stroke="#000000" stroke-linecap="round" stroke-linejoin="round" stroke-width="3.000000"
	d="
M221.000000,555.000000 
	C225.681076,560.499817 231.777313,563.748230 238.500000,566.000000 
"/>
<path fill="none" opacity="1.000000" stroke="#000000" stroke-linecap="round" stroke-linejoin="round" stroke-width="3.000000"
	d="
M323.500000,684.000000 
	C319.555481,689.172974 318.041473,695.248718 317.000000,701.500000 
"/>
<path fill="none" opacity="1.000000" stroke="#000000" stroke-linecap="round" stroke-linejoin="round" stroke-width="3.000000"
	d="
M447.000000,705.000000 
	C448.915283,710.556763 451.684448,715.887451 451.500000,722.000000 
"/>
<path fill="none" opacity="1.000000" stroke="#000000" stroke-linecap="round" stroke-linejoin="round" stroke-width="3.000000"
	d="
M445.500000,763.500000 
	C441.055328,768.295654 440.517578,774.585144 439.000000,780.500000 
"/>
<path fill="none" opacity="1.000000" stroke="#000000" stroke-linecap="round" stroke-linejoin="round" stroke-width="3.000000"
	d="
M237.000000,508.500000 
	C234.800262,514.211853 229.220734,516.422546 224.902008,519.877502 
	C223.971542,520.621887 222.582901,521.186768 221.500000,522.000000 
"/>
<path fill="none" opacity="1.000000" stroke="#000000" stroke-linecap="round" stroke-linejoin="round" stroke-width="3.000000"
	d="
M455.000000,765.500000 
	C454.071625,771.033203 454.634308,776.521179 455.500000,782.000000 
"/>
<path fill="none" opacity="1.000000" stroke="#000000" stroke-linecap="round" stroke-linejoin="round" stroke-width="5.000000"
	d="
M118.000000,263.500000 
	C119.611961,273.475922 120.456879,283.464600 118.500000,293.500000 
"/>
<path fill="none" opacity="1.000000" stroke="#000000" stroke-linecap="round" stroke-linejoin="round" stroke-width="3.000000"
	d="
M354.000000,670.500000 
	C358.817688,674.380310 364.802612,674.758850 370.500000,676.000000 
"/>
<path fill="none" opacity="1.000000" stroke="#000000" stroke-linecap="round" stroke-linejoin="round" stroke-width="3.000000"
	d="
M476.000000,750.500000 
	C481.303925,752.718872 486.530121,755.222961 492.500000,755.000000 
"/>
<path fill="none" opacity="1.000000" stroke="#000000" stroke-linecap="round" stroke-linejoin="round" stroke-width="3.000000"
	d="
M434.000000,750.500000 
	C427.989685,750.802368 423.002350,754.173706 417.500000,756.000000 
"/>
<path fill="none" opacity="1.000000" stroke="#000000" stroke-linecap="round" stroke-linejoin="round" stroke-width="3.000000"
	d="
M333.500000,686.000000 
	C331.753296,691.333313 332.534912,696.666687 333.500000,702.000000 
"/>
<path fill="none" opacity="1.000000" stroke="#000000" stroke-linecap="round" stroke-linejoin="round" stroke-width="3.000000"
	d="
M368.500000,644.000000 
	C367.049683,643.599365 366.317535,644.638489 365.500580,645.500549 
	C361.796082,649.409485 357.458069,652.402405 352.500000,654.500000 
"/>
<path fill="none" opacity="1.000000" stroke="#000000" stroke-linecap="round" stroke-linejoin="round" stroke-width="3.000000"
	d="
M312.000000,671.000000 
	C306.565094,672.307007 300.942963,673.130432 296.500000,677.000000 
"/>
<path fill="none" opacity="1.000000" stroke="#000000" stroke-linecap="round" stroke-linejoin="round" stroke-width="3.000000"
	d="
M382.500000,531.500000 
	C386.375519,530.621948 390.418274,530.095032 392.849823,525.922485 
	C398.473328,530.138550 404.207977,533.413513 409.000000,538.000000 
"/>
<path fill="none" opacity="1.000000" stroke="#000000" stroke-linecap="round" stroke-linejoin="round" stroke-width="3.000000"
	d="
M477.000000,711.500000 
	C475.494568,717.260986 472.283844,721.963562 468.000000,726.000000 
"/>
<path fill="none" opacity="1.000000" stroke="#000000" stroke-linecap="round" stroke-linejoin="round" stroke-width="3.000000"
	d="
M464.000000,763.000000 
	C465.624054,761.772461 467.600586,761.048462 468.872955,758.860107 
	C474.600372,762.842285 479.036987,768.013306 485.500000,770.000000 
"/>
<path fill="none" opacity="1.000000" stroke="#000000" stroke-linecap="round" stroke-linejoin="round" stroke-width="3.000000"
	d="
M489.000000,724.000000 
	C484.604797,727.835388 480.429291,732.006104 474.500000,733.500000 
"/>
<path fill="none" opacity="1.000000" stroke="#000000" stroke-linecap="round" stroke-linejoin="round" stroke-width="3.000000"
	d="
M349.000000,680.000000 
	C352.954712,684.572815 357.822144,687.983948 363.000000,691.000000 
"/>
<path fill="none" opacity="1.000000" stroke="#000000" stroke-linecap="round" stroke-linejoin="round" stroke-width="3.000000"
	d="
M355.000000,633.000000 
	C353.456757,638.471191 349.527679,642.351807 346.000000,646.500000 
"/>
<path fill="none" opacity="1.000000" stroke="#000000" stroke-linecap="round" stroke-linejoin="round" stroke-width="3.000000"
	d="
M213.000000,515.000000 
	C214.582870,518.642578 218.685883,519.874878 220.631332,523.428101 
	C223.509689,528.685120 224.813461,534.203003 225.500000,540.000000 
"/>
<path fill="none" opacity="1.000000" stroke="#000000" stroke-linecap="round" stroke-linejoin="round" stroke-width="3.000000"
	d="
M542.500000,234.000000 
	C545.122375,233.654999 546.944397,235.897797 549.496338,236.058563 
	C554.409607,236.368103 558.914795,235.764679 562.500000,232.000000 
"/>
<path fill="none" opacity="1.000000" stroke="#000000" stroke-linecap="round" stroke-linejoin="round" stroke-width="3.000000"
	d="
M310.000000,633.000000 
	C314.385376,636.811401 317.337830,641.737244 320.500000,646.500000 
"/>
<path fill="none" opacity="1.000000" stroke="#000000" stroke-linecap="round" stroke-linejoin="round" stroke-width="3.000000"
	d="
M432.000000,713.000000 
	C436.142914,716.814026 439.903656,720.936768 442.500000,726.000000 
"/>
<path fill="none" opacity="1.000000" stroke="#000000" stroke-linecap="round" stroke-linejoin="round" stroke-width="3.000000"
	d="
M186.500000,193.500000 
	C182.385315,196.254654 181.339249,201.519989 177.500000,204.500000 
"/>
<path fill="none" opacity="1.000000" stroke="#000000" stroke-linecap="round" stroke-linejoin="round" stroke-width="3.000000"
	d="
M267.500000,245.500000 
	C265.643738,251.007690 263.497589,251.960831 259.464111,249.560272 
	C256.795959,247.972290 256.158508,245.980286 257.554596,243.531128 
	C259.188049,240.665649 262.005066,239.931778 264.968475,241.081268 
	C266.450165,241.655991 267.195404,243.336212 267.500000,245.000000 
"/>
<path fill="none" opacity="1.000000" stroke="#000000" stroke-linecap="round" stroke-linejoin="round" stroke-width="3.000000"
	d="
M559.000000,188.500000 
	C557.766724,192.166672 559.194397,195.833328 559.000000,199.500000 
"/>
<path fill="none" opacity="1.000000" stroke="#000000" stroke-linecap="round" stroke-linejoin="round" stroke-width="3.000000"
	d="
M189.000000,513.000000 
	C186.558548,514.292114 184.314072,516.006348 181.500000,516.500000 
"/>
<path fill="none" opacity="1.000000" stroke="#000000" stroke-linecap="round" stroke-linejoin="round" stroke-width="3.000000"
	d="
M340.000000,644.000000 
	C347.303528,647.026062 352.371185,652.014404 353.997986,660.000427 
	C356.469086,672.130920 346.657959,686.897705 331.995209,685.037720 
	C331.031860,684.915466 330.000000,685.333313 329.000000,685.500000 
"/>
<path fill="none" opacity="1.000000" stroke="#000000" stroke-linecap="round" stroke-linejoin="round" stroke-width="3.000000"
	d="
M243.500000,461.000000 
	C245.666672,462.333344 247.833328,463.666656 250.000000,465.000000 
"/>
<path fill="none" opacity="1.000000" stroke="#000000" stroke-linecap="round" stroke-linejoin="round" stroke-width="3.000000"
	d="
M348.500000,755.000000 
	C345.933655,754.367676 344.870697,758.621460 342.000000,757.000000 
"/>
<path fill="none" opacity="1.000000" stroke="#000000" stroke-linecap="round" stroke-linejoin="round" stroke-width="3.000000"
	d="
M474.000000,754.500000 
	C471.836243,755.468689 470.696838,757.154480 470.500000,759.500000 
"/>
<path fill="none" opacity="1.000000" stroke="#000000" stroke-linecap="round" stroke-linejoin="round" stroke-width="3.000000"
	d="
M314.500000,652.500000 
	C313.942627,655.489563 313.361633,658.470764 311.500000,661.000000 
"/>
<path fill="none" opacity="1.000000" stroke="#000000" stroke-linecap="round" stroke-linejoin="round" stroke-width="3.000000"
	d="
M211.500000,262.000000 
	C208.271301,262.969879 206.702301,264.831635 206.892731,268.505554 
	C207.050446,271.548187 208.343018,273.361542 211.016312,273.922211 
	C213.641693,274.472900 216.468689,274.078857 217.931702,271.461823 
	C219.175888,269.236237 219.800217,266.781586 217.538025,264.462921 
	C215.954147,262.839508 214.418533,261.545898 212.000000,262.000000 
"/>
</svg>