<svg version="1.1" id="Layer_1" xmlns="http://www.w3.org/2000/svg" xmlns:xlink="http://www.w3.org/1999/xlink" x="0px" y="0px"
	 width="100%" viewBox="0 0 768 1024" enable-background="new 0 0 768 1024" xml:space="preserve">
<path fill="#000000" opacity="1.000000" stroke="none" 
	d="
M191.650116,239.690277 
	C195.422577,235.282120 200.157089,232.726913 204.676697,229.931412 
	C207.002502,228.492813 209.876144,227.898148 212.278763,229.449142 
	C214.726608,231.029312 213.300888,233.709229 213.092133,235.933731 
	C212.101959,246.486221 211.197388,257.053436 208.195160,267.395050 
	C210.501526,267.941833 211.540817,266.403412 212.832611,265.567719 
	C223.346344,258.766174 234.533493,254.055923 247.314270,253.852859 
	C251.464340,253.786926 255.620972,253.340057 259.748993,252.851227 
	C267.798584,251.898026 275.183685,254.811401 282.736786,256.675262 
	C285.385223,257.328827 287.712708,258.840729 288.176941,261.900421 
	C288.672577,265.167175 286.208893,266.561371 283.999664,268.094116 
	C282.527557,269.115417 280.628296,269.650177 279.835480,271.657471 
	C285.988953,280.100769 284.719849,289.411011 282.462463,299.023193 
	C285.513428,300.290161 288.378571,301.556885 291.299469,302.678558 
	C300.121185,306.066223 304.490753,315.517303 301.494843,324.610443 
	C299.800079,329.754364 296.265289,333.855164 293.743591,338.565369 
	C294.846680,340.616364 297.022766,340.879425 298.751404,341.631287 
	C313.278473,347.949768 313.437042,356.044983 309.028534,367.933960 
	C306.067200,375.920074 301.584869,383.983765 292.392731,387.416077 
	C276.184814,393.468079 259.492432,392.819611 242.632080,391.769958 
	C223.957458,390.607422 207.836685,382.126526 191.200439,375.005829 
	C187.920456,373.601898 185.196350,371.276459 183.087494,368.487152 
	C180.431320,364.973999 178.245361,365.753510 175.974442,368.651825 
	C171.869202,373.891144 167.396271,378.898712 163.801117,384.470367 
	C154.515686,398.860504 144.994232,413.158966 136.761566,428.150055 
	C129.130081,442.046448 125.444191,457.596039 121.342278,472.882446 
	C115.622192,494.199249 113.103622,515.881531 111.785248,537.898682 
	C111.164726,548.261414 110.264221,558.561523 110.904305,569.009521 
	C112.773712,562.689819 115.009315,556.452271 116.447868,550.035950 
	C122.067345,524.971741 135.512878,504.359070 153.209885,486.459137 
	C158.331223,481.279114 160.951019,476.964783 161.214661,469.169281 
	C161.960190,447.125153 181.940399,423.376617 203.387695,417.066437 
	C209.845261,415.166504 216.601898,415.305084 223.190063,416.780273 
	C228.223709,417.907349 231.876663,420.821503 233.388947,426.019989 
	C234.839645,431.006866 233.179459,434.936127 228.503708,437.155701 
	C227.476562,437.643280 226.199081,437.704651 225.717880,439.162720 
	C226.042740,441.667542 228.268021,442.347015 230.142838,443.289093 
	C233.713791,445.083405 237.392670,446.666962 240.932297,448.518585 
	C245.541733,450.929840 247.832245,454.893158 247.166046,460.038940 
	C245.852692,470.183197 241.348129,478.366974 231.833862,483.142029 
	C230.496811,483.813080 229.031540,484.780945 227.802231,483.171295 
	C226.390137,481.322449 227.703354,479.984528 229.130905,479.047089 
	C234.130371,475.764191 238.188019,471.828674 240.030426,465.873199 
	C242.509430,457.859894 241.471359,455.109924 234.080261,451.569305 
	C228.123810,448.715942 222.298157,446.275238 218.437088,439.941010 
	C214.617645,433.675049 205.395340,432.761383 198.558868,435.904388 
	C189.140442,440.234467 181.276672,447.087555 172.107422,451.793335 
	C171.693268,452.005890 171.279266,452.448120 171.112228,452.879120 
	C167.611755,461.911743 163.783340,470.943817 168.954208,480.634857 
	C170.678085,483.865631 172.664932,486.959015 174.323685,490.220917 
	C176.256683,494.022156 179.244781,496.794281 183.199631,497.801178 
	C198.909653,501.800903 214.980759,503.501007 228.876404,493.471069 
	C240.973587,484.739288 251.744873,474.145752 258.472137,459.852448 
	C254.968994,457.105560 252.202286,453.674957 249.787872,449.870667 
	C247.930435,446.944000 244.705643,445.710785 241.411942,444.819427 
	C239.616531,444.333588 237.531296,443.651215 238.169312,441.251404 
	C238.810196,438.840759 241.104065,438.580139 243.106873,439.078430 
	C247.925980,440.277344 252.197098,442.647125 254.900101,446.908356 
	C256.902130,450.064545 259.182678,452.746674 262.223572,454.936462 
	C265.639679,457.396393 265.701141,460.236115 263.530365,464.007172 
	C256.269592,476.620605 246.330673,486.889862 235.420288,496.168427 
	C223.562988,506.252258 209.203110,507.655426 194.371811,505.909576 
	C190.428345,505.445312 186.385605,505.390656 182.564362,504.012512 
	C175.788422,501.568787 170.999054,497.146881 167.954681,490.532166 
	C164.983490,484.076447 163.343765,483.536530 158.779114,488.596283 
	C148.871216,499.578857 138.817581,510.490997 132.063187,523.942200 
	C123.083633,541.824768 118.683296,561.180603 113.711060,580.319824 
	C111.522690,588.743347 115.126198,597.104370 116.453346,605.426025 
	C118.336945,617.236877 121.140755,628.880249 123.644035,640.576416 
	C125.498718,649.242126 129.080856,656.975464 132.930191,664.694824 
	C138.564102,675.992859 145.178513,686.744324 152.128754,697.926025 
	C150.837769,683.517822 150.819992,669.651245 153.720932,655.996399 
	C156.999557,640.563965 159.445114,625.077759 160.887955,609.331665 
	C162.570969,590.964355 162.606720,572.460388 165.479553,554.195374 
	C165.730087,552.602539 165.443848,550.884705 165.177231,549.262634 
	C164.913406,547.657593 164.883774,546.193665 166.463394,545.336243 
	C168.134048,544.429443 169.310257,545.472473 170.322372,546.665771 
	C173.444717,550.347229 176.897354,553.808228 179.593979,557.780884 
	C190.926437,574.476196 198.459717,592.736145 203.346176,612.395447 
	C208.081802,631.447937 211.908203,650.651917 215.210373,669.953247 
	C217.420319,682.870605 219.163696,695.942993 218.387833,709.176025 
	C218.214890,712.125549 218.758972,715.117126 219.040466,719.027527 
	C222.964539,714.206360 224.375870,709.139404 226.542618,704.481079 
	C232.723450,691.192932 241.783340,680.230774 251.978897,669.693481 
	C263.270599,658.023193 276.268799,647.817322 285.091278,633.839050 
	C286.181152,632.112305 287.447052,630.329468 289.834869,631.007263 
	C292.261292,631.696106 292.435394,633.913696 292.240173,635.929016 
	C291.130493,647.386169 293.994171,658.796082 292.345795,670.304443 
	C291.370453,677.113770 289.445129,683.540710 287.414154,690.056458 
	C283.164490,703.690247 276.633362,716.099731 268.932800,728.038269 
	C264.370453,735.111511 258.869995,741.318237 252.588318,746.749512 
	C245.673782,752.727966 238.343307,758.239868 231.031174,763.738464 
	C226.793808,766.924927 221.107895,767.565002 216.491150,771.574890 
	C220.462662,775.733398 224.820236,779.133667 229.556702,782.096680 
	C230.709442,782.817810 231.809372,782.386963 232.874176,781.862976 
	C251.028305,772.929199 270.024689,775.419250 289.190674,776.972168 
	C304.418976,778.206055 319.159546,780.768005 334.541901,787.071716 
	C329.940948,769.494629 334.387390,754.579895 344.099396,739.650574 
	C335.940857,741.425659 329.206970,740.410889 322.760773,737.303650 
	C314.027649,733.094177 308.823029,720.710876 312.178131,711.591492 
	C312.801117,709.898071 312.748596,708.340576 312.321198,706.717468 
	C311.732971,704.483459 311.984283,702.293945 313.298859,700.496582 
	C314.728851,698.541504 315.800659,696.725586 315.237732,694.142151 
	C315.073303,693.387573 315.768829,692.012878 316.476196,691.567871 
	C323.524384,687.134521 329.298248,680.281677 338.289154,679.486633 
	C342.555450,679.109314 346.473297,680.684265 350.117218,682.817993 
	C351.983551,683.910706 353.747406,685.177246 355.575287,686.337280 
	C358.222809,688.017578 360.395691,688.254272 362.911469,685.535278 
	C365.233368,683.025757 368.427887,681.323608 371.440338,679.117798 
	C369.985474,675.437744 366.568207,673.321533 364.548492,670.124573 
	C355.591278,655.946594 354.119385,640.602234 356.819427,624.494385 
	C357.852722,618.329956 357.815399,618.272278 351.308929,618.262573 
	C332.048553,618.233948 315.741516,610.683228 301.551605,598.265198 
	C289.630890,587.833008 293.000671,574.421143 303.687286,564.995850 
	C312.196686,557.490784 322.201813,553.350464 333.214203,551.384460 
	C337.352081,550.645752 339.588257,549.358398 339.686829,544.161621 
	C339.814758,537.417236 343.527008,532.367615 350.116760,529.015381 
	C363.480652,522.217102 377.512634,518.123718 392.360657,519.141479 
	C409.052216,520.285583 426.453522,518.447571 442.156433,525.018433 
	C452.710632,529.434875 462.780823,528.469543 473.294556,527.911926 
	C484.543030,527.315369 495.095306,529.496765 504.775787,535.624084 
	C511.551453,539.912659 517.922668,544.670776 524.095764,549.777954 
	C532.784302,556.966248 537.607666,566.510742 541.451477,576.748718 
	C542.013489,578.245667 542.324158,579.792786 540.651306,580.705811 
	C538.600891,581.824890 537.513000,580.229919 536.725769,578.777039 
	C534.825867,575.270508 533.111572,571.663940 531.291504,568.113525 
	C526.250610,558.280396 517.667419,551.884827 509.167786,545.430115 
	C497.376038,536.475342 484.235626,532.840027 469.339539,534.126404 
	C456.139984,535.266174 442.597809,533.275818 429.843384,538.223267 
	C413.365143,544.615295 396.902618,551.099121 385.520142,565.803223 
	C384.090515,567.650085 382.168640,571.412415 379.304352,568.758423 
	C376.322662,565.995728 379.967133,563.833679 381.647278,561.789856 
	C395.625244,544.786072 414.996521,537.069641 435.183197,530.768433 
	C435.923462,530.537354 436.866272,530.813965 437.522186,529.597656 
	C430.482361,527.341858 423.366272,526.535339 416.077850,526.399353 
	C402.139557,526.139221 388.211548,523.750183 374.266846,526.063721 
	C365.607635,527.500366 357.810883,531.410522 350.138763,535.393066 
	C346.486420,537.288940 345.247437,541.246826 345.165619,545.211548 
	C345.092987,548.731262 347.486481,549.443054 350.613647,549.325500 
	C359.792084,548.980042 368.885590,549.840027 377.867157,551.784790 
	C379.003601,552.030884 380.119415,552.388306 381.226196,552.750854 
	C382.618988,553.207275 383.652924,554.065369 383.302704,555.669189 
	C382.996307,557.072205 381.728882,557.348450 380.530029,557.244629 
	C377.216461,556.957947 373.907318,556.601196 370.605957,556.194824 
	C354.077057,554.160767 337.741730,554.271179 321.913574,560.391602 
	C312.583679,563.999390 305.088470,569.650452 300.530609,578.839783 
	C298.878998,582.169678 298.998474,585.056519 300.919739,588.235352 
	C306.514557,597.492371 315.702606,601.813293 324.888123,606.270813 
	C336.128296,611.725403 347.858276,613.549072 360.214111,611.809631 
	C364.976593,611.139160 365.297852,612.359741 364.123016,616.984375 
	C359.402557,635.565735 359.599792,653.589417 371.782562,669.788757 
	C376.813568,676.478577 384.261230,678.919250 391.811340,681.202271 
	C398.824341,683.322876 405.807037,685.544250 412.826752,687.642090 
	C423.219910,690.748108 433.816956,689.827759 444.407684,689.191406 
	C447.179565,689.024902 451.556946,686.988098 452.210815,690.714722 
	C452.997955,695.200806 447.841461,694.666809 445.194366,694.805603 
	C432.149048,695.489624 419.081970,697.014832 406.315430,691.883484 
	C397.535828,688.354675 388.247925,686.106750 379.264374,683.058777 
	C376.828339,682.232300 375.058594,682.943909 373.221832,684.162842 
	C361.484161,691.952148 355.677429,703.431458 353.354523,716.871155 
	C352.169464,723.727417 350.909332,730.684082 353.921692,737.536499 
	C354.663391,739.223816 353.797699,741.211365 351.787018,741.281555 
	C348.774841,741.386597 347.888214,743.468445 346.857788,745.526184 
	C344.250793,750.732605 341.759674,755.962646 339.965698,761.555725 
	C337.291718,769.892090 338.868774,777.940796 340.607269,786.096130 
	C341.319275,789.436218 343.409668,791.093323 346.336945,792.342407 
	C359.419281,797.924866 371.648499,804.910400 382.218231,814.566650 
	C382.823181,815.119324 383.567993,815.942261 384.239929,815.934875 
	C394.723999,815.819641 404.846375,819.327576 415.377625,818.902588 
	C420.217834,818.707336 424.883026,818.315491 429.630280,817.009094 
	C441.797302,813.661011 454.195740,811.134277 465.530823,805.237671 
	C467.313049,804.310608 469.711243,802.584290 471.124969,805.502930 
	C472.546387,808.437561 470.024872,809.512451 467.905212,810.649658 
	C454.249054,817.975891 439.078339,820.566040 424.354431,824.505371 
	C417.787933,826.262146 410.938263,825.421936 404.527649,823.914917 
	C389.657104,820.419373 375.247345,823.341980 360.761597,825.863403 
	C346.981506,828.261902 333.439972,828.115479 319.791046,824.396362 
	C304.256836,820.163574 288.519531,816.654419 272.812042,813.088318 
	C264.984344,811.311218 259.094788,805.786438 251.788055,802.964600 
	C246.875336,801.067322 242.382858,797.970703 238.240051,794.557983 
	C232.581665,789.896606 226.280075,788.806641 219.144302,790.495911 
	C211.059586,792.409851 202.961212,790.602722 194.830872,790.086426 
	C179.597702,789.119019 165.155914,784.781311 150.575607,780.979309 
	C140.606506,778.379761 132.362732,772.458984 125.750343,764.916260 
	C117.821022,755.871399 109.097771,747.733643 100.355766,739.558167 
	C98.295654,737.631592 96.303444,735.566345 94.625618,733.308105 
	C85.048050,720.417542 72.676720,710.724854 59.394989,702.006531 
	C54.403580,698.730103 49.151283,697.271973 43.271084,698.591187 
	C41.328373,699.027039 39.358105,699.184387 38.655876,696.981323 
	C37.835278,694.406860 39.969032,693.544250 41.868149,692.779846 
	C55.361214,687.349121 69.104881,684.472595 83.752373,687.443787 
	C94.861259,689.697205 106.334946,688.660950 117.536125,690.706848 
	C125.688576,692.195801 133.414337,694.344299 140.196716,699.270203 
	C141.510971,700.224670 142.893723,701.189819 144.903336,700.992859 
	C144.409317,696.989807 140.967285,694.919739 139.054504,691.982910 
	C127.939034,674.916077 120.852882,655.969849 114.954887,636.817627 
	C112.156319,627.730042 106.830994,622.000000 100.739708,615.944702 
	C87.445229,602.728760 77.186752,587.323303 66.976921,571.636169 
	C60.211967,561.242065 56.091866,549.981018 51.429428,538.949951 
	C47.534069,529.733704 44.237282,520.081299 41.187176,510.414062 
	C37.197540,497.769043 36.427231,484.653473 33.795910,471.837738 
	C31.162807,459.013336 31.428846,445.766266 32.052246,432.585846 
	C32.516235,422.775848 33.076324,412.983856 34.769993,403.348724 
	C36.573761,393.087219 37.863354,382.623322 42.617996,373.084045 
	C43.499142,371.316193 44.293674,369.396301 44.585781,367.464569 
	C45.383232,362.190918 46.336117,361.606689 51.558121,362.756836 
	C62.409523,365.146912 68.839844,373.149536 76.029976,380.673431 
	C87.591621,392.771759 91.777931,408.207153 96.964622,423.221924 
	C103.794548,442.993622 108.051826,463.458405 112.505424,484.260834 
	C116.365723,469.235260 120.383530,454.659729 125.153610,440.289154 
	C129.572968,426.975159 137.732986,415.765411 144.859512,403.960999 
	C153.119812,390.278534 161.728821,376.833130 172.799301,365.195740 
	C174.762177,363.132355 174.288696,361.841797 173.128174,359.629364 
	C166.031754,346.100586 161.077805,331.157715 163.437576,316.416290 
	C167.764236,289.387634 173.916412,262.438721 191.650116,239.690277 
M63.948338,375.536255 
	C60.709419,372.920532 57.478989,370.383942 53.410782,368.998016 
	C50.531902,368.017212 49.081215,368.681671 48.135925,371.504822 
	C46.137302,377.473785 43.927513,383.298706 42.603592,389.554718 
	C38.450340,409.180603 36.918972,428.921204 37.149708,448.956818 
	C37.323311,464.031281 40.853249,478.558044 42.832024,493.330750 
	C43.996399,502.023438 45.972534,510.746155 49.710972,518.647034 
	C53.271721,526.172485 55.832321,534.154663 58.437901,541.838196 
	C62.628803,554.196655 69.648918,564.704163 75.692856,575.886475 
	C80.467140,584.719788 87.049477,592.315247 92.998932,600.292603 
	C97.844551,606.789917 103.780884,612.601562 110.138809,617.877930 
	C112.779770,610.071655 110.872971,602.864380 109.107765,595.867004 
	C102.677475,570.377014 105.250099,544.781921 107.228210,519.104980 
	C108.009468,508.963776 113.515800,498.633179 106.953751,488.515656 
	C106.870857,488.387909 106.894646,488.191345 106.867210,488.027161 
	C103.278427,466.551819 98.163132,445.449402 91.351234,424.766052 
	C89.533051,419.245392 87.540710,413.782043 85.725952,408.260284 
	C81.558823,395.581024 72.798904,385.952179 63.948338,375.536255 
M272.858063,386.609863 
	C276.221649,385.665405 279.535675,384.204865 282.958405,383.876160 
	C292.132233,382.995239 297.128845,376.994171 301.837494,370.048676 
	C308.214569,360.642120 305.830048,350.953827 295.562592,346.615570 
	C290.621368,344.527771 285.395386,344.516418 280.383453,345.992828 
	C273.507141,348.018402 266.880829,347.042297 260.195648,345.405518 
	C258.588379,345.012054 257.281769,344.128052 257.416870,342.388245 
	C257.578247,340.310425 259.256073,339.708588 261.064270,339.851715 
	C263.049164,340.008759 265.023895,340.364563 266.986176,340.725433 
	C280.652344,343.238770 293.149292,335.249298 296.368469,321.822479 
	C296.707642,320.407684 296.520416,318.853638 296.491730,317.365845 
	C296.324280,308.678986 285.459442,304.693848 278.358673,304.579102 
	C276.675293,304.551880 274.855255,305.034027 273.929138,303.248444 
	C273.027435,301.509857 274.705841,300.628967 275.636993,299.506897 
	C280.010468,294.236755 280.400391,280.710205 275.836090,276.613373 
	C269.648438,271.059448 262.730774,266.813293 253.754181,268.181488 
	C242.559204,269.887817 231.267258,271.505035 220.947281,276.334015 
	C211.581360,280.716553 203.287842,286.365326 197.602173,295.817322 
	C192.100571,304.963318 188.851517,314.588715 185.719681,324.666443 
	C182.083008,336.368622 183.369736,347.686432 184.515549,359.233704 
	C184.837204,362.474945 186.703278,365.045380 189.331314,367.127899 
	C194.265518,371.037842 200.224777,372.830536 205.829132,375.319031 
	C215.883514,379.783539 226.106293,384.003204 237.066544,385.546814 
	C248.624847,387.174622 260.313202,386.875641 272.858063,386.609863 
M159.157471,703.300659 
	C160.992035,709.032837 163.241714,714.548462 166.994980,719.359070 
	C176.205750,731.164429 187.120270,741.505737 196.015823,753.620422 
	C199.452194,758.300415 204.548630,761.761353 208.889114,765.778076 
	C212.478561,754.460876 213.360107,743.283691 212.603836,731.938782 
	C212.438065,729.451965 212.059158,726.943420 212.229538,724.475952 
	C213.470520,706.505005 212.433472,688.596619 209.400970,670.926819 
	C205.924637,650.671082 201.835358,630.528320 196.752350,610.557922 
	C192.127167,592.386230 184.569046,575.793884 174.561325,560.147278 
	C173.651367,558.724609 173.058456,556.830444 170.567566,556.145081 
	C170.221909,561.599854 169.943161,566.844666 169.547501,572.080566 
	C168.446045,586.656738 166.878159,601.212341 166.292313,615.808167 
	C165.788544,628.358704 163.205902,640.589417 160.515945,652.638550 
	C156.785919,669.346558 156.087067,685.786316 159.157471,703.300659 
M97.852287,695.037048 
	C84.706841,694.380615 71.617027,690.256592 58.207336,694.196350 
	C70.809280,701.387268 81.196030,710.941528 91.639374,720.452454 
	C96.248863,724.650391 98.790962,730.483948 103.445168,734.613342 
	C112.895966,742.998840 121.980591,751.699707 130.294937,761.295715 
	C135.940125,767.811157 143.206528,772.873169 151.798737,775.236572 
	C166.682098,779.330444 181.603851,783.258972 197.100739,784.405579 
	C204.954041,784.986572 212.827240,787.141968 221.010437,783.608459 
	C219.912781,782.579224 219.165085,781.698120 218.252472,781.048767 
	C198.185287,766.769592 183.840027,746.967285 167.657669,728.917725 
	C162.248260,722.884155 158.848022,714.971130 151.389877,710.855957 
	C144.850708,707.247925 138.283508,703.650146 131.515335,700.507324 
	C121.160065,695.698792 109.998260,695.101013 97.852287,695.037048 
M286.359161,671.845154 
	C288.244049,662.329651 286.507660,652.875977 285.932281,643.044983 
	C277.280060,653.322266 267.238861,661.830200 258.539429,671.684204 
	C254.410492,676.361206 249.400101,680.299622 245.246140,685.113464 
	C235.824051,696.032288 230.863373,709.379761 224.346344,721.895691 
	C220.282608,729.699951 217.216461,737.504028 218.740417,746.674194 
	C219.254501,749.767578 217.841461,753.209106 217.168640,756.462524 
	C216.671890,758.864563 215.693665,761.183044 216.098999,764.402405 
	C255.384064,745.598694 276.597534,713.618896 286.359161,671.845154 
M268.373901,805.297241 
	C270.619232,807.039307 273.428894,806.790710 275.979492,807.458435 
	C290.449463,811.246643 305.298004,813.805359 319.518097,818.196838 
	C338.437653,824.039673 356.506470,820.411377 374.925354,817.355347 
	C374.855530,815.187927 373.410278,814.437256 372.234924,813.642883 
	C359.925171,805.323486 346.929626,798.267029 333.138306,792.714539 
	C307.414551,782.358215 280.379639,781.142578 253.160736,781.428345 
	C247.472183,781.488037 242.258224,783.684753 236.396271,786.272888 
	C240.659241,789.203552 244.378860,791.659790 247.990341,794.265869 
	C254.110886,798.682556 261.661865,800.403625 268.373901,805.297241 
M346.154236,731.171631 
	C346.046082,717.514038 348.952301,704.627319 356.746155,693.182495 
	C340.096893,684.809814 340.096893,684.809814 336.165222,686.738708 
	C338.630829,690.910400 336.467163,691.850647 332.827087,691.016174 
	C327.608551,689.819824 324.051575,692.230530 320.515747,695.438293 
	C324.963654,700.233093 325.008514,701.265259 321.130890,702.162415 
	C316.826813,703.158325 315.727966,705.632141 318.793701,708.934143 
	C322.099915,712.495239 320.991394,714.322998 316.665527,715.924194 
	C319.534607,718.447510 316.997955,721.368958 318.035583,724.094604 
	C321.627594,733.529968 337.549713,738.052734 346.154236,731.171631 
M171.349365,299.635223 
	C171.409897,301.247375 170.825958,302.915375 171.719330,304.472656 
	C190.737640,295.884796 209.590500,262.004944 206.822220,234.783310 
	C201.851089,237.482834 197.326355,240.374710 194.122482,245.046341 
	C182.885056,261.431702 175.480286,279.423248 171.349365,299.635223 
M199.140381,429.302277 
	C206.386734,426.462280 212.737732,428.877014 218.956543,432.533600 
	C222.150131,434.411346 226.906021,433.302277 228.167877,430.645447 
	C229.473709,427.896057 227.149155,423.889954 223.330872,422.610901 
	C209.984253,418.140137 190.842697,425.735046 182.065720,438.322601 
	C187.732269,435.308838 193.076157,432.466675 199.140381,429.302277 
M257.436035,262.206757 
	C261.454010,262.464752 265.660950,262.805725 268.884521,265.199280 
	C274.017029,269.010284 277.264343,266.178040 280.967316,262.995148 
	C264.562714,253.948898 221.091232,259.732452 209.952881,275.955658 
	C224.359909,266.732208 240.386063,264.178558 257.436035,262.206757 
M181.194962,321.717346 
	C181.948975,318.090576 182.703003,314.463837 183.457031,310.837067 
	C179.812225,319.962280 174.849075,328.554199 173.200912,338.337982 
	C172.061478,345.101898 174.518585,350.860596 178.263077,356.320953 
	C177.743210,350.690796 177.739700,345.102631 177.516663,339.523865 
	C177.275726,333.496704 179.381546,328.086487 181.194962,321.717346 
M172.946152,321.578918 
	C174.662445,317.596252 176.519257,313.658173 177.428833,308.971039 
	C168.416672,313.210632 166.971939,317.318726 170.179077,328.936432 
	C171.079819,326.519775 171.868835,324.402863 172.946152,321.578918 
z"/>
<path fill="#000000" opacity="1.000000" stroke="none" 
	d="
M560.033325,751.030396 
	C565.533386,730.095520 561.719421,710.966492 549.969238,693.701843 
	C545.833496,687.625122 540.247192,681.294128 530.847412,684.833618 
	C529.290771,685.419739 527.787842,684.767578 527.232178,683.067749 
	C526.645996,681.274536 527.874756,680.239746 529.275269,679.553589 
	C530.306335,679.048401 531.446411,678.649231 532.578918,678.484680 
	C550.458618,675.885376 564.244873,655.384766 564.141418,639.252014 
	C564.030151,621.900208 559.916443,606.733826 547.803772,594.069336 
	C547.004211,593.233276 546.308228,592.276367 545.687012,591.297546 
	C545.016418,590.241028 544.884460,589.089355 545.817627,588.074463 
	C546.801331,587.004578 547.971741,587.248840 548.988831,587.925110 
	C550.089233,588.656860 551.161011,589.490601 552.065247,590.449646 
	C569.481323,608.922363 574.225708,630.564636 567.217163,654.647095 
	C564.511719,663.943420 558.420288,671.363953 550.373657,676.979370 
	C549.419617,677.645081 548.488403,678.349304 547.595520,679.094238 
	C547.227844,679.401001 546.989319,679.862549 546.716797,680.221191 
	C546.537903,682.041382 547.782532,683.135376 548.841919,684.040161 
	C561.922363,695.212036 566.364502,710.815491 568.270203,726.595947 
	C570.056519,741.388855 566.548645,755.979614 558.846313,769.292908 
	C550.666443,783.431641 537.928467,791.838379 524.011658,799.352234 
	C513.862061,804.832092 503.179688,807.930481 492.013580,810.043274 
	C486.396362,811.106079 481.097595,810.343262 475.881409,808.306580 
	C474.096680,807.609741 472.241760,806.590515 472.909454,804.387695 
	C473.566223,802.220947 475.545624,802.928101 477.165588,803.355103 
	C490.418304,806.848511 502.413696,802.130676 514.333618,797.457153 
	C525.257263,793.174377 534.626587,786.306763 543.811829,779.119995 
	C549.164001,774.932373 551.883118,769.012268 555.067566,763.434692 
	C557.189331,759.718323 558.329224,755.441406 560.033325,751.030396 
z"/>
<path fill="#000000" opacity="1.000000" stroke="none" 
	d="
M619.536743,441.881042 
	C616.043579,434.074677 609.909729,430.962158 602.118958,430.115204 
	C598.042297,429.671997 596.776062,427.243042 598.466431,423.412323 
	C599.267212,421.597473 600.313477,419.865662 601.432983,418.221893 
	C603.968811,414.498535 606.174744,410.676208 607.522217,406.300781 
	C608.720764,402.408508 611.457886,401.778290 613.503418,404.960297 
	C615.953308,408.771301 619.418701,409.530670 623.330933,409.540405 
	C627.739929,409.551331 628.493164,411.669800 627.073181,415.335785 
	C625.693237,418.898590 624.218567,422.431213 623.009766,426.051971 
	C621.866882,429.475372 622.021545,432.822693 623.855957,436.143585 
	C626.108704,440.221771 625.074463,441.622864 619.536743,441.881042 
M619.458557,418.452087 
	C619.901001,417.009003 620.568420,415.409241 618.231934,415.058472 
	C615.784851,414.691132 613.066223,411.762451 610.967102,414.432648 
	C608.698608,417.318359 606.122498,420.225525 604.980347,423.891541 
	C615.042786,429.355408 615.184082,429.309784 618.987061,419.555481 
	C619.046997,419.401855 619.112854,419.250519 619.458557,418.452087 
z"/>
<path fill="#000000" opacity="1.000000" stroke="none" 
	d="
M456.165466,602.215698 
	C459.249695,603.518799 460.846405,605.898438 462.814423,607.902710 
	C466.759857,611.920898 466.520233,615.919250 463.549255,620.393799 
	C460.219818,625.408264 455.478302,627.965515 450.727448,626.819031 
	C443.317047,625.030701 439.687408,619.366760 441.167328,611.900818 
	C442.618744,604.578674 447.877930,601.038330 456.165466,602.215698 
z"/>
<path fill="#000000" opacity="1.000000" stroke="none" 
	d="
M539.007874,585.913574 
	C544.903442,591.898254 543.937622,600.124207 537.208313,604.228455 
	C533.311462,606.605103 529.026611,606.075928 525.919922,602.834412 
	C521.379639,598.097107 520.651978,592.262207 524.010559,587.524170 
	C527.095886,583.171570 530.902710,582.047241 535.583252,584.141296 
	C536.638977,584.613708 537.649048,585.188232 539.007874,585.913574 
z"/>
<path fill="#000000" opacity="1.000000" stroke="none" 
	d="
M335.731506,335.151306 
	C337.534058,339.437439 334.055969,341.871460 332.765045,344.926758 
	C331.580444,347.730469 331.629303,351.971344 328.472839,352.921997 
	C324.858063,354.010620 323.701416,349.500946 321.294708,347.674072 
	C319.237061,346.112091 316.868317,345.411652 314.576538,344.451477 
	C311.499512,343.162384 310.521271,340.471039 312.005280,337.952545 
	C314.699554,333.380188 316.785034,328.421753 320.274933,324.311981 
	C322.303558,321.923035 324.261871,321.598602 325.642883,324.580261 
	C327.782837,329.200439 331.658020,331.992432 335.731506,335.151306 
M327.617859,343.478394 
	C330.544495,337.479248 329.501312,335.099915 321.830566,330.892395 
	C320.118561,333.796997 318.401154,336.710785 315.957886,340.856110 
	C321.139191,339.628265 322.948120,344.971649 327.617859,343.478394 
z"/>
<path fill="#000000" opacity="1.000000" stroke="none" 
	d="
M497.002869,319.502747 
	C491.757172,315.771637 490.570984,310.162598 493.578430,304.948578 
	C495.907166,300.911224 501.022766,299.395874 505.833435,301.318420 
	C510.609222,303.227020 512.359924,306.403229 511.493805,311.587738 
	C510.577301,317.074097 507.289276,320.239990 502.297028,320.247620 
	C500.659210,320.250122 499.020752,319.866547 497.002869,319.502747 
M505.631256,308.928558 
	C504.583954,306.498566 502.837067,305.770813 500.547058,307.126251 
	C498.778809,308.172760 497.589722,309.753906 497.839752,311.977234 
	C498.038605,313.744781 499.283569,314.474365 500.906738,314.538239 
	C503.612122,314.644714 505.198273,313.294861 505.638977,310.621216 
	C505.691772,310.300934 505.678162,309.969696 505.631256,308.928558 
z"/>
<path fill="#000000" opacity="1.000000" stroke="none" 
	d="
M620.851196,478.602814 
	C620.314087,472.733673 621.833740,468.371185 627.301941,466.122467 
	C631.604309,464.353210 636.011902,465.585388 638.606812,469.474854 
	C641.230713,473.407684 640.978821,477.310242 637.899658,480.877228 
	C632.204651,487.474457 623.897522,486.535217 620.851196,478.602814 
M632.090149,477.875092 
	C633.940857,476.647980 635.190247,475.202820 633.612915,472.951111 
	C632.286438,471.057495 630.598022,471.148132 628.810059,472.263031 
	C627.125427,473.313568 625.919250,474.760590 626.554810,476.808014 
	C627.405029,479.546509 629.475708,478.938019 632.090149,477.875092 
z"/>
<path fill="#000000" opacity="1.000000" stroke="none" 
	d="
M517.750183,606.941284 
	C521.070007,609.773376 522.531250,612.513733 519.129883,615.944336 
	C517.828247,617.257141 518.623718,618.738525 519.305420,620.075562 
	C520.506104,622.430603 520.544495,624.855774 519.724182,627.295227 
	C519.219910,628.794678 518.248169,630.055359 516.482544,629.746948 
	C514.783325,629.450134 513.736877,627.946106 514.177307,626.449097 
	C515.597717,621.621948 513.397522,619.459045 509.090515,618.103577 
	C506.988953,617.442078 505.542175,615.599426 505.508209,613.183716 
	C505.465393,610.138794 507.473938,608.375916 509.859467,607.039246 
	C512.284363,605.680542 514.837952,605.269165 517.750183,606.941284 
z"/>
<path fill="#000000" opacity="1.000000" stroke="none" 
	d="
M529.922852,317.116455 
	C531.406738,321.414917 530.447571,324.813568 526.974609,327.003510 
	C523.430176,329.238495 519.895203,327.695343 516.669556,325.859894 
	C514.240540,324.477753 514.186951,322.046570 514.858032,319.701752 
	C515.720276,316.688934 517.366760,314.161499 520.798096,313.786285 
	C524.165894,313.418060 527.471375,313.662506 529.922852,317.116455 
z"/>
<path fill="#000000" opacity="1.000000" stroke="none" 
	d="
M389.721863,268.780151 
	C390.990753,276.871582 385.699066,282.932831 379.671936,280.785095 
	C376.471008,279.644470 374.198761,277.361023 374.013794,273.868134 
	C373.793091,269.700439 376.232147,267.068604 379.955811,265.571136 
	C383.874420,263.995331 387.085602,264.954163 389.721863,268.780151 
M381.601196,275.101440 
	C383.572205,274.630737 385.044159,273.613525 383.942444,271.443878 
	C383.393707,270.363251 381.891754,270.550018 380.888702,271.260590 
	C379.132416,272.504791 379.021332,273.807159 381.601196,275.101440 
z"/>
<path fill="#000000" opacity="1.000000" stroke="none" 
	d="
M339.765869,284.413422 
	C336.578949,289.238861 331.822174,290.379181 328.317871,287.496582 
	C325.016266,284.780731 324.772095,278.098969 327.922394,274.881500 
	C330.653625,272.092041 333.633209,272.430511 336.339722,274.773529 
	C339.097351,277.160767 340.609650,280.224030 339.765869,284.413422 
z"/>
<path fill="#000000" opacity="1.000000" stroke="none" 
	d="
M128.562485,336.666565 
	C133.316650,332.201569 139.764801,333.134186 142.464127,338.403290 
	C143.818527,341.047089 143.796387,343.880157 142.324844,346.477753 
	C140.859146,349.065002 138.378708,348.922546 135.774017,348.655304 
	C126.618919,347.715820 124.775620,344.898804 128.562485,336.666565 
M133.217651,343.655273 
	C134.961761,343.590149 136.990540,344.495483 138.161682,342.440186 
	C138.393204,342.033905 138.106293,341.098450 137.755386,340.638000 
	C136.711899,339.268616 135.162170,338.972473 133.734787,339.737610 
	C132.317734,340.497192 130.561127,341.503235 133.217651,343.655273 
z"/>
<path fill="#000000" opacity="1.000000" stroke="none" 
	d="
M408.786346,286.062439 
	C410.695343,281.157166 414.788666,278.835175 418.396393,280.333069 
	C421.500946,281.621979 422.973816,284.212769 422.882751,287.419525 
	C422.799805,290.340118 421.060638,292.443817 418.161041,293.088318 
	C415.128510,293.762390 412.167297,293.550415 410.161438,290.646484 
	C409.303558,289.404572 408.776367,288.013123 408.786346,286.062439 
z"/>
<path fill="#000000" opacity="1.000000" stroke="none" 
	d="
M362.529877,593.215393 
	C361.797882,590.764038 358.896301,588.890869 360.476379,586.669434 
	C362.300873,584.104248 365.023468,586.292114 367.350800,586.631714 
	C369.173737,586.897644 371.105804,587.139404 371.712524,589.280884 
	C372.393555,591.684631 369.339325,591.706848 368.792755,593.546021 
	C369.225983,594.877563 369.847046,596.254883 370.103424,597.697083 
	C370.503113,599.945374 369.631378,601.765808 367.269989,602.155945 
	C364.857513,602.554504 362.163391,603.009705 360.520599,600.442993 
	C359.628113,599.048645 360.502045,597.828003 361.779968,597.170715 
	C363.577118,596.246460 363.603149,595.045349 362.529877,593.215393 
z"/>
<path fill="#000000" opacity="1.000000" stroke="none" 
	d="
M414.155457,751.563354 
	C416.994904,754.094299 415.888580,755.667236 413.184479,756.155273 
	C408.494812,757.001770 404.366852,755.599304 401.154205,751.966370 
	C400.267334,750.963562 399.473480,749.729370 400.509552,748.421631 
	C401.547607,747.111389 402.906891,747.461243 404.024963,748.331177 
	C406.916656,750.580811 410.410858,750.784180 414.155457,751.563354 
z"/>
<path fill="#000000" opacity="1.000000" stroke="none" 
	d="
M378.193604,577.111694 
	C380.223846,577.286438 381.434479,578.014771 381.330933,579.910645 
	C381.244995,581.485474 380.027893,582.114380 378.749176,582.631287 
	C375.944519,583.764954 369.013916,581.510925 367.461182,578.960999 
	C366.798737,577.873230 366.600983,576.770508 367.506317,575.743530 
	C368.407227,574.721558 369.555420,574.772461 370.718231,575.227234 
	C373.024231,576.128845 375.191803,577.537048 378.193604,577.111694 
z"/>
<path fill="#000000" opacity="1.000000" stroke="none" 
	d="
M405.558838,740.294800 
	C407.110260,741.008728 408.341980,741.520386 409.526581,742.124268 
	C411.188751,742.971619 413.142609,743.944336 412.041565,746.208313 
	C410.989227,748.372131 408.905243,747.586914 407.185150,746.999573 
	C405.775665,746.518188 404.393219,745.887024 403.104492,745.139893 
	C401.346558,744.120544 398.314728,743.505005 399.490479,740.723694 
	C400.646271,737.989624 403.213745,739.737366 405.558838,740.294800 
z"/>
<path fill="#000000" opacity="1.000000" stroke="none" 
	d="
M406.416748,731.484558 
	C408.244080,732.654724 409.391937,733.911194 408.088043,735.691711 
	C407.068665,737.083862 405.470367,736.843567 404.015045,736.295166 
	C401.518311,735.354248 399.242126,734.078491 397.717407,731.778259 
	C396.952545,730.624390 396.418091,729.364136 397.528900,728.188171 
	C398.643219,727.008606 399.877502,727.440674 401.085510,728.219727 
	C402.735291,729.283691 404.428040,730.281189 406.416748,731.484558 
z"/>
<path fill="#000000" opacity="1.000000" stroke="none" 
	d="
M436.016418,639.065918 
	C436.516296,637.441467 436.906342,636.166382 437.468384,634.972290 
	C438.002655,633.837219 438.959106,633.069885 440.274414,633.485229 
	C441.525238,633.880127 442.049011,634.966309 441.935791,636.238831 
	C441.848145,637.223755 441.549988,638.188110 441.385803,639.168396 
	C441.097076,640.892151 441.546295,643.237366 438.911774,643.318237 
	C436.465881,643.393311 436.224182,641.308350 436.016418,639.065918 
z"/>
<path fill="#000000" opacity="1.000000" stroke="none" 
	d="
M545.367126,615.971619 
	C544.467102,615.225525 543.726318,614.671875 543.481506,613.950012 
	C542.779724,611.880798 540.831848,609.590759 543.330139,607.657654 
	C545.030762,606.341797 546.538208,607.537109 547.234314,609.253784 
	C548.263489,611.791992 549.821045,614.593567 545.367126,615.971619 
z"/>
<path fill="#000000" opacity="1.000000" stroke="none" 
	d="
M444.975525,635.173828 
	C445.429169,633.217590 446.258972,631.609070 448.038513,632.623291 
	C450.305328,633.915222 450.270142,636.510132 450.286316,638.842957 
	C450.295044,640.097717 449.794312,641.237793 448.373749,641.315857 
	C446.125580,641.439331 445.799713,639.646362 445.425903,638.003296 
	C445.242249,637.195984 445.112122,636.376465 444.975525,635.173828 
z"/>
<path fill="#000000" opacity="1.000000" stroke="none" 
	d="
M549.436340,609.341614 
	C548.852966,607.473267 548.466003,605.667908 550.435730,605.275208 
	C552.700256,604.823853 553.526245,606.856934 554.097351,608.607422 
	C554.559875,610.024963 554.965515,611.878601 553.246643,612.584290 
	C550.754822,613.607483 550.265381,611.358765 549.436340,609.341614 
z"/>
</svg>