<svg version="1.1" id="Layer_1" xmlns="http://www.w3.org/2000/svg" xmlns:xlink="http://www.w3.org/1999/xlink" x="0px" y="0px"
	 width="100%" viewBox="0 0 768 1024" enable-background="new 0 0 768 1024" xml:space="preserve">
<path fill="#000000" opacity="1.000000" stroke="none" 
	d="
M669.686646,587.900879 
	C677.585144,587.276978 682.929138,591.270752 686.893250,596.859192 
	C700.022949,615.368958 702.181335,635.145569 692.486938,655.854309 
	C688.438782,664.501770 683.330750,672.662842 676.440247,679.242615 
	C664.890503,690.271362 657.868103,703.868225 652.248169,718.440186 
	C645.107910,736.954712 638.939819,755.678955 636.202759,775.499451 
	C633.750427,793.258118 617.372620,815.980225 594.025940,818.814880 
	C583.152832,820.135071 574.530457,818.105286 560.559082,809.270020 
	C560.157288,809.938293 559.598328,810.767090 559.140625,811.648438 
	C557.849548,814.134583 553.133179,814.455078 553.890198,817.616211 
	C555.022888,822.346313 556.040771,827.341675 560.106873,830.960266 
	C575.149414,844.347168 578.435547,876.305847 561.801270,894.237610 
	C560.360474,895.790894 558.988464,897.594543 556.222107,897.418213 
	C554.982117,894.630249 557.101379,892.711182 558.212646,890.748535 
	C562.277222,883.569397 565.186401,876.052551 566.385010,867.840393 
	C567.752014,858.474182 563.614929,844.137634 557.177124,837.053650 
	C555.485840,837.857483 556.157776,840.684692 553.506042,841.031738 
	C551.699158,839.704163 551.932861,837.456177 551.754883,835.400879 
	C549.749756,812.237793 531.185791,795.247925 507.994720,795.268494 
	C505.365204,795.270874 501.241150,796.418640 501.138916,792.472107 
	C501.035065,788.462463 505.247589,788.823425 508.113403,788.794373 
	C524.196533,788.631042 536.984924,795.542419 547.399048,807.415405 
	C548.580383,808.762146 549.293640,810.580566 551.123535,811.280090 
	C556.092102,807.570679 557.000854,804.324707 554.546875,799.175110 
	C552.089722,794.018799 550.454712,788.607910 549.855774,782.933228 
	C549.657288,781.053406 549.095337,778.905945 551.095154,777.384766 
	C553.571899,777.403259 553.876770,779.455322 554.463135,781.079895 
	C555.536804,784.054565 556.345398,787.125427 557.431641,790.095032 
	C566.070740,813.711548 593.071594,820.614746 612.224182,804.108887 
	C622.316772,795.411072 629.051514,784.673523 630.632996,771.323242 
	C633.132324,750.224426 640.802917,730.713196 648.291870,711.112427 
	C653.659058,697.064819 661.761292,684.953613 672.207031,674.046753 
	C681.741699,664.091003 689.049072,652.378784 691.149414,638.374573 
	C693.244324,624.406433 689.970398,611.520691 681.180298,600.337341 
	C676.900696,594.892639 673.436707,593.854675 668.160889,595.641602 
	C668.856628,600.357178 672.532532,604.647827 670.833313,609.900513 
	C667.956177,610.060791 667.714966,607.598145 666.883789,606.025696 
	C664.148499,600.851135 661.331726,595.744568 657.124451,591.594177 
	C649.055786,583.634583 635.324280,581.641296 626.754333,587.194458 
	C627.413757,590.660767 631.815430,592.652405 630.868225,596.799866 
	C629.325012,597.738342 628.693665,596.397217 627.841797,595.773865 
	C626.902222,595.086426 626.063354,594.261597 625.126038,593.570679 
	C612.001465,583.895996 601.816162,585.544006 592.493347,598.922974 
	C583.280884,612.143677 578.941284,627.423584 574.352661,642.564087 
	C571.022400,653.552612 567.872070,664.603394 566.170471,676.001038 
	C566.024475,676.979004 565.685486,677.938293 565.349304,678.875122 
	C564.887390,680.162598 564.268005,681.505249 562.625732,681.296631 
	C561.085632,681.101074 560.533020,679.699158 560.233215,678.396973 
	C559.380554,674.692932 560.518372,671.102905 561.271973,667.566711 
	C564.050598,654.528870 567.567993,641.638733 572.078491,629.131531 
	C575.742432,618.971741 572.154663,611.292664 565.396545,604.815308 
	C557.106689,596.869873 546.739136,594.066467 535.363464,596.447815 
	C525.823975,598.444824 517.143494,609.322205 516.956360,619.020386 
	C516.904663,621.701721 518.674072,623.659302 519.836304,625.821899 
	C528.397644,641.753174 535.340393,658.313965 538.552734,676.188599 
	C546.039368,717.846741 533.066895,750.992920 496.814056,774.799805 
	C475.238892,788.968018 450.930298,795.853088 425.787201,800.125854 
	C397.391602,804.951416 368.803894,805.111511 340.119781,803.590881 
	C326.814667,802.885498 313.621857,801.186646 298.719788,799.802551 
	C301.841827,802.717346 304.075867,804.592896 306.047760,806.712280 
	C307.559113,808.336731 308.891785,810.513733 306.762970,812.409973 
	C304.717712,814.231812 303.158691,812.314087 301.713226,810.912781 
	C296.492126,805.851318 289.975098,801.713867 285.411896,796.619324 
	C274.999359,784.994629 261.079041,780.794434 247.955841,774.740967 
	C242.262833,772.114929 236.083679,770.493103 229.500534,772.031616 
	C216.979630,774.957886 212.321976,782.605103 215.888077,794.852600 
	C218.023407,802.186157 218.023392,802.186157 217.179276,806.219788 
	C211.659805,801.785583 210.531067,795.448059 208.200638,789.945923 
	C196.540604,791.038635 186.598999,801.186096 192.205322,814.367676 
	C194.497604,819.757324 196.795044,825.064148 200.564728,829.633972 
	C202.235901,831.659851 203.857330,833.822815 203.520279,837.654663 
	C196.133896,836.875671 193.836121,830.661865 189.982010,825.912598 
	C187.938461,833.355896 190.781952,839.233765 194.416504,844.846558 
	C201.169205,855.274414 210.610275,862.368469 222.111893,866.877197 
	C229.108154,869.619751 236.271286,871.833618 243.581650,873.500610 
	C266.751526,878.783936 288.169006,887.881226 307.718597,901.554688 
	C319.044769,909.476501 331.392731,915.161865 345.774933,914.759216 
	C367.094391,914.162354 388.410095,893.260071 387.647186,873.418030 
	C387.533386,870.458313 386.716125,867.518188 386.133636,864.586975 
	C385.819885,863.008057 385.113190,861.465576 386.130890,859.571899 
	C389.895813,860.621765 390.715271,863.850891 391.871979,866.632690 
	C394.440674,872.810059 405.306305,878.306091 411.814392,876.691101 
	C414.677948,875.980591 415.117493,873.754944 415.664215,871.455383 
	C417.099091,865.420532 417.164612,865.325928 420.392181,863.183411 
	C421.871246,865.750061 421.115509,868.322388 420.691925,870.873718 
	C417.867920,887.884094 423.660370,900.868591 437.034668,907.041748 
	C442.860413,909.730774 449.142883,910.972351 455.516113,910.536133 
	C459.787323,910.243774 462.718262,911.534363 465.526672,914.692810 
	C474.309753,924.570618 484.755035,931.078796 498.701263,929.974731 
	C502.933167,929.639709 506.932861,928.935120 510.420868,926.290771 
	C512.026001,925.073792 513.966248,923.732300 515.605164,926.056030 
	C517.010620,928.049072 515.853699,929.900146 514.383118,931.399963 
	C511.418121,934.423706 507.459961,935.432190 503.528961,936.037720 
	C489.792542,938.153625 477.586487,934.749451 468.047760,924.430725 
	C463.628540,919.650269 459.696198,916.949524 452.374237,916.645691 
	C429.809875,915.709351 418.767578,905.258850 414.093506,882.921814 
	C406.602905,882.823181 399.293152,881.732422 393.737793,874.118164 
	C393.464600,889.185547 386.207977,899.666504 376.097595,908.265320 
	C360.755798,921.313354 343.338531,923.528870 324.576233,916.818054 
	C316.350250,913.875793 308.847504,909.516418 301.718506,904.586792 
	C283.335510,891.875183 262.876984,884.309326 241.308029,879.114746 
	C228.025055,875.915710 214.831879,872.181152 203.663376,863.675049 
	C199.000076,860.123535 194.890671,855.982605 191.064590,851.576355 
	C183.142670,842.453369 181.656723,832.034180 185.196030,820.710632 
	C185.889771,818.491028 186.505554,816.450867 185.913483,813.951843 
	C182.443680,799.307007 187.314529,789.522400 201.478989,784.688416 
	C206.864410,782.850525 210.120636,780.022766 212.442886,775.211182 
	C213.270615,773.496277 213.792694,772.285400 212.149597,770.871155 
	C209.090118,768.237793 206.748322,764.999512 204.544830,761.643311 
	C202.436844,758.432617 201.232422,754.792053 199.550537,750.730103 
	C188.799362,755.731567 177.458313,757.268921 166.114563,758.784790 
	C156.228104,760.106079 146.189056,760.352539 136.497299,763.055908 
	C134.971161,763.481628 133.496414,763.186340 132.487930,761.771301 
	C131.583542,760.502319 131.862762,759.221436 132.632294,758.036926 
	C140.249283,746.312195 142.245438,732.934631 143.483856,719.482239 
	C144.718887,706.066895 145.845825,692.655945 148.425781,678.965820 
	C145.761261,678.798645 143.894745,680.406799 141.776016,680.981995 
	C128.589371,684.561951 115.349152,683.677612 102.176765,681.169556 
	C97.185051,680.219116 95.180153,676.504639 96.102890,671.349304 
	C101.593872,640.670898 117.209053,615.594971 139.128952,594.070740 
	C141.125854,592.109924 143.569702,590.548035 145.973511,589.074036 
	C148.226074,587.692871 150.701111,586.674438 153.847015,585.115295 
	C142.430878,582.213623 131.535736,580.820740 120.436684,581.752014 
	C109.824402,582.642456 99.248558,583.959290 88.642326,584.931946 
	C77.878502,585.919006 71.103683,579.989136 69.872818,568.192200 
	C69.182289,561.573853 69.221748,554.911987 70.755592,548.313660 
	C74.327690,532.947144 84.005737,525.012756 99.899597,524.743347 
	C112.622459,524.527710 124.571617,528.266602 136.414932,532.272217 
	C142.717102,534.403748 148.917770,536.896118 155.004059,539.587952 
	C160.921829,542.205261 166.634979,545.285217 172.904816,548.393433 
	C172.318893,543.197998 169.275269,538.802795 169.601761,533.894958 
	C169.987549,528.095886 166.923996,524.725952 163.280670,520.596619 
	C150.583130,506.205200 142.960968,483.836700 161.511871,463.874084 
	C169.915894,454.830505 177.730515,445.172699 188.883087,439.309631 
	C198.908478,434.039154 208.949234,428.029541 221.500320,434.817230 
	C220.047394,427.411987 219.081604,420.930878 219.530212,414.270905 
	C220.684952,397.127655 228.345306,383.436066 241.251236,372.507355 
	C243.671036,370.458252 245.171677,368.357574 245.816513,365.174255 
	C248.067093,354.063873 255.034760,345.342285 261.146606,336.234222 
	C272.273102,319.653168 284.475067,304.099060 302.607971,294.458252 
	C310.135925,290.455841 317.836060,286.874664 326.389923,285.689148 
	C328.262909,285.429565 329.376465,284.685608 330.079956,282.910339 
	C341.887115,253.114258 363.002319,230.297012 386.066986,209.094910 
	C419.221924,178.617355 456.183533,153.859772 498.084473,136.960556 
	C516.386475,129.579102 535.182678,123.919350 555.303894,124.634087 
	C560.010498,124.801270 564.604919,125.552017 569.051575,126.966248 
	C584.269470,131.806137 591.810364,145.457016 588.768188,162.160385 
	C586.113586,176.736038 579.374451,189.493286 571.312866,201.642365 
	C555.224670,225.887848 534.742859,246.054764 511.602844,265.341400 
	C524.804993,261.602417 537.161438,258.968384 549.692261,257.288208 
	C578.514526,253.423553 607.448730,253.088196 636.461243,254.414993 
	C651.437439,255.099884 666.419128,255.463226 681.273621,257.706970 
	C690.684021,259.128387 699.991272,260.994080 708.771057,264.805359 
	C720.931885,270.084381 724.583679,278.403320 720.205200,291.134918 
	C713.666016,310.149170 701.874329,325.774261 686.241516,337.824402 
	C635.249207,377.130432 578.683716,404.775024 515.043762,416.873688 
	C510.959778,417.650085 506.806244,418.055634 502.693207,418.686737 
	C500.470032,419.027863 499.073273,419.932404 499.452026,422.657684 
	C502.812988,446.840240 493.695740,466.486755 477.087341,483.829315 
	C486.361053,488.451233 495.779449,493.163727 501.893585,502.193268 
	C502.791840,503.519806 503.978027,504.821838 503.586823,506.706757 
	C501.907654,507.597717 501.096497,506.172058 500.230438,505.355103 
	C485.181427,491.159637 466.540375,485.399445 446.642029,483.523193 
	C428.912231,481.851349 411.306519,483.045380 394.853668,491.037109 
	C387.716919,494.503632 381.122711,498.680054 377.461426,506.145813 
	C375.351807,510.447571 374.232483,514.878540 376.594177,519.917969 
	C380.735443,517.268372 383.143646,511.521210 390.011475,512.941406 
	C385.216797,521.166870 375.866028,527.647278 381.100250,538.686157 
	C383.386261,543.507385 388.306396,547.604370 393.813477,549.528625 
	C395.660431,546.107117 397.386414,542.558838 399.437012,539.209351 
	C401.501312,535.837524 403.895477,532.671448 407.858704,531.243591 
	C409.143738,533.039795 407.883545,534.042542 407.317261,535.132690 
	C406.473206,536.757629 405.467926,538.298279 404.608612,539.915894 
	C397.158722,553.940063 399.986511,559.190186 415.935059,560.618286 
	C426.546631,561.568481 436.936859,560.560486 446.682648,555.879089 
	C451.090668,553.761658 456.523193,554.867554 460.472534,551.032593 
	C461.641327,549.897705 463.655792,550.959412 465.110504,552.625244 
	C481.108795,570.945435 497.444244,588.987183 510.434509,609.696045 
	C510.680603,610.088257 511.155975,610.336670 512.018555,611.075500 
	C514.181641,604.959717 517.784485,600.071838 522.259399,595.774475 
	C523.487854,594.594788 523.541138,592.783325 523.799011,591.115356 
	C526.138550,575.982483 525.147644,561.234680 518.904053,547.058899 
	C518.503418,546.149231 518.125671,545.201416 517.938354,544.232483 
	C517.671814,542.853882 517.871582,541.509460 519.316650,540.820007 
	C520.707886,540.156189 521.958679,540.656067 522.937012,541.690918 
	C525.057373,543.933838 526.060181,546.807129 527.015808,549.636719 
	C531.255859,562.191162 532.813354,574.921204 529.221985,587.941162 
	C528.966370,588.867859 528.879395,589.841003 528.669861,591.046814 
	C550.247681,586.445435 567.431396,591.361572 577.754700,612.610962 
	C580.950378,606.054871 583.946167,599.579224 588.364136,593.942444 
	C596.114441,584.054199 605.063843,577.443176 618.428345,582.996521 
	C619.628418,583.495239 620.518311,583.266113 621.635925,582.551453 
	C635.091492,573.947021 653.306946,576.917297 663.422668,589.286072 
	C663.839050,589.795288 664.279297,590.284851 664.825562,590.919678 
	C666.369812,589.907654 667.835754,588.946960 669.686646,587.900879 
M238.566574,430.681030 
	C246.974350,439.298279 254.219116,448.831299 260.803558,458.887024 
	C262.043060,460.779999 262.839630,463.010773 266.104919,462.112976 
	C277.557800,458.963898 289.306824,457.791351 301.145203,457.230194 
	C320.454498,456.314972 339.471771,457.431244 357.496704,465.268127 
	C368.217773,469.929443 378.142731,476.083069 388.099487,482.160645 
	C390.017548,483.331421 391.768250,484.845062 394.506409,483.784821 
	C417.989044,474.692261 441.887360,474.129242 466.086395,480.574371 
	C467.875031,481.050751 469.361084,481.142426 471.085724,479.652100 
	C488.287567,464.787811 495.017059,445.401764 495.831085,423.365112 
	C495.946198,420.249268 494.766479,419.462006 491.619415,419.752319 
	C484.167664,420.439789 476.673065,420.690979 469.190857,420.998352 
	C467.555817,421.065521 465.864929,420.775970 464.263947,420.386719 
	C462.652740,419.994965 461.693665,418.826416 461.914856,417.061157 
	C462.114380,415.468964 463.299591,414.858612 464.729980,414.737549 
	C466.054993,414.625397 467.392700,414.668671 468.724365,414.628662 
	C496.643036,413.789246 524.083923,410.007324 550.872131,401.803406 
	C585.688782,391.140717 617.878845,374.878357 648.936890,356.188477 
	C665.105774,346.458466 680.675293,335.878082 693.540833,321.854492 
	C702.287170,312.320892 709.590149,301.801056 713.664612,289.393616 
	C717.086121,278.974854 715.047607,274.669556 705.031677,270.534180 
	C694.618042,266.234619 683.585876,264.554413 672.476379,263.332153 
	C656.235779,261.545349 639.910034,261.522491 623.608887,260.865997 
	C594.388550,259.689209 565.317688,260.758575 536.601990,266.380432 
	C490.272522,275.450714 451.779419,297.841339 422.343597,335.146790 
	C421.177429,336.624756 420.286255,338.657104 416.795593,338.526855 
	C419.861023,326.598724 428.467682,318.692657 435.797852,309.933350 
	C434.690033,309.015625 434.117706,308.394135 433.420502,307.985779 
	C419.704956,299.952698 405.207520,296.378662 389.360260,300.115204 
	C386.273865,300.842926 383.106903,302.210114 379.118347,300.551361 
	C382.204468,296.205627 386.444275,294.735718 390.694427,293.751953 
	C407.192139,289.933350 422.085510,294.309479 435.562775,303.750580 
	C439.122498,306.244202 441.109100,305.817047 444.039917,303.310120 
	C451.392242,297.021210 459.627106,291.926483 467.546539,286.396759 
	C477.627136,279.358002 489.315643,275.248352 499.012604,267.330780 
	C521.297424,249.135300 542.376099,229.849091 559.646057,206.728134 
	C570.174927,192.632126 579.321350,177.787674 582.348389,159.994003 
	C584.618835,146.647339 578.314636,136.662415 565.327942,133.015823 
	C557.971741,130.950256 550.497192,130.841599 543.031555,131.728485 
	C523.478271,134.051346 505.102264,140.443176 487.353241,148.677216 
	C450.467834,165.788956 417.410156,188.659744 387.704559,216.306961 
	C365.492950,236.979477 345.971313,259.855164 333.316711,287.843079 
	C331.998291,290.758942 329.798615,291.546509 327.099823,292.047974 
	C315.406525,294.220856 304.991089,299.270905 295.502197,306.305573 
	C281.301636,316.833313 271.702972,331.311554 261.936432,345.636810 
	C256.455841,353.675568 251.621429,361.996979 250.448044,371.913910 
	C250.214203,373.890228 249.174408,375.097870 247.498764,376.217010 
	C228.306992,389.034821 220.249557,415.157562 228.744507,436.695953 
	C230.630371,428.937592 232.317017,427.752838 238.566574,430.681030 
M479.850830,777.303589 
	C488.300568,773.255737 496.260651,768.397705 503.502686,762.456604 
	C525.223328,744.638000 535.501892,721.467346 534.353333,693.566101 
	C533.453857,671.715881 525.994385,651.637512 516.129822,632.276001 
	C502.378693,605.286133 482.596466,582.667419 464.103760,559.088867 
	C461.110962,555.273010 457.783417,556.352783 454.918243,558.372620 
	C443.968079,566.092163 431.605164,567.825073 418.759338,567.149719 
	C411.804047,566.783997 404.566284,566.139893 398.952454,561.397278 
	C396.239777,559.105530 393.353271,557.434814 390.334778,555.698364 
	C380.433014,550.002380 372.181030,543.039917 373.282074,529.938171 
	C373.357208,529.043945 372.763336,528.014954 372.278198,527.164001 
	C364.076935,512.779297 371.529114,499.069305 380.984619,491.775116 
	C382.480560,490.621063 384.572327,489.937012 385.083649,487.353882 
	C383.125214,485.918365 381.217468,484.299774 379.109375,483.008270 
	C352.559631,466.743134 323.800232,460.618835 292.930756,464.491425 
	C285.671356,465.402161 278.437408,466.550049 271.227173,467.794006 
	C269.512177,468.089905 266.384827,468.214508 267.636871,471.216858 
	C270.569458,478.249268 272.817749,485.476715 274.265717,493.358856 
	C290.805847,487.382660 307.504333,486.941284 324.093048,485.908173 
	C331.779846,485.429474 333.626556,487.159454 334.464020,494.681763 
	C335.760223,506.324341 335.112854,517.984863 334.169220,529.607239 
	C332.424286,551.098694 326.689728,571.211243 312.878326,588.345764 
	C305.744873,597.195618 297.538300,604.912903 288.100891,610.905396 
	C288.105103,613.007446 289.464569,613.927979 290.278015,615.127502 
	C304.600159,636.245911 312.348114,659.046692 308.292419,684.910461 
	C305.669739,701.635986 301.330017,717.851685 292.908112,732.650452 
	C288.961853,739.584717 283.476410,739.544556 280.311768,732.391418 
	C271.985413,713.571167 252.890869,709.620667 237.328949,699.376526 
	C234.004852,722.045166 219.943146,736.381897 203.166931,749.063171 
	C207.605698,754.701416 211.040405,760.421143 215.837296,765.103271 
	C218.254700,767.462952 220.638641,768.652649 224.275421,766.996643 
	C228.056625,765.274841 232.345551,764.838989 236.530899,765.565125 
	C254.661514,768.710632 270.365051,777.372192 285.181946,787.712891 
	C289.026031,790.395630 292.793854,792.134216 297.364075,792.739685 
	C330.786285,797.167297 364.285797,799.346069 397.993927,796.835205 
	C426.084595,794.742798 453.464386,789.740234 479.850830,777.303589 
M238.138672,530.704407 
	C236.909348,531.710999 235.849945,533.627991 233.960464,532.392456 
	C232.239380,531.267090 232.962311,529.409485 233.431610,527.819580 
	C234.580704,523.926758 236.709183,520.552124 239.082123,517.309265 
	C244.436371,509.992279 251.863785,505.197968 259.509613,500.742981 
	C269.062622,495.176758 269.094635,495.275360 265.656891,484.760376 
	C259.895660,467.138885 248.988129,452.808105 236.918884,438.949677 
	C234.692627,441.998779 235.863556,444.061066 237.584213,446.400360 
	C247.570236,459.976532 247.716309,478.983002 238.232681,492.863678 
	C236.465942,495.449554 233.415756,496.792145 232.336777,500.117279 
	C230.733673,505.057587 227.057785,508.620331 222.667480,511.182831 
	C217.842453,513.999023 212.616989,516.025208 209.415970,521.164551 
	C208.046326,523.363708 205.167450,524.278992 202.638031,525.194275 
	C196.300949,527.487427 189.766861,528.468872 183.028076,528.361145 
	C175.884415,528.246887 174.762268,529.401306 176.681091,536.529236 
	C179.315384,546.314941 182.038422,556.111023 190.603668,562.959839 
	C194.093460,565.750244 196.701172,569.567200 198.442993,573.812378 
	C199.082718,575.371460 199.892761,577.211548 198.286560,578.415894 
	C196.346313,579.870728 194.868240,578.116699 193.590439,576.888611 
	C192.397507,575.742004 191.378128,574.396912 190.387131,573.061462 
	C187.186783,568.748718 183.495468,564.906738 179.214630,561.682068 
	C157.300781,545.174744 132.394119,535.708069 105.508774,531.639771 
	C95.518272,530.128113 85.432831,531.725830 80.003052,542.110840 
	C75.173615,551.347717 75.041191,561.316956 77.330673,571.328247 
	C78.351151,575.790527 81.206627,578.239441 85.937943,578.003967 
	C89.592873,577.822083 93.261238,577.658569 96.887932,577.202820 
	C115.297020,574.889404 133.685074,573.392944 152.025772,577.738708 
	C165.168106,580.852600 177.323517,586.110535 187.874237,594.650452 
	C189.920578,596.306824 193.086243,597.897705 191.295822,602.217590 
	C180.840027,596.683960 171.196106,590.064392 159.844925,586.874756 
	C158.375305,590.073303 155.985291,591.795715 153.187546,593.041382 
	C148.080597,595.315186 143.829590,598.726624 139.968338,602.723755 
	C134.742371,608.133606 130.216034,614.094299 125.781342,620.144836 
	C115.104584,634.712036 107.399017,650.622742 103.725555,668.387817 
	C102.586891,673.894470 103.103729,675.008972 108.798225,675.397949 
	C115.934326,675.885376 123.111565,675.807068 130.272003,675.890198 
	C136.253586,675.959717 141.699066,674.026917 146.987930,671.378540 
	C149.679184,670.030945 151.472229,668.268555 152.402756,665.306763 
	C153.802338,660.852051 155.630890,656.509766 158.713623,652.907776 
	C162.744537,648.197998 166.853226,643.492737 173.947403,643.927429 
	C175.877365,644.045715 176.396851,642.373901 177.207092,641.223511 
	C183.261353,632.628174 189.003769,623.853394 192.426331,613.789490 
	C192.772705,612.771057 192.786377,611.381531 195.141022,611.078247 
	C194.828262,616.053772 193.651077,620.667969 191.267136,624.714233 
	C185.861023,633.889709 182.163925,644.154541 171.150177,649.308350 
	C165.039780,652.167786 161.662491,658.890503 159.211243,665.469238 
	C155.582367,675.208496 153.646973,685.323486 152.264648,695.569519 
	C150.374161,709.582092 150.246201,723.813293 147.271225,737.682007 
	C146.042801,743.408691 144.176712,748.998657 142.459457,755.157104 
	C152.099167,753.949646 161.154343,752.788452 170.216553,751.685059 
	C203.691589,747.609253 224.799301,728.467346 230.830811,696.884216 
	C231.283234,694.515076 230.953659,692.880432 229.546280,690.972595 
	C223.851120,683.252258 219.835266,674.688232 217.435852,665.390442 
	C216.908173,663.345581 216.044739,661.160767 218.706314,659.392151 
	C222.311783,661.693726 223.412827,665.744629 224.787415,669.273132 
	C231.063812,685.384338 242.096313,696.489258 257.983978,703.322571 
	C270.036133,708.506226 280.004456,716.419922 285.870941,728.640503 
	C285.966492,728.839600 286.444519,728.855042 286.791321,728.972168 
	C288.430054,728.159912 288.885040,726.427368 289.558990,724.985596 
	C297.038269,708.985352 301.666077,692.180176 302.613251,674.536621 
	C303.675690,654.747803 296.545532,637.329712 285.970123,621.086060 
	C283.695801,617.592651 281.898865,613.328979 275.608887,614.457825 
	C277.894073,611.038513 280.664764,609.736389 282.928986,607.947510 
	C300.468842,594.090210 315.353577,578.295166 322.257233,556.294434 
	C328.408783,536.690491 328.069977,516.560974 327.694946,496.395599 
	C327.637238,493.293152 325.677002,492.986084 323.284424,493.127716 
	C316.972168,493.501373 310.641907,493.675751 304.349457,494.259857 
	C277.302704,496.770630 253.859451,505.971741 238.138672,530.704407 
M238.587143,463.168915 
	C237.005142,453.027863 230.815460,447.055206 221.901688,442.364380 
	C214.071411,438.243713 207.218964,437.744415 199.204971,441.422333 
	C182.800964,448.950592 171.070557,461.550598 161.271744,475.983948 
	C153.224823,487.836853 158.534302,510.475647 170.382446,518.763367 
	C171.593628,519.610535 172.966599,520.429688 174.380554,520.750916 
	C184.257935,522.994873 193.923111,522.419983 203.058502,517.767090 
	C206.738571,515.892700 207.986832,512.750916 207.052856,508.533173 
	C205.942169,503.517426 203.249283,499.338776 200.790558,494.996735 
	C200.225632,493.999023 198.694504,493.066132 200.245148,491.402252 
	C207.787277,494.485962 210.329636,501.848633 213.948654,508.064148 
	C226.402893,503.213837 230.183884,494.987854 225.341095,484.027313 
	C223.712189,480.340698 221.392059,477.090607 219.001007,473.876556 
	C218.382858,473.045776 217.047409,472.323547 218.358658,470.537994 
	C226.263062,473.213898 229.367508,480.423157 233.588791,487.452515 
	C238.281479,479.822296 239.418259,472.149475 238.587143,463.168915 
z"/>
<path fill="#000000" opacity="1.000000" stroke="none" 
	d="
M288.638000,841.448730 
	C296.797089,852.845337 293.236206,862.711731 279.813568,865.284973 
	C264.849823,868.153564 251.279022,864.219666 240.134781,853.909485 
	C229.681091,844.238220 233.076508,831.202087 246.977402,827.951538 
	C263.130310,824.174500 276.572083,830.549683 288.638000,841.448730 
M240.238892,843.159668 
	C240.730133,846.096924 242.309067,848.496521 244.514175,850.293640 
	C254.399719,858.350098 265.628082,861.954102 278.386353,859.857666 
	C282.264069,859.220520 286.061676,857.937073 287.364380,853.732971 
	C288.667419,849.527649 286.253082,846.229675 283.439667,843.567871 
	C273.492523,834.156616 261.308624,831.937012 248.302444,833.816772 
	C244.010818,834.436951 240.039780,836.846497 240.238892,843.159668 
z"/>
<path fill="#000000" opacity="1.000000" stroke="none" 
	d="
M607.304565,673.695679 
	C609.512695,663.557373 612.775513,654.409302 620.115479,647.262695 
	C626.089539,641.446045 633.420471,638.962097 637.992188,641.753723 
	C644.387634,645.658936 644.227112,652.406433 643.897583,658.653381 
	C643.181335,672.231812 635.851135,682.902466 627.679688,693.069580 
	C626.858765,694.091125 625.792725,694.949768 624.733154,695.740234 
	C616.422791,701.939819 608.713440,698.882141 607.012329,688.517700 
	C606.232788,683.768250 606.459473,678.912964 607.304565,673.695679 
M615.253418,664.788391 
	C612.352234,672.219971 611.185242,679.905457 612.425110,687.803650 
	C613.338623,693.623047 616.860107,695.432495 620.951721,691.608337 
	C632.046143,681.238831 640.835999,669.533386 638.002808,652.906921 
	C636.806580,645.887207 633.830505,644.508850 627.708496,648.094910 
	C621.477356,651.744995 618.198364,657.682617 615.253418,664.788391 
z"/>
<path fill="#000000" opacity="1.000000" stroke="none" 
	d="
M552.540649,909.750305 
	C556.929688,909.586853 560.624390,906.333923 564.835693,908.558960 
	C562.140442,917.095886 541.262207,918.245422 532.749695,909.558594 
	C539.798279,909.765869 545.965149,910.349243 552.540649,909.750305 
z"/>
<path fill="#000000" opacity="1.000000" stroke="none" 
	d="
M548.087708,925.484863 
	C549.804626,926.240662 551.396362,926.787476 551.252197,928.647766 
	C551.125366,930.284790 549.637573,930.623901 548.332092,930.880005 
	C541.154175,932.287964 526.234009,923.546204 523.087463,915.214661 
	C531.427124,919.829468 539.165161,923.713318 548.087708,925.484863 
z"/>
<path fill="#000000" opacity="1.000000" stroke="none" 
	d="
M526.355225,525.680176 
	C521.270142,522.081055 515.862244,519.728455 510.036316,516.765259 
	C517.771545,514.357056 532.310242,520.052307 535.378967,526.000671 
	C535.928711,527.066406 536.488708,528.187012 535.623108,529.239075 
	C534.591125,530.493469 533.188782,530.214905 532.004150,529.499878 
	C530.164001,528.389282 528.427246,527.107361 526.355225,525.680176 
z"/>
<path fill="#000000" opacity="1.000000" stroke="none" 
	d="
M526.123413,538.861694 
	C522.093689,536.571289 518.365601,534.479858 514.523682,532.324585 
	C521.392700,527.855469 537.525879,536.646667 538.208069,545.459839 
	C532.890381,545.692322 530.335022,541.016357 526.123413,538.861694 
z"/>
<path fill="#000000" opacity="1.000000" stroke="none" 
	d="
M648.242249,313.497925 
	C650.839111,314.444550 653.483521,315.233612 652.665344,318.284546 
	C651.998657,320.770386 649.571350,320.554474 647.603455,320.012085 
	C609.872681,309.612854 574.742432,317.976807 540.840088,334.868042 
	C521.876953,344.316010 503.583099,354.940063 486.309326,367.237366 
	C480.903992,371.085510 476.063019,375.594666 472.239227,382.033752 
	C486.272766,379.627228 499.462494,375.807037 513.525574,376.505371 
	C512.722168,379.057281 511.284393,379.063660 510.014191,379.366211 
	C498.354889,382.143555 486.700439,384.941284 475.035431,387.694489 
	C472.114075,388.384033 468.971985,389.340179 466.793793,386.303131 
	C464.621094,383.273804 466.465179,380.445312 468.059448,377.982117 
	C474.088013,368.667877 482.823761,362.239288 491.943542,356.310791 
	C514.194458,341.846161 537.068542,328.538025 562.046387,319.227051 
	C590.065918,308.782257 618.605530,305.814697 648.242249,313.497925 
z"/>
<path fill="#000000" opacity="1.000000" stroke="none" 
	d="
M346.238953,419.995605 
	C353.856934,418.008820 361.077728,415.998932 368.681335,416.670715 
	C370.165161,416.801819 371.690186,416.849121 373.110504,417.243652 
	C377.197479,418.378998 380.647003,420.231781 380.316284,425.321564 
	C380.063171,429.217194 376.463745,432.836761 371.929413,433.198669 
	C368.480804,433.473969 364.887024,433.514282 361.514160,432.857117 
	C351.548584,430.915253 342.383789,432.549805 333.809967,437.912292 
	C331.982391,439.055389 330.073059,440.078918 328.147827,441.051544 
	C326.258698,442.005890 324.261932,442.400146 322.691406,440.535706 
	C321.005066,438.533813 321.676086,436.448425 323.027344,434.592499 
	C325.819458,430.757568 329.645813,428.095703 333.618134,425.647095 
	C337.455414,423.281647 341.646362,421.670898 346.238953,419.995605 
M366.547180,426.937256 
	C368.863892,426.827423 371.458649,427.603302 373.661743,424.592377 
	C366.250580,421.741150 359.626221,423.311615 352.985596,425.221588 
	C357.453735,424.050385 361.416931,426.694061 366.547180,426.937256 
z"/>
<path fill="#000000" opacity="1.000000" stroke="none" 
	d="
M263.033844,428.045532 
	C264.069611,429.965454 264.915955,431.579987 265.794952,433.256805 
	C268.759064,433.206024 270.489990,430.688385 273.027924,430.012390 
	C274.633057,429.584869 276.489929,428.753082 277.623627,430.422394 
	C278.980530,432.420319 276.944702,433.333435 275.710419,434.324097 
	C271.217651,437.930054 267.165375,441.801666 266.379669,447.958588 
	C266.123047,449.969757 265.098633,451.607605 262.836609,451.323608 
	C260.254303,450.999390 259.674408,448.760529 260.147095,446.775421 
	C261.496216,441.109161 260.445007,435.915985 258.021057,430.778473 
	C257.282593,429.213226 256.292511,427.068451 258.314178,425.801361 
	C260.354187,424.522736 261.619507,426.387695 263.033844,428.045532 
z"/>
<path fill="#000000" opacity="1.000000" stroke="none" 
	d="
M327.827148,736.036926 
	C329.540253,737.387817 331.041779,738.438110 332.309875,739.719360 
	C333.911926,741.338135 334.857056,743.224487 333.371552,745.487305 
	C331.933197,747.678345 329.860107,748.554504 327.382416,747.938904 
	C322.841705,746.810730 319.371552,744.090393 316.920258,740.134338 
	C315.832428,738.378601 315.226471,736.447144 316.787598,734.614685 
	C318.393555,732.729675 320.445312,732.474487 322.632965,733.433044 
	C324.292084,734.160095 325.887909,735.031616 327.827148,736.036926 
z"/>
<path fill="#000000" opacity="1.000000" stroke="none" 
	d="
M449.464722,649.446655 
	C444.739685,654.499634 434.988464,652.223328 433.123871,645.997803 
	C432.321930,643.320129 433.422974,641.418396 435.844391,640.312439 
	C440.969482,637.971436 449.227905,643.279053 449.464722,649.446655 
z"/>
<path fill="#000000" opacity="1.000000" stroke="none" 
	d="
M396.036499,629.800293 
	C393.455048,626.669373 392.411652,623.590454 395.245483,620.607788 
	C397.389648,618.351013 400.232178,618.704590 402.579071,620.269836 
	C405.717102,622.362793 408.243988,625.365112 407.535919,629.315125 
	C406.976471,632.435913 403.983429,632.862000 401.120148,632.512695 
	C399.225220,632.281555 397.711182,631.288940 396.036499,629.800293 
z"/>
<path fill="#000000" opacity="1.000000" stroke="none" 
	d="
M312.460938,699.737671 
	C317.790039,700.184875 320.642670,703.562805 322.580139,707.712280 
	C324.143646,711.060974 321.640808,714.484497 318.167084,713.876404 
	C314.364624,713.210815 311.577972,710.843262 309.933197,707.359680 
	C308.492950,704.309204 309.988251,701.953674 312.460938,699.737671 
z"/>
<path fill="#000000" opacity="1.000000" stroke="none" 
	d="
M431.430786,613.514648 
	C427.091156,615.187866 423.115051,616.117371 419.645508,612.496094 
	C417.896332,610.670410 416.976532,608.536255 418.369629,606.227722 
	C419.861389,603.755615 422.348907,603.141846 424.843353,604.421265 
	C428.424988,606.258484 432.659271,607.807861 431.430786,613.514648 
z"/>
<path fill="#000000" opacity="1.000000" stroke="none" 
	d="
M213.759979,641.304688 
	C215.272705,644.950134 216.617996,648.253113 218.417633,652.671631 
	C208.547028,644.106628 199.271774,614.280701 204.198868,606.625244 
	C204.829468,619.304260 208.941528,630.213745 213.759979,641.304688 
z"/>
</svg>