<svg version="1.1" id="Layer_1" xmlns="http://www.w3.org/2000/svg" xmlns:xlink="http://www.w3.org/1999/xlink" x="0px" y="0px"
	 width="100%" viewBox="0 0 624 624" enable-background="new 0 0 624 624" xml:space="preserve">
<path fill="#000000" opacity="1.000000" stroke="none" 
	d="
M308.279572,295.155151 
	C329.868286,284.930756 352.598419,279.803650 375.367615,274.674042 
	C396.959625,269.809601 418.648315,265.124756 438.355652,254.301285 
	C445.847534,250.186676 452.752747,245.305786 459.277496,239.828461 
	C460.803131,238.547775 462.332672,237.211029 464.048676,236.229111 
	C469.521637,233.097427 474.489044,235.632675 475.213440,241.942154 
	C475.818420,247.211288 474.397400,252.193115 472.541901,257.053741 
	C471.697815,259.264923 471.236694,261.290314 472.058594,263.775421 
	C478.169128,282.252106 475.067505,299.671631 465.084808,315.935883 
	C461.937134,321.064178 459.385590,325.657684 461.048462,332.067535 
	C462.292969,336.864838 460.574646,341.933380 459.768829,347.664062 
	C467.467041,342.824585 473.455811,337.132263 479.540955,331.575836 
	C486.183655,325.510223 492.608704,319.197815 499.403625,313.310394 
	C503.711914,309.577484 508.677155,305.819275 514.696533,309.141663 
	C520.812195,312.517242 520.449524,318.435364 519.631042,324.571838 
	C518.301514,334.538788 514.321838,343.410278 509.291931,352.260376 
	C515.698669,358.659668 514.331421,366.177185 511.815125,373.568024 
	C508.334717,383.790588 502.783752,392.875946 495.105835,400.516541 
	C492.822449,402.788818 492.242340,404.757477 493.216400,407.976196 
	C496.171539,417.741302 494.018738,427.259033 490.000275,436.177094 
	C477.232819,464.511597 456.974579,485.398438 427.870056,497.185394 
	C427.258606,497.433014 426.658295,497.708221 425.918457,498.028717 
	C430.738251,499.116669 430.971954,499.352509 435.279144,497.202118 
	C448.328888,490.686920 461.502411,492.409607 474.718536,496.310516 
	C478.481506,497.421173 478.645050,499.377441 475.242706,502.358063 
	C466.497101,510.019653 456.458282,512.042542 445.402527,508.648071 
	C441.914276,507.577057 438.583954,505.984833 435.196777,504.593597 
	C432.459564,503.469330 429.691406,502.539337 426.583374,502.843719 
	C434.174957,507.220673 440.096405,514.262573 450.227966,514.197388 
	C457.753143,514.148804 464.107147,518.491028 468.983521,524.422363 
	C472.481079,528.676575 475.694977,533.144348 478.258972,538.027893 
	C480.268341,541.854980 479.344574,543.536987 475.140656,543.092773 
	C462.797424,541.788452 452.533966,536.725891 445.439789,526.069580 
	C442.515656,521.677124 441.210480,515.744873 433.902344,513.963257 
	C436.330139,516.886841 438.071503,519.219849 440.052094,521.328186 
	C448.855957,530.699951 451.462372,541.746460 449.061523,554.157715 
	C448.123688,559.006042 446.422699,559.576660 442.242004,556.603882 
	C430.932709,548.562134 426.089813,535.254578 429.622833,521.928284 
	C431.058502,516.513062 427.944611,509.989838 422.048676,506.581360 
	C420.911041,512.333130 418.015198,517.688660 422.281982,523.533691 
	C423.932251,525.794312 424.158020,529.165955 424.784668,532.084656 
	C425.563751,535.713379 425.863556,539.183777 420.195557,537.729492 
	C418.523651,537.300537 417.801727,538.520386 417.239044,539.788086 
	C414.888580,545.083496 410.829376,548.213867 405.151581,549.152466 
	C403.183594,549.477783 402.229645,550.363159 402.111359,552.377319 
	C401.263092,566.824829 385.413788,569.651184 375.526093,563.796814 
	C372.975616,562.286743 370.695831,560.319275 368.320679,558.583130 
	C366.408905,558.868408 365.530457,560.444885 364.281189,561.479919 
	C359.340546,565.573364 353.790405,566.338806 347.868134,564.309326 
	C342.099976,562.332458 338.685699,557.948364 338.219055,552.082458 
	C337.868256,547.672974 335.986969,545.894775 332.060181,544.513611 
	C325.468781,542.195190 321.871735,537.102783 321.743683,530.051697 
	C321.689362,527.060181 320.637512,525.415588 317.850586,524.571350 
	C311.582367,522.672607 306.646301,518.326904 300.396179,514.187012 
	C301.171265,524.442383 300.054596,533.364380 296.301666,541.886292 
	C290.633606,554.757019 281.864441,564.505005 268.844696,570.238892 
	C264.517914,572.144409 261.217743,571.620300 257.723389,567.999146 
	C246.920639,556.804382 241.139374,543.636536 240.620895,528.118286 
	C240.593185,527.289001 240.489258,526.461182 240.387375,525.636719 
	C240.371246,525.506287 240.176895,525.397827 239.908646,525.113647 
	C234.822510,527.606262 232.617920,531.750183 232.187744,537.368896 
	C231.372040,548.023071 227.795639,557.228821 217.474625,562.341248 
	C215.432556,563.352844 213.247177,565.025940 210.960480,563.516235 
	C208.792847,562.085083 209.693298,559.535706 209.856277,557.473816 
	C210.701416,546.782349 214.115097,537.693604 224.840836,532.872437 
	C227.977509,531.462524 230.319061,528.687866 233.290604,525.302917 
	C227.944550,526.454956 223.486588,527.428223 219.022522,528.372498 
	C216.659912,528.872253 215.292511,530.436401 214.438110,532.558350 
	C213.380447,535.185181 212.442215,537.864075 211.290726,540.448486 
	C207.871124,548.123352 198.226517,554.179810 189.932480,553.801758 
	C186.016327,553.623352 186.709900,551.192993 187.966171,548.919739 
	C191.408340,542.691223 195.564072,536.963135 200.914383,531.610535 
	C196.730255,531.603149 193.659119,533.239990 191.147903,535.682129 
	C180.639877,545.901428 168.269836,543.826965 155.862640,541.100525 
	C152.406586,540.341064 153.028275,537.896851 154.744904,535.757629 
	C158.541138,531.026855 163.627274,528.208313 169.388031,526.743469 
	C175.944305,525.076233 182.596436,524.826477 189.104324,527.067566 
	C192.867935,528.363647 196.530304,528.232910 200.291382,526.635071 
	C197.594803,526.465881 194.898941,526.284302 192.201523,526.129822 
	C181.313202,525.505920 173.543015,519.772339 167.578461,511.096161 
	C165.326416,507.820312 166.493835,505.930573 170.055023,504.871094 
	C176.005432,503.100830 181.598419,503.829590 186.832153,507.109772 
	C191.520416,510.048004 195.375763,513.959900 199.400162,517.720215 
	C204.591797,522.571350 210.441254,526.302246 219.224808,523.617554 
	C211.609787,520.683960 206.851013,515.538086 201.920258,510.617859 
	C200.102386,508.803833 197.912567,507.907532 195.511841,507.009644 
	C161.196777,494.175323 139.458679,470.110565 133.791229,433.690338 
	C127.888222,395.756409 141.577774,363.375458 165.561661,334.618622 
	C181.242905,315.816650 199.003983,298.790192 213.385880,278.892029 
	C225.171387,262.586151 234.761368,245.126450 239.950089,225.509705 
	C240.368591,223.927505 241.078766,222.362167 240.230499,219.982727 
	C234.528046,221.987946 228.704254,223.701248 222.517120,223.598221 
	C220.240234,223.560287 219.687790,226.160660 218.583191,227.762054 
	C207.920166,243.220917 194.004044,253.350143 174.664825,254.609421 
	C173.835526,254.663437 173.000519,254.720352 172.172165,254.684341 
	C162.477692,254.262848 160.264862,250.461166 165.008698,241.966675 
	C168.445053,235.813461 171.237381,229.561478 172.235031,222.445435 
	C172.856430,218.013153 172.144409,214.336380 169.838455,210.599365 
	C159.623581,194.045074 154.756119,176.197052 157.832535,156.719315 
	C158.467255,152.700638 157.149673,151.114487 153.618683,149.830750 
	C143.759415,146.246368 134.000793,142.382248 124.236038,138.543121 
	C121.969170,137.651871 120.004501,137.438370 117.587151,138.445663 
	C113.382217,140.197784 109.588150,138.428726 108.292587,134.519852 
	C107.057198,130.792587 108.387032,127.881470 111.776985,126.158005 
	C115.429588,124.300987 119.602531,125.887543 121.140526,129.907181 
	C122.113335,132.449692 123.650215,133.560776 126.133720,134.104141 
	C130.113235,134.974854 134.049545,135.041260 138.014389,134.140778 
	C141.120743,133.435242 143.472641,131.935242 142.641464,128.330887 
	C141.927628,125.235367 141.034424,122.326347 136.407364,123.270271 
	C132.273315,124.113617 129.817902,121.438049 129.055038,117.513939 
	C128.349335,113.883835 130.905670,110.376289 134.535172,109.844437 
	C138.773880,109.223305 141.887711,110.593010 142.317352,115.320206 
	C142.609238,118.531837 144.615784,119.002449 147.174393,118.952354 
	C150.108078,118.894913 152.386780,118.026833 152.965347,114.688461 
	C153.794983,109.901512 147.310822,95.546158 143.134750,92.961632 
	C141.734665,92.095123 140.225052,92.477654 138.761795,92.297844 
	C134.874405,91.820145 131.995361,88.527992 132.183151,84.829102 
	C132.376190,81.026604 135.643784,77.913033 139.397614,77.954704 
	C143.515518,78.000412 147.376114,81.220024 146.669159,85.131050 
	C145.859024,89.612900 148.270081,91.446442 151.138229,93.628098 
	C155.280457,96.778893 159.529465,99.662262 164.636963,100.994011 
	C168.530869,102.009331 171.563370,101.087952 173.077103,97.018967 
	C174.452774,93.321068 173.827530,90.821594 169.640350,89.242699 
	C165.859406,87.816986 164.680878,83.674080 166.464615,80.047279 
	C168.174652,76.570305 171.080765,75.328003 174.783417,76.406044 
	C178.657486,77.534004 180.845108,81.254684 179.159439,85.053841 
	C177.534821,88.715370 178.572083,90.664185 181.751556,92.110558 
	C185.047836,93.610077 187.543121,92.359344 189.495911,89.579147 
	C194.273270,82.777672 193.575821,74.338928 187.759567,68.628883 
	C184.995026,65.914841 184.600861,61.363407 187.094833,58.704067 
	C189.908478,55.703835 193.322754,55.494541 196.574295,57.744774 
	C199.983475,60.104092 200.716141,63.802971 198.324921,66.939804 
	C195.890533,70.133278 196.324615,72.947586 197.288269,76.261131 
	C199.194138,82.814575 200.925980,89.418961 202.699615,96.010391 
	C203.558701,99.202980 205.451660,100.345085 208.951965,99.141998 
	C207.656830,96.004807 206.245865,93.021027 205.182800,89.918045 
	C203.209686,84.158676 202.283066,77.506699 207.022385,73.510529 
	C212.070801,69.253716 218.076080,72.769913 223.246033,75.682854 
	C224.090149,76.158470 224.684952,77.123581 226.054855,76.959213 
	C228.263031,75.506020 228.901535,72.737381 230.362701,70.579788 
	C232.367920,67.618813 234.616898,67.255615 237.597580,68.928200 
	C244.201202,72.633781 246.621613,78.826836 247.617645,85.951469 
	C251.023895,86.504700 252.151840,84.335320 253.078629,81.954109 
	C254.567413,78.128906 256.894684,74.945457 260.220398,72.528656 
	C261.305847,71.739853 262.494476,70.969154 263.880310,71.807976 
	C265.046112,72.513603 264.974518,73.773697 265.013184,74.937004 
	C265.118042,78.091927 263.690613,80.982887 262.872406,85.040100 
	C266.385315,82.068436 267.987671,78.402206 271.685211,77.302246 
	C273.509430,76.759552 275.356476,74.971329 277.238922,76.635994 
	C278.978912,78.174660 277.433655,80.060394 277.112457,81.773849 
	C276.992615,82.413094 276.641388,83.008965 276.058502,84.469406 
	C280.697906,81.771263 285.183594,81.572960 289.741180,82.185707 
	C293.493195,82.690163 293.818604,84.612915 291.601532,87.256264 
	C288.349243,91.133942 284.179718,92.029221 279.405396,90.724709 
	C276.070618,89.813538 272.710907,88.549820 267.949829,92.020775 
	C276.994537,92.713326 284.847107,93.672600 290.087616,100.372208 
	C285.271149,106.566040 277.544128,106.186966 273.471924,99.695496 
	C272.262054,97.766914 271.643341,95.303741 268.525452,95.014771 
	C266.659058,97.446259 266.582611,99.620224 269.908051,100.606400 
	C275.057495,102.133492 274.722687,105.292336 272.895508,109.104530 
	C272.097382,110.769814 271.013855,112.431221 273.545105,114.086182 
	C277.434113,111.611061 281.445679,107.161240 286.572052,111.418915 
	C290.736847,114.877953 289.442383,119.496376 287.766266,124.046875 
	C291.489777,126.035873 292.873169,129.178604 292.363831,133.196808 
	C292.181946,134.631775 292.757721,135.766876 293.610199,136.860153 
	C312.912567,161.614792 316.382141,189.496857 310.899323,219.608261 
	C305.399689,249.811996 291.175720,275.983643 275.202667,301.504608 
	C269.638641,310.394501 263.728668,319.075623 259.082123,328.699768 
	C273.058716,314.139954 289.756897,303.629578 308.279572,295.155151 
M201.629227,125.514397 
	C200.340240,128.245834 204.901138,129.967789 202.978317,133.077087 
	C202.767715,133.417664 205.682678,135.198471 207.684052,134.780060 
	C209.097778,134.484482 210.281403,133.627136 210.306091,132.163620 
	C210.346558,129.766724 208.295944,129.449142 206.532898,128.931992 
	C204.440292,128.318176 201.504013,128.644836 202.661652,124.762444 
	C204.887650,123.489258 206.261078,121.731903 205.514847,119.041740 
	C205.173309,117.810486 204.099472,117.058868 202.823822,117.268150 
	C199.539459,117.806984 198.921097,120.420967 198.418182,123.212479 
	C199.522064,124.061867 202.056015,122.067429 201.629227,125.514397 
M270.701599,132.693710 
	C270.281891,134.103241 269.791748,135.496368 269.458649,136.926071 
	C268.934235,139.176910 269.407562,141.128510 271.385040,142.572296 
	C272.629852,143.481140 273.772491,143.423782 274.941467,142.453278 
	C276.818817,140.894684 277.103790,138.867508 276.584564,136.669266 
	C276.217865,135.116669 275.111938,133.680344 276.699188,132.029587 
	C277.921997,132.854492 279.111603,133.734833 280.374939,134.492126 
	C282.621582,135.838867 284.987976,136.568359 287.329712,134.795105 
	C288.790588,133.688919 289.239136,131.985825 288.701782,130.305481 
	C287.823334,127.558609 285.589783,126.563896 282.884064,126.631790 
	C281.387634,126.669342 279.892334,127.003937 279.068970,125.184967 
	C279.324524,123.787491 280.521332,123.516548 281.588776,123.133774 
	C284.658295,122.033043 286.189728,119.917160 285.672699,116.640930 
	C285.391754,114.860817 284.236176,113.526260 282.383484,113.388939 
	C279.002686,113.138351 277.335327,115.328094 276.218048,118.153587 
	C275.631409,119.637161 275.520233,121.500603 273.353973,121.931084 
	C271.032654,120.740379 271.390747,117.911491 269.979431,116.127304 
	C268.818390,114.659538 267.763763,113.097984 265.576630,113.555115 
	C263.999451,113.884758 262.960236,114.954323 262.450531,116.473778 
	C261.770996,118.499458 262.647827,120.007523 264.150055,121.282166 
	C265.446930,122.382591 267.688080,122.726341 267.337311,125.139641 
	C266.268158,126.608368 264.851044,125.643135 263.617798,125.809555 
	C261.075012,126.152718 259.316345,127.590858 258.559174,130.008652 
	C258.004059,131.781326 258.641357,133.364349 260.309937,134.239471 
	C262.522522,135.399887 264.510956,134.753571 266.157501,133.020294 
	C267.558075,131.545944 269.050018,130.814255 270.701599,132.693710 
M230.452667,100.283165 
	C232.077026,101.086525 231.051895,103.351738 232.501785,104.395248 
	C233.050522,103.362549 233.160248,102.174225 234.999954,102.446823 
	C233.487106,105.957817 239.996017,105.092293 237.955627,108.938004 
	C240.264175,108.959206 240.559174,106.373970 242.504517,106.472237 
	C244.191391,108.373436 241.002823,110.152908 242.379242,112.023666 
	C249.969086,114.032738 262.240875,105.219513 263.785980,96.649994 
	C265.033447,89.731247 262.876648,87.393150 255.858841,88.103630 
	C251.075485,88.587898 247.183655,90.065239 246.024368,95.580872 
	C245.599228,97.603661 244.190750,99.476234 243.000366,101.263870 
	C242.045517,102.697838 240.996490,104.561485 238.739960,103.045967 
	C237.913925,100.722610 239.852905,99.662796 240.783600,98.215340 
	C246.053482,90.019211 244.632034,78.785576 237.703079,73.284790 
	C235.354233,71.420090 233.805359,71.445709 232.122665,74.167839 
	C228.322571,80.315216 227.142242,86.744972 229.122955,93.745438 
	C229.699158,95.781937 230.911636,97.764229 229.274994,99.963806 
	C226.854706,99.404343 226.418427,97.318298 225.999146,95.404076 
	C225.289398,92.163750 224.716232,88.907799 224.722458,85.539169 
	C224.733154,79.756462 216.175705,73.777702 210.792038,75.626389 
	C209.158737,76.187248 208.649750,77.439484 208.213867,78.975327 
	C206.758606,84.103073 208.275085,88.664642 210.090958,93.443985 
	C213.071640,101.289192 222.065964,102.796265 225.797485,109.678185 
	C225.393051,106.545090 223.604156,103.598152 226.388123,100.786690 
	C228.703064,101.926300 227.194290,104.402367 228.543030,106.019173 
	C228.849335,103.741798 228.663651,101.672165 230.452667,100.283165 
M408.570160,448.589111 
	C410.098328,447.414398 411.347656,445.155060 413.601440,446.091675 
	C415.906372,447.049561 415.950562,449.638428 416.096191,451.730835 
	C416.604156,459.029419 413.649689,464.654114 407.425964,468.529236 
	C404.588715,470.295807 401.830475,472.105072 401.861450,476.832336 
	C408.103271,475.379578 414.409576,476.464508 419.075867,470.396790 
	C423.990112,464.006744 431.491119,461.789459 439.311066,460.783783 
	C445.075317,460.042450 450.957367,460.063507 456.551880,458.164825 
	C457.956451,457.688110 459.577789,457.002655 460.792511,458.254272 
	C462.212036,459.716949 461.356781,461.392365 460.529602,462.855072 
	C454.303955,473.864502 445.448273,480.956177 432.293793,481.192322 
	C428.398743,481.262238 424.490936,480.625397 420.588989,480.312408 
	C424.455170,482.795990 428.344238,484.986267 431.848785,487.706390 
	C434.208679,489.538055 436.076202,489.471466 438.551880,487.923279 
	C444.644043,484.113434 450.417023,479.898468 455.805725,475.166809 
	C470.959534,461.860565 483.187622,446.508759 488.756958,426.717255 
	C490.484741,420.577179 492.255829,414.251678 488.549011,408.022369 
	C486.221558,408.638733 484.911377,410.224731 483.406830,411.473694 
	C477.746094,416.172577 471.630127,420.179993 465.176788,423.686249 
	C463.680695,424.499115 461.920959,425.402527 460.910248,423.286530 
	C460.022827,421.428650 461.833221,420.723511 463.080566,419.955658 
	C463.930054,419.432739 464.858673,419.038940 465.711700,418.521149 
	C481.151459,409.149750 494.659729,397.763824 503.632965,381.745056 
	C506.992706,375.747437 509.604553,369.459808 509.666992,362.409088 
	C509.683624,360.530396 509.570526,358.559204 507.597198,357.690491 
	C505.350311,356.701355 504.285492,358.646545 503.172668,360.013794 
	C494.677490,370.450867 484.615356,379.123871 473.196686,386.159363 
	C471.029236,387.494812 468.164734,391.817902 465.884552,388.330872 
	C464.044586,385.517029 468.723358,384.136108 470.872589,382.727234 
	C485.237823,373.310425 498.035461,362.336212 506.973053,347.407471 
	C512.175903,338.716888 515.876831,329.491272 515.796753,319.181366 
	C515.749634,313.112366 511.662720,310.797424 506.393646,313.672272 
	C504.658417,314.619080 503.034576,315.846924 501.548645,317.159973 
	C496.185394,321.899261 490.597565,326.436249 485.648407,331.582336 
	C472.555298,345.196533 454.301575,353.556427 445.235199,371.266907 
	C444.798553,372.119843 443.939392,372.786865 443.192383,373.444305 
	C441.553619,374.886627 441.131073,376.658875 441.142334,378.803802 
	C441.198395,389.481018 437.523010,398.988068 431.819885,407.847015 
	C426.011536,416.869446 418.162140,423.631561 408.813080,428.315247 
	C410.193207,435.625671 409.166199,442.321533 407.464417,449.398163 
	C406.022034,450.749695 404.755157,452.507751 402.772949,452.939758 
	C399.176208,453.723663 399.525879,455.754028 400.667450,458.652618 
	C403.247711,455.234711 405.612366,452.102325 408.570160,448.589111 
M296.278564,253.827225 
	C302.431427,239.858154 305.829803,225.174210 308.221375,210.141693 
	C311.864594,187.241730 306.944397,166.280594 295.597260,146.342194 
	C292.041443,140.094162 287.732513,137.529434 280.695190,139.572327 
	C279.401184,142.926910 278.034515,146.540985 273.473419,146.579346 
	C268.679993,146.619659 266.625275,143.208237 265.294250,139.062500 
	C260.542999,140.771927 256.107361,141.617798 251.348969,140.156097 
	C246.888870,138.786026 243.369034,135.673309 239.233780,133.828308 
	C238.854691,134.423981 238.553146,134.685547 238.530884,134.969055 
	C238.426773,136.295578 238.397736,137.628036 238.345245,138.958527 
	C237.996643,147.795914 234.023346,154.524933 226.549683,159.208328 
	C221.300186,162.497940 219.586929,162.227524 215.715485,157.205780 
	C212.090546,152.503769 209.781662,147.185547 208.899887,141.297684 
	C208.650528,139.632660 208.132782,138.456161 206.195862,138.370193 
	C204.634415,138.300873 203.970932,139.037064 203.209000,140.382629 
	C200.187210,145.719162 195.475632,145.878723 192.003677,140.802353 
	C191.115952,139.504440 190.374435,138.569336 188.680588,138.200104 
	C181.210831,136.571823 179.863144,133.192230 184.366806,127.219139 
	C185.764603,125.365280 186.090683,124.130562 184.034988,122.816704 
	C179.677582,124.931854 174.912445,128.845474 171.702637,133.501755 
	C157.372040,154.290253 158.785126,176.047058 167.906204,198.237946 
	C168.837357,200.503357 170.668839,200.795181 172.816574,200.754684 
	C180.811737,200.603882 188.215256,202.880386 193.919540,208.373154 
	C202.624619,216.755447 213.811371,219.508087 224.597458,219.220932 
	C248.973419,218.571945 264.140411,193.679733 258.877869,177.282043 
	C258.380524,175.732300 257.268829,173.213089 259.814423,172.583176 
	C262.275543,171.974136 262.290680,174.686050 262.941315,176.270325 
	C263.188751,176.872803 263.222809,177.568130 263.320587,178.226120 
	C265.381622,192.096252 260.509979,203.438400 250.374817,212.648560 
	C247.515793,215.246658 245.679504,217.962601 245.002350,221.828903 
	C243.969055,227.728683 242.277206,233.484512 240.128189,239.114014 
	C231.576752,261.515076 218.476776,281.025482 202.850586,299.051331 
	C188.892410,315.153046 173.732422,330.218445 161.181137,347.539795 
	C143.663406,371.715118 133.889069,398.315063 137.266342,428.450653 
	C141.124115,462.873810 160.106903,486.561432 191.243332,500.916382 
	C192.732117,501.602783 194.711746,502.715485 195.928314,502.245667 
	C201.479889,500.101807 207.001907,500.784546 213.317978,502.225281 
	C205.069214,493.363007 197.483185,485.187866 196.470688,472.319366 
	C195.199799,474.197845 194.662811,475.025848 194.092102,475.829865 
	C188.241699,484.071655 181.405075,484.782745 174.207886,477.940338 
	C173.126297,476.912109 171.984818,475.906494 170.734756,475.102234 
	C160.059219,468.234009 159.238907,462.508759 167.536102,452.530548 
	C167.688278,452.347565 167.555130,451.927307 167.555130,451.444427 
	C166.678406,451.084717 165.771881,450.691376 164.850052,450.337860 
	C155.441727,446.730042 153.055008,439.462708 158.554443,430.926910 
	C159.746353,429.076935 160.516342,427.109680 161.191238,425.036041 
	C163.307495,418.533661 167.921951,415.799500 174.690903,417.214722 
	C177.557266,417.814056 180.304428,418.983551 183.059845,419.878937 
	C184.069580,418.456848 183.504501,417.087677 183.551697,415.804993 
	C183.887100,406.690155 188.409805,402.446136 197.435211,402.750275 
	C200.094467,402.839905 202.765228,402.761108 205.424698,402.633820 
	C210.659943,402.383209 213.716843,404.912323 215.633575,409.689270 
	C217.452469,414.222351 216.658005,418.775543 216.258209,423.988007 
	C221.702789,421.585663 226.967667,421.534515 232.586624,422.109161 
	C232.586624,419.172516 232.661514,416.869293 232.571655,414.572479 
	C232.358994,409.137482 233.426956,404.011780 235.720474,399.063599 
	C236.915390,396.485626 238.549423,395.297791 241.457932,395.265076 
	C251.564743,395.151337 260.879852,397.617004 269.424103,403.074890 
	C270.892578,404.012909 272.033783,405.783539 274.468658,405.419159 
	C276.569824,402.071167 278.524628,398.413269 281.242920,395.255829 
	C287.172119,388.368713 290.495056,388.060120 297.597961,393.896729 
	C306.507263,401.217712 311.644684,410.654114 313.251251,422.011292 
	C313.558563,424.183838 313.703583,426.353149 316.631958,425.451385 
	C325.661926,422.670746 334.748962,421.374084 344.086700,424.425659 
	C345.702911,418.098450 351.104797,416.274719 355.003601,413.184387 
	C359.706482,409.456757 364.713074,412.612823 369.378052,414.925751 
	C369.905701,413.484924 370.246368,412.375763 370.709015,411.320007 
	C373.808563,404.247162 376.571198,403.842804 390.891113,408.324829 
	C396.162689,409.974823 398.649872,414.345917 397.627136,420.014740 
	C397.373352,421.421509 396.299622,422.777100 397.221436,424.369354 
	C400.793121,426.014923 404.236084,425.660889 407.708710,423.880890 
	C422.214783,416.445282 431.100983,404.498779 435.729065,389.124573 
	C436.580811,386.295135 437.290924,383.414764 436.374542,380.331146 
	C433.895813,380.567596 432.377441,382.260895 430.617493,383.392578 
	C426.953674,385.748505 423.135040,387.765564 419.042358,389.226990 
	C417.820801,389.663208 416.259491,390.053497 415.690521,388.263763 
	C415.261169,386.913147 416.235260,386.127808 417.371826,385.587128 
	C418.425049,385.086121 419.469299,384.566223 420.520782,384.061493 
	C432.204773,378.453094 441.826263,370.413239 448.832947,359.476593 
	C454.679382,350.351013 458.385529,340.601410 456.415497,329.358521 
	C455.770630,329.515198 455.389465,329.496704 455.181946,329.677521 
	C454.303772,330.442688 453.470581,331.260315 452.632782,332.070953 
	C439.151917,345.114807 423.159363,353.656433 405.130615,358.524841 
	C403.458496,358.976410 401.064240,360.263733 400.313721,357.955383 
	C399.375000,355.068054 402.400085,355.142303 404.131256,354.651184 
	C412.665680,352.230286 420.873779,349.005707 428.564240,344.592651 
	C449.520599,332.567230 465.066101,316.169678 470.032227,291.680939 
	C471.616150,283.870300 471.480225,275.944275 468.625977,267.645111 
	C467.772491,268.620819 467.268768,269.030548 466.974243,269.557220 
	C453.631348,293.418823 432.948730,308.783447 408.632385,319.914124 
	C400.071381,323.832886 390.895142,325.603027 381.691071,327.155640 
	C380.069916,327.429077 377.464600,328.197296 377.147644,325.646210 
	C376.835358,323.132660 379.526093,323.450348 381.178558,322.965027 
	C381.495422,322.871948 381.836731,322.864716 382.165039,322.807770 
	C416.604034,316.836975 443.130127,298.854767 461.882080,269.561462 
	C466.799164,261.880249 470.862518,253.489151 470.910034,243.956436 
	C470.933350,239.279953 468.804321,238.189377 464.945648,240.840149 
	C462.074127,242.812836 459.526245,245.250275 456.772278,247.401413 
	C437.225861,262.669037 414.227692,269.723236 390.597229,275.413269 
	C370.057220,280.359161 349.149567,283.891571 329.209320,291.191467 
	C303.431305,300.628540 279.727753,313.121429 260.770111,333.784973 
	C247.201752,348.574310 241.629471,364.600128 248.465469,384.032288 
	C248.925735,385.340637 249.362732,386.845245 247.848831,387.561981 
	C245.979660,388.446899 245.188919,386.859070 244.563324,385.471436 
	C240.851334,377.237976 240.969116,368.579193 242.278824,359.958984 
	C244.813919,343.273407 252.929764,328.866699 261.686523,314.842865 
	C273.949097,295.204468 286.789185,275.909180 296.278564,253.827225 
M252.468979,554.041748 
	C254.737381,557.121826 257.035156,560.180847 259.266663,563.287415 
	C261.963043,567.041321 265.117767,567.627136 269.194885,565.348083 
	C283.255280,557.488220 292.153717,545.721069 295.481171,530.048279 
	C297.152344,522.176758 297.046448,514.142029 293.662109,506.530853 
	C292.557922,504.047577 291.185455,501.639343 288.072205,501.413910 
	C282.031219,500.976440 276.911835,498.281128 271.979034,495.091858 
	C270.665710,494.242737 269.403473,493.534180 267.823303,494.370850 
	C260.419220,498.291168 253.323227,502.374420 249.409454,510.486816 
	C242.215912,525.397522 244.260773,539.540222 252.468979,554.041748 
M214.098358,496.422668 
	C217.218857,499.913849 221.236038,501.896881 225.710800,502.799683 
	C241.239716,505.932617 254.200928,500.158417 266.273926,491.208130 
	C261.514160,482.250824 261.514160,482.250824 267.730927,475.624268 
	C264.827148,473.013031 264.864319,473.009216 264.262909,467.161438 
	C264.186249,466.416199 263.562775,465.668579 263.051788,465.035767 
	C258.261322,459.102997 252.238861,455.131561 244.552292,454.358276 
	C234.199387,453.316742 223.704376,453.730042 213.910721,456.941162 
	C198.907104,461.860443 198.267227,466.828308 202.151932,479.146729 
	C204.281357,485.899231 209.300751,490.651855 214.098358,496.422668 
M284.613770,462.452850 
	C284.578064,463.076599 284.542358,463.700317 284.506622,464.324066 
	C287.225311,460.936829 287.278778,457.197235 286.248138,453.323853 
	C285.813995,451.692230 285.870911,450.160980 287.814301,449.807220 
	C289.713989,449.461426 290.508789,450.695160 290.470245,452.501953 
	C290.449646,453.468353 290.023468,454.506592 291.254578,455.480042 
	C295.431030,455.123749 297.420166,451.611969 299.660248,448.706726 
	C305.080048,441.677795 310.498901,434.364044 309.491180,424.879791 
	C308.244110,413.142700 302.975616,403.391022 293.371399,396.126160 
	C290.351135,393.841583 288.297699,394.189575 285.699310,396.853424 
	C272.616821,410.265656 271.441376,441.720825 283.848297,456.291290 
	C285.528992,458.265076 286.270447,459.689301 284.613770,462.452850 
M175.786179,100.148331 
	C168.272217,110.055519 160.741745,102.351875 153.195969,100.091576 
	C158.461716,120.106522 158.461716,120.106522 145.396622,122.900757 
	C146.462158,135.304962 146.462158,135.304962 134.467026,138.714767 
	C141.815430,141.616974 148.773560,144.309372 155.683380,147.120590 
	C158.577438,148.298050 159.870804,147.146240 160.920502,144.487350 
	C165.657242,132.489227 173.096008,122.797951 184.910690,116.900055 
	C187.342987,115.685852 188.958633,114.051308 187.037857,110.971611 
	C185.632446,108.718216 186.856506,106.860306 188.743088,105.386101 
	C191.125076,103.524788 193.756577,102.111740 196.571198,101.042572 
	C198.441406,100.332146 199.884094,99.452370 199.186798,97.039673 
	C198.093948,93.258415 197.765182,89.249260 195.938583,85.454140 
	C189.797119,96.945915 189.572174,97.061966 177.761703,94.873344 
	C177.215561,96.378113 176.655838,97.920349 175.786179,100.148331 
M350.641327,468.799255 
	C347.188538,467.916534 343.736481,468.148773 340.244904,468.631989 
	C332.673370,469.679871 327.286102,475.214325 320.593689,478.033936 
	C314.173645,480.738831 308.195312,483.338989 306.145477,491.297211 
	C304.805054,496.501221 298.919159,498.170685 293.946259,501.445679 
	C301.276794,510.416412 310.064941,516.542847 320.301697,520.828247 
	C324.843964,522.729736 327.419525,520.614563 329.539337,516.813232 
	C323.138977,510.766022 318.114594,504.153320 322.646576,495.227570 
	C327.178955,486.301178 335.270477,486.172455 343.707001,488.516998 
	C344.082367,487.830994 344.536591,487.394958 344.510681,486.989624 
	C344.068359,480.074402 345.657349,474.136932 352.009491,470.217407 
	C352.820526,469.716980 351.818237,469.206055 350.641327,468.799255 
M199.188660,241.711838 
	C206.474609,236.222504 213.201324,230.269653 216.741104,221.508331 
	C214.134155,219.625275 211.696503,220.045441 209.483200,220.265778 
	C202.310959,220.979782 195.597641,219.857346 189.170074,216.506058 
	C187.149521,215.452499 184.762405,214.955490 182.481140,214.581833 
	C178.791702,213.977493 176.288239,215.046432 176.326370,219.485214 
	C176.398560,227.886551 173.593460,235.468857 169.508270,242.694977 
	C168.419357,244.621094 166.573349,246.408127 167.394562,249.774551 
	C178.946243,252.226227 188.996338,248.189072 199.188660,241.711838 
M345.091309,445.444061 
	C345.645264,447.471497 344.978485,449.748047 346.468414,451.987305 
	C349.766602,448.337311 350.356018,443.969940 351.215851,439.622620 
	C352.108337,435.110321 350.388275,432.434052 346.432709,430.386688 
	C336.066986,425.021423 325.745941,426.894714 315.370361,430.128143 
	C313.672821,430.657166 312.487946,431.855957 311.876129,433.478607 
	C309.210541,440.548462 305.680664,447.070770 300.638519,452.786011 
	C298.609711,455.085693 298.865295,457.132050 301.587921,459.483002 
	C306.231628,463.492737 305.938629,468.392395 301.520386,472.092346 
	C300.638550,472.830841 299.563599,473.338654 298.577698,473.952850 
	C306.875427,470.293793 313.460541,464.336029 318.677856,457.315796 
	C323.682312,450.581970 329.157562,445.119080 336.923920,441.650665 
	C342.534729,439.144958 342.452515,438.683350 345.091309,445.444061 
M270.818665,428.663116 
	C273.113251,424.629303 271.844391,420.055328 272.760986,415.807068 
	C273.396545,412.861511 272.063721,410.684052 269.807861,408.894287 
	C262.542755,403.130249 254.156799,400.334839 245.042877,399.382812 
	C241.734772,399.037262 239.770859,400.371399 238.645752,403.545319 
	C234.809692,414.366974 237.325027,424.319275 241.862503,434.360229 
	C244.904877,441.092712 251.790359,443.396515 256.912354,449.663696 
	C255.539703,445.640350 254.565002,442.876129 253.653656,440.091187 
	C252.149857,435.495911 250.834503,430.875305 251.402405,425.934174 
	C251.723602,423.139679 252.973434,421.986450 255.738388,423.157471 
	C260.477722,425.164703 265.699799,425.874725 270.818665,428.663116 
M394.514282,521.729248 
	C398.323456,521.445435 402.159485,521.355591 405.935394,520.831909 
	C411.482849,520.062622 414.981659,516.432922 416.392090,511.335541 
	C417.834473,506.122711 417.023468,501.080231 412.505890,497.261383 
	C408.046600,493.491852 403.313995,493.961884 398.536255,496.391296 
	C394.214203,498.589020 390.602203,501.844696 386.699554,504.669983 
	C382.471863,507.730591 379.043549,510.869507 382.878967,516.520447 
	C383.613525,517.602722 382.353455,519.151917 383.520111,520.589417 
	C386.587799,522.002563 390.116791,521.597351 394.514282,521.729248 
M379.647919,530.888062 
	C376.362091,530.878540 373.094879,531.014587 369.424042,532.042480 
	C369.968292,536.570740 370.406006,540.998291 370.217438,545.454468 
	C369.750031,556.498657 375.798309,562.467834 386.759827,562.064148 
	C391.342407,561.895325 394.806732,559.980652 396.798004,555.847290 
	C398.764221,551.765930 397.587097,548.052551 394.908569,544.701538 
	C390.725220,539.467957 386.041168,534.765198 379.647919,530.888062 
M363.609802,472.890320 
	C354.085846,469.924133 346.264404,476.231598 347.461212,485.989227 
	C348.490234,494.378693 353.140289,500.727386 359.194550,506.226929 
	C360.199066,507.139404 361.677521,508.259735 362.658417,506.979431 
	C364.684784,504.334595 368.354248,503.170258 368.796356,498.971893 
	C369.171417,495.409912 370.358978,491.754333 371.989868,488.548615 
	C374.077148,484.445709 373.285004,481.315796 370.410339,478.182922 
	C368.598022,476.207764 366.732330,474.343536 363.609802,472.890320 
M366.894836,536.944946 
	C365.608459,527.778381 361.885620,526.083191 354.890717,531.573181 
	C352.682892,533.306030 350.527374,535.159485 348.624634,537.214050 
	C346.033234,540.012268 343.602570,543.043945 342.552795,546.794617 
	C340.878296,552.777100 344.826050,559.301331 350.747223,560.666687 
	C357.553864,562.236267 365.535309,556.957153 366.591858,549.759827 
	C367.164886,545.856506 366.856995,541.823914 366.894836,536.944946 
M340.265289,491.088715 
	C339.463226,490.869110 338.668091,490.491669 337.857910,490.455902 
	C333.152039,490.248047 328.791290,491.165070 326.099762,495.467712 
	C323.096649,500.268341 323.861328,505.049133 326.999939,509.501984 
	C329.813202,513.493225 333.372009,515.463989 338.576233,514.257751 
	C343.454651,513.127014 348.518250,513.538757 353.516388,513.719482 
	C354.982605,513.772400 356.690369,514.118103 357.510193,512.441162 
	C358.366272,510.690033 357.500580,509.225159 356.262604,507.964783 
	C353.222504,504.869446 350.209900,501.740173 348.262329,497.801300 
	C346.698822,494.639069 344.257141,492.543213 340.265289,491.088715 
M218.981476,155.412994 
	C220.728653,157.960876 222.656067,157.534851 224.920761,156.008011 
	C233.073196,150.511780 236.074295,142.556000 235.423080,133.187973 
	C234.883499,125.425888 233.937714,124.842216 226.279495,124.483116 
	C222.413010,124.301819 215.333099,129.775711 213.902023,133.229767 
	C210.421722,141.629761 213.547470,148.404633 218.981476,155.412994 
M163.042358,444.561554 
	C169.968658,449.502930 177.215500,448.565063 185.267746,446.232361 
	C182.113876,443.206512 180.310577,440.387817 182.246185,436.848816 
	C184.138138,433.389648 188.105453,434.735687 191.126892,433.756409 
	C186.839325,426.302002 180.627502,422.210968 172.751663,421.388458 
	C169.076889,421.004639 166.697052,422.400787 165.498428,425.955719 
	C164.550507,428.767029 163.952637,431.729126 161.902893,434.093750 
	C158.891815,437.567352 158.911087,440.956390 163.042358,444.561554 
M351.653198,516.822083 
	C344.341064,516.605591 336.979279,516.280212 330.595978,520.799500 
	C326.176239,523.928589 324.792053,529.247803 326.934631,534.034180 
	C329.145294,538.972595 335.166779,542.516479 339.808777,541.693298 
	C340.871765,541.504822 341.702759,541.078674 342.279816,540.221741 
	C345.660919,535.200806 350.028992,531.189758 354.856964,527.595093 
	C357.707245,525.472961 356.905396,522.123535 356.796265,519.317017 
	C356.710449,517.111084 354.246857,517.130615 351.653198,516.822083 
M185.627335,449.464142 
	C178.705811,450.328949 172.267365,451.910370 168.240280,458.548767 
	C165.359344,463.297791 165.795181,467.213226 170.581573,469.946442 
	C173.802933,471.785950 176.735107,473.866333 179.298584,476.516205 
	C180.984390,478.258850 182.856003,478.611908 185.184067,477.646820 
	C191.285477,475.117462 196.323517,466.048676 195.164276,459.398193 
	C187.072800,461.454956 185.166580,459.533264 186.680252,450.903748 
	C186.749557,450.508545 186.386368,450.037506 185.627335,449.464142 
M396.813110,491.323975 
	C397.813049,484.247559 395.672424,479.407623 390.746582,477.607666 
	C385.737579,475.777405 381.776642,477.685333 377.746582,484.001343 
	C374.484528,489.113647 372.751923,494.801422 371.659027,500.720123 
	C371.390747,502.173157 371.389038,503.583221 373.095490,503.856323 
	C375.398987,504.225006 376.193695,506.817841 378.445190,507.243805 
	C381.971924,504.438202 385.464508,501.665222 388.950928,498.884552 
	C391.635864,496.743134 395.117706,495.492218 396.813110,491.323975 
M234.055908,432.664795 
	C235.567444,429.076874 233.105713,427.815735 230.493561,426.839111 
	C223.692856,424.296478 213.701218,428.424896 209.967422,435.472565 
	C213.072418,436.376129 216.839722,436.486298 217.304443,440.886261 
	C217.766830,445.264374 214.543610,446.812622 211.290054,448.497742 
	C216.288208,453.135773 222.050171,452.024231 227.615570,451.582092 
	C234.346191,451.047394 237.217514,445.715057 233.581863,439.969879 
	C231.925003,437.351654 231.919662,435.501892 234.055908,432.664795 
M210.999481,425.306549 
	C211.538376,422.536987 212.522171,419.765900 212.512543,416.998260 
	C212.497864,412.786041 211.876480,407.925751 206.915314,407.036621 
	C202.448486,406.236084 197.676544,407.088806 193.043182,407.300232 
	C191.827042,407.355713 190.957932,408.214355 190.189514,409.144409 
	C185.861389,414.382416 187.425003,424.892578 193.455231,429.258392 
	C195.044205,425.829926 197.374008,423.231750 201.556168,424.496429 
	C205.423553,425.665894 204.935852,430.131683 206.944519,432.984344 
	C208.954483,430.688873 209.817932,428.345062 210.999481,425.306549 
M406.634583,544.294739 
	C408.013092,543.385254 409.539856,542.637451 410.742096,541.535583 
	C414.229095,538.339722 414.839874,533.307861 412.796051,528.713867 
	C410.783539,524.190247 407.266052,523.382751 402.953308,524.278625 
	C397.503143,525.410645 392.067963,524.503723 386.627777,524.282837 
	C384.232178,524.185486 381.892334,524.084412 381.030640,527.417542 
	C386.105957,531.924438 392.350159,535.389526 396.173218,541.339905 
	C398.629639,545.163208 401.792816,546.181763 406.634583,544.294739 
M283.009369,492.664520 
	C291.625488,491.276978 296.290710,484.469635 302.180878,479.047760 
	C292.767578,478.363037 283.366516,469.690155 275.297729,479.985138 
	C273.093048,479.695374 274.177887,477.704498 272.715790,477.188660 
	C271.963898,477.618927 271.084564,478.069580 270.258850,478.603180 
	C265.081146,481.949402 264.928009,484.925934 269.676941,489.056122 
	C273.284668,492.193787 277.492828,493.250336 283.009369,492.664520 
M213.810150,126.094421 
	C220.469757,125.138313 221.196518,119.940681 221.736954,114.768829 
	C222.073715,111.546005 217.469208,105.862251 213.416000,104.364159 
	C208.081970,102.392662 202.613235,102.350403 197.371292,104.483162 
	C188.803650,107.969032 188.580200,110.067818 195.724319,116.130905 
	C195.832565,116.222771 196.036987,116.201279 196.467133,116.285965 
	C196.845840,116.079048 197.461945,115.838112 197.965820,115.451057 
	C200.578629,113.443932 203.401520,112.823174 206.273239,114.642128 
	C209.195267,116.492943 209.651764,119.261826 208.779037,122.510551 
	C207.717926,126.460617 210.425400,126.464722 213.810150,126.094421 
M379.718018,470.464355 
	C381.371002,470.522095 383.205048,470.135956 384.642487,470.722229 
	C388.690521,472.373291 391.260406,470.252380 392.963837,467.333496 
	C398.306366,458.179047 397.145935,452.383362 384.740540,447.936890 
	C383.497467,452.863190 380.355896,454.078308 375.527374,451.648590 
	C374.801575,458.611053 371.984528,465.321320 379.718018,470.464355 
M329.654633,464.140350 
	C332.170502,458.640076 335.138733,453.282745 335.630402,446.684906 
	C331.377380,447.016571 328.871918,449.360626 326.962799,451.981445 
	C320.677917,460.608948 313.738403,468.570862 304.358948,475.207092 
	C307.273224,476.212524 307.366608,480.546112 310.764893,478.907532 
	C317.868683,475.482178 325.948120,473.187439 329.654633,464.140350 
M365.029358,442.613647 
	C357.883972,439.351868 355.437164,440.654144 352.612671,447.008545 
	C350.137970,452.576019 349.432983,456.693268 354.126495,461.779449 
	C356.810150,464.687622 358.518799,465.372711 361.450989,463.684265 
	C367.011292,460.482635 370.355835,455.532867 372.545074,449.204681 
	C368.287872,448.981964 365.110199,447.945740 365.029358,442.613647 
M356.860321,437.905243 
	C360.205505,438.342072 363.564667,439.393616 367.060669,438.064362 
	C363.290375,430.771912 364.378571,428.602570 372.092072,427.623260 
	C371.068176,423.063202 368.010864,420.074036 364.456451,417.537262 
	C360.825562,414.945862 349.464630,420.134277 348.903839,424.566833 
	C348.843781,425.041565 348.788910,425.729553 349.055298,426.000732 
	C352.342712,429.347656 353.307312,434.078430 356.860321,437.905243 
M421.072571,473.618530 
	C425.857422,473.960022 429.925262,470.419281 435.654297,470.820679 
	C431.745544,474.267548 427.164459,474.120972 423.173309,476.125549 
	C436.533691,480.464539 450.599670,474.489410 456.286316,462.136841 
	C448.904205,463.199829 441.705383,464.086395 434.565063,465.313568 
	C429.178223,466.239349 424.680267,468.996552 421.072571,473.618530 
M258.570129,123.720291 
	C257.879303,117.716827 248.269196,113.958076 243.134964,118.034706 
	C240.824066,119.869591 236.437210,120.939339 237.697128,125.342430 
	C239.359406,131.151611 250.672348,137.818024 256.709869,136.871658 
	C254.081879,130.635880 254.248611,129.169678 258.570129,123.720291 
M373.917847,422.554810 
	C374.472473,424.353394 374.351990,426.468567 376.424530,427.909454 
	C377.492157,425.325012 378.850525,423.310425 381.953644,423.757507 
	C384.806122,424.168488 385.249817,427.076721 386.978210,429.099854 
	C388.885406,426.642761 390.712189,424.698486 392.063629,422.466431 
	C395.296417,417.127045 393.913727,413.799988 387.989166,412.007019 
	C386.255646,411.482422 384.470612,411.048645 382.833069,410.301666 
	C378.318726,408.242401 375.969788,409.175568 374.392883,413.992889 
	C373.566223,416.518311 372.981201,419.114624 373.917847,422.554810 
M401.044159,429.440247 
	C396.077576,428.430756 391.312683,428.155273 387.609650,432.747375 
	C393.616272,437.608521 393.628632,438.117981 388.236359,445.129333 
	C389.262543,447.052307 391.234680,447.666565 393.040619,448.406097 
	C400.191864,451.334503 404.345856,448.498932 404.306000,440.853577 
	C404.299164,439.542877 404.346008,438.137390 404.796814,436.936676 
	C406.103241,433.456818 405.008514,431.151886 401.044159,429.440247 
M272.290619,458.078705 
	C272.290619,458.950043 272.290619,459.821381 272.290619,461.902985 
	C274.025726,456.967590 270.552856,451.731964 276.364990,449.675079 
	C271.543243,431.610626 266.903900,426.783661 255.699463,428.215881 
	C256.394409,435.029419 259.836548,440.362030 264.684479,444.870178 
	C268.418274,448.342346 271.482239,452.130157 272.290619,458.078705 
M445.716309,551.457581 
	C447.381073,541.476196 445.553955,532.553101 437.650238,524.414673 
	C436.757324,528.655884 439.612579,531.528442 438.837921,535.362915 
	C435.427582,532.150085 435.982513,527.432983 433.276825,524.269409 
	C428.139923,533.866516 437.120575,549.025330 443.105408,552.548279 
	C443.999756,553.074646 444.955688,553.413879 445.716309,551.457581 
M463.075287,536.502441 
	C466.594208,537.788818 470.038940,539.408936 474.087585,539.229065 
	C468.698334,526.938904 458.357239,515.946045 447.140381,518.118042 
	C450.641327,522.115356 455.963135,523.898743 459.689148,528.937195 
	C455.100677,528.155579 453.056183,524.338318 448.753815,523.868347 
	C452.061401,529.829590 456.794586,533.466064 463.075287,536.502441 
M445.845184,505.209076 
	C455.417938,507.864166 464.355988,507.667694 471.942841,499.676453 
	C461.007935,494.994781 445.630493,495.265930 438.919159,500.314362 
	C442.628998,500.545746 446.037018,500.758331 449.445068,500.970917 
	C449.473755,501.237183 449.502472,501.503479 449.531189,501.769775 
	C447.337708,502.331055 445.144196,502.892365 442.405640,503.593109 
	C443.733032,504.240814 444.469910,504.600372 445.845184,505.209076 
M177.594528,529.189148 
	C170.319214,529.436218 163.842148,531.413635 158.163116,537.673462 
	C169.208313,540.237305 178.986023,542.056458 187.597214,533.696289 
	C184.258957,532.777832 181.211960,534.825989 177.787552,533.735229 
	C180.026306,530.846741 183.582458,531.631714 187.337616,529.548645 
	C183.434158,529.375793 180.959579,529.266235 177.594528,529.189148 
M188.166290,512.244080 
	C183.042816,508.906982 177.962372,505.313385 171.375687,509.010193 
	C175.466263,517.913574 185.912430,523.377930 194.966248,522.152100 
	C192.495804,520.075073 188.519440,520.038452 186.808655,516.587646 
	C189.130737,515.526489 190.684784,518.144714 192.768036,517.103455 
	C191.839645,515.130737 190.231735,513.941711 188.166290,512.244080 
M214.952820,548.629761 
	C214.161530,552.110779 213.090622,555.568420 213.796173,559.252197 
	C221.921570,557.625916 229.078064,547.147766 226.912125,540.417297 
	C225.266968,540.857300 225.085922,543.523315 222.984787,543.407043 
	C222.208633,541.174744 224.744843,539.996033 223.955231,537.705322 
	C219.234604,539.701904 216.888947,543.496033 214.952820,548.629761 
M245.057785,506.080444 
	C238.283218,507.743866 231.452087,508.724030 224.257553,507.711121 
	C227.532684,510.804565 230.013977,514.279114 232.343750,517.879700 
	C233.204147,519.209473 234.386398,519.916260 236.120987,519.784729 
	C240.683258,519.438782 246.594254,510.885315 245.057785,506.080444 
M217.993408,512.890381 
	C220.964233,514.094604 223.324203,516.641846 226.942719,517.229370 
	C222.412323,509.182983 209.312195,502.980774 201.653625,505.385376 
	C209.248260,511.336792 214.039185,521.070435 226.983658,520.412903 
	C222.941071,518.218201 220.025009,516.733887 217.215469,515.069763 
	C215.724716,514.186768 215.808151,514.045898 217.993408,512.890381 
M379.631287,473.509094 
	C371.239441,472.316498 372.616943,464.978363 371.075775,458.682587 
	C368.368683,463.528107 364.174805,465.569397 359.668823,468.894806 
	C367.866882,469.464600 371.786285,474.849609 375.824646,479.950623 
	C378.850494,477.640076 381.104004,475.537842 383.693695,473.590820 
	C382.567169,473.590820 381.440674,473.590820 379.631287,473.509094 
M371.939453,523.934387 
	C368.618317,524.846069 365.934387,523.987244 364.387848,520.823486 
	C363.131866,518.254211 363.215729,515.580505 365.179626,513.345947 
	C369.063568,508.926788 373.010956,511.295532 377.146820,513.949402 
	C376.677948,510.753052 372.655701,510.884979 373.267670,508.021545 
	C369.156281,508.596680 365.559937,509.548523 362.369934,511.657440 
	C361.726776,515.530151 361.069885,519.485474 360.357849,523.772705 
	C363.057617,523.534790 364.445679,525.448669 366.110687,527.757507 
	C368.623932,523.430969 372.925232,529.543030 375.769592,525.405090 
	C378.246826,521.801208 379.114502,518.581726 376.871552,516.491577 
	C376.204620,519.415283 375.484711,522.210083 371.939453,523.934387 
M293.810425,497.439392 
	C302.970581,493.004395 306.363586,488.392883 304.844055,482.256683 
	C297.810486,487.958466 291.696014,495.061127 281.413483,496.315094 
	C285.595551,498.354095 289.239838,498.955383 293.810425,497.439392 
M259.305664,446.671600 
	C259.639282,448.464447 260.336884,450.276489 260.243439,452.046783 
	C259.838867,459.711884 265.396271,463.167816 270.656342,467.785858 
	C270.090332,463.128723 268.020569,459.669403 268.265747,455.488983 
	C268.484344,451.762085 262.902100,446.628540 259.305664,446.671600 
M201.143555,546.746155 
	C207.305832,542.080994 208.573105,540.176270 208.703613,535.303650 
	C206.521362,536.577209 205.387878,539.282043 202.595657,540.126831 
	C202.363342,537.161987 205.069534,536.127197 205.777969,533.622498 
	C199.278915,537.605835 195.108582,542.817871 191.686432,549.709045 
	C195.542511,549.651917 198.029907,548.382263 201.143555,546.746155 
M237.631821,113.368752 
	C233.523941,111.845200 230.659103,115.217705 227.191940,115.856148 
	C225.404846,116.185219 223.929291,115.946709 223.728607,117.908234 
	C223.520905,119.938362 224.791214,121.214035 226.831985,121.743393 
	C230.483688,122.690605 238.107819,119.959320 240.256180,116.842476 
	C241.931854,114.411392 239.758469,114.178528 237.631821,113.368752 
M237.960785,447.279358 
	C237.228119,449.147156 237.395996,450.706604 239.788681,450.749878 
	C244.571716,450.836304 249.112427,452.252502 253.915878,453.504517 
	C252.250534,448.262817 246.468857,443.624390 241.920380,443.505676 
	C239.768845,443.449493 238.483597,444.404205 237.960785,447.279358 
M406.395660,490.170868 
	C411.555603,489.792053 414.919220,495.770050 420.507477,494.267181 
	C412.987396,491.990784 409.042358,484.506683 401.998169,481.279999 
	C400.416412,489.101837 400.805206,489.939941 406.395660,490.170868 
M262.707092,106.171814 
	C259.961304,108.690422 257.215485,111.209038 254.144653,114.025803 
	C260.393280,117.332161 261.744781,108.344330 267.007965,109.421906 
	C268.715332,109.771477 270.222290,107.425339 270.277618,105.040344 
	C267.678986,102.675728 265.343811,102.908775 262.707092,106.171814 
M339.488037,446.429382 
	C337.768005,452.963440 335.603241,459.347351 332.404663,466.019745 
	C341.005920,460.018219 343.855072,452.489166 340.910950,444.177551 
	C340.458435,444.822083 340.108429,445.320618 339.488037,446.429382 
M195.609146,431.103729 
	C195.112671,433.547119 195.574432,435.642792 197.959106,437.274414 
	C199.927826,435.899353 203.855255,436.969757 203.535645,432.631378 
	C203.361694,430.270294 202.914276,427.819977 200.364746,427.024597 
	C197.642609,426.175354 196.716476,428.438232 195.609146,431.103729 
M405.674286,460.251404 
	C406.296234,459.576447 406.676422,458.402863 407.976196,459.105988 
	C408.971680,460.894440 406.803375,462.042511 407.057465,463.703857 
	C412.295929,459.394257 413.494812,456.263428 411.505066,451.750458 
	C408.034149,454.601868 405.198090,457.780273 404.217072,462.298676 
	C404.604187,461.766083 404.991272,461.233490 405.674286,460.251404 
M185.143814,442.216736 
	C186.716629,443.750763 188.322083,445.597351 190.541321,443.288849 
	C191.776978,442.003479 193.283218,440.382721 191.950668,438.486725 
	C190.877289,436.959503 188.966156,436.130096 187.092133,436.654388 
	C184.629288,437.343445 183.597336,439.067352 185.143814,442.216736 
M206.706512,441.512695 
	C206.912369,442.140625 207.223495,442.755188 207.305283,443.398865 
	C207.609268,445.791443 209.181122,445.948944 210.927429,445.328827 
	C212.785873,444.668884 214.880798,443.918823 214.591461,441.333557 
	C214.376358,439.411530 212.977173,438.546387 211.120270,438.431366 
	C209.156372,438.309631 207.496918,438.792236 206.706512,441.512695 
M188.650833,453.116699 
	C188.229492,455.039093 188.268417,457.019409 190.363678,457.751068 
	C192.160202,458.378357 193.491241,456.936737 194.465683,455.564362 
	C196.885315,452.156738 192.835464,451.331757 192.281464,449.069580 
	C190.361069,449.875549 189.693008,451.237213 188.650833,453.116699 
M416.405334,483.795746 
	C419.666901,490.416565 422.801300,492.061096 428.562469,489.954498 
	C424.843231,487.264648 421.056396,485.047180 416.405334,483.795746 
M351.510468,462.642883 
	C347.488159,457.919647 345.967010,458.214722 342.312042,464.740417 
	C345.224731,465.003265 347.981659,465.375610 350.746826,465.453339 
	C352.297546,465.496887 351.886230,464.214417 351.510468,462.642883 
M138.075134,88.552040 
	C140.617905,89.204697 142.274429,88.020592 142.980484,85.746635 
	C143.536087,83.957184 142.388245,82.590515 140.862015,81.761398 
	C139.334122,80.931366 138.007080,81.566750 136.964905,82.788170 
	C135.281769,84.760788 135.378799,86.608879 138.075134,88.552040 
M417.593323,521.604492 
	C415.667633,520.206421 414.142548,521.697266 414.678680,523.007874 
	C416.146484,526.595886 416.981201,530.756653 420.996643,533.852356 
	C421.104736,529.023621 419.945404,525.474976 417.593323,521.604492 
M278.717010,96.047112 
	C277.028412,95.517654 275.033081,94.923332 275.858368,97.863617 
	C276.894165,101.553871 281.542755,102.663681 284.965240,100.185104 
	C283.705719,97.995705 281.293945,97.481255 278.717010,96.047112 
M371.469452,520.710205 
	C372.919403,519.247375 374.184784,517.669495 372.689423,515.588318 
	C371.734283,514.258911 370.275146,513.857910 368.765747,514.602966 
	C367.351135,515.301270 366.323303,516.594177 366.693848,518.152893 
	C367.176666,520.184082 368.378204,521.741272 371.469452,520.710205 
M189.551620,64.865250 
	C190.921555,66.856697 192.699509,67.297012 194.689545,65.947586 
	C195.934982,65.103058 196.055008,63.701981 195.601807,62.341766 
	C195.044525,60.669205 193.725418,60.040882 192.071518,60.245781 
	C189.778931,60.529793 189.045700,62.019707 189.551620,64.865250 
M172.642059,79.679840 
	C170.188538,80.261612 168.818817,81.656387 169.646149,84.266548 
	C170.057129,85.563126 171.198593,86.449158 172.615021,86.510971 
	C174.031128,86.572762 175.206207,85.882912 175.623611,84.460724 
	C176.273193,82.247467 175.516708,80.616455 172.642059,79.679840 
M117.553009,134.230484 
	C118.915321,132.362381 118.468452,130.746246 116.621391,129.646729 
	C115.083771,128.731430 113.422699,128.786270 112.181953,130.323196 
	C111.269440,131.453506 111.083679,132.765198 112.013870,133.964203 
	C113.426132,135.784607 115.118767,136.347031 117.553009,134.230484 
M136.291763,113.285789 
	C133.963211,113.333168 132.519073,114.485199 132.571640,116.838043 
	C132.608185,118.473801 133.801956,119.448029 135.439148,119.675835 
	C137.103714,119.907455 138.304855,119.154053 138.968109,117.659706 
	C139.916336,115.523376 138.814026,114.276863 136.291763,113.285789 
M207.262329,452.504974 
	C204.792572,447.318726 202.767822,452.681824 200.048706,452.221069 
	C201.134613,454.997375 202.198059,456.820526 204.838943,456.559540 
	C206.763199,456.369354 207.765717,455.168579 207.262329,452.504974 
M382.454193,432.618225 
	C382.744293,432.023590 383.114624,431.453857 383.308594,430.829315 
	C383.785950,429.292145 383.684540,427.794342 382.218719,426.848297 
	C380.953003,426.031372 380.006042,426.932373 379.269745,427.853455 
	C378.011688,429.427277 377.873505,431.309479 378.739960,432.997009 
	C379.551575,434.577728 380.881592,434.180908 382.454193,432.618225 
M191.923431,131.367508 
	C191.741776,130.422577 191.560135,129.477646 191.373627,128.507370 
	C189.826630,128.166565 188.386276,128.461945 187.179031,129.469955 
	C185.840805,130.587357 184.698181,131.965942 186.017166,133.711884 
	C187.091476,135.133942 188.670929,134.999298 190.018723,134.057785 
	C190.793015,133.516891 191.323029,132.626358 191.923431,131.367508 
M189.270615,122.894386 
	C190.531021,123.220352 190.943817,125.943161 193.197586,123.780586 
	C194.691986,122.346657 194.612045,121.445641 193.763504,120.074402 
	C192.952957,118.764603 191.890854,117.409920 190.214096,117.980667 
	C188.007492,118.731758 187.845306,120.487587 189.270615,122.894386 
M202.762939,444.773071 
	C200.567581,443.530640 198.372208,442.288239 195.563171,440.698517 
	C196.783768,442.834290 195.258514,444.027039 195.395706,445.738922 
	C197.823425,445.417145 200.376953,450.096802 202.762939,444.773071 
M199.642365,135.970963 
	C198.686279,132.768219 195.899841,136.956924 194.819168,133.899506 
	C194.112823,137.300476 193.925049,139.994614 197.186142,140.534988 
	C200.115616,141.020401 199.993454,138.616241 199.642365,135.970963 
M396.531494,474.987854 
	C398.927490,472.667053 401.646118,470.446625 399.324738,466.320587 
	C397.741882,468.380341 396.436371,470.237488 394.963562,471.950867 
	C393.504059,473.648743 393.985687,474.514709 396.531494,474.987854 
M386.937286,441.585785 
	C388.539948,440.860565 389.971222,439.914185 389.294647,437.873260 
	C388.881836,436.627899 387.654419,436.292206 386.413666,436.501831 
	C384.798370,436.774689 383.611328,437.743317 383.405151,439.366394 
	C383.146179,441.404877 384.544373,441.854645 386.937286,441.585785 
M257.937866,83.894836 
	C260.704498,82.100174 262.344910,79.847176 261.310699,76.109299 
	C258.144073,77.503059 256.925293,80.014130 255.883713,82.596169 
	C255.372192,83.864220 256.047913,84.421028 257.937866,83.894836 
M287.159729,87.233994 
	C287.842499,86.579247 288.230194,85.545654 287.146057,85.343300 
	C284.306122,84.813232 281.340851,84.376770 278.651917,87.002327 
	C281.423035,89.346886 283.995361,88.806465 287.159729,87.233994 
M367.822266,432.143555 
	C367.751617,435.235596 369.309357,436.762726 372.340881,436.440369 
	C373.604279,436.306030 374.593323,434.985657 373.869354,433.892975 
	C372.595673,431.970642 371.299652,429.171753 367.822266,432.143555 
M368.455322,444.958679 
	C369.869110,447.052460 371.458252,446.838470 372.887604,445.095184 
	C373.917847,443.838593 373.578247,442.298492 372.140747,441.792053 
	C370.089813,441.069489 368.608765,441.994049 368.455322,444.958679 
M271.510284,80.483986 
	C269.729614,81.823349 267.826294,83.076859 267.500519,86.055046 
	C270.694916,85.464912 272.807526,84.079796 273.805481,81.451012 
	C274.529816,79.543022 273.392059,79.544334 271.510284,80.483986 
M381.545624,447.037140 
	C381.075958,445.677765 380.411560,444.508911 378.710541,445.276337 
	C377.712921,445.726410 377.316162,446.671204 377.679565,447.756744 
	C378.050385,448.864410 378.548523,450.068817 379.890076,450.110413 
	C381.475067,450.159546 381.577484,448.860992 381.545624,447.037140 
M239.790482,440.725372 
	C241.964233,437.215729 238.230316,436.947021 236.837982,434.509613 
	C235.762405,437.975311 236.716812,439.668091 239.790482,440.725372 
z"/>
<path fill="#000000" opacity="1.000000" stroke="none" 
	d="
M190.383133,178.410553 
	C190.005203,174.046814 190.097580,170.195526 193.078583,166.969193 
	C194.477005,168.245895 193.624802,169.355499 193.364029,170.385269 
	C191.553131,177.536179 194.639709,186.382645 200.430786,190.767365 
	C202.168152,192.082809 203.899338,192.452423 206.009460,191.814850 
	C211.633194,190.115662 216.188110,187.093811 219.246338,181.940491 
	C220.019714,180.637238 220.173721,178.630814 224.079178,178.302231 
	C218.292557,185.140457 220.597275,194.597397 213.035187,199.615326 
	C208.342789,202.729019 203.541489,205.834717 197.653763,203.119095 
	C197.146118,201.527100 198.136032,201.000534 198.820343,200.341629 
	C201.398788,197.858810 201.422455,195.533234 198.517975,193.262268 
	C193.813110,189.583603 191.516006,184.539200 190.383133,178.410553 
z"/>
<path fill="#000000" opacity="1.000000" stroke="none" 
	d="
M276.196960,131.781586 
	C274.355347,131.148743 273.345184,136.957214 271.174377,132.230103 
	C270.444183,129.631622 268.127441,129.697601 265.509735,129.030350 
	C268.794525,126.624062 270.341888,124.280769 267.506470,119.791595 
	C271.807312,122.346344 274.890259,123.928200 278.399872,120.892166 
	C277.006287,124.812256 279.033569,127.312691 281.283661,129.643021 
	C279.946838,131.650772 277.435455,129.633881 276.196960,131.781586 
z"/>
</svg>