<svg version="1.1" id="Layer_1" xmlns="http://www.w3.org/2000/svg" xmlns:xlink="http://www.w3.org/1999/xlink" x="0px" y="0px"
	 width="100%" viewBox="0 0 352 352" enable-background="new 0 0 352 352" xml:space="preserve">
<path fill="#000000" opacity="1.000000" stroke="none" 
	d="
M303.882996,163.287018 
	C328.326202,224.901352 298.503418,299.857391 236.875595,327.444733 
	C192.779846,347.183960 150.258926,341.649872 110.967430,314.443237 
	C77.464058,291.244476 57.372025,258.560028 50.836185,218.484818 
	C41.369602,160.439392 59.215992,111.191940 101.804779,70.867516 
	C115.940514,57.483353 132.392441,47.910133 151.288391,42.872078 
	C154.251251,42.082111 155.734573,40.595081 156.678070,37.781288 
	C160.163330,27.387180 165.571075,18.075665 173.215576,10.168976 
	C178.846207,4.345247 182.553528,4.510705 187.616180,10.815304 
	C191.916260,16.170237 194.876831,22.356262 198.034332,28.409445 
	C199.019379,30.297846 200.074615,32.149632 201.311142,34.407978 
	C208.948257,29.488155 216.149139,24.778954 223.426437,20.190948 
	C227.086060,17.883730 230.869202,15.769968 234.627289,13.622599 
	C236.249313,12.695768 238.094818,11.859587 239.768021,13.177360 
	C241.360458,14.431545 241.193771,16.369045 240.962921,18.263527 
	C239.611938,29.350103 236.578262,40.070770 233.848892,50.850697 
	C233.091217,53.843155 233.451538,56.217930 235.191162,58.806938 
	C241.739883,68.553116 244.806610,79.133194 242.549622,90.984955 
	C241.658752,95.663101 242.896362,100.240265 244.456848,104.660316 
	C245.141922,106.600792 246.293930,108.085846 248.557404,108.604095 
	C266.427979,112.695786 279.231628,123.977806 289.917908,138.117203 
	C295.668854,145.726517 300.146851,154.092743 303.882996,163.287018 
M251.553726,315.047760 
	C260.941040,308.878479 269.532593,301.731567 276.572937,292.979248 
	C309.402802,252.166214 319.162750,207.566711 297.423706,158.401428 
	C289.132172,139.649170 276.285065,124.558563 257.520264,115.238312 
	C254.934830,113.954163 252.286774,112.626381 248.803070,112.660690 
	C250.185822,116.663406 252.569077,119.464317 254.451965,122.548302 
	C257.305756,127.222504 256.855896,129.104446 252.053253,131.753265 
	C240.729141,137.998917 229.228378,138.070770 217.584717,132.589279 
	C210.830643,129.409668 204.517593,125.278549 196.985519,123.798195 
	C190.647690,122.552544 185.421860,124.336166 181.081390,128.787643 
	C170.619644,139.516953 173.478577,157.433029 184.514374,164.314804 
	C209.687973,180.012680 220.209366,206.883591 213.234344,233.534912 
	C207.294006,256.232819 191.514542,270.730865 171.574951,281.425262 
	C170.447784,282.029816 169.150452,282.770813 168.043060,281.123962 
	C168.097321,278.788239 170.184128,278.405060 171.679642,277.575043 
	C177.089462,274.572632 182.231155,271.212219 186.757782,266.960480 
	C190.156708,263.767944 192.048599,259.943939 192.812088,255.262512 
	C195.375366,239.545685 191.332047,225.288132 183.873764,211.663177 
	C172.865112,191.552292 153.976456,182.381546 131.671997,186.386230 
	C114.090805,189.542862 99.360695,205.307556 97.129219,223.227371 
	C96.910072,224.987198 97.314819,227.285904 94.614700,228.346176 
	C92.975624,224.956070 93.454346,221.689484 94.157616,218.535568 
	C100.795036,188.769104 136.327103,172.424667 163.310349,186.718658 
	C183.810104,197.578110 193.137115,215.663559 196.390625,237.774368 
	C197.306992,244.001892 197.091003,250.180695 196.134171,257.679901 
	C197.752563,255.897461 198.429169,255.225357 199.023483,254.487000 
	C213.757584,236.181229 215.463196,209.819199 203.499710,188.878952 
	C196.081741,175.894958 184.469421,167.728714 171.901733,160.589767 
	C162.357681,155.168381 152.141434,150.845612 143.714813,143.611465 
	C141.489471,141.701019 138.373444,140.170425 138.476791,135.073135 
	C144.893417,138.316147 148.863007,143.566589 154.240112,146.738846 
	C159.958221,150.112259 165.683212,153.409821 172.293716,156.257828 
	C171.969711,154.276260 171.860275,152.814911 171.481720,151.426971 
	C169.718277,144.961197 170.970657,138.855438 173.755234,133.000916 
	C178.590393,122.835007 187.173111,118.656387 198.307770,120.555901 
	C205.724075,121.821083 211.916870,125.843384 218.499207,128.988831 
	C223.922531,131.580429 229.421997,133.535904 236.494156,132.726700 
	C221.506332,124.903008 209.643372,114.107803 196.757263,104.735046 
	C192.826965,101.876320 188.586716,99.536690 184.048676,97.855087 
	C171.751816,93.298393 160.352631,94.658493 149.621719,103.433731 
	C154.154709,106.373802 158.666000,108.661461 162.069672,112.246872 
	C165.506149,115.866821 171.191055,116.291542 173.871170,120.984444 
	C168.451050,121.533440 164.563354,118.441566 160.659195,115.604561 
	C155.150269,111.601433 150.067688,106.993172 143.254654,105.085701 
	C140.125046,104.209503 139.411514,101.705238 140.144775,98.700363 
	C141.630920,92.610374 144.378616,87.115181 148.317978,82.285851 
	C151.769226,78.054886 155.492325,74.045670 159.415344,69.573738 
	C153.418854,63.044415 155.050842,54.684071 154.384491,46.930283 
	C151.182526,46.012108 148.750488,47.303570 146.291580,48.135517 
	C128.913330,54.015232 113.859024,63.829170 101.063538,76.731079 
	C60.268764,117.865143 43.913982,167.059326 55.715157,224.119202 
	C63.212353,260.368927 82.613022,289.811249 113.049881,311.368652 
	C155.671768,341.556366 207.589096,342.984711 251.553726,315.047760 
M238.593369,75.008965 
	C232.845779,57.693020 221.816299,45.693729 204.053360,40.052055 
	C203.827942,43.631493 207.548355,46.278515 205.165741,49.735828 
	C202.503326,49.072803 202.201141,46.877052 201.426086,45.152020 
	C196.652512,34.527390 192.244125,23.714548 185.328018,14.209842 
	C181.756699,9.301848 179.585526,9.016713 175.396530,13.432126 
	C166.973633,22.310284 161.044571,32.752506 158.635803,44.725956 
	C157.121872,52.251392 157.173203,60.138466 162.259338,66.748077 
	C164.523148,69.690002 164.053680,71.483963 161.370621,73.802940 
	C154.632492,79.626732 149.081116,86.458603 145.420197,94.668953 
	C144.442902,96.860786 143.207275,99.161133 145.596298,101.613182 
	C150.771851,98.365440 155.431549,94.466942 161.339081,92.928436 
	C174.579819,89.480125 186.400162,93.133217 197.223907,100.603592 
	C203.928665,105.231110 210.220154,110.456123 216.715195,115.389175 
	C224.012939,120.931892 231.439957,126.289001 239.742538,130.265182 
	C241.423477,131.070206 244.348358,132.577286 244.442215,129.511627 
	C244.559998,125.664360 246.579620,124.012817 249.662277,122.524498 
	C248.413818,120.320526 247.385040,118.434700 246.292175,116.586800 
	C240.827469,107.346741 237.255615,97.753929 239.491180,86.682388 
	C240.206650,83.139175 239.950760,79.373878 238.593369,75.008965 
M236.971268,20.426203 
	C237.130478,19.353971 237.999176,18.228718 236.278748,16.887321 
	C226.231400,22.648783 216.098785,28.601624 205.900162,36.702736 
	C215.663666,39.416359 222.609024,44.722706 229.968094,51.097706 
	C232.554031,40.460773 235.703552,31.062752 236.971268,20.426203 
z"/>
<path fill="#000000" opacity="1.000000" stroke="none" 
	d="
M280.485779,204.677261 
	C283.003662,197.802231 286.495789,192.068756 291.253937,187.132401 
	C292.361237,187.987839 292.832245,188.175018 292.842651,188.384995 
	C293.513397,201.949432 292.711761,215.062012 281.767487,225.154434 
	C277.272308,229.299744 274.310425,234.404755 272.299774,241.782959 
	C278.225861,235.728653 283.849396,231.532654 290.667572,229.272614 
	C292.134491,228.786377 293.769257,227.239716 295.171631,229.058258 
	C296.409760,230.663834 295.141663,232.218002 294.376709,233.664215 
	C289.842957,242.235504 283.640076,249.083649 273.862061,251.360855 
	C267.881348,252.753693 263.881287,256.272858 260.443359,260.957520 
	C252.109207,272.314087 242.928055,282.787323 230.239182,289.563904 
	C226.184280,291.729462 225.033020,291.976135 222.266525,290.842010 
	C222.123596,289.018402 223.658127,288.798096 224.800827,288.272766 
	C232.309631,284.820648 238.724075,279.830383 244.761383,274.272919 
	C248.769775,270.583099 250.738571,266.431061 248.789230,260.915985 
	C246.154037,253.460602 244.930115,245.778870 245.667175,237.849411 
	C245.759460,236.856644 245.653961,235.797745 245.969849,234.883392 
	C246.631577,232.967911 246.259308,230.076111 249.191788,229.903275 
	C251.798080,229.749695 252.654388,232.136353 253.607346,234.062958 
	C257.960052,242.862762 259.798401,251.902176 255.944748,261.476166 
	C259.949219,256.244568 263.679626,250.972519 266.713043,245.236679 
	C272.823486,233.682602 271.129517,227.505920 259.959442,220.791214 
	C251.530563,215.724335 246.006256,206.415665 245.567612,196.540497 
	C255.314819,195.042023 266.804993,207.091049 272.518738,225.029755 
	C273.511230,212.689423 272.942596,200.897400 268.827759,189.386475 
	C267.265350,185.015762 265.024323,182.764816 260.088593,183.308395 
	C254.975723,183.871475 250.138397,182.418564 245.872284,179.552780 
	C242.075485,177.002228 241.895081,174.562698 245.062317,171.229858 
	C245.797379,170.456375 246.199432,169.815002 246.216507,168.686874 
	C246.313385,162.287033 246.646469,161.989105 252.894257,161.967514 
	C253.043076,158.541855 251.590164,155.161819 252.611816,151.687439 
	C253.835648,147.525497 256.235382,146.670746 259.494690,149.554840 
	C262.456665,152.175781 263.495422,156.006744 265.193756,159.345383 
	C266.941681,159.913605 267.044067,158.184494 267.899506,157.606339 
	C269.159363,156.754883 270.805420,155.338913 271.897430,155.981857 
	C275.706055,158.224167 280.154816,160.297455 282.584381,163.702225 
	C284.949463,167.016632 283.101440,171.449417 280.238861,174.660706 
	C278.139435,177.015869 276.058807,179.434418 273.050568,180.743561 
	C270.388824,181.901917 269.882080,183.714355 271.000702,186.404068 
	C275.561279,197.370041 276.851196,208.868805 276.144196,222.022018 
	C277.961700,215.529404 278.127533,210.019760 280.485779,204.677261 
M261.260193,208.254288 
	C258.030212,205.034729 254.605972,202.146515 249.704727,201.092407 
	C252.595428,211.388092 258.239349,217.531494 267.542694,220.610062 
	C266.962280,215.874695 264.577606,212.219879 261.260193,208.254288 
M250.321411,255.016983 
	C250.938370,256.739288 251.555313,258.461578 252.381424,260.767761 
	C256.212402,250.905212 255.074203,241.131912 249.671219,235.273972 
	C246.958282,241.771790 248.815994,248.010895 250.321411,255.016983 
M283.721771,218.009201 
	C288.468719,211.582520 289.394257,204.207840 289.604492,195.987839 
	C283.763428,201.612366 279.430206,214.843536 281.244537,220.807953 
	C281.987213,219.996857 282.652557,219.270218 283.721771,218.009201 
M271.439087,171.798096 
	C272.166412,169.265900 273.052948,166.765228 273.562805,164.189972 
	C273.880615,162.584564 273.780609,160.642426 271.791290,160.038559 
	C270.026062,159.502747 269.125000,161.045151 268.342987,162.286041 
	C265.181152,167.303207 265.694824,172.406219 267.920776,178.470184 
	C269.270569,175.917801 270.184631,174.189377 271.439087,171.798096 
M279.298126,245.833572 
	C284.296448,242.949844 287.303802,238.363373 290.717194,232.968292 
	C282.213928,236.081528 276.884491,241.503250 272.735382,248.492722 
	C274.717407,247.726730 276.699463,246.960739 279.298126,245.833572 
M262.170013,174.179596 
	C259.774963,170.734818 256.974731,167.751678 252.954834,166.186646 
	C251.888031,165.771317 250.704330,165.150864 249.826370,166.418549 
	C249.005585,167.603714 249.725739,168.595612 250.502319,169.520264 
	C254.144958,173.857407 258.887848,176.491547 264.621796,179.068604 
	C263.688324,177.105499 263.123169,175.916977 262.170013,174.179596 
M255.801102,158.693558 
	C256.998566,162.325180 258.000885,166.109070 262.625946,167.660721 
	C262.838226,161.241074 261.155182,156.138916 256.628387,151.760727 
	C254.779495,154.076477 255.451050,156.053528 255.801102,158.693558 
M279.605164,169.364212 
	C279.837067,167.727310 281.311188,165.836166 278.286896,164.540390 
	C275.505646,167.684036 275.347473,171.942444 273.156799,175.893600 
	C277.027313,175.098114 278.152863,172.509720 279.605164,169.364212 
M250.285217,178.379120 
	C252.931854,179.136505 255.578476,179.893890 258.225098,180.651276 
	C254.556564,178.448273 252.136353,173.717743 246.946350,174.411819 
	C246.779404,176.951157 248.480392,177.266830 250.285217,178.379120 
z"/>
<path fill="#000000" opacity="1.000000" stroke="none" 
	d="
M113.908348,281.281036 
	C112.965630,281.293121 112.461113,281.337921 111.967010,281.285187 
	C108.128235,280.875519 103.915146,280.685913 102.838966,275.988678 
	C101.767235,271.310883 106.100563,270.572113 109.277893,268.891418 
	C107.527977,266.020233 105.722359,263.405609 105.156967,260.244263 
	C104.807602,258.290802 104.011955,256.160034 105.674225,254.567780 
	C107.369644,252.943787 109.443947,253.817688 111.314796,254.515869 
	C113.303093,255.257904 115.243439,256.128418 117.298058,256.981567 
	C119.034760,253.684494 119.524002,248.323959 123.895912,249.093277 
	C130.496780,250.254807 128.540848,257.228973 130.118027,261.892548 
	C130.786865,261.696808 131.268173,261.629364 131.679886,261.423096 
	C133.774384,260.373627 135.760345,257.503174 138.239655,259.888184 
	C140.392776,261.959381 139.455658,264.850891 138.509003,267.398163 
	C136.873962,271.797760 133.140213,274.438385 129.382507,277.694366 
	C135.832504,287.002899 145.004974,292.329468 154.973923,296.927734 
	C153.127457,293.495117 151.288681,290.058380 149.432526,286.631042 
	C147.240967,282.584351 146.690018,278.120270 146.100494,273.663940 
	C145.895676,272.115753 145.862915,270.520874 147.482468,269.742859 
	C149.104431,268.963654 150.377182,270.055542 151.463303,271.090118 
	C156.646744,276.027405 160.270844,281.754059 161.540695,289.010315 
	C164.016296,303.156128 170.189087,308.907471 184.879089,311.081879 
	C179.856232,306.135956 175.963760,300.854706 175.238129,293.855591 
	C175.026657,291.815735 174.791000,289.625854 176.851273,288.486816 
	C179.293625,287.136475 180.486221,289.392975 181.662628,290.861053 
	C184.477356,294.373566 186.947342,298.034332 187.844009,302.658905 
	C189.638260,311.912659 192.777023,314.342438 202.316803,314.720459 
	C204.330139,314.800232 206.662872,313.822662 208.516632,316.227631 
	C206.633942,319.422028 203.575500,318.310608 201.103394,317.995636 
	C196.000992,317.345581 190.874527,316.545990 185.912628,315.226379 
	C180.927567,313.900635 176.419189,314.720917 171.839249,316.589630 
	C165.321503,319.249023 158.681564,321.357788 151.463577,320.325378 
	C148.523514,319.904816 145.543228,319.672333 142.785797,316.772614 
	C150.257263,311.035767 158.213943,308.061127 167.743698,308.776276 
	C159.881668,303.729828 151.952972,301.718414 142.860397,303.948212 
	C132.166260,306.570801 123.142929,302.613770 114.019859,295.033691 
	C122.265770,291.058044 129.975372,293.321381 138.080887,292.616058 
	C133.794220,288.133820 129.953629,283.964966 125.926758,279.984558 
	C124.366135,278.441925 122.477730,279.719269 120.727188,280.102753 
	C118.617996,280.564758 116.478020,280.886230 113.908348,281.281036 
M119.685654,270.603455 
	C120.146133,270.572876 121.010300,270.538513 121.010056,270.512177 
	C120.958656,264.985260 113.996323,258.210419 108.325569,258.364075 
	C109.244087,264.873505 112.962776,268.717072 119.685654,270.603455 
M156.150757,282.463776 
	C154.675735,279.806030 153.191162,277.157623 149.696182,275.503662 
	C150.581741,283.477264 153.374176,289.696655 159.201492,295.147003 
	C158.812424,290.586670 158.422501,286.690216 156.150757,282.463776 
M156.789398,313.074097 
	C154.628036,314.085938 151.951172,314.075745 150.196487,316.192108 
	C155.414856,318.882568 164.320160,317.308411 170.651077,312.490509 
	C166.028030,312.157623 161.792816,311.696503 156.789398,313.074097 
M142.924652,300.446869 
	C143.951248,300.068939 145.069107,299.447876 143.310776,298.739563 
	C137.004150,296.199127 130.494370,295.274261 122.849495,296.645081 
	C129.438690,300.705017 135.433731,302.845825 142.924652,300.446869 
M126.367294,265.581268 
	C126.356865,261.274689 127.709778,256.747467 124.501068,252.857147 
	C120.437958,255.907715 120.188400,264.672943 123.977890,267.037781 
	C124.842667,267.577484 125.490517,266.800018 126.367294,265.581268 
M120.513855,275.233002 
	C112.450607,271.166016 109.901573,271.182312 106.651169,275.321594 
	C110.053459,278.687836 115.614357,278.849701 120.513855,275.233002 
M133.081528,264.801300 
	C131.674988,267.036865 129.537674,268.972321 129.744232,272.512695 
	C134.083633,270.331055 135.890305,267.228058 136.371475,263.084442 
	C134.800949,262.736725 134.233536,263.688232 133.081528,264.801300 
M178.932236,295.676392 
	C179.671997,299.229889 180.863037,302.492889 184.726776,304.701630 
	C184.401825,300.620758 183.054413,297.534363 180.637695,294.924683 
	C180.122040,294.367859 179.171051,292.999939 178.932236,295.676392 
z"/>
<path fill="#000000" opacity="1.000000" stroke="none" 
	d="
M122.286865,73.871918 
	C128.022141,72.091049 130.256577,74.032837 129.064713,79.469963 
	C127.951813,84.546822 125.202835,88.732018 120.976990,91.710281 
	C115.870483,95.309204 113.211060,100.557434 109.893623,106.642944 
	C114.665833,102.982704 118.784309,100.250061 124.133118,100.615150 
	C125.663704,100.719620 127.285751,100.767105 127.934372,102.425873 
	C128.568985,104.048790 127.544479,105.300819 126.485809,106.409370 
	C122.511009,110.571426 117.134865,111.293930 111.883377,112.117851 
	C108.876869,112.589546 106.540123,113.691895 104.899460,116.600525 
	C109.248085,120.209213 110.305511,124.146698 105.993599,128.468582 
	C105.767952,128.694763 105.616623,129.019211 105.497505,129.324036 
	C101.954353,138.390244 101.292221,138.707321 92.340866,135.051910 
	C89.161522,146.012466 89.911545,156.937927 91.410851,168.027054 
	C94.453186,155.803345 101.251228,147.240051 113.607597,143.550323 
	C115.314804,146.530167 113.741890,148.563354 112.821732,150.566116 
	C110.284042,156.089508 106.810165,161.031693 101.928307,164.673981 
	C91.009148,172.820618 92.118713,179.575211 96.320930,190.023972 
	C96.878021,191.409164 97.533340,192.757767 98.023735,194.164948 
	C98.157654,194.549225 97.856873,195.084991 97.717125,195.728302 
	C95.244781,196.219315 94.608780,194.260544 93.805161,192.798187 
	C92.190773,189.860397 91.144402,186.678421 90.647560,183.371338 
	C89.688995,176.990982 86.810287,171.849014 81.712646,167.785095 
	C74.909630,162.361649 72.741402,154.402939 70.709137,146.449341 
	C70.503914,145.646118 70.654320,144.791702 71.844933,143.772888 
	C77.571518,145.105881 82.248032,148.438034 86.316887,154.545242 
	C86.976410,147.854324 87.531761,142.220184 88.086082,136.596542 
	C86.622131,135.319870 85.151619,136.434891 83.755112,136.365875 
	C79.185753,136.140015 76.624359,132.722000 78.556160,128.582901 
	C79.638199,126.264526 79.149620,124.686111 78.292793,122.570091 
	C76.262848,117.556915 78.578117,114.119804 83.967415,113.683006 
	C85.446846,113.563103 87.002640,113.865799 87.892807,112.187592 
	C89.322281,109.492653 91.382828,107.392426 94.625618,108.243149 
	C97.761871,109.065918 98.525314,112.051590 99.201233,114.858688 
	C99.344543,115.453865 99.525108,116.040070 99.716751,116.732452 
	C104.816711,112.791336 105.506783,110.463959 102.989899,105.261711 
	C100.384521,99.876564 98.764359,94.410301 100.566833,88.401100 
	C101.004456,86.942123 101.263939,85.330727 103.029678,85.003006 
	C104.982834,84.640488 106.025406,86.051010 106.988777,87.469345 
	C109.178825,90.693680 109.401711,94.586235 110.541916,98.555283 
	C113.230423,95.130447 114.272621,91.521484 114.583633,87.680046 
	C115.040230,82.040367 117.463051,77.512024 122.286865,73.871918 
M78.474998,158.936890 
	C80.839409,162.141403 82.926994,165.667923 87.659454,167.081177 
	C86.072601,159.085281 82.598389,153.155121 75.469635,148.656448 
	C75.332527,152.741791 76.947334,155.461548 78.474998,158.936890 
M106.462814,155.019180 
	C107.570488,153.065094 108.678169,151.111023 110.440025,148.002869 
	C103.738266,152.549377 98.570312,156.579666 96.424538,164.591125 
	C100.699791,161.696365 103.688156,158.986237 106.462814,155.019180 
M124.369316,77.497864 
	C119.439964,80.218628 117.297951,84.423058 118.274948,90.007622 
	C121.818451,86.414139 126.009949,83.556465 124.369316,77.497864 
M80.920341,120.749084 
	C82.584076,123.771774 85.544113,124.572548 88.859810,125.787163 
	C88.974709,122.605873 88.098419,120.249245 86.235710,118.623360 
	C83.979492,116.653976 81.456833,115.682274 80.920341,120.749084 
M95.772125,117.148964 
	C95.736885,114.897903 96.175934,111.633385 92.993431,112.027443 
	C90.107880,112.384743 90.012703,115.654381 90.642616,118.114120 
	C91.024155,119.604012 90.916832,121.450676 92.626343,122.692032 
	C94.291924,121.496017 95.195923,119.841064 95.772125,117.148964 
M104.210388,125.064156 
	C105.985977,123.353165 105.820465,121.499367 103.577446,120.862312 
	C99.368622,119.666939 97.543297,122.671616 95.781433,125.938042 
	C98.737183,127.273354 101.195107,126.606003 104.210388,125.064156 
M103.475021,97.738266 
	C104.090965,99.482597 104.320923,101.449921 106.644897,103.338310 
	C106.601921,98.220345 107.644363,93.863541 103.968422,89.747467 
	C102.828453,92.441711 103.342522,94.721916 103.475021,97.738266 
M81.451263,130.525223 
	C81.393303,132.421021 82.569603,133.502640 84.198959,133.309875 
	C86.121681,133.082397 88.127937,132.375626 88.217247,129.623459 
	C85.928345,128.074326 83.755653,127.474815 81.451263,130.525223 
M96.769958,133.155548 
	C98.330971,133.824295 99.912231,134.359879 101.182777,132.686478 
	C101.781036,131.898514 101.485092,130.959976 100.716042,130.584595 
	C99.123741,129.807404 97.353195,128.799805 95.646454,130.047470 
	C94.209381,131.098022 95.406548,132.000946 96.769958,133.155548 
M120.661507,106.499588 
	C121.490364,105.769920 122.788208,105.478455 123.002113,103.616905 
	C119.644424,104.374023 116.667648,105.300903 113.249588,108.812241 
	C116.397842,107.874184 118.227951,107.328873 120.661507,106.499588 
z"/>
<path fill="#000000" opacity="1.000000" stroke="none" 
	d="
M170.759766,37.274178 
	C171.485809,32.178455 172.769638,27.716021 175.403961,23.769806 
	C177.993591,19.890547 180.254196,19.812748 182.427353,23.712683 
	C187.348679,32.544495 190.264999,42.016495 190.733307,52.163975 
	C190.792511,53.446957 190.704361,54.866013 188.595154,55.581337 
	C186.594742,50.691757 187.306137,45.239693 185.528488,40.373287 
	C183.734726,35.462776 182.790634,30.157976 178.781174,25.646706 
	C173.988007,32.183502 173.279083,38.977173 175.118011,46.177944 
	C176.195618,50.397579 178.412460,54.146496 180.502213,57.935368 
	C181.717346,60.138481 181.848602,62.434479 180.202103,64.481354 
	C178.710709,66.335457 176.933243,67.754814 174.368393,66.795013 
	C174.235275,66.190231 173.999863,65.697365 174.120331,65.584549 
	C178.193344,61.770477 176.881729,58.347466 174.313400,54.055534 
	C171.422333,49.224308 170.303375,43.523598 170.759766,37.274178 
z"/>
<path fill="#000000" opacity="1.000000" stroke="none" 
	d="
M221.950287,97.916359 
	C222.877747,99.296982 223.688919,100.390373 222.384521,103.039963 
	C215.820801,97.300972 209.526733,91.327667 200.685150,89.669373 
	C205.985367,86.335403 215.135712,90.208618 221.950287,97.916359 
z"/>
</svg>